<svg width="33" height="33" viewBox="0 0 33 33" fill="none" xmlns="http://www.w3.org/2000/svg">
<mask id="mask0_673_10965" style="mask-type:luminance" maskUnits="userSpaceOnUse" x="0" y="0" width="33" height="33">
<path d="M0.372559 0.5H32.3726V32.5H0.372559V0.5Z" fill="white"/>
</mask>
<g mask="url(#mask0_673_10965)">
<path fill-rule="evenodd" clip-rule="evenodd" d="M0.372559 16.5893C0.372559 24.5453 6.14989 31.1587 13.7059 32.5V20.944H9.70589V16.5H13.7059V12.944C13.7059 8.944 16.2832 6.72267 19.9286 6.72267C21.0832 6.72267 22.3286 6.9 23.4832 7.07733V11.1667H21.4392C19.4832 11.1667 19.0392 12.144 19.0392 13.3893V16.5H23.3059L22.5952 20.944H19.0392V32.5C26.5952 31.1587 32.3726 24.5453 32.3726 16.5893C32.3726 7.74 25.1726 0.5 16.3726 0.5C7.57256 0.5 0.372559 7.74 0.372559 16.5893Z" fill="#8A8888"/>
</g>
</svg>
