<svg width="35" height="35" viewBox="0 0 35 35" fill="none" xmlns="http://www.w3.org/2000/svg">
<path d="M17.3673 1.50518C8.6555 1.50518 1.3804 8.79334 1.3804 17.4973C1.38375 20.6481 2.31501 23.7281 4.05795 26.3529L1.37256 33.4973L10.3561 31.8725C12.5409 32.9337 14.9385 33.484 17.3673 33.4817C26.087 33.4869 33.3726 26.2092 33.3726 17.5C33.3726 8.80118 26.0844 1.49995 17.3673 1.50518Z" stroke="#8A8888" stroke-width="2.55079" stroke-linecap="round" stroke-linejoin="round"/>
<path d="M18.2476 24.5449C20.4132 25.932 22.6675 24.9211 24.2401 23.7482C25.3242 22.9384 25.2902 21.3789 24.3629 20.3915L22.5343 18.4453C21.8421 19.1376 20.4889 19.4824 19.5511 19.1951C17.5319 18.5812 16.6855 17.5311 15.9985 16.46C15.2122 15.2323 16.103 13.3985 16.7952 12.7062L14.7577 10.8463C13.8982 10.0627 12.5947 9.93204 11.845 10.8202C10.3613 12.5782 9.44174 15.2506 10.531 16.9511C12.4902 20.0049 15.1939 22.5858 18.2476 24.5449Z" stroke="#8A8888" stroke-width="2.55079" stroke-linecap="round" stroke-linejoin="round"/>
</svg>
