<svg width="33" height="33" viewBox="0 0 33 33" fill="none" xmlns="http://www.w3.org/2000/svg">
<path d="M16.3683 8.29055C11.8253 8.29055 8.15886 11.957 8.15886 16.4999C8.15886 21.0429 11.8253 24.7093 16.3683 24.7093C20.9112 24.7093 24.5777 21.0429 24.5777 16.4999C24.5777 11.957 20.9112 8.29055 16.3683 8.29055ZM16.3683 21.8355C13.4303 21.8355 11.0328 19.4379 11.0328 16.4999C11.0328 13.562 13.4303 11.1644 16.3683 11.1644C19.3062 11.1644 21.7038 13.562 21.7038 16.4999C21.7038 19.4379 19.3062 21.8355 16.3683 21.8355ZM24.9139 6.04107C23.8532 6.04107 22.9966 6.89764 22.9966 7.95833C22.9966 9.01903 23.8532 9.87559 24.9139 9.87559C25.9746 9.87559 26.8311 9.02303 26.8311 7.95833C26.8315 7.70647 26.7821 7.45701 26.6858 7.22426C26.5896 6.9915 26.4484 6.78002 26.2703 6.60192C26.0922 6.42382 25.8807 6.28261 25.648 6.18637C25.4152 6.09013 25.1657 6.04076 24.9139 6.04107ZM32.3708 16.4999C32.3708 14.2905 32.3908 12.1011 32.2667 9.89561C32.1426 7.33392 31.5582 5.06043 29.685 3.1872C27.8078 1.30997 25.5383 0.729585 22.9766 0.605503C20.7671 0.481421 18.5777 0.501435 16.3723 0.501435C14.1628 0.501435 11.9734 0.481421 9.76792 0.605503C7.20624 0.729585 4.93274 1.31397 3.05951 3.1872C1.18228 5.06443 0.601899 7.33392 0.477817 9.89561C0.353736 12.1051 0.373749 14.2945 0.373749 16.4999C0.373749 18.7054 0.353736 20.8988 0.477817 23.1043C0.601899 25.666 1.18628 27.9395 3.05951 29.8127C4.93675 31.6899 7.20624 32.2703 9.76792 32.3944C11.9774 32.5185 14.1668 32.4985 16.3723 32.4985C18.5817 32.4985 20.7712 32.5185 22.9766 32.3944C25.5383 32.2703 27.8118 31.6859 29.685 29.8127C31.5622 27.9355 32.1426 25.666 32.2667 23.1043C32.3948 20.8988 32.3708 18.7094 32.3708 16.4999ZM28.8485 25.9381C28.5563 26.6666 28.204 27.211 27.6397 27.7714C27.0753 28.3357 26.5349 28.688 25.8065 28.9801C23.7011 29.8167 18.7018 29.6286 16.3683 29.6286C14.0347 29.6286 9.03144 29.8167 6.92605 28.9841C6.19758 28.692 5.65322 28.3397 5.09285 27.7754C4.52848 27.211 4.17625 26.6706 3.88406 25.9422C3.05151 23.8328 3.23963 18.8335 3.23963 16.4999C3.23963 14.1664 3.05151 9.16313 3.88406 7.05774C4.17625 6.32926 4.52848 5.78491 5.09285 5.22454C5.65722 4.66417 6.19758 4.30794 6.92605 4.01574C9.03144 3.1832 14.0347 3.37132 16.3683 3.37132C18.7018 3.37132 23.7051 3.1832 25.8105 4.01574C26.5389 4.30794 27.0833 4.66017 27.6437 5.22454C28.208 5.78891 28.5603 6.32926 28.8525 7.05774C29.685 9.16313 29.4969 14.1664 29.4969 16.4999C29.4969 18.8335 29.685 23.8328 28.8485 25.9381Z" fill="#8A8888"/>
</svg>
