<svg width="25" height="24" viewBox="0 0 25 24" fill="none" xmlns="http://www.w3.org/2000/svg">
<path d="M3.79199 8H21.792C22.0572 8 22.3116 7.89464 22.4991 7.70711C22.6866 7.51957 22.792 7.26522 22.792 7C22.792 6.73478 22.6866 6.48043 22.4991 6.29289C22.3116 6.10536 22.0572 6 21.792 6H3.79199C3.52678 6 3.27242 6.10536 3.08489 6.29289C2.89735 6.48043 2.79199 6.73478 2.79199 7C2.79199 7.26522 2.89735 7.51957 3.08489 7.70711C3.27242 7.89464 3.52678 8 3.79199 8ZM21.792 16H3.79199C3.52678 16 3.27242 16.1054 3.08489 16.2929C2.89735 16.4804 2.79199 16.7348 2.79199 17C2.79199 17.2652 2.89735 17.5196 3.08489 17.7071C3.27242 17.8946 3.52678 18 3.79199 18H21.792C22.0572 18 22.3116 17.8946 22.4991 17.7071C22.6866 17.5196 22.792 17.2652 22.792 17C22.792 16.7348 22.6866 16.4804 22.4991 16.2929C22.3116 16.1054 22.0572 16 21.792 16ZM21.792 11H3.79199C3.52678 11 3.27242 11.1054 3.08489 11.2929C2.89735 11.4804 2.79199 11.7348 2.79199 12C2.79199 12.2652 2.89735 12.5196 3.08489 12.7071C3.27242 12.8946 3.52678 13 3.79199 13H21.792C22.0572 13 22.3116 12.8946 22.4991 12.7071C22.6866 12.5196 22.792 12.2652 22.792 12C22.792 11.7348 22.6866 11.4804 22.4991 11.2929C22.3116 11.1054 22.0572 11 21.792 11Z" fill="#F8F8F8"/>
</svg>
