<svg width="135" height="224" viewBox="0 0 135 224" fill="none" xmlns="http://www.w3.org/2000/svg">
<g clip-path="url(#clip0_370_3597)">
<path d="M0 9.28121C0 5.32084 3.21075 2.11035 7.17086 2.11035H127.283C131.243 2.11035 134.454 5.32084 134.454 9.28121V213.651C134.454 217.611 131.243 220.822 127.283 220.822H7.17086C3.21075 220.822 0 217.611 0 213.651V9.28121Z" fill="#00023A"/>
<path opacity="0.5" d="M120.112 12.8662H14.3418C12.3616 12.8662 10.7563 14.4715 10.7563 16.4516V93.5384C10.7563 95.5186 12.3616 97.1238 14.3418 97.1238H120.112C122.092 97.1238 123.697 95.5186 123.697 93.5384V16.4516C123.697 14.4715 122.092 12.8662 120.112 12.8662Z" fill="white" fill-opacity="0.5"/>
<path opacity="0.25" d="M42.1289 127.601H12.5491C11.559 127.601 10.7563 128.403 10.7563 129.393V141.942C10.7563 142.932 11.559 143.735 12.5491 143.735H42.1289C43.1189 143.735 43.9216 142.932 43.9216 141.942V129.393C43.9216 128.403 43.1189 127.601 42.1289 127.601Z" fill="white"/>
<path opacity="0.25" d="M62.7448 127.601H48.4031C47.413 127.601 46.6104 128.403 46.6104 129.393V141.942C46.6104 142.932 47.413 143.735 48.4031 143.735H62.7448C63.7349 143.735 64.5375 142.932 64.5375 141.942V129.393C64.5375 128.403 63.7349 127.601 62.7448 127.601Z" fill="white"/>
<path opacity="0.25" d="M82.465 127.601H68.1233C67.1332 127.601 66.3306 128.403 66.3306 129.393V141.942C66.3306 142.932 67.1332 143.735 68.1233 143.735H82.465C83.4551 143.735 84.2577 142.932 84.2577 141.942V129.393C84.2577 128.403 83.4551 127.601 82.465 127.601Z" fill="white"/>
<path opacity="0.25" d="M102.184 127.601H87.8425C86.8524 127.601 86.0498 128.403 86.0498 129.393V141.942C86.0498 142.932 86.8524 143.735 87.8425 143.735H102.184C103.174 143.735 103.977 142.932 103.977 141.942V129.393C103.977 128.403 103.174 127.601 102.184 127.601Z" fill="white"/>
<path opacity="0.25" d="M121.904 127.601H107.563C106.573 127.601 105.77 128.403 105.77 129.393V141.942C105.77 142.932 106.573 143.735 107.563 143.735H121.904C122.895 143.735 123.697 142.932 123.697 141.942V129.393C123.697 128.403 122.895 127.601 121.904 127.601Z" fill="white"/>
<path opacity="0.15" d="M122.801 103.398H32.2689C31.7739 103.398 31.3726 103.8 31.3726 104.295V109.673C31.3726 110.168 31.7739 110.569 32.2689 110.569H122.801C123.296 110.569 123.697 110.168 123.697 109.673V104.295C123.697 103.8 123.296 103.398 122.801 103.398Z" fill="white"/>
<path opacity="0.15" d="M122.801 113.259H32.2689C31.7739 113.259 31.3726 113.66 31.3726 114.155V119.533C31.3726 120.028 31.7739 120.43 32.2689 120.43H122.801C123.296 120.43 123.697 120.028 123.697 119.533V114.155C123.697 113.66 123.296 113.259 122.801 113.259Z" fill="white"/>
<path opacity="0.15" d="M122.801 149.113H11.6527C11.1577 149.113 10.7563 149.515 10.7563 150.01V157.18C10.7563 157.676 11.1577 158.077 11.6527 158.077H122.801C123.296 158.077 123.697 157.676 123.697 157.18V150.01C123.697 149.515 123.296 149.113 122.801 149.113Z" fill="white"/>
<path opacity="0.15" d="M26.8908 102.987H11.6527C11.1577 102.987 10.7563 103.389 10.7563 103.884V119.945C10.7563 120.44 11.1577 120.842 11.6527 120.842H26.8908C27.3858 120.842 27.7871 120.44 27.7871 119.945V103.884C27.7871 103.389 27.3858 102.987 26.8908 102.987Z" fill="white"/>
<mask id="mask0_370_3597" style="mask-type:luminance" maskUnits="userSpaceOnUse" x="14" y="106" width="11" height="12">
<path d="M24.2012 106.558H14.3413V117.27H24.2012V106.558Z" fill="white"/>
</mask>
<g mask="url(#mask0_370_3597)">
<g opacity="0.8">
<path d="M22.85 109.071L21.8891 108.027C21.7286 107.853 21.4696 107.853 21.3091 108.027L20.0273 109.419L19.235 108.567L18.6559 109.196L19.2385 109.83L15.5742 113.811V115.932H17.5256L21.1899 111.95L21.7734 112.584L22.3534 111.955L21.5646 111.098L22.8464 109.705C23.0104 109.527 23.0104 109.245 22.85 109.071ZM17.185 115.039L16.3962 114.182L19.7073 110.584L20.4961 111.441L17.185 115.039Z" fill="white"/>
</g>
</g>
</g>
<defs>
<clipPath id="clip0_370_3597">
<rect width="134.003" height="223.69" fill="white"/>
</clipPath>
</defs>
</svg>
