<svg width="208" height="47" viewBox="0 0 208 47" fill="none" xmlns="http://www.w3.org/2000/svg">
<mask id="mask0_379_3799" style="mask-type:luminance" maskUnits="userSpaceOnUse" x="0" y="0" width="207" height="47">
<path d="M0 0H206.626V46.4824H0V0Z" fill="white"/>
</mask>
<g mask="url(#mask0_379_3799)">
<path d="M3.69101 11.9984H5.0335V2.84668H3.69881L0.833008 4.59707V5.80211L3.57159 4.11508H3.69101V11.9984Z" fill="white"/>
<mask id="mask1_379_3799" style="mask-type:luminance" maskUnits="userSpaceOnUse" x="30" y="0" width="177" height="49">
<path d="M30.9038 0.949219H206.624V48.4396H30.9038V0.949219Z" fill="white"/>
</mask>
<g mask="url(#mask1_379_3799)">
<mask id="mask2_379_3799" style="mask-type:luminance" maskUnits="userSpaceOnUse" x="30" y="0" width="177" height="15">
<path d="M30.9038 0.949219H206.624V14.1491H30.9038V0.949219Z" fill="white"/>
</mask>
<g mask="url(#mask2_379_3799)">
<path d="M34.6169 3.01699V10.4355H33.46V3.01699H34.6169ZM37.6618 6.09954V10.4355H36.5529V4.92257H37.6019L37.6618 6.09954ZM37.398 7.47012L36.9365 7.45484C36.9406 7.0778 37.0064 6.72963 37.1343 6.41034C37.2622 6.08765 37.442 5.80742 37.6737 5.56965C37.9055 5.33187 38.1813 5.14845 38.5009 5.01937C38.8246 4.8869 39.1822 4.82066 39.5739 4.82066C39.8935 4.82066 40.1812 4.85802 40.437 4.93275C40.6928 5.00408 40.9105 5.11958 41.0903 5.27922C41.2742 5.43887 41.414 5.64607 41.5099 5.90083C41.6059 6.15219 41.6537 6.4596 41.6537 6.82304V10.4355H40.5389V6.81285C40.5389 6.52413 40.4889 6.29315 40.389 6.11991C40.2891 5.94329 40.1433 5.81591 39.9514 5.73778C39.7597 5.65626 39.5239 5.6155 39.2441 5.6155C38.9685 5.6155 38.7167 5.66476 38.489 5.76326C38.2652 5.86177 38.0714 5.99764 37.9075 6.17086C37.7477 6.3441 37.6218 6.54281 37.5299 6.767C37.442 6.98779 37.398 7.22216 37.398 7.47012ZM46.0533 4.92257V5.64607H42.5468V4.92257H46.0533ZM43.7337 3.58255H44.8425V9.07C44.8425 9.25682 44.8765 9.39779 44.9445 9.49285C45.0123 9.58799 45.1003 9.65089 45.2082 9.68143C45.3161 9.71198 45.4319 9.72725 45.5558 9.72725C45.6478 9.72725 45.7436 9.72052 45.8435 9.70686C45.9474 9.68988 46.0253 9.67631 46.0773 9.66616L46.0833 10.4355C45.9954 10.4593 45.8794 10.4813 45.7356 10.5017C45.5958 10.5255 45.4259 10.5374 45.2262 10.5374C44.9544 10.5374 44.7047 10.4916 44.4769 10.3998C44.2491 10.3081 44.0673 10.1553 43.9314 9.94126C43.7996 9.72384 43.7337 9.43175 43.7337 9.0649V3.58255ZM48.4629 5.78873V10.4355H47.354V4.92257H48.4329L48.4629 5.78873ZM50.4888 4.89199L50.4828 5.76836C50.391 5.75137 50.303 5.74118 50.2191 5.73778C50.1392 5.73099 50.0472 5.72759 49.9434 5.72759C49.6877 5.72759 49.4619 5.76156 49.2661 5.82949C49.0703 5.89743 48.9045 5.99254 48.7686 6.11482C48.6328 6.23711 48.5248 6.38317 48.4449 6.55301C48.3689 6.71944 48.3191 6.90287 48.2951 7.10327L47.9834 7.25613C47.9834 6.92325 48.0213 6.61075 48.0973 6.31863C48.1772 6.0265 48.2991 5.76836 48.4629 5.54417C48.6267 5.31658 48.8345 5.13995 49.0863 5.01428C49.342 4.8852 49.6457 4.82066 49.9974 4.82066C50.0773 4.82066 50.1692 4.82916 50.2731 4.84614C50.377 4.85972 50.4489 4.87501 50.4888 4.89199ZM51.1003 7.74017V7.62298C51.1003 7.22556 51.1681 6.85701 51.304 6.51734C51.4399 6.17427 51.6357 5.87705 51.8915 5.62569C52.1472 5.37093 52.4568 5.17392 52.8205 5.03466C53.1841 4.89199 53.5918 4.82066 54.0433 4.82066C54.4988 4.82066 54.9084 4.89199 55.2721 5.03466C55.6397 5.17392 55.9514 5.37093 56.2071 5.62569C56.4668 5.87705 56.6646 6.17427 56.8005 6.51734C56.9363 6.85701 57.0043 7.22556 57.0043 7.62298V7.74017C57.0043 8.13759 56.9363 8.50614 56.8005 8.84581C56.6646 9.18548 56.4668 9.48271 56.2071 9.7375C55.9514 9.98879 55.6417 10.1858 55.278 10.3285C54.9184 10.4677 54.5108 10.5374 54.0552 10.5374C53.5997 10.5374 53.1901 10.4677 52.8265 10.3285C52.4629 10.1858 52.1512 9.98879 51.8915 9.7375C51.6357 9.48271 51.4399 9.18548 51.304 8.84581C51.1681 8.50614 51.1003 8.13759 51.1003 7.74017ZM52.2091 7.62298V7.74017C52.2091 8.0153 52.247 8.27516 52.323 8.51972C52.3989 8.76089 52.5129 8.97489 52.6646 9.16171C52.8205 9.34853 53.0143 9.49626 53.2461 9.60497C53.4778 9.71027 53.7476 9.76292 54.0552 9.76292C54.359 9.76292 54.6247 9.71027 54.8525 9.60497C55.0843 9.49626 55.276 9.34853 55.4279 9.16171C55.5798 8.97489 55.6936 8.76089 55.7696 8.51972C55.8495 8.27516 55.8894 8.0153 55.8894 7.74017V7.62298C55.8894 7.35124 55.8495 7.09478 55.7696 6.85361C55.6936 6.60905 55.5778 6.39335 55.4219 6.20653C55.2701 6.01632 55.0782 5.86686 54.8465 5.75817C54.6187 5.64947 54.351 5.59512 54.0433 5.59512C53.7395 5.59512 53.4718 5.64947 53.2401 5.75817C53.0123 5.86686 52.8205 6.01632 52.6646 6.20653C52.5129 6.39335 52.3989 6.60905 52.323 6.85361C52.247 7.09478 52.2091 7.35124 52.2091 7.62298ZM62.4828 9.36551V2.60938H63.5977V10.4355H62.5787L62.4828 9.36551ZM58.1192 7.74017V7.63317C58.1192 7.21198 58.1791 6.82984 58.299 6.48676C58.4229 6.1403 58.5967 5.84308 58.8204 5.59512C59.0482 5.34716 59.3179 5.15694 59.6296 5.02447C59.9453 4.8886 60.297 4.82066 60.6845 4.82066C61.0922 4.82066 61.4479 4.8818 61.7515 5.00408C62.0592 5.12297 62.319 5.29791 62.5307 5.52889C62.7465 5.75647 62.9164 6.0316 63.0402 6.35429C63.1641 6.67698 63.25 7.04213 63.2979 7.44975V7.9185C63.254 8.32271 63.1681 8.68616 63.0402 9.00885C62.9164 9.33154 62.7465 9.60668 62.5307 9.83426C62.319 10.0618 62.0592 10.2368 61.7515 10.359C61.4438 10.478 61.0842 10.5374 60.6726 10.5374C60.2929 10.5374 59.9453 10.4677 59.6296 10.3285C59.3179 10.1892 59.0482 9.99391 58.8204 9.74252C58.5967 9.49123 58.4229 9.19567 58.299 8.856C58.1791 8.51293 58.1192 8.14099 58.1192 7.74017ZM59.234 7.63317V7.74017C59.234 8.0153 59.266 8.27346 59.33 8.51463C59.3979 8.7558 59.5018 8.96809 59.6417 9.15151C59.7815 9.33494 59.9593 9.4793 60.1751 9.58458C60.3909 9.68646 60.6486 9.7375 60.9483 9.7375C61.3159 9.7375 61.6176 9.67119 61.8534 9.53876C62.0932 9.40628 62.2849 9.23134 62.4288 9.01395C62.5726 8.79656 62.6846 8.56049 62.7645 8.30572V7.0778C62.7165 6.89098 62.6466 6.71095 62.5547 6.53771C62.4668 6.36109 62.3509 6.20483 62.207 6.06896C62.0672 5.9297 61.8933 5.81931 61.6856 5.73778C61.4818 5.65626 61.2401 5.6155 60.9603 5.6155C60.6566 5.6155 60.3948 5.66985 60.1751 5.77854C59.9593 5.88384 59.7815 6.0299 59.6417 6.21672C59.5018 6.40015 59.3979 6.61414 59.33 6.85871C59.266 7.09988 59.234 7.35803 59.234 7.63317ZM69.2919 9.16171V4.92257H70.4068V10.4355H69.3459L69.2919 9.16171ZM69.5017 8.00002L69.9632 7.98983C69.9632 8.35667 69.9173 8.69636 69.8254 9.00885C69.7375 9.31796 69.5936 9.58629 69.3938 9.81386C69.194 10.0414 68.9323 10.2198 68.6086 10.3489C68.2849 10.4746 67.8913 10.5374 67.4278 10.5374C67.1122 10.5374 66.8224 10.4983 66.5587 10.4202C66.299 10.3421 66.0752 10.2215 65.8874 10.0584C65.6996 9.89544 65.5537 9.68314 65.4498 9.42156C65.3498 9.16001 65.2999 8.84581 65.2999 8.47896V4.92257H66.4088V8.48915C66.4088 8.73712 66.4408 8.94262 66.5047 9.10566C66.5727 9.26531 66.6625 9.39269 66.7745 9.48782C66.8903 9.57955 67.0182 9.64406 67.158 9.68143C67.3019 9.71881 67.4497 9.7375 67.6016 9.7375C68.0731 9.7375 68.4468 9.66104 68.7225 9.50821C68.9983 9.35193 69.196 9.14302 69.3159 8.88148C69.4397 8.61653 69.5017 8.32271 69.5017 8.00002ZM74.6925 9.76292C74.9562 9.76292 75.1999 9.7171 75.4238 9.62537C75.6475 9.53364 75.8313 9.40797 75.9752 9.24833C76.119 9.08528 76.2009 8.90016 76.2209 8.69296H77.2758C77.2559 9.01905 77.1261 9.32305 76.8863 9.60497C76.6506 9.88349 76.3408 10.1094 75.9572 10.2827C75.5735 10.4525 75.152 10.5374 74.6925 10.5374C74.2049 10.5374 73.7794 10.4643 73.4158 10.3183C73.0561 10.1722 72.7564 9.9718 72.5167 9.7171C72.2809 9.46232 72.1031 9.1702 71.9832 8.84072C71.8673 8.50784 71.8094 8.15627 71.8094 7.78602V7.57203C71.8094 7.20179 71.8673 6.85192 71.9832 6.52243C72.1031 6.18955 72.2809 5.89574 72.5167 5.64097C72.7564 5.38622 73.0561 5.18581 73.4158 5.03975C73.7794 4.89369 74.2049 4.82066 74.6925 4.82066C75.1999 4.82066 75.6435 4.90897 76.0232 5.08561C76.4027 5.25884 76.7004 5.49661 76.9163 5.79892C77.136 6.09784 77.2559 6.43751 77.2758 6.81795H76.2209C76.2009 6.59036 76.1251 6.38486 75.9931 6.20144C75.8653 6.01801 75.6895 5.87195 75.4657 5.76326C75.2459 5.65116 74.9882 5.59512 74.6925 5.59512C74.3528 5.59512 74.0671 5.65286 73.8353 5.76836C73.6075 5.88044 73.4257 6.03331 73.2899 6.22692C73.158 6.41714 73.0622 6.62943 73.0021 6.8638C72.9462 7.09478 72.9183 7.33086 72.9183 7.57203V7.78602C72.9183 8.02719 72.9462 8.26496 73.0021 8.49934C73.0582 8.73371 73.152 8.94601 73.2839 9.13623C73.4197 9.32645 73.6016 9.4793 73.8294 9.59482C74.0611 9.70686 74.3489 9.76292 74.6925 9.76292ZM81.2379 4.92257V5.64607H77.7314V4.92257H81.2379ZM78.9182 3.58255H80.0271V9.07C80.0271 9.25682 80.0611 9.39779 80.129 9.49285C80.1969 9.58799 80.2848 9.65089 80.3927 9.68143C80.5006 9.71198 80.6165 9.72725 80.7404 9.72725C80.8323 9.72725 80.9282 9.72052 81.0281 9.70686C81.132 9.68988 81.21 9.67631 81.2618 9.66616L81.2679 10.4355C81.1799 10.4593 81.0641 10.4813 80.9202 10.5017C80.7803 10.5255 80.6106 10.5374 80.4107 10.5374C80.139 10.5374 79.8892 10.4916 79.6614 10.3998C79.4337 10.3081 79.2519 10.1553 79.1161 9.94126C78.9842 9.72384 78.9182 9.43175 78.9182 9.0649V3.58255ZM83.7433 4.92257V10.4355H82.6285V4.92257H83.7433ZM82.5445 3.46026C82.5445 3.30741 82.5986 3.17833 82.7064 3.07303C82.8183 2.96774 82.9821 2.91509 83.1979 2.91509C83.4097 2.91509 83.5716 2.96774 83.6834 3.07303C83.7993 3.17833 83.8572 3.30741 83.8572 3.46026C83.8572 3.60632 83.7993 3.732 83.6834 3.8373C83.5716 3.93921 83.4097 3.99016 83.1979 3.99016C82.9821 3.99016 82.8183 3.93921 82.7064 3.8373C82.5986 3.732 82.5445 3.60632 82.5445 3.46026ZM85.2299 7.74017V7.62298C85.2299 7.22556 85.2977 6.85701 85.4337 6.51734C85.5695 6.17427 85.7653 5.87705 86.0211 5.62569C86.2768 5.37093 86.5865 5.17392 86.9502 5.03466C87.3137 4.89199 87.7214 4.82066 88.1729 4.82066C88.6285 4.82066 89.038 4.89199 89.4017 5.03466C89.7693 5.17392 90.081 5.37093 90.3367 5.62569C90.5965 5.87705 90.7942 6.17427 90.9301 6.51734C91.066 6.85701 91.1339 7.22556 91.1339 7.62298V7.74017C91.1339 8.13759 91.066 8.50614 90.9301 8.84581C90.7942 9.18548 90.5965 9.48271 90.3367 9.7375C90.081 9.98879 89.7713 10.1858 89.4076 10.3285C89.0481 10.4677 88.6404 10.5374 88.1849 10.5374C87.7293 10.5374 87.3198 10.4677 86.9562 10.3285C86.5925 10.1858 86.2808 9.98879 86.0211 9.7375C85.7653 9.48271 85.5695 9.18548 85.4337 8.84581C85.2977 8.50614 85.2299 8.13759 85.2299 7.74017ZM86.3387 7.62298V7.74017C86.3387 8.0153 86.3767 8.27516 86.4527 8.51972C86.5285 8.76089 86.6425 8.97489 86.7943 9.16171C86.9502 9.34853 87.1439 9.49626 87.3757 9.60497C87.6075 9.71027 87.8772 9.76292 88.1849 9.76292C88.4886 9.76292 88.7543 9.71027 88.9821 9.60497C89.2139 9.49626 89.4056 9.34853 89.5575 9.16171C89.7094 8.97489 89.8232 8.76089 89.8992 8.51972C89.9791 8.27516 90.0191 8.0153 90.0191 7.74017V7.62298C90.0191 7.35124 89.9791 7.09478 89.8992 6.85361C89.8232 6.60905 89.7074 6.39335 89.5515 6.20653C89.3997 6.01632 89.2079 5.86686 88.9761 5.75817C88.7483 5.64947 88.4806 5.59512 88.1729 5.59512C87.8692 5.59512 87.6014 5.64947 87.3698 5.75817C87.142 5.86686 86.9502 6.01632 86.7943 6.20653C86.6425 6.39335 86.5285 6.60905 86.4527 6.85361C86.3767 7.09478 86.3387 7.35124 86.3387 7.62298ZM93.6335 6.09954V10.4355H92.5245V4.92257H93.5734L93.6335 6.09954ZM93.3696 7.47012L92.9081 7.45484C92.9121 7.0778 92.9781 6.72963 93.1059 6.41034C93.2338 6.08765 93.4136 5.80742 93.6454 5.56965C93.8772 5.33187 94.1528 5.14845 94.4726 5.01937C94.7962 4.8869 95.1539 4.82066 95.5454 4.82066C95.8652 4.82066 96.1529 4.85802 96.4086 4.93275C96.6643 5.00408 96.8822 5.11958 97.0619 5.27922C97.2457 5.43887 97.3857 5.64607 97.4815 5.90083C97.5774 6.15219 97.6254 6.4596 97.6254 6.82304V10.4355H96.5105V6.81285C96.5105 6.52413 96.4605 6.29315 96.3607 6.11991C96.2608 5.94329 96.1149 5.81591 95.9231 5.73778C95.7313 5.65626 95.4956 5.6155 95.2158 5.6155C94.94 5.6155 94.6884 5.66476 94.4606 5.76326C94.2368 5.86177 94.043 5.99764 93.8792 6.17086C93.7193 6.3441 93.5934 6.54281 93.5016 6.767C93.4136 6.98779 93.3696 7.22216 93.3696 7.47012Z" fill="white"/>
<path d="M202.805 0.949219H173.773C171.664 0.949219 169.953 2.42391 169.953 4.24304V10.8306C169.953 12.6498 171.664 14.1245 173.773 14.1245H202.805C204.915 14.1245 206.625 12.6498 206.625 10.8306V4.24304C206.625 2.42391 204.915 0.949219 202.805 0.949219Z" fill="black" fill-opacity="0.1"/>
<path d="M180.018 7.13693H180.737C181.09 7.13693 181.38 7.08753 181.609 6.98871C181.842 6.88681 182.014 6.74939 182.127 6.57647C182.243 6.40045 182.301 6.20283 182.301 5.98358C182.301 5.72419 182.25 5.50649 182.149 5.33048C182.047 5.15447 181.894 5.02168 181.691 4.93213C181.487 4.84258 181.229 4.79781 180.917 4.79781C180.633 4.79781 180.383 4.84566 180.165 4.9414C179.95 5.03403 179.782 5.16682 179.658 5.33974C179.539 5.51267 179.478 5.71647 179.478 5.95116H178.471C178.471 5.60839 178.572 5.29652 178.775 5.01551C178.98 4.73451 179.264 4.51062 179.631 4.34387C180.002 4.17712 180.43 4.09375 180.917 4.09375C181.397 4.09375 181.816 4.16632 182.176 4.31145C182.535 4.4535 182.815 4.66656 183.015 4.95066C183.215 5.23167 183.315 5.58214 183.315 6.00211C183.315 6.17195 183.267 6.35413 183.173 6.54867C183.082 6.74013 182.939 6.91923 182.743 7.08598C182.549 7.25273 182.3 7.39015 181.99 7.49822C181.681 7.60322 181.311 7.65571 180.879 7.65571H180.018V7.13693ZM180.018 7.84099V7.32684H180.879C181.384 7.32684 181.802 7.3778 182.132 7.4797C182.462 7.5816 182.722 7.71747 182.911 7.8873C183.104 8.05714 183.238 8.24396 183.315 8.44777C183.394 8.64848 183.434 8.8492 183.434 9.04992C183.434 9.36489 183.371 9.64437 183.244 9.88826C183.121 10.1322 182.945 10.3391 182.716 10.5089C182.49 10.6788 182.225 10.807 181.92 10.8934C181.614 10.9799 181.282 11.0231 180.922 11.0231C180.578 11.0231 180.253 10.9815 179.947 10.8981C179.646 10.8147 179.379 10.6942 179.146 10.5367C178.914 10.3762 178.732 10.1802 178.601 9.9485C178.471 9.71381 178.405 9.44673 178.405 9.14719H179.414C179.414 9.38188 179.473 9.58727 179.593 9.76324C179.716 9.9393 179.891 10.0767 180.116 10.1755C180.345 10.2712 180.613 10.319 180.922 10.319C181.232 10.319 181.496 10.2743 181.718 10.1847C181.944 10.0921 182.115 9.95315 182.236 9.76788C182.36 9.58262 182.421 9.34946 182.421 9.06845C182.421 8.78745 182.352 8.5574 182.214 8.37829C182.076 8.19611 181.88 8.06177 181.625 7.97531C181.374 7.88576 181.079 7.84099 180.737 7.84099H180.018ZM184.89 10.4766C184.89 10.3315 184.942 10.2095 185.047 10.1106C185.156 10.0087 185.313 9.9578 185.516 9.9578C185.72 9.9578 185.874 10.0087 185.979 10.1106C186.088 10.2095 186.143 10.3315 186.143 10.4766C186.143 10.6186 186.088 10.739 185.979 10.8378C185.874 10.9367 185.72 10.9861 185.516 10.9861C185.313 10.9861 185.156 10.9367 185.047 10.8378C184.942 10.739 184.89 10.6186 184.89 10.4766ZM184.895 6.38656C184.895 6.24143 184.948 6.11945 185.053 6.02063C185.162 5.91873 185.318 5.86778 185.521 5.86778C185.724 5.86778 185.88 5.91873 185.984 6.02063C186.094 6.11945 186.148 6.24143 186.148 6.38656C186.148 6.5286 186.094 6.64904 185.984 6.74785C185.88 6.84666 185.724 6.89607 185.521 6.89607C185.318 6.89607 185.162 6.84666 185.053 6.74785C184.948 6.64904 184.895 6.5286 184.895 6.38656ZM188.802 7.72055L187.995 7.54455L188.393 4.18639H192.464V4.97845H189.249L189.009 6.81269C189.154 6.74167 189.338 6.67529 189.559 6.61352C189.784 6.55177 190.042 6.52089 190.333 6.52089C190.699 6.52089 191.029 6.57492 191.32 6.683C191.61 6.78799 191.857 6.93931 192.061 7.13693C192.267 7.33456 192.426 7.57233 192.534 7.85025C192.643 8.12817 192.698 8.43851 192.698 8.78127C192.698 9.1055 192.646 9.40349 192.54 9.6752C192.438 9.94698 192.284 10.1847 192.077 10.3886C191.87 10.5893 191.608 10.7452 191.292 10.8563C190.98 10.9675 190.611 11.0231 190.186 11.0231C189.866 11.0231 189.563 10.9861 189.275 10.9119C188.993 10.8348 188.739 10.719 188.513 10.5645C188.291 10.4071 188.11 10.2125 187.969 9.98094C187.83 9.74626 187.743 9.47143 187.706 9.15646H188.666C188.71 9.40967 188.797 9.62274 188.927 9.79568C189.058 9.96861 189.229 10.0998 189.439 10.1894C189.654 10.2759 189.903 10.319 190.186 10.319C190.426 10.319 190.638 10.2836 190.823 10.2125C191.009 10.1415 191.165 10.0396 191.292 9.90686C191.419 9.77405 191.515 9.61345 191.581 9.42511C191.65 9.23674 191.685 9.02522 191.685 8.79053C191.685 8.57746 191.65 8.37983 191.581 8.19764C191.512 8.01546 191.408 7.85642 191.271 7.72055C191.136 7.58468 190.971 7.4797 190.774 7.40558C190.578 7.32838 190.353 7.28978 190.099 7.28978C189.761 7.28978 189.505 7.32838 189.33 7.40558C189.159 7.48278 188.983 7.58777 188.802 7.72055ZM197.117 4.14934V10.9305H196.108V5.21931L194.076 5.84926V5.07572L196.959 4.14934H197.117Z" fill="white"/>
</g>
<mask id="mask3_379_3799" style="mask-type:luminance" maskUnits="userSpaceOnUse" x="30" y="23" width="131" height="5">
<path d="M158.875 23.833H32.8139C31.759 23.833 30.9038 24.5599 30.9038 25.4567C30.9038 26.3533 31.759 27.0802 32.8139 27.0802H158.875C159.93 27.0802 160.785 26.3533 160.785 25.4567C160.785 24.5599 159.93 23.833 158.875 23.833Z" fill="white"/>
</mask>
<g mask="url(#mask3_379_3799)">
<path d="M158.875 23.833H32.8139C31.759 23.833 30.9038 24.5599 30.9038 25.4567C30.9038 26.3533 31.759 27.0802 32.8139 27.0802H158.875C159.93 27.0802 160.785 26.3533 160.785 25.4567C160.785 24.5599 159.93 23.833 158.875 23.833Z" fill="black" fill-opacity="0.1"/>
<path d="M47.3304 24.4824H32.8144C32.1815 24.4824 31.6685 24.9186 31.6685 25.4566C31.6685 25.9946 32.1815 26.4308 32.8144 26.4308H47.3304C47.9634 26.4308 48.4765 25.9946 48.4765 25.4566C48.4765 24.9186 47.9634 24.4824 47.3304 24.4824Z" fill="#2F4AFD" stroke="black" stroke-opacity="0.05" stroke-width="0.275777"/>
</g>
<path d="M136.442 32.2754H32.4559C31.5987 32.2754 30.9038 32.866 30.9038 33.5946C30.9038 34.3233 31.5987 34.9139 32.4559 34.9139H136.442C137.299 34.9139 137.993 34.3233 137.993 33.5946C137.993 32.866 137.299 32.2754 136.442 32.2754Z" fill="white" fill-opacity="0.3"/>
<path d="M102.961 40.1094H32.4559C31.5987 40.1094 30.9038 40.7 30.9038 41.4286C30.9038 42.1573 31.5987 42.7479 32.4559 42.7479H102.961C103.818 42.7479 104.513 42.1573 104.513 41.4286C104.513 40.7 103.818 40.1094 102.961 40.1094Z" fill="white" fill-opacity="0.3"/>
</g>
</g>
</svg>
