<svg width="209" height="45" viewBox="0 0 209 45" fill="none" xmlns="http://www.w3.org/2000/svg">
<g clip-path="url(#clip0_379_3730)">
<path d="M39.1184 11.917V12.8581H34.7547V11.917H39.1184ZM34.9825 4.13086V12.8581H33.8257V4.13086H34.9825ZM44.0993 11.7492V8.41055C44.0993 8.1548 44.0474 7.93303 43.9435 7.74522C43.8436 7.55341 43.6917 7.40556 43.4879 7.30167C43.2842 7.19777 43.0324 7.14582 42.7327 7.14582C42.453 7.14582 42.2073 7.19378 41.9955 7.28968C41.7877 7.38558 41.6238 7.51146 41.504 7.6673C41.388 7.82314 41.3301 7.99097 41.3301 8.17079H40.2212C40.2212 7.93903 40.2812 7.70925 40.4011 7.48148C40.5209 7.25371 40.6928 7.04792 40.9165 6.86411C41.1443 6.67629 41.416 6.52845 41.7318 6.42056C42.0514 6.30867 42.407 6.25273 42.7986 6.25273C43.2701 6.25273 43.6857 6.33264 44.0454 6.49248C44.4091 6.65232 44.6927 6.89407 44.8965 7.21775C45.1043 7.53743 45.2082 7.93903 45.2082 8.42253V11.4435C45.2082 11.6593 45.2262 11.889 45.2621 12.1328C45.3021 12.3766 45.3601 12.5864 45.436 12.7621V12.8581H44.2792C44.2231 12.7302 44.1793 12.5604 44.1473 12.3486C44.1153 12.1328 44.0993 11.933 44.0993 11.7492ZM44.2911 8.92604L44.3032 9.70525H43.1823C42.8666 9.70525 42.5848 9.73122 42.3371 9.78316C42.0893 9.83112 41.8815 9.90504 41.7137 10.0049C41.5459 10.1048 41.4181 10.2307 41.3301 10.3826C41.2422 10.5304 41.1982 10.7042 41.1982 10.904C41.1982 11.1078 41.2442 11.2936 41.3361 11.4615C41.428 11.6293 41.5659 11.7632 41.7497 11.8631C41.9375 11.959 42.1673 12.007 42.4391 12.007C42.7786 12.007 43.0784 11.935 43.3381 11.7911C43.5979 11.6473 43.8037 11.4715 43.9554 11.2637C44.1113 11.0559 44.1953 10.8541 44.2072 10.6583L44.6807 11.1917C44.6528 11.3596 44.5768 11.5454 44.4529 11.7492C44.3291 11.9529 44.1632 12.1488 43.9554 12.3366C43.7517 12.5204 43.5079 12.6743 43.2242 12.7982C42.9445 12.918 42.6288 12.978 42.2771 12.978C41.8377 12.978 41.452 12.892 41.1203 12.7202C40.7927 12.5484 40.5369 12.3186 40.3531 12.0309C40.1733 11.7392 40.0834 11.4135 40.0834 11.0539C40.0834 10.7062 40.1513 10.4005 40.2871 10.1368C40.4231 9.86908 40.6188 9.64731 40.8746 9.47148C41.1304 9.29166 41.438 9.1558 41.7976 9.06389C42.1573 8.97198 42.5589 8.92604 43.0024 8.92604H44.2911ZM48.6788 12.1867L50.4829 6.3726H51.6697L49.0683 13.859C49.0084 14.0189 48.9285 14.1907 48.8285 14.3746C48.7327 14.5624 48.6088 14.7402 48.4569 14.908C48.3051 15.0759 48.1212 15.2117 47.9055 15.3156C47.6937 15.4235 47.4399 15.4774 47.1443 15.4774C47.0564 15.4774 46.9444 15.4654 46.8086 15.4415C46.6727 15.4175 46.5768 15.3975 46.5209 15.3815L46.5149 14.4824C46.5468 14.4864 46.5968 14.4904 46.6648 14.4944C46.7366 14.5024 46.7866 14.5064 46.8145 14.5064C47.0663 14.5064 47.2801 14.4725 47.456 14.4045C47.6318 14.3406 47.7796 14.2307 47.8995 14.0748C48.0233 13.923 48.1293 13.7132 48.2172 13.4454L48.6788 12.1867ZM47.354 6.3726L49.0383 11.4076L49.326 12.5763L48.5289 12.984L46.1433 6.3726H47.354ZM52.2811 9.68726V9.5494C52.2811 9.08187 52.3491 8.64831 52.4849 8.24871C52.6207 7.84512 52.8165 7.49547 53.0723 7.19977C53.328 6.90008 53.6377 6.6683 54.0014 6.50447C54.3649 6.33664 54.7726 6.25273 55.2241 6.25273C55.6797 6.25273 56.0892 6.33664 56.4529 6.50447C56.8205 6.6683 57.1322 6.90008 57.388 7.19977C57.6477 7.49547 57.8455 7.84512 57.9814 8.24871C58.1172 8.64831 58.1851 9.08187 58.1851 9.5494V9.68726C58.1851 10.1548 58.1172 10.5884 57.9814 10.988C57.8455 11.3876 57.6477 11.7372 57.388 12.0369C57.1322 12.3326 56.8225 12.5644 56.4588 12.7322C56.0993 12.896 55.6916 12.978 55.2361 12.978C54.7805 12.978 54.371 12.896 54.0074 12.7322C53.6437 12.5644 53.332 12.3326 53.0723 12.0369C52.8165 11.7372 52.6207 11.3876 52.4849 10.988C52.3491 10.5884 52.2811 10.1548 52.2811 9.68726ZM53.3899 9.5494V9.68726C53.3899 10.0109 53.428 10.3166 53.5039 10.6043C53.5798 10.8881 53.6937 11.1398 53.8455 11.3596C54.0014 11.5793 54.1952 11.7532 54.4269 11.8811C54.6587 12.0049 54.9284 12.0669 55.2361 12.0669C55.5398 12.0669 55.8055 12.0049 56.0333 11.8811C56.2651 11.7532 56.4568 11.5793 56.6087 11.3596C56.7606 11.1398 56.8744 10.8881 56.9504 10.6043C57.0303 10.3166 57.0703 10.0109 57.0703 9.68726V9.5494C57.0703 9.22972 57.0303 8.92803 56.9504 8.64431C56.8744 8.3566 56.7586 8.10285 56.6027 7.88308C56.4509 7.6593 56.2591 7.48348 56.0273 7.35561C55.7995 7.22775 55.5318 7.1638 55.2241 7.1638C54.9205 7.1638 54.6526 7.22775 54.421 7.35561C54.1932 7.48348 54.0014 7.6593 53.8455 7.88308C53.6937 8.10285 53.5798 8.3566 53.5039 8.64431C53.428 8.92803 53.3899 9.22972 53.3899 9.5494ZM63.5438 11.3596V6.3726H64.6586V12.8581H63.5977L63.5438 11.3596ZM63.7536 9.99296L64.215 9.98097C64.215 10.4125 64.1692 10.8121 64.0772 11.1798C63.9893 11.5434 63.8454 11.8591 63.6457 12.1268C63.4458 12.3945 63.1841 12.6043 62.8605 12.7562C62.5367 12.9041 62.1431 12.978 61.6797 12.978C61.364 12.978 61.0743 12.932 60.8105 12.8401C60.5508 12.7482 60.327 12.6063 60.1392 12.4145C59.9514 12.2227 59.8055 11.9729 59.7016 11.6652C59.6017 11.3576 59.5517 10.988 59.5517 10.5564V6.3726H60.6607V10.5684C60.6607 10.8601 60.6926 11.1018 60.7565 11.2936C60.8245 11.4814 60.9144 11.6313 61.0263 11.7431C61.1422 11.8511 61.27 11.927 61.4099 11.971C61.5538 12.0149 61.7017 12.0369 61.8534 12.0369C62.3249 12.0369 62.6985 11.947 62.9743 11.7671C63.2501 11.5833 63.4478 11.3376 63.5678 11.0299C63.6916 10.7182 63.7536 10.3726 63.7536 9.99296ZM69.0641 6.3726V7.22374H65.5578V6.3726H69.0641ZM66.7445 4.79619H67.8534V11.2517C67.8534 11.4715 67.8873 11.6373 67.9553 11.7492C68.0233 11.8611 68.1111 11.935 68.219 11.971C68.3269 12.007 68.4428 12.0249 68.5666 12.0249C68.6586 12.0249 68.7544 12.0169 68.8544 12.0009C68.9583 11.981 69.0362 11.965 69.0881 11.9529L69.0942 12.8581C69.0062 12.886 68.8904 12.912 68.7465 12.936C68.6067 12.964 68.4368 12.978 68.237 12.978C67.9652 12.978 67.7156 12.9241 67.4878 12.8161C67.2601 12.7082 67.0782 12.5284 66.9423 12.2767C66.8104 12.0209 66.7445 11.6773 66.7445 11.2456V4.79619Z" fill="white"/>
<path d="M204.372 0.582031H179.159C177.05 0.582031 175.339 2.2923 175.339 4.40204V12.042C175.339 14.1518 177.05 15.8621 179.159 15.8621H204.372C206.482 15.8621 208.192 14.1518 208.192 12.042V4.40204C208.192 2.2923 206.482 0.582031 204.372 0.582031Z" fill="black" fill-opacity="0.1"/>
<path d="M6.78869 3.9668H6.91075V5.1645H6.78869C6.04108 5.1645 5.41553 5.28655 4.91204 5.53067C4.40855 5.76971 4.00931 6.09265 3.71434 6.49952C3.41935 6.90129 3.20576 7.35392 3.07353 7.85742C2.94637 8.36092 2.88281 8.87203 2.88281 9.39079V11.0233C2.88281 11.5167 2.9413 11.954 3.05826 12.3355C3.17524 12.7118 3.33544 13.0297 3.53887 13.289C3.7423 13.5484 3.97117 13.7443 4.22545 13.8765C4.48483 14.0086 4.75437 14.0748 5.03409 14.0748C5.35959 14.0748 5.64947 14.0138 5.90376 13.8917C6.15805 13.7646 6.37166 13.5891 6.54458 13.3654C6.72257 13.1365 6.85735 12.8669 6.94889 12.5566C7.04043 12.2464 7.08621 11.9057 7.08621 11.5344C7.08621 11.2039 7.04552 10.886 6.96415 10.5809C6.88278 10.2706 6.75817 9.996 6.59034 9.75696C6.42251 9.51284 6.21146 9.32212 5.95716 9.18481C5.70796 9.0424 5.41044 8.97121 5.06461 8.97121C4.673 8.97121 4.30683 9.06784 3.96608 9.2611C3.63042 9.44928 3.35324 9.69847 3.13455 10.0087C2.92095 10.3139 2.79889 10.647 2.76838 11.0081L2.02077 11.0004C2.09197 10.4308 2.2242 9.94513 2.41746 9.54336C2.6158 9.13649 2.85992 8.80592 3.14981 8.55162C3.44479 8.29225 3.77281 8.10408 4.13391 7.9871C4.50009 7.86505 4.88661 7.80402 5.29346 7.80402C5.84782 7.80402 6.32588 7.90828 6.72766 8.1168C7.12944 8.32531 7.46001 8.60503 7.71939 8.95595C7.97876 9.30178 8.16948 9.69339 8.29154 10.1308C8.41869 10.5631 8.48226 11.0081 8.48226 11.4658C8.48226 11.9896 8.40852 12.4804 8.26102 12.9381C8.11354 13.3958 7.89231 13.7976 7.59733 14.1434C7.30744 14.4893 6.94889 14.7588 6.52169 14.9521C6.09448 15.1453 5.59861 15.242 5.03409 15.242C4.43397 15.242 3.91013 15.1199 3.46259 14.8758C3.01504 14.6266 2.64378 14.296 2.3488 13.8841C2.05382 13.4722 1.83259 13.0144 1.68511 12.5109C1.53761 12.0075 1.46387 11.4962 1.46387 10.9775V10.3139C1.46387 9.53064 1.5427 8.76269 1.70036 8.00999C1.85802 7.25729 2.13011 6.5758 2.51663 5.9655C2.90823 5.35522 3.44988 4.86953 4.14154 4.50843C4.83321 4.14734 5.71559 3.9668 6.78869 3.9668Z" fill="white"/>
<path d="M186.898 9.5951C186.898 10.0783 186.786 10.4888 186.56 10.8266C186.338 11.1608 186.037 11.4151 185.655 11.5895C185.278 11.7638 184.851 11.851 184.375 11.851C183.899 11.851 183.47 11.7638 183.089 11.5895C182.708 11.4151 182.407 11.1608 182.185 10.8266C181.963 10.4888 181.852 10.0783 181.852 9.5951C181.852 9.27905 181.912 8.99025 182.032 8.7287C182.156 8.46352 182.329 8.23284 182.55 8.03667C182.775 7.84051 183.041 7.68975 183.345 7.5844C183.654 7.47542 183.994 7.42092 184.364 7.42092C184.851 7.42092 185.285 7.51538 185.666 7.70428C186.048 7.88954 186.347 8.14566 186.566 8.4726C186.787 8.79953 186.898 9.17371 186.898 9.5951ZM185.884 9.5733C185.884 9.27906 185.82 9.01931 185.693 8.79409C185.567 8.56523 185.389 8.38723 185.16 8.26009C184.931 8.13293 184.665 8.06937 184.364 8.06937C184.055 8.06937 183.788 8.13293 183.563 8.26009C183.342 8.38723 183.169 8.56523 183.045 8.79409C182.922 9.01931 182.86 9.27906 182.86 9.5733C182.86 9.87845 182.92 10.14 183.041 10.358C183.163 10.5723 183.337 10.7376 183.563 10.8538C183.792 10.9665 184.063 11.0228 184.375 11.0228C184.688 11.0228 184.957 10.9665 185.182 10.8538C185.406 10.7376 185.579 10.5723 185.699 10.358C185.823 10.14 185.884 9.87845 185.884 9.5733ZM186.713 5.87339C186.713 6.25847 186.611 6.60539 186.407 6.91416C186.204 7.22294 185.926 7.46633 185.574 7.64434C185.221 7.82234 184.822 7.91135 184.375 7.91135C183.921 7.91135 183.516 7.82234 183.16 7.64434C182.807 7.46633 182.532 7.22294 182.332 6.91416C182.132 6.60539 182.032 6.25847 182.032 5.87339C182.032 5.41204 182.132 5.01971 182.332 4.6964C182.535 4.37308 182.813 4.12607 183.166 3.95532C183.518 3.78459 183.919 3.69922 184.37 3.69922C184.824 3.69922 185.227 3.78459 185.579 3.95532C185.932 4.12607 186.208 4.37308 186.407 4.6964C186.611 5.01971 186.713 5.41204 186.713 5.87339ZM185.704 5.88974C185.704 5.62455 185.649 5.39024 185.536 5.18681C185.423 4.98338 185.267 4.82354 185.067 4.70729C184.867 4.58742 184.635 4.52748 184.37 4.52748C184.104 4.52748 183.872 4.58378 183.672 4.6964C183.476 4.80538 183.322 4.96159 183.209 5.16502C183.1 5.36845 183.045 5.61002 183.045 5.88974C183.045 6.16219 183.1 6.40014 183.209 6.60357C183.322 6.807 183.478 6.96502 183.678 7.07764C183.878 7.19025 184.11 7.24655 184.375 7.24655C184.64 7.24655 184.871 7.19025 185.067 7.07764C185.267 6.96502 185.423 6.807 185.536 6.60357C185.649 6.40014 185.704 6.16219 185.704 5.88974ZM188.239 11.2081C188.239 11.0373 188.291 10.8938 188.396 10.7775C188.505 10.6577 188.662 10.5977 188.865 10.5977C189.069 10.5977 189.223 10.6577 189.328 10.7775C189.437 10.8938 189.492 11.0373 189.492 11.2081C189.492 11.3751 189.437 11.5167 189.328 11.633C189.223 11.7493 189.069 11.8075 188.865 11.8075C188.662 11.8075 188.505 11.7493 188.396 11.633C188.291 11.5167 188.239 11.3751 188.239 11.2081ZM188.244 6.3965C188.244 6.22577 188.297 6.08228 188.402 5.96603C188.511 5.84615 188.667 5.78621 188.87 5.78621C189.073 5.78621 189.229 5.84615 189.334 5.96603C189.443 6.08228 189.498 6.22577 189.498 6.3965C189.498 6.5636 189.443 6.70529 189.334 6.82153C189.229 6.93778 189.073 6.9959 188.87 6.9959C188.667 6.9959 188.511 6.93778 188.402 6.82153C188.297 6.70529 188.244 6.5636 188.244 6.3965ZM192.347 7.27925H193.066C193.419 7.27925 193.709 7.22113 193.938 7.10488C194.171 6.98501 194.343 6.82335 194.456 6.61992C194.572 6.41285 194.63 6.18036 194.63 5.92244C194.63 5.61729 194.58 5.36118 194.478 5.15412C194.375 4.94706 194.224 4.79085 194.019 4.6855C193.816 4.58015 193.559 4.52748 193.246 4.52748C192.963 4.52748 192.713 4.58378 192.494 4.6964C192.28 4.80538 192.111 4.96159 191.987 5.16502C191.868 5.36845 191.808 5.6082 191.808 5.88429H190.8C190.8 5.48106 190.901 5.11416 191.105 4.78358C191.308 4.45301 191.593 4.18963 191.96 3.99347C192.331 3.7973 192.76 3.69922 193.246 3.69922C193.726 3.69922 194.146 3.78459 194.505 3.95532C194.864 4.12243 195.144 4.37308 195.344 4.70729C195.544 5.03788 195.643 5.45018 195.643 5.94423C195.643 6.14404 195.596 6.35836 195.503 6.58722C195.411 6.81244 195.268 7.02315 195.072 7.21931C194.879 7.41548 194.629 7.57714 194.32 7.70428C194.011 7.8278 193.64 7.88954 193.208 7.88954H192.347V7.27925ZM192.347 8.10751V7.50266H193.208C193.713 7.50266 194.131 7.56261 194.461 7.68249C194.792 7.80236 195.052 7.9622 195.24 8.16199C195.433 8.3618 195.567 8.58158 195.643 8.82134C195.724 9.05746 195.764 9.29358 195.764 9.52971C195.764 9.90025 195.7 10.229 195.573 10.516C195.449 10.803 195.273 11.0464 195.044 11.2461C194.82 11.446 194.554 11.5968 194.248 11.6984C193.944 11.8002 193.611 11.851 193.252 11.851C192.907 11.851 192.581 11.802 192.276 11.7039C191.975 11.6058 191.707 11.4641 191.475 11.2788C191.243 11.09 191.061 10.8593 190.93 10.5868C190.8 10.3107 190.734 9.99652 190.734 9.64414H191.742C191.742 9.92023 191.802 10.1618 191.923 10.3689C192.045 10.5759 192.219 10.7376 192.445 10.8538C192.674 10.9665 192.943 11.0228 193.252 11.0228C193.561 11.0228 193.825 10.9701 194.047 10.8647C194.273 10.7557 194.445 10.5923 194.565 10.3743C194.688 10.1563 194.75 9.88209 194.75 9.55151C194.75 9.22094 194.681 8.9503 194.543 8.7396C194.404 8.52527 194.209 8.36724 193.955 8.26553C193.704 8.16019 193.408 8.10751 193.066 8.10751H192.347ZM202.515 9.07199V9.90025H196.783V9.30631L200.336 3.8082H201.158L200.276 5.39933L197.926 9.07199H202.515ZM201.409 3.8082V11.7421H200.401V3.8082H201.409Z" fill="white"/>
<path d="M168.08 21.9746H34.3797C33.3248 21.9746 32.4697 22.8298 32.4697 23.8846C32.4697 24.9395 33.3248 25.7947 34.3797 25.7947H168.08C169.135 25.7947 169.99 24.9395 169.99 23.8846C169.99 22.8298 169.135 21.9746 168.08 21.9746Z" fill="black" fill-opacity="0.1"/>
<path d="M106.025 22.9014H34.3702C33.5099 22.9014 32.8125 23.401 32.8125 24.0173C32.8125 24.6337 33.5099 25.1333 34.3702 25.1333H106.025C106.885 25.1333 107.582 24.6337 107.582 24.0173C107.582 23.401 106.885 22.9014 106.025 22.9014Z" fill="#2F4AFD" stroke="black" stroke-opacity="0.05" stroke-width="0.275777"/>
<path d="M138.007 31.9062H34.0217C33.1645 31.9062 32.4697 32.6012 32.4697 33.4583C32.4697 34.3155 33.1645 35.0103 34.0217 35.0103H138.007C138.864 35.0103 139.56 34.3155 139.56 33.4583C139.56 32.6012 138.864 31.9062 138.007 31.9062Z" fill="white" fill-opacity="0.3"/>
<path d="M82.2075 41.1221H34.0217C33.1645 41.1221 32.4697 41.817 32.4697 42.6742C32.4697 43.5313 33.1645 44.2261 34.0217 44.2261H82.2075C83.0647 44.2261 83.7596 43.5313 83.7596 42.6742C83.7596 41.817 83.0647 41.1221 82.2075 41.1221Z" fill="white" fill-opacity="0.3"/>
</g>
<defs>
<clipPath id="clip0_379_3730">
<rect width="208.686" height="44.6387" fill="white"/>
</clipPath>
</defs>
</svg>
