<svg width="209" height="45" viewBox="0 0 209 45" fill="none" xmlns="http://www.w3.org/2000/svg">
<g clip-path="url(#clip0_379_3739)">
<path d="M38.4767 10.6523C38.4767 10.4485 38.4447 10.2687 38.3807 10.1129C38.3208 9.95302 38.2129 9.80917 38.0571 9.68129C37.9052 9.55343 37.6934 9.43155 37.4217 9.31567C37.154 9.19979 36.8144 9.0819 36.4028 8.96202C35.9712 8.83415 35.5816 8.69229 35.2339 8.53645C34.8863 8.37661 34.5886 8.19479 34.3408 7.99099C34.0931 7.78721 33.9033 7.55344 33.7714 7.28971C33.6396 7.02597 33.5736 6.72427 33.5736 6.38462C33.5736 6.04496 33.6436 5.73127 33.7834 5.44357C33.9232 5.15586 34.1231 4.9061 34.3828 4.69432C34.6465 4.47853 34.9602 4.3107 35.3239 4.19083C35.6875 4.07095 36.0931 4.01101 36.5406 4.01101C37.1959 4.01101 37.7515 4.13688 38.207 4.38863C38.6664 4.63638 39.0162 4.96205 39.2559 5.36565C39.4956 5.76524 39.6156 6.19281 39.6156 6.64835H38.4647C38.4647 6.32068 38.3948 6.03098 38.2549 5.77923C38.115 5.52348 37.9032 5.32369 37.6195 5.17983C37.3359 5.03197 36.9762 4.95805 36.5406 4.95805C36.1291 4.95805 35.7894 5.01999 35.5216 5.14387C35.2539 5.26774 35.0542 5.43558 34.9223 5.64736C34.7944 5.85915 34.7304 6.1009 34.7304 6.37263C34.7304 6.55644 34.7684 6.72427 34.8444 6.87612C34.9243 7.02398 35.0461 7.16183 35.2099 7.28971C35.3778 7.41758 35.5896 7.53546 35.8453 7.64335C36.1051 7.75124 36.4147 7.85514 36.7744 7.95504C37.2699 8.09489 37.6974 8.25074 38.0571 8.42256C38.4167 8.59439 38.7124 8.7882 38.9442 9.00398C39.18 9.21577 39.3538 9.45752 39.4657 9.72925C39.5815 9.99698 39.6396 10.3007 39.6396 10.6403C39.6396 10.996 39.5676 11.3176 39.4237 11.6053C39.2799 11.893 39.0741 12.1388 38.8064 12.3427C38.5387 12.5464 38.2169 12.7042 37.8413 12.8162C37.4697 12.9241 37.0541 12.978 36.5945 12.978C36.191 12.978 35.7934 12.9221 35.4018 12.8101C35.0142 12.6982 34.6606 12.5305 34.3408 12.3066C34.0251 12.0829 33.7714 11.8071 33.5796 11.4795C33.3918 11.1478 33.2979 10.7642 33.2979 10.3286H34.4487C34.4487 10.6283 34.5067 10.8861 34.6225 11.1019C34.7385 11.3136 34.8962 11.4895 35.0961 11.6293C35.2999 11.7692 35.5297 11.8731 35.7853 11.941C36.0451 12.005 36.3149 12.0369 36.5945 12.0369C36.9982 12.0369 37.3398 11.981 37.6195 11.869C37.8992 11.7572 38.111 11.5974 38.2549 11.3896C38.4027 11.1818 38.4767 10.936 38.4767 10.6523ZM43.6615 6.37263V7.22377H40.155V6.37263H43.6615ZM41.3417 4.79622H42.4507V11.2517C42.4507 11.4715 42.4846 11.6374 42.5526 11.7492C42.6205 11.8611 42.7085 11.935 42.8163 11.971C42.9242 12.007 43.0401 12.0249 43.164 12.0249C43.2558 12.0249 43.3517 12.0169 43.4517 12.001C43.5556 11.981 43.6335 11.965 43.6854 11.953L43.6914 12.8581C43.6035 12.886 43.4876 12.912 43.3438 12.936C43.204 12.964 43.0341 12.978 42.8342 12.978C42.5626 12.978 42.3129 12.9241 42.0851 12.8162C41.8573 12.7083 41.6754 12.5285 41.5396 12.2767C41.4077 12.0209 41.3417 11.6773 41.3417 11.2457V4.79622ZM46.7843 12.1868L48.5885 6.37263H49.7753L47.1739 13.859C47.114 14.019 47.0341 14.1907 46.9342 14.3746C46.8382 14.5624 46.7143 14.7402 46.5626 14.908C46.4107 15.0759 46.2269 15.2117 46.0111 15.3156C45.7992 15.4235 45.5456 15.4774 45.2499 15.4774C45.1619 15.4774 45.0501 15.4655 44.9142 15.4415C44.7784 15.4175 44.6824 15.3975 44.6265 15.3816L44.6205 14.4824C44.6525 14.4864 44.7024 14.4905 44.7703 14.4945C44.8423 14.5024 44.8922 14.5064 44.9202 14.5064C45.172 14.5064 45.3857 14.4725 45.5615 14.4045C45.7373 14.3406 45.8852 14.2308 46.0051 14.0749C46.129 13.923 46.2348 13.7132 46.3227 13.4455L46.7843 12.1868ZM45.4597 6.37263L47.144 11.4076L47.4317 12.5763L46.6344 12.984L44.2488 6.37263H45.4597ZM51.981 3.65137V12.8581H50.8662V3.65137H51.981ZM56.4526 12.978C56.001 12.978 55.5914 12.9021 55.2238 12.7502C54.8601 12.5943 54.5465 12.3766 54.2827 12.0968C54.023 11.8172 53.8232 11.4855 53.6833 11.1019C53.5435 10.7183 53.4735 10.2987 53.4735 9.84313V9.59139C53.4735 9.06392 53.5515 8.59439 53.7073 8.18281C53.8632 7.76722 54.0749 7.41558 54.3426 7.12787C54.6105 6.84015 54.9141 6.62237 55.2537 6.47453C55.5934 6.32668 55.9451 6.25275 56.3088 6.25275C56.7722 6.25275 57.1718 6.33267 57.5075 6.49251C57.8471 6.65235 58.1249 6.87612 58.3407 7.16383C58.5564 7.44755 58.7163 7.78321 58.8202 8.17082C58.924 8.55444 58.976 8.97401 58.976 9.42955V9.92705H54.133V9.02196H57.8671V8.93805C57.8511 8.65033 57.7912 8.37061 57.6873 8.09889C57.5874 7.82716 57.4276 7.60339 57.2078 7.42757C56.988 7.25174 56.6883 7.16383 56.3088 7.16383C56.057 7.16383 55.8252 7.21777 55.6134 7.32567C55.4016 7.42956 55.2198 7.58541 55.0679 7.7932C54.9161 8.00099 54.7982 8.25473 54.7144 8.55444C54.6305 8.85413 54.5885 9.19979 54.5885 9.59139V9.84313C54.5885 10.1508 54.6305 10.4405 54.7144 10.7123C54.8022 10.98 54.9281 11.2158 55.0919 11.4195C55.2597 11.6233 55.4615 11.7832 55.6973 11.8991C55.9371 12.0149 56.2088 12.0729 56.5125 12.0729C56.9041 12.0729 57.2358 11.9929 57.5075 11.8331C57.7793 11.6733 58.017 11.4595 58.2207 11.1918L58.8921 11.7252C58.7523 11.937 58.5744 12.1388 58.3587 12.3306C58.1428 12.5224 57.8771 12.6782 57.5614 12.7982C57.2497 12.9181 56.8801 12.978 56.4526 12.978ZM63.3097 3.65137H64.4245V11.5993L64.3287 12.8581H63.3097V3.65137ZM68.8061 9.56142V9.68729C68.8061 10.1588 68.7502 10.5964 68.6383 11C68.5264 11.3996 68.3625 11.7472 68.1468 12.0429C67.931 12.3386 67.6673 12.5684 67.3556 12.7322C67.0439 12.8961 66.6862 12.978 66.2827 12.978C65.871 12.978 65.5095 12.908 65.1978 12.7682C64.8901 12.6243 64.6303 12.4185 64.4186 12.1508C64.2068 11.8831 64.0369 11.5594 63.9091 11.1798C63.7852 10.8002 63.6992 10.3726 63.6514 9.89708V9.34563C63.6992 8.86611 63.7852 8.43656 63.9091 8.05694C64.0369 7.67732 64.2068 7.35364 64.4186 7.08591C64.6303 6.81418 64.8901 6.60839 65.1978 6.46854C65.5054 6.32468 65.8631 6.25275 66.2707 6.25275C66.6783 6.25275 67.0399 6.33267 67.3556 6.49251C67.6713 6.64835 67.935 6.87213 68.1468 7.16383C68.3625 7.45554 68.5264 7.80519 68.6383 8.21278C68.7502 8.61637 68.8061 9.06592 68.8061 9.56142ZM67.6913 9.68729V9.56142C67.6913 9.23774 67.6613 8.93405 67.6013 8.65033C67.5414 8.36262 67.4456 8.11088 67.3136 7.8951C67.1817 7.67532 67.008 7.5035 66.7922 7.37961C66.5763 7.25174 66.3106 7.18781 65.9949 7.18781C65.7152 7.18781 65.4715 7.23576 65.2637 7.33166C65.0599 7.42757 64.8861 7.55744 64.7422 7.72128C64.5984 7.88111 64.4805 8.06493 64.3886 8.27272C64.3006 8.47651 64.2347 8.6883 64.1908 8.90807V10.3526C64.2547 10.6323 64.3586 10.9021 64.5024 11.1619C64.6503 11.4175 64.8461 11.6273 65.0899 11.7912C65.3376 11.955 65.6433 12.0369 66.007 12.0369C66.3066 12.0369 66.5624 11.977 66.7742 11.8571C66.99 11.7332 67.1638 11.5634 67.2957 11.3477C67.4315 11.1318 67.5314 10.8821 67.5953 10.5984C67.6593 10.3147 67.6913 10.011 67.6913 9.68729ZM74.0329 11.7492V8.41058C74.0329 8.15483 73.9809 7.93305 73.877 7.74525C73.7771 7.55344 73.6253 7.40559 73.4214 7.3017C73.2177 7.1978 72.9659 7.14585 72.6663 7.14585C72.3865 7.14585 72.1408 7.1938 71.9289 7.28971C71.7212 7.3856 71.5573 7.51149 71.4375 7.66733C71.3216 7.82316 71.2636 7.991 71.2636 8.17082H70.1548C70.1548 7.93906 70.2147 7.70928 70.3346 7.48151C70.4544 7.25374 70.6263 7.04795 70.85 6.86414C71.0778 6.67632 71.3495 6.52848 71.6652 6.42058C71.985 6.3087 72.3405 6.25275 72.7322 6.25275C73.2037 6.25275 73.6193 6.33267 73.9789 6.49251C74.3426 6.65235 74.6262 6.8941 74.83 7.21777C75.0378 7.53745 75.1417 7.93906 75.1417 8.42256V11.4435C75.1417 11.6594 75.1598 11.889 75.1957 12.1329C75.2357 12.3766 75.2936 12.5864 75.3695 12.7622V12.8581H74.2127C74.1568 12.7302 74.1128 12.5604 74.0809 12.3486C74.0488 12.1329 74.0329 11.933 74.0329 11.7492ZM74.2247 8.92606L74.2367 9.70528H73.1158C72.8001 9.70528 72.5184 9.73124 72.2707 9.78319C72.0229 9.83115 71.8151 9.90507 71.6473 10.005C71.4794 10.1049 71.3515 10.2307 71.2636 10.3826C71.1758 10.5304 71.1318 10.7043 71.1318 10.9041C71.1318 11.1079 71.1778 11.2937 71.2696 11.4615C71.3616 11.6293 71.4994 11.7633 71.6832 11.8631C71.871 11.959 72.1008 12.007 72.3725 12.007C72.7122 12.007 73.0119 11.935 73.2717 11.7912C73.5314 11.6473 73.7371 11.4715 73.889 11.2637C74.0448 11.0559 74.1287 10.8541 74.1408 10.6583L74.6143 11.1918C74.5863 11.3596 74.5104 11.5454 74.3865 11.7492C74.2627 11.953 74.0968 12.1488 73.889 12.3366C73.6853 12.5204 73.4414 12.6743 73.1577 12.7982C72.8781 12.9181 72.5624 12.978 72.2107 12.978C71.7711 12.978 71.3856 12.8921 71.0539 12.7202C70.7262 12.5484 70.4705 12.3187 70.2867 12.031C70.1068 11.7393 70.017 11.4135 70.017 11.0539C70.017 10.7063 70.0848 10.4006 70.2207 10.1368C70.3565 9.86911 70.5524 9.64734 70.8081 9.4715C71.0638 9.29169 71.3715 9.15583 71.7312 9.06392C72.0909 8.97201 72.4924 8.92606 72.936 8.92606H74.2247ZM80.6622 11.1378C80.6622 10.978 80.6262 10.8301 80.5543 10.6943C80.4864 10.5544 80.3445 10.4285 80.1287 10.3167C79.9169 10.2008 79.5973 10.1009 79.1697 10.017C78.81 9.94104 78.4844 9.85112 78.1926 9.74724C77.905 9.64334 77.6592 9.51746 77.4554 9.36962C77.2556 9.22176 77.1018 9.04794 76.9939 8.84814C76.886 8.64833 76.8321 8.41457 76.8321 8.14684C76.8321 7.8911 76.888 7.64934 76.9999 7.42157C77.1157 7.1938 77.2775 6.992 77.4853 6.81618C77.6972 6.64036 77.9509 6.5025 78.2467 6.40259C78.5423 6.3027 78.8719 6.25275 79.2356 6.25275C79.7551 6.25275 80.1987 6.34465 80.5663 6.52848C80.9339 6.71229 81.2156 6.95804 81.4114 7.26573C81.6073 7.56943 81.7052 7.90709 81.7052 8.27871H80.5962C80.5962 8.09889 80.5423 7.92506 80.4344 7.75723C80.3305 7.58541 80.1767 7.44355 79.9728 7.33166C79.7731 7.21977 79.5273 7.16383 79.2356 7.16383C78.928 7.16383 78.6782 7.21178 78.4864 7.30769C78.2986 7.3996 78.1607 7.51748 78.0728 7.66133C77.9889 7.80519 77.9469 7.95704 77.9469 8.11688C77.9469 8.23675 77.9669 8.34464 78.0068 8.44055C78.0508 8.53245 78.1267 8.61837 78.2346 8.69828C78.3425 8.77421 78.4944 8.84614 78.6901 8.91407C78.886 8.98201 79.1357 9.04994 79.4394 9.11787C79.9708 9.23774 80.4084 9.3816 80.7521 9.54943C81.0957 9.71726 81.3515 9.92306 81.5193 10.1668C81.6872 10.4106 81.7711 10.7063 81.7711 11.0539C81.7711 11.3376 81.7112 11.5974 81.5912 11.8331C81.4754 12.0689 81.3055 12.2727 81.0818 12.4446C80.862 12.6124 80.5982 12.7442 80.2906 12.8402C79.9869 12.932 79.6452 12.978 79.2656 12.978C78.6942 12.978 78.2106 12.8761 77.815 12.6723C77.4195 12.4685 77.1198 12.2047 76.916 11.8811C76.7122 11.5574 76.6103 11.2158 76.6103 10.8561H77.7252C77.7411 11.1599 77.8291 11.4016 77.9889 11.5814C78.1487 11.7572 78.3445 11.8831 78.5763 11.959C78.8081 12.031 79.0378 12.0669 79.2656 12.0669C79.5693 12.0669 79.8231 12.027 80.0269 11.9471C80.2346 11.8671 80.3924 11.7572 80.5004 11.6174C80.6083 11.4775 80.6622 11.3176 80.6622 11.1378ZM84.4324 6.37263V12.8581H83.3175V6.37263H84.4324ZM83.2336 4.65237C83.2336 4.47254 83.2876 4.32069 83.3954 4.19682C83.5073 4.07295 83.6712 4.01101 83.887 4.01101C84.0987 4.01101 84.2606 4.07295 84.3724 4.19682C84.4884 4.32069 84.5463 4.47254 84.5463 4.65237C84.5463 4.82419 84.4884 4.97204 84.3724 5.09592C84.2606 5.2158 84.0987 5.27574 83.887 5.27574C83.6712 5.27574 83.5073 5.2158 83.3954 5.09592C83.2876 4.97204 83.2336 4.82419 83.2336 4.65237ZM88.8079 12.0669C89.0718 12.0669 89.3155 12.0129 89.5392 11.9051C89.763 11.7972 89.9468 11.6493 90.0906 11.4615C90.2346 11.2697 90.3165 11.0519 90.3365 10.8082H91.3914C91.3714 11.1918 91.2415 11.5494 91.0018 11.8811C90.766 12.2087 90.4563 12.4745 90.0727 12.6782C89.6891 12.8781 89.2675 12.978 88.8079 12.978C88.3205 12.978 87.8949 12.8921 87.5313 12.7202C87.1716 12.5484 86.872 12.3126 86.6321 12.0129C86.3965 11.7133 86.2186 11.3697 86.0987 10.982C85.9829 10.5904 85.9248 10.1768 85.9248 9.74123V9.48949C85.9248 9.05393 85.9829 8.64234 86.0987 8.25473C86.2186 7.86313 86.3965 7.51748 86.6321 7.21777C86.872 6.91808 87.1716 6.68232 87.5313 6.51049C87.8949 6.33866 88.3205 6.25275 88.8079 6.25275C89.3155 6.25275 89.759 6.35665 90.1386 6.56443C90.5183 6.76823 90.8159 7.04795 91.0317 7.40359C91.2515 7.75524 91.3714 8.15483 91.3914 8.60239H90.3365C90.3165 8.33466 90.2405 8.09289 90.1087 7.87711C89.9808 7.66133 89.805 7.4895 89.5812 7.36163C89.3615 7.22977 89.1037 7.16383 88.8079 7.16383C88.4684 7.16383 88.1826 7.23177 87.9509 7.36763C87.7231 7.49949 87.5412 7.67932 87.4054 7.90709C87.2735 8.13086 87.1776 8.38061 87.1177 8.65633C87.0618 8.92806 87.0338 9.20578 87.0338 9.48949V9.74123C87.0338 10.025 87.0618 10.3047 87.1177 10.5804C87.1736 10.8561 87.2676 11.1059 87.3994 11.3296C87.5353 11.5535 87.7171 11.7332 87.9449 11.869C88.1766 12.001 88.4643 12.0669 88.8079 12.0669ZM96.4144 11.1378C96.4144 10.978 96.3783 10.8301 96.3065 10.6943C96.2385 10.5544 96.0967 10.4285 95.8808 10.3167C95.669 10.2008 95.3494 10.1009 94.9218 10.017C94.5622 9.94104 94.2366 9.85112 93.9449 9.74724C93.657 9.64334 93.4113 9.51746 93.2075 9.36962C93.0078 9.22176 92.8539 9.04794 92.746 8.84814C92.6382 8.64833 92.5842 8.41457 92.5842 8.14684C92.5842 7.8911 92.6402 7.64934 92.752 7.42157C92.8679 7.1938 93.0298 6.992 93.2376 6.81618C93.4493 6.64036 93.703 6.5025 93.9988 6.40259C94.2945 6.3027 94.6241 6.25275 94.9877 6.25275C95.5072 6.25275 95.9508 6.34465 96.3184 6.52848C96.686 6.71229 96.9678 6.95804 97.1635 7.26573C97.3594 7.56943 97.4572 7.90709 97.4572 8.27871H96.3484C96.3484 8.09889 96.2944 7.92506 96.1865 7.75723C96.0826 7.58541 95.9288 7.44355 95.725 7.33166C95.5252 7.21977 95.2794 7.16383 94.9877 7.16383C94.6801 7.16383 94.4303 7.21178 94.2385 7.30769C94.0506 7.3996 93.9128 7.51748 93.8249 7.66133C93.741 7.80519 93.699 7.95704 93.699 8.11688C93.699 8.23675 93.719 8.34464 93.759 8.44055C93.8029 8.53245 93.8789 8.61837 93.9868 8.69828C94.0946 8.77421 94.2465 8.84614 94.4424 8.91407C94.6381 8.98201 94.8878 9.04994 95.1915 9.11787C95.723 9.23774 96.1606 9.3816 96.5042 9.54943C96.8479 9.71726 97.1036 9.92306 97.2714 10.1668C97.4393 10.4106 97.5232 10.7063 97.5232 11.0539C97.5232 11.3376 97.4633 11.5974 97.3434 11.8331C97.2275 12.0689 97.0576 12.2727 96.8339 12.4446C96.6141 12.6124 96.3504 12.7442 96.0426 12.8402C95.739 12.932 95.3974 12.978 95.0177 12.978C94.4463 12.978 93.9628 12.8761 93.5672 12.6723C93.1716 12.4685 92.8719 12.2047 92.6681 11.8811C92.4643 11.5574 92.3624 11.2158 92.3624 10.8561H93.4773C93.4932 11.1599 93.5812 11.4016 93.741 11.5814C93.9009 11.7572 94.0966 11.8831 94.3284 11.959C94.5602 12.031 94.79 12.0669 95.0177 12.0669C95.3214 12.0669 95.5752 12.027 95.7789 11.9471C95.9867 11.8671 96.1446 11.7572 96.2525 11.6174C96.3604 11.4775 96.4144 11.3176 96.4144 11.1378Z" fill="white"/>
<path d="M204.372 0.583008H179.159C177.05 0.583008 175.339 2.29328 175.339 4.40302V12.043C175.339 14.1528 177.05 15.8631 179.159 15.8631H204.372C206.482 15.8631 208.192 14.1528 208.192 12.043V4.40302C208.192 2.29328 206.482 0.583008 204.372 0.583008Z" fill="black" fill-opacity="0.1"/>
<path d="M3.15787 9.80311L2.02883 9.51321L2.58573 3.98242H8.28435V5.28692H3.78343L3.44777 8.30788C3.6512 8.19091 3.90803 8.08156 4.21827 7.97985C4.53358 7.87813 4.89467 7.82727 5.30153 7.82727C5.8152 7.82727 6.27546 7.91627 6.68233 8.09428C7.08919 8.2672 7.43502 8.5164 7.71982 8.84189C8.00972 9.16738 8.23095 9.55899 8.38352 10.0167C8.5361 10.4744 8.61239 10.9856 8.61239 11.5501C8.61239 12.0841 8.53864 12.5749 8.39116 13.0224C8.24875 13.47 8.03261 13.8616 7.74271 14.1973C7.45282 14.5278 7.08665 14.7846 6.64419 14.9677C6.20681 15.1509 5.69059 15.2424 5.09556 15.2424C4.64801 15.2424 4.22334 15.1813 3.82157 15.0592C3.42488 14.9321 3.06887 14.7414 2.75356 14.4871C2.44332 14.2277 2.18903 13.9073 1.99068 13.5259C1.79743 13.1394 1.67537 12.6868 1.62451 12.168H2.96715C3.02819 12.585 3.15025 12.936 3.33334 13.2208C3.51642 13.5056 3.75545 13.7217 4.05043 13.8692C4.3505 14.0116 4.69887 14.0828 5.09556 14.0828C5.43122 14.0828 5.72874 14.0243 5.98811 13.9073C6.24749 13.7904 6.46618 13.6225 6.64419 13.4038C6.82218 13.1852 6.95696 12.9207 7.0485 12.6105C7.14513 12.3002 7.19344 11.9518 7.19344 11.5654C7.19344 11.2144 7.14513 10.8889 7.0485 10.5889C6.95187 10.2888 6.80693 10.0269 6.61367 9.80311C6.42549 9.57933 6.1941 9.40641 5.91946 9.28435C5.64483 9.15721 5.32951 9.09364 4.97351 9.09364C4.50053 9.09364 4.14198 9.15721 3.89786 9.28435C3.65883 9.4115 3.41217 9.58441 3.15787 9.80311Z" fill="white"/>
<path d="M181.86 3.76461V11.7421H180.853V5.02334L178.819 5.76442V4.85442L181.702 3.76461H181.86ZM190.187 9.07199V9.90025H184.454V9.30631L188.007 3.8082H188.83L187.947 5.39933L185.599 9.07199H190.187ZM189.081 3.8082V11.7421H188.072V3.8082H189.081ZM191.168 11.2081C191.168 11.0373 191.22 10.8938 191.325 10.7775C191.434 10.6577 191.59 10.5977 191.794 10.5977C191.998 10.5977 192.152 10.6577 192.257 10.7775C192.366 10.8938 192.421 11.0373 192.421 11.2081C192.421 11.3751 192.366 11.5167 192.257 11.633C192.152 11.7493 191.998 11.8075 191.794 11.8075C191.59 11.8075 191.434 11.7493 191.325 11.633C191.22 11.5167 191.168 11.3751 191.168 11.2081ZM191.173 6.3965C191.173 6.22577 191.226 6.08228 191.33 5.96603C191.44 5.84615 191.596 5.78621 191.799 5.78621C192.002 5.78621 192.157 5.84615 192.262 5.96603C192.372 6.08228 192.426 6.22577 192.426 6.3965C192.426 6.5636 192.372 6.70529 192.262 6.82153C192.157 6.93778 192.002 6.9959 191.799 6.9959C191.596 6.9959 191.44 6.93778 191.33 6.82153C191.226 6.70529 191.173 6.5636 191.173 6.3965ZM197.118 3.76461V11.7421H196.109V5.02334L194.077 5.76442V4.85442L196.959 3.76461H197.118ZM205.062 7.14303V8.35271C205.062 9.00298 205.004 9.55151 204.888 9.99833C204.772 10.4452 204.605 10.8048 204.386 11.0772C204.169 11.3497 203.905 11.5477 203.596 11.6712C203.291 11.7911 202.947 11.851 202.562 11.851C202.256 11.851 201.975 11.8128 201.717 11.7366C201.459 11.6603 201.226 11.5386 201.019 11.3714C200.816 11.2007 200.641 10.9792 200.496 10.7067C200.351 10.4343 200.24 10.1037 200.163 9.71499C200.087 9.32628 200.049 8.8722 200.049 8.35271V7.14303C200.049 6.49277 200.108 5.94787 200.224 5.50831C200.343 5.06874 200.513 4.71638 200.73 4.45119C200.948 4.18237 201.21 3.98984 201.515 3.87359C201.824 3.75734 202.169 3.69922 202.55 3.69922C202.859 3.69922 203.143 3.73736 203.401 3.81365C203.662 3.8863 203.894 4.00437 204.098 4.16784C204.301 4.32768 204.474 4.54201 204.616 4.81083C204.761 5.07602 204.872 5.40115 204.947 5.78621C205.024 6.17128 205.062 6.62354 205.062 7.14303ZM204.049 8.51619V6.9741C204.049 6.6181 204.027 6.30568 203.983 6.03687C203.943 5.76442 203.884 5.53192 203.804 5.33939C203.723 5.14685 203.622 4.99065 203.499 4.87077C203.378 4.75088 203.239 4.6637 203.079 4.60921C202.923 4.55109 202.747 4.52203 202.55 4.52203C202.31 4.52203 202.098 4.56744 201.913 4.65826C201.728 4.74544 201.572 4.8853 201.444 5.07783C201.321 5.27037 201.226 5.52284 201.161 5.83525C201.095 6.14766 201.063 6.52728 201.063 6.9741V8.51619C201.063 8.8722 201.083 9.18642 201.123 9.45887C201.167 9.73132 201.23 9.96745 201.314 10.1673C201.396 10.3634 201.499 10.5251 201.619 10.6522C201.738 10.7794 201.876 10.8738 202.033 10.9356C202.192 10.9937 202.368 11.0228 202.562 11.0228C202.808 11.0228 203.025 10.9755 203.21 10.8811C203.395 10.7866 203.549 10.6395 203.673 10.4397C203.8 10.2363 203.894 9.97653 203.956 9.66049C204.018 9.34081 204.049 8.95937 204.049 8.51619Z" fill="white"/>
<path d="M168.08 21.9746H34.3797C33.3248 21.9746 32.4697 22.8298 32.4697 23.8846C32.4697 24.9395 33.3248 25.7947 34.3797 25.7947H168.08C169.135 25.7947 169.99 24.9395 169.99 23.8846C169.99 22.8298 169.135 21.9746 168.08 21.9746Z" fill="black" fill-opacity="0.1"/>
<path d="M65.594 22.9023H33.51C33.1247 22.9023 32.8125 23.402 32.8125 24.0183C32.8125 24.6347 33.1247 25.1343 33.51 25.1343H65.594C65.9793 25.1343 66.2915 24.6347 66.2915 24.0183C66.2915 23.402 65.9793 22.9023 65.594 22.9023Z" fill="#2F4AFD" stroke="black" stroke-opacity="0.05" stroke-width="0.275777"/>
<path d="M138.007 31.9072H34.0217C33.1645 31.9072 32.4697 32.6021 32.4697 33.4593C32.4697 34.3165 33.1645 35.0113 34.0217 35.0113H138.007C138.864 35.0113 139.56 34.3165 139.56 33.4593C139.56 32.6021 138.864 31.9072 138.007 31.9072Z" fill="white" fill-opacity="0.3"/>
<path d="M82.2075 41.1221H34.0217C33.1645 41.1221 32.4697 41.817 32.4697 42.6742C32.4697 43.5313 33.1645 44.2261 34.0217 44.2261H82.2075C83.0647 44.2261 83.7596 43.5313 83.7596 42.6742C83.7596 41.817 83.0647 41.1221 82.2075 41.1221Z" fill="white" fill-opacity="0.3"/>
</g>
<defs>
<clipPath id="clip0_379_3739">
<rect width="208.686" height="44.6387" fill="white"/>
</clipPath>
</defs>
</svg>
