<svg width="209" height="39" viewBox="0 0 209 39" fill="none" xmlns="http://www.w3.org/2000/svg">
<g clip-path="url(#clip0_379_3748)">
<path d="M39.0937 9.03734H40.2445C40.1845 9.50609 40.0267 9.92559 39.771 10.2958C39.5152 10.6661 39.1536 10.9599 38.686 11.1773C38.2185 11.3913 37.6351 11.4983 36.9358 11.4983C36.4244 11.4983 35.9588 11.4168 35.5392 11.2537C35.1236 11.0907 34.7661 10.8597 34.4663 10.5608C34.1666 10.2584 33.9349 9.89672 33.771 9.47552C33.6112 9.05093 33.5312 8.57878 33.5312 8.05908V7.32028C33.5312 6.80058 33.6112 6.33013 33.771 5.90893C33.9349 5.48433 34.1686 5.12089 34.4723 4.81857C34.78 4.51627 35.1496 4.28359 35.5812 4.12054C36.0127 3.9575 36.4983 3.87598 37.0377 3.87598C37.697 3.87598 38.2545 3.98127 38.71 4.19188C39.1655 4.40247 39.5192 4.69459 39.771 5.06823C40.0267 5.43848 40.1845 5.86817 40.2445 6.3573H39.0937C39.0378 6.01084 38.9339 5.71362 38.782 5.46566C38.6301 5.2143 38.4144 5.02068 38.1346 4.88481C37.855 4.74894 37.4893 4.681 37.0377 4.681C36.6502 4.681 36.3084 4.74384 36.0127 4.86952C35.721 4.99521 35.4753 5.17354 35.2755 5.40452C35.0797 5.6355 34.9319 5.91233 34.8319 6.23501C34.732 6.55771 34.6821 6.91607 34.6821 7.3101V8.05908C34.6821 8.42252 34.726 8.7639 34.8139 9.0832C34.9059 9.40249 35.0437 9.68272 35.2275 9.92389C35.4113 10.1651 35.6451 10.3553 35.9288 10.4946C36.2126 10.6304 36.5483 10.6983 36.9358 10.6983C37.4273 10.6983 37.8189 10.6321 38.1106 10.4997C38.4023 10.3672 38.6222 10.177 38.7699 9.92899C38.9218 9.68102 39.0297 9.38381 39.0937 9.03734ZM41.3594 8.70106V8.58387C41.3594 8.18645 41.4273 7.8179 41.5632 7.47823C41.699 7.13516 41.8949 6.83794 42.1505 6.58658C42.4063 6.33183 42.716 6.13481 43.0797 5.99554C43.4433 5.85288 43.8508 5.78156 44.3025 5.78156C44.758 5.78156 45.1676 5.85288 45.5311 5.99554C45.8988 6.13481 46.2105 6.33183 46.4662 6.58658C46.726 6.83794 46.9237 7.13516 47.0597 7.47823C47.1955 7.8179 47.2634 8.18645 47.2634 8.58387V8.70106C47.2634 9.09848 47.1955 9.46703 47.0597 9.8067C46.9237 10.1464 46.726 10.4436 46.4662 10.6983C46.2105 10.9497 45.9009 11.1467 45.5372 11.2894C45.1775 11.4287 44.7699 11.4983 44.3144 11.4983C43.8589 11.4983 43.4493 11.4287 43.0856 11.2894C42.722 11.1467 42.4103 10.9497 42.1505 10.6983C41.8949 10.4436 41.699 10.1464 41.5632 9.8067C41.4273 9.46703 41.3594 9.09848 41.3594 8.70106ZM42.4682 8.58387V8.70106C42.4682 8.97619 42.5062 9.23605 42.5822 9.48061C42.6581 9.72178 42.7719 9.93578 42.9238 10.1226C43.0797 10.3094 43.2734 10.4572 43.5052 10.5659C43.737 10.6712 44.0067 10.7238 44.3144 10.7238C44.618 10.7238 44.8839 10.6712 45.1116 10.5659C45.3433 10.4572 45.5351 10.3094 45.687 10.1226C45.8389 9.93578 45.9527 9.72178 46.0286 9.48061C46.1086 9.23605 46.1486 8.97619 46.1486 8.70106V8.58387C46.1486 8.31213 46.1086 8.05568 46.0286 7.8145C45.9527 7.56994 45.8369 7.35424 45.681 7.16742C45.5291 6.97721 45.3374 6.82775 45.1056 6.71906C44.8778 6.61036 44.6101 6.55601 44.3025 6.55601C43.9987 6.55601 43.731 6.61036 43.4992 6.71906C43.2714 6.82775 43.0797 6.97721 42.9238 7.16742C42.7719 7.35424 42.6581 7.56994 42.5822 7.8145C42.5062 8.05568 42.4682 8.31213 42.4682 8.58387ZM49.757 6.9789V11.3964H48.642V5.88346H49.6969L49.757 6.9789ZM49.5292 8.43102L49.0136 8.41573C49.0176 8.03869 49.0756 7.69053 49.1875 7.37123C49.2994 7.04854 49.4653 6.76831 49.685 6.53054C49.9047 6.29277 50.1785 6.10934 50.5061 5.98026C50.8339 5.84779 51.2134 5.78156 51.6451 5.78156C51.9487 5.78156 52.2284 5.81892 52.4842 5.89364C52.7399 5.96498 52.9617 6.07877 53.1495 6.23501C53.3373 6.39127 53.4832 6.59168 53.5871 6.83624C53.691 7.08081 53.7429 7.37633 53.7429 7.72279V11.3964H52.634V7.76865C52.634 7.47993 52.5761 7.24895 52.4602 7.07572C52.3484 6.90248 52.1884 6.7768 51.9806 6.69867C51.7729 6.61716 51.5291 6.57639 51.2495 6.57639C50.9217 6.57639 50.6481 6.62565 50.4282 6.72415C50.2085 6.82266 50.0326 6.95853 49.9008 7.13176C49.7689 7.30499 49.673 7.50371 49.6131 7.7279C49.5571 7.94868 49.5292 8.18305 49.5292 8.43102ZM53.7309 7.91131L52.9877 8.10493C52.9917 7.80262 53.0496 7.5122 53.1614 7.23367C53.2774 6.95513 53.4432 6.70717 53.6589 6.48978C53.8788 6.27238 54.1485 6.10085 54.4681 5.97517C54.7879 5.84609 55.1534 5.78156 55.565 5.78156C55.9128 5.78156 56.2204 5.82062 56.4881 5.89874C56.7599 5.97687 56.9877 6.09746 57.1715 6.26049C57.3593 6.42014 57.5011 6.62565 57.597 6.877C57.6929 7.12837 57.7409 7.42728 57.7409 7.77374V11.3964H56.626V7.76355C56.626 7.45446 56.568 7.21499 56.4522 7.04515C56.3403 6.87191 56.1805 6.75133 55.9727 6.68339C55.7689 6.61206 55.5251 6.57639 55.2414 6.57639C54.9977 6.57639 54.7818 6.61206 54.594 6.68339C54.4062 6.75473 54.2484 6.85323 54.1205 6.9789C53.9926 7.10119 53.8947 7.24216 53.8268 7.40181C53.7628 7.56145 53.7309 7.73129 53.7309 7.91131ZM60.5281 6.94325V13.5159H59.4132V5.88346H60.4322L60.5281 6.94325ZM64.8976 8.59406V8.70106C64.8976 9.10188 64.8417 9.47382 64.7298 9.81689C64.618 10.1566 64.4541 10.4521 64.2383 10.7034C64.0265 10.9548 63.7648 11.1501 63.4531 11.2894C63.1414 11.4287 62.7838 11.4983 62.3802 11.4983C61.9687 11.4983 61.605 11.4405 61.2893 11.3251C60.9737 11.2095 60.7059 11.0414 60.4861 10.8206C60.2664 10.5999 60.0905 10.3349 59.9587 10.0257C59.8308 9.71669 59.7429 9.36853 59.6949 8.98129V8.41064C59.7429 8.00302 59.8328 7.63788 59.9646 7.31519C60.0965 6.9925 60.2704 6.71736 60.4861 6.48978C60.7059 6.2588 60.9717 6.08386 61.2833 5.96498C61.595 5.84269 61.9546 5.78156 62.3623 5.78156C62.7698 5.78156 63.1315 5.84949 63.4471 5.98536C63.7628 6.11783 64.0285 6.30805 64.2443 6.55601C64.4601 6.80398 64.622 7.10119 64.7298 7.44766C64.8417 7.79073 64.8976 8.17287 64.8976 8.59406ZM63.7828 8.70106V8.59406C63.7828 8.31892 63.7489 8.06078 63.6809 7.8196C63.6129 7.57504 63.507 7.36105 63.3632 7.17762C63.2233 6.9908 63.0436 6.84474 62.8237 6.73943C62.604 6.63074 62.3423 6.57639 62.0385 6.57639C61.7589 6.57639 61.5151 6.61716 61.3073 6.69867C61.1035 6.7802 60.9297 6.8906 60.7858 7.02986C60.642 7.16572 60.524 7.32198 60.4322 7.49861C60.3443 7.67184 60.2783 7.85187 60.2343 8.03869V9.35834C60.3142 9.59611 60.4262 9.82029 60.57 10.0309C60.7139 10.238 60.9057 10.4062 61.1454 10.5353C61.3852 10.6609 61.6869 10.7238 62.0506 10.7238C62.3502 10.7238 62.608 10.6712 62.8237 10.5659C63.0436 10.4572 63.2233 10.3094 63.3632 10.1226C63.507 9.93578 63.6129 9.72178 63.6809 9.48061C63.7489 9.23605 63.7828 8.97619 63.7828 8.70106ZM66.0185 8.70106V8.58387C66.0185 8.18645 66.0865 7.8179 66.2224 7.47823C66.3582 7.13516 66.5541 6.83794 66.8097 6.58658C67.0655 6.33183 67.3752 6.13481 67.7388 5.99554C68.1025 5.85288 68.51 5.78156 68.9615 5.78156C69.4171 5.78156 69.8267 5.85288 70.1903 5.99554C70.5579 6.13481 70.8696 6.33183 71.1254 6.58658C71.3852 6.83794 71.5829 7.13516 71.7188 7.47823C71.8547 7.8179 71.9226 8.18645 71.9226 8.58387V8.70106C71.9226 9.09848 71.8547 9.46703 71.7188 9.8067C71.5829 10.1464 71.3852 10.4436 71.1254 10.6983C70.8696 10.9497 70.5599 11.1467 70.1964 11.2894C69.8367 11.4287 69.4291 11.4983 68.9736 11.4983C68.518 11.4983 68.1085 11.4287 67.7448 11.2894C67.3812 11.1467 67.0695 10.9497 66.8097 10.6983C66.5541 10.4436 66.3582 10.1464 66.2224 9.8067C66.0865 9.46703 66.0185 9.09848 66.0185 8.70106ZM67.1274 8.58387V8.70106C67.1274 8.97619 67.1654 9.23605 67.2413 9.48061C67.3173 9.72178 67.4311 9.93578 67.583 10.1226C67.7388 10.3094 67.9326 10.4572 68.1644 10.5659C68.3962 10.6712 68.6659 10.7238 68.9736 10.7238C69.2772 10.7238 69.543 10.6712 69.7707 10.5659C70.0025 10.4572 70.1943 10.3094 70.3462 10.1226C70.498 9.93578 70.6119 9.72178 70.6878 9.48061C70.7677 9.23605 70.8077 8.97619 70.8077 8.70106V8.58387C70.8077 8.31213 70.7677 8.05568 70.6878 7.8145C70.6119 7.56994 70.496 7.35424 70.3402 7.16742C70.1883 6.97721 69.9965 6.82775 69.7648 6.71906C69.537 6.61036 69.2693 6.55601 68.9615 6.55601C68.6579 6.55601 68.3902 6.61036 68.1584 6.71906C67.9306 6.82775 67.7388 6.97721 67.583 7.16742C67.4311 7.35424 67.3173 7.56994 67.2413 7.8145C67.1654 8.05568 67.1274 8.31213 67.1274 8.58387ZM74.4221 7.06043V11.3964H73.3133V5.88346H74.3622L74.4221 7.06043ZM74.1584 8.43102L73.6968 8.41573C73.7008 8.03869 73.7668 7.69053 73.8947 7.37123C74.0224 7.04854 74.2023 6.76831 74.434 6.53054C74.6658 6.29277 74.9416 6.10934 75.2613 5.98026C75.5849 5.84779 75.9426 5.78156 76.3342 5.78156C76.6538 5.78156 76.9416 5.81892 77.1973 5.89364C77.453 5.96498 77.6708 6.08047 77.8507 6.24012C78.0345 6.39976 78.1743 6.60696 78.2702 6.86172C78.3661 7.11308 78.4141 7.42049 78.4141 7.78394V11.3964H77.2992V7.77374C77.2992 7.48502 77.2493 7.25404 77.1494 7.08081C77.0494 6.90418 76.9035 6.7768 76.7118 6.69867C76.52 6.61716 76.2842 6.57639 76.0045 6.57639C75.7288 6.57639 75.477 6.62565 75.2492 6.72415C75.0255 6.82266 74.8316 6.95853 74.6678 7.13176C74.508 7.30499 74.3821 7.50371 74.2902 7.7279C74.2023 7.94868 74.1584 8.18305 74.1584 8.43102ZM82.7897 11.4983C82.3381 11.4983 81.9285 11.4338 81.5609 11.3047C81.1972 11.1722 80.8835 10.9871 80.6198 10.7493C80.3601 10.5115 80.1603 10.2296 80.0204 9.90351C79.8806 9.57742 79.8106 9.22077 79.8106 8.83353V8.61954C79.8106 8.17117 79.8885 7.77204 80.0444 7.42218C80.2002 7.06892 80.412 6.77001 80.6797 6.52544C80.9475 6.28087 81.2512 6.09575 81.5908 5.97007C81.9305 5.84439 82.2822 5.78156 82.6458 5.78156C83.1093 5.78156 83.5089 5.84949 83.8446 5.98536C84.1842 6.12123 84.462 6.31144 84.6777 6.55601C84.8935 6.79719 85.0533 7.08251 85.1572 7.412C85.2611 7.73808 85.3131 8.09474 85.3131 8.48197V8.90487H80.4699V8.1355H84.2042V8.06417C84.1882 7.8196 84.1283 7.58183 84.0244 7.35085C83.9245 7.11987 83.7647 6.92965 83.5449 6.7802C83.3251 6.63074 83.0254 6.55601 82.6458 6.55601C82.3941 6.55601 82.1623 6.60186 81.9505 6.69358C81.7387 6.78189 81.5569 6.91437 81.405 7.091C81.2532 7.26763 81.1353 7.48332 81.0514 7.73808C80.9674 7.99284 80.9255 8.28666 80.9255 8.61954V8.83353C80.9255 9.09508 80.9674 9.34135 81.0514 9.57233C81.1393 9.79991 81.2652 10.0003 81.429 10.1735C81.5969 10.3468 81.7986 10.4827 82.0344 10.5812C82.2741 10.6796 82.5459 10.729 82.8496 10.729C83.2412 10.729 83.5729 10.6609 83.8446 10.5251C84.1164 10.3893 84.3541 10.2075 84.5579 9.97993L85.2292 10.4334C85.0894 10.6134 84.9115 10.7849 84.6958 10.948C84.48 11.1111 84.2142 11.2435 83.8985 11.3455C83.5868 11.4473 83.2172 11.4983 82.7897 11.4983ZM87.7167 7.06043V11.3964H86.6078V5.88346H87.6568L87.7167 7.06043ZM87.453 8.43102L86.9914 8.41573C86.9955 8.03869 87.0614 7.69053 87.1892 7.37123C87.3171 7.04854 87.497 6.76831 87.7286 6.53054C87.9604 6.29277 88.2362 6.10934 88.5558 5.98026C88.8795 5.84779 89.2372 5.78156 89.6288 5.78156C89.9484 5.78156 90.2361 5.81892 90.4919 5.89364C90.7477 5.96498 90.9654 6.08047 91.1453 6.24012C91.3291 6.39976 91.4689 6.60696 91.5648 6.86172C91.6608 7.11308 91.7086 7.42049 91.7086 7.78394V11.3964H90.5938V7.77374C90.5938 7.48502 90.5439 7.25404 90.4439 7.08081C90.344 6.90418 90.1982 6.7768 90.0064 6.69867C89.8146 6.61716 89.5788 6.57639 89.2991 6.57639C89.0234 6.57639 88.7716 6.62565 88.5439 6.72415C88.3201 6.82266 88.1263 6.95853 87.9624 7.13176C87.8026 7.30499 87.6767 7.50371 87.5848 7.7279C87.497 7.94868 87.453 8.18305 87.453 8.43102ZM96.1082 5.88346V6.60696H92.6017V5.88346H96.1082ZM93.7886 4.54344H94.8975V10.0309C94.8975 10.2177 94.9314 10.3587 94.9994 10.4538C95.0672 10.5489 95.1552 10.6117 95.2631 10.6424C95.371 10.6729 95.4868 10.6882 95.6107 10.6882C95.7027 10.6882 95.7985 10.6813 95.8984 10.6678C96.0023 10.6508 96.0803 10.6372 96.1322 10.627L96.1382 11.3964C96.0503 11.4201 95.9345 11.4422 95.7906 11.4626C95.6507 11.4864 95.4808 11.4983 95.2811 11.4983C95.0093 11.4983 94.7596 11.4525 94.5318 11.3607C94.304 11.269 94.1222 11.1162 93.9864 10.9022C93.8545 10.6848 93.7886 10.3927 93.7886 10.0257V4.54344ZM101.185 9.93408C101.185 9.79821 101.149 9.67253 101.077 9.55704C101.009 9.43815 100.867 9.33116 100.652 9.23605C100.44 9.13755 100.12 9.05263 99.6926 8.98129C99.333 8.91675 99.0073 8.84032 98.7157 8.75202C98.4279 8.6637 98.1821 8.5567 97.9784 8.43102C97.7786 8.30534 97.6247 8.15758 97.5168 7.98774C97.409 7.8179 97.355 7.61919 97.355 7.39161C97.355 7.17422 97.4109 6.96872 97.5228 6.7751C97.6387 6.58149 97.8006 6.40995 98.0084 6.26049C98.2201 6.11104 98.4738 5.99385 98.7696 5.90893C99.0653 5.82402 99.395 5.78156 99.7585 5.78156C100.278 5.78156 100.722 5.85967 101.089 6.01593C101.457 6.17218 101.739 6.38108 101.934 6.64263C102.13 6.90078 102.228 7.18781 102.228 7.50371H101.119C101.119 7.35085 101.065 7.20309 100.957 7.06043C100.853 6.91437 100.7 6.79378 100.496 6.69867C100.296 6.60356 100.05 6.55601 99.7585 6.55601C99.4509 6.55601 99.2011 6.59677 99.0093 6.6783C98.8215 6.75642 98.6836 6.85663 98.5957 6.9789C98.5118 7.10119 98.4698 7.23027 98.4698 7.36614C98.4698 7.46804 98.4898 7.55975 98.5298 7.64128C98.5737 7.7194 98.6497 7.79243 98.7575 7.86036C98.8654 7.92491 99.0173 7.98604 99.2132 8.04379C99.4089 8.10154 99.6587 8.15928 99.9623 8.21702C100.494 8.31892 100.931 8.44121 101.275 8.58387C101.619 8.72654 101.874 8.90147 102.042 9.10867C102.21 9.31588 102.294 9.56723 102.294 9.86275C102.294 10.1039 102.234 10.3248 102.114 10.5251C101.998 10.7255 101.828 10.8988 101.605 11.0449C101.385 11.1875 101.121 11.2996 100.813 11.3811C100.51 11.4592 100.168 11.4983 99.7886 11.4983C99.2171 11.4983 98.7336 11.4117 98.338 11.2385C97.9424 11.0652 97.6427 10.841 97.4389 10.5659C97.2351 10.2907 97.1332 10.0003 97.1332 9.69461H98.2481C98.264 9.9528 98.352 10.1583 98.5118 10.3111C98.6717 10.4606 98.8674 10.5676 99.0992 10.6321C99.331 10.6933 99.5608 10.7238 99.7886 10.7238C100.092 10.7238 100.346 10.6899 100.55 10.622C100.758 10.554 100.915 10.4606 101.023 10.3417C101.131 10.2228 101.185 10.0869 101.185 9.93408Z" fill="white"/>
<path d="M204.372 0.961914H179.159C177.05 0.961914 175.339 2.41572 175.339 4.20909V10.7034C175.339 12.4968 177.05 13.9506 179.159 13.9506H204.372C206.482 13.9506 208.192 12.4968 208.192 10.7034V4.20909C208.192 2.41572 206.482 0.961914 204.372 0.961914Z" fill="black" fill-opacity="0.1"/>
<path d="M8.87889 10.1168V11.1024H0.853516V10.3956L5.82742 3.85254H6.97935L5.7435 5.74607L2.45554 10.1168H8.87889ZM7.33027 3.85254V13.2943H5.91896V3.85254H7.33027Z" fill="white"/>
<path d="M181.86 3.66692V10.4481H180.853V4.73689L178.819 5.36684V4.5933L181.702 3.66692H181.86ZM190.023 9.74402V10.4481H184.83V9.83202L187.429 7.37246C187.749 7.06984 187.996 6.81354 188.17 6.60356C188.349 6.39049 188.471 6.20058 188.541 6.03383C188.613 5.864 188.65 5.69106 188.65 5.51506C188.65 5.29272 188.595 5.092 188.486 4.9129C188.381 4.73071 188.225 4.58558 188.018 4.4775C187.811 4.36943 187.56 4.31538 187.266 4.31538C186.913 4.31538 186.619 4.37406 186.383 4.4914C186.15 4.60565 185.976 4.76623 185.86 4.97312C185.744 5.18001 185.686 5.41779 185.686 5.68643H184.677C184.677 5.30662 184.775 4.95922 184.972 4.64425C185.168 4.32928 185.458 4.07916 185.843 3.89387C186.228 3.70552 186.703 3.61133 187.266 3.61133C187.767 3.61133 188.196 3.68698 188.552 3.83829C188.908 3.98652 189.18 4.19649 189.369 4.46824C189.562 4.73688 189.658 5.05187 189.658 5.41316C189.658 5.61078 189.617 5.8115 189.538 6.0153C189.461 6.21602 189.354 6.41674 189.217 6.61746C189.082 6.81818 188.924 7.0158 188.743 7.21035C188.564 7.40488 188.374 7.59634 188.17 7.78471L186.045 9.74402H190.023ZM191.168 9.99418C191.168 9.849 191.22 9.72703 191.325 9.62821C191.434 9.52631 191.59 9.47536 191.794 9.47536C191.998 9.47536 192.152 9.52631 192.257 9.62821C192.366 9.72703 192.421 9.849 192.421 9.99418C192.421 10.1362 192.366 10.2566 192.257 10.3554C192.152 10.4543 191.998 10.5037 191.794 10.5037C191.59 10.5037 191.434 10.4543 191.325 10.3554C191.22 10.2566 191.168 10.1362 191.168 9.99418ZM191.173 5.90413C191.173 5.759 191.226 5.63703 191.33 5.53821C191.44 5.43631 191.596 5.38536 191.799 5.38536C192.002 5.38536 192.157 5.43631 192.262 5.53821C192.372 5.63703 192.426 5.759 192.426 5.90413C192.426 6.04618 192.372 6.16662 192.262 6.26543C192.157 6.36424 192.002 6.41365 191.799 6.41365C191.596 6.41365 191.44 6.36424 191.33 6.26543C191.226 6.16662 191.173 6.04618 191.173 5.90413ZM198.785 6.53871V7.567C198.785 8.11975 198.727 8.58603 198.611 8.96584C198.495 9.34566 198.328 9.65137 198.109 9.88297C197.891 10.1146 197.628 10.2828 197.319 10.3879C197.014 10.4897 196.669 10.5407 196.284 10.5407C195.978 10.5407 195.697 10.5082 195.439 10.4434C195.182 10.3786 194.948 10.2752 194.742 10.1331C194.539 9.98792 194.364 9.7996 194.219 9.568C194.073 9.3364 193.963 9.05539 193.886 8.72499C193.81 8.39457 193.772 8.00858 193.772 7.567V6.53871C193.772 5.98597 193.83 5.52278 193.946 5.14914C194.066 4.77548 194.235 4.47596 194.453 4.25054C194.671 4.02202 194.933 3.85837 195.237 3.75955C195.547 3.66073 195.891 3.61133 196.273 3.61133C196.582 3.61133 196.866 3.64375 197.123 3.7086C197.385 3.77035 197.617 3.87072 197.821 4.00967C198.024 4.14554 198.197 4.32774 198.339 4.55625C198.484 4.78167 198.594 5.05804 198.67 5.38536C198.747 5.71268 198.785 6.09713 198.785 6.53871ZM197.772 7.70596V6.39512C197.772 6.0925 197.749 5.82693 197.706 5.59843C197.666 5.36684 197.607 5.1692 197.526 5.00554C197.446 4.84188 197.344 4.7091 197.222 4.6072C197.101 4.50529 196.962 4.43118 196.802 4.38486C196.646 4.33546 196.469 4.31076 196.273 4.31076C196.033 4.31076 195.821 4.34935 195.636 4.42655C195.451 4.50066 195.294 4.61955 195.167 4.78321C195.043 4.94687 194.948 5.16149 194.884 5.42704C194.818 5.69261 194.785 6.0153 194.785 6.39512V7.70596C194.785 8.00858 194.806 8.27568 194.846 8.50728C194.889 8.73888 194.953 8.93959 195.037 9.10944C195.119 9.27618 195.222 9.4136 195.341 9.52168C195.461 9.62975 195.599 9.71005 195.755 9.76254C195.915 9.81195 196.091 9.83665 196.284 9.83665C196.531 9.83665 196.747 9.7965 196.933 9.71622C197.118 9.63593 197.272 9.51087 197.396 9.34103C197.523 9.16811 197.617 8.94732 197.679 8.67867C197.741 8.40693 197.772 8.08269 197.772 7.70596ZM205.444 8.17841V8.88247H199.711V8.37759L203.265 3.70397H204.087L203.204 5.05649L200.855 8.17841H205.444ZM204.338 3.70397V10.4481H203.329V3.70397H204.338Z" fill="white"/>
<path d="M168.08 19.1455H34.3797C33.3248 19.1455 32.4697 19.8724 32.4697 20.7691C32.4697 21.6658 33.3248 22.3927 34.3797 22.3927H168.08C169.135 22.3927 169.99 21.6658 169.99 20.7691C169.99 19.8724 169.135 19.1455 168.08 19.1455Z" fill="black" fill-opacity="0.1"/>
<path d="M112.581 19.9346H34.5097C33.5724 19.9346 32.8125 20.3593 32.8125 20.8832C32.8125 21.4071 33.5724 21.8318 34.5097 21.8318H112.581C113.518 21.8318 114.278 21.4071 114.278 20.8832C114.278 20.3593 113.518 19.9346 112.581 19.9346Z" fill="#2F4AFD" stroke="black" stroke-opacity="0.05" stroke-width="0.275777"/>
<path d="M138.007 27.5889H34.0217C33.1645 27.5889 32.4697 28.1796 32.4697 28.9082C32.4697 29.6368 33.1645 30.2275 34.0217 30.2275H138.007C138.864 30.2275 139.56 29.6368 139.56 28.9082C139.56 28.1796 138.864 27.5889 138.007 27.5889Z" fill="white" fill-opacity="0.3"/>
<path d="M82.2075 35.4219H34.0217C33.1645 35.4219 32.4697 36.0126 32.4697 36.7412C32.4697 37.4699 33.1645 38.0605 34.0217 38.0605H82.2075C83.0647 38.0605 83.7596 37.4699 83.7596 36.7412C83.7596 36.0126 83.0647 35.4219 82.2075 35.4219Z" fill="white" fill-opacity="0.3"/>
</g>
<defs>
<clipPath id="clip0_379_3748">
<rect width="208.686" height="37.9448" fill="white" transform="translate(0 0.466797)"/>
</clipPath>
</defs>
</svg>
