<svg width="210" height="45" viewBox="0 0 210 45" fill="none" xmlns="http://www.w3.org/2000/svg">
<g clip-path="url(#clip0_379_3721)">
<path d="M33.8257 4.13089H36.7148C37.3701 4.13089 37.9235 4.23079 38.375 4.43058C38.8307 4.63038 39.1763 4.92609 39.412 5.3177C39.6518 5.7053 39.7717 6.18282 39.7717 6.75025C39.7717 7.14985 39.6898 7.51548 39.5259 7.84715C39.3661 8.17482 39.1343 8.45453 38.8307 8.6863C38.5309 8.91407 38.1713 9.08389 37.7518 9.19578L37.428 9.32166H34.7128L34.7008 8.38061H36.7507C37.1663 8.38061 37.5119 8.30868 37.7877 8.16483C38.0635 8.01697 38.2712 7.81917 38.4111 7.57142C38.5509 7.32367 38.6209 7.04994 38.6209 6.75025C38.6209 6.41459 38.5549 6.12088 38.423 5.86914C38.2912 5.61739 38.0834 5.42359 37.7996 5.28772C37.52 5.14787 37.1583 5.07793 36.7148 5.07793H34.9825V12.8581H33.8257V4.13089ZM38.9265 12.8581L36.8046 8.90208L38.0094 8.89609L40.1613 12.7861V12.8581H38.9265ZM43.9135 12.978C43.4619 12.978 43.0524 12.9021 42.6848 12.7502C42.3211 12.5943 42.0074 12.3766 41.7437 12.0968C41.484 11.8172 41.2841 11.4855 41.1443 11.1019C41.0045 10.7183 40.9345 10.2987 40.9345 9.84313V9.59139C40.9345 9.06392 41.0124 8.59439 41.1683 8.18281C41.3241 7.76722 41.5359 7.41558 41.8036 7.12787C42.0713 6.84015 42.3751 6.62237 42.7147 6.47453C43.0544 6.32668 43.406 6.25275 43.7696 6.25275C44.2332 6.25275 44.6328 6.33267 44.9685 6.49251C45.3081 6.65235 45.5859 6.87612 45.8016 7.16383C46.0174 7.44755 46.1772 7.78321 46.2811 8.17082C46.385 8.55444 46.437 8.97401 46.437 9.42955V9.92705H41.5938V9.02196H45.3281V8.93805C45.3121 8.65033 45.2522 8.37061 45.1483 8.09889C45.0484 7.82716 44.8885 7.60339 44.6688 7.42757C44.449 7.25174 44.1493 7.16383 43.7696 7.16383C43.5179 7.16383 43.2862 7.21777 43.0744 7.32567C42.8626 7.42956 42.6808 7.58541 42.5289 7.7932C42.377 8.00099 42.2592 8.25473 42.1752 8.55444C42.0913 8.85413 42.0494 9.19979 42.0494 9.59139V9.84313C42.0494 10.1508 42.0913 10.4405 42.1752 10.7123C42.2632 10.98 42.3891 11.2158 42.5529 11.4195C42.7207 11.6233 42.9225 11.7832 43.1583 11.8991C43.398 12.0149 43.6697 12.0729 43.9735 12.0729C44.3651 12.0729 44.6968 11.9929 44.9685 11.8331C45.2401 11.6733 45.4779 11.4595 45.6817 11.1918L46.3531 11.7252C46.2131 11.937 46.0354 12.1388 45.8195 12.3306C45.6038 12.5224 45.3381 12.6782 45.0224 12.7982C44.7107 12.9181 44.3411 12.978 43.9135 12.978ZM51.5078 11.1378C51.5078 10.978 51.4719 10.8301 51.3999 10.6943C51.3321 10.5544 51.1901 10.4285 50.9744 10.3167C50.7626 10.2008 50.443 10.1009 50.0154 10.017C49.6557 9.94104 49.33 9.85112 49.0383 9.74724C48.7506 9.64334 48.5049 9.51746 48.3011 9.36962C48.1012 9.22176 47.9475 9.04794 47.8396 8.84814C47.7316 8.64833 47.6777 8.41457 47.6777 8.14684C47.6777 7.8911 47.7336 7.64934 47.8456 7.42157C47.9614 7.1938 48.1232 6.992 48.331 6.81618C48.5428 6.64036 48.7966 6.5025 49.0923 6.40259C49.388 6.3027 49.7176 6.25275 50.0813 6.25275C50.6008 6.25275 51.0444 6.34465 51.412 6.52848C51.7796 6.71229 52.0613 6.95804 52.2571 7.26573C52.453 7.56943 52.5508 7.90709 52.5508 8.27871H51.4419C51.4419 8.09889 51.388 7.92506 51.2801 7.75723C51.1762 7.58541 51.0224 7.44355 50.8185 7.33166C50.6188 7.21977 50.373 7.16383 50.0813 7.16383C49.7736 7.16383 49.5239 7.21178 49.332 7.30769C49.1442 7.3996 49.0064 7.51748 48.9185 7.66133C48.8345 7.80519 48.7926 7.95704 48.7926 8.11688C48.7926 8.23675 48.8126 8.34464 48.8525 8.44055C48.8965 8.53245 48.9724 8.61837 49.0803 8.69828C49.1882 8.77421 49.3401 8.84614 49.5358 8.91407C49.7317 8.98201 49.9814 9.04994 50.2851 9.11787C50.8165 9.23774 51.2541 9.3816 51.5978 9.54943C51.9414 9.71726 52.1972 9.92306 52.365 10.1668C52.5329 10.4106 52.6168 10.7063 52.6168 11.0539C52.6168 11.3376 52.5569 11.5974 52.4369 11.8331C52.3211 12.0689 52.1512 12.2727 51.9275 12.4446C51.7077 12.6124 51.4439 12.7442 51.1362 12.8402C50.8326 12.932 50.4909 12.978 50.1113 12.978C49.5398 12.978 49.0563 12.8761 48.6607 12.6723C48.2652 12.4685 47.9654 12.2047 47.7617 11.8811C47.5579 11.5574 47.456 11.2158 47.456 10.8561H48.5708C48.5868 11.1599 48.6747 11.4016 48.8345 11.5814C48.9944 11.7572 49.1902 11.8831 49.422 11.959C49.6538 12.031 49.8834 12.0669 50.1113 12.0669C50.415 12.0669 50.6688 12.027 50.8725 11.9471C51.0803 11.8671 51.2381 11.7572 51.346 11.6174C51.4539 11.4775 51.5078 11.3176 51.5078 11.1378ZM55.1822 7.61938V15.3515H54.0673V6.37263H55.0863L55.1822 7.61938ZM59.5517 9.56142V9.68729C59.5517 10.1588 59.4958 10.5964 59.3839 11C59.2721 11.3996 59.1083 11.7472 58.8924 12.0429C58.6806 12.3386 58.4189 12.5684 58.1072 12.7322C57.7955 12.8961 57.4379 12.978 57.0343 12.978C56.6227 12.978 56.2591 12.91 55.9434 12.7742C55.6277 12.6383 55.3599 12.4405 55.1402 12.1807C54.9205 11.9211 54.7446 11.6094 54.6127 11.2457C54.4849 10.8821 54.397 10.4725 54.349 10.017V9.34563C54.397 8.86611 54.4868 8.43656 54.6187 8.05694C54.7506 7.67732 54.9244 7.35364 55.1402 7.08591C55.3599 6.81418 55.6258 6.60839 55.9375 6.46854C56.2491 6.32468 56.6087 6.25275 57.0164 6.25275C57.4239 6.25275 57.7855 6.33267 58.1012 6.49251C58.4169 6.64835 58.6826 6.87213 58.8985 7.16383C59.1142 7.45554 59.2761 7.80519 59.3839 8.21278C59.4958 8.61637 59.5517 9.06592 59.5517 9.56142ZM58.4369 9.68729V9.56142C58.4369 9.23774 58.403 8.93405 58.335 8.65033C58.267 8.36262 58.1611 8.11088 58.0173 7.8951C57.8775 7.67532 57.6977 7.5035 57.4778 7.37961C57.2581 7.25174 56.9963 7.18781 56.6926 7.18781C56.413 7.18781 56.1691 7.23576 55.9613 7.33166C55.7576 7.42757 55.5838 7.55744 55.44 7.72128C55.296 7.88111 55.1782 8.06493 55.0863 8.27272C54.9984 8.47651 54.9324 8.6883 54.8884 8.90807V10.4605C54.9684 10.7402 55.0803 11.004 55.2241 11.2517C55.368 11.4954 55.5598 11.6933 55.7995 11.8452C56.0393 11.9929 56.341 12.0669 56.7047 12.0669C57.0043 12.0669 57.2621 12.005 57.4778 11.8811C57.6977 11.7532 57.8775 11.5793 58.0173 11.3596C58.1611 11.1398 58.267 10.8881 58.335 10.6044C58.403 10.3167 58.4369 10.011 58.4369 9.68729ZM60.6726 9.68729V9.54943C60.6726 9.0819 60.7406 8.64833 60.8764 8.24874C61.0123 7.84515 61.2081 7.49549 61.4638 7.1998C61.7196 6.9001 62.0293 6.66833 62.3929 6.50449C62.7566 6.33666 63.1641 6.25275 63.6156 6.25275C64.0712 6.25275 64.4809 6.33666 64.8444 6.50449C65.212 6.66833 65.5237 6.9001 65.7795 7.1998C66.0392 7.49549 66.2371 7.84515 66.3729 8.24874C66.5088 8.64833 66.5766 9.0819 66.5766 9.54943V9.68729C66.5766 10.1548 66.5088 10.5884 66.3729 10.988C66.2371 11.3876 66.0392 11.7373 65.7795 12.0369C65.5237 12.3326 65.214 12.5644 64.8505 12.7322C64.4908 12.8961 64.0832 12.978 63.6277 12.978C63.1722 12.978 62.7625 12.8961 62.3989 12.7322C62.0352 12.5644 61.7235 12.3326 61.4638 12.0369C61.2081 11.7373 61.0123 11.3876 60.8764 10.988C60.7406 10.5884 60.6726 10.1548 60.6726 9.68729ZM61.7816 9.54943V9.68729C61.7816 10.011 61.8195 10.3167 61.8954 10.6044C61.9714 10.8881 62.0852 11.1398 62.2371 11.3596C62.3929 11.5793 62.5867 11.7532 62.8185 11.8811C63.0503 12.005 63.32 12.0669 63.6277 12.0669C63.9314 12.0669 64.1971 12.005 64.4248 11.8811C64.6566 11.7532 64.8485 11.5793 65.0002 11.3596C65.1521 11.1398 65.266 10.8881 65.3419 10.6044C65.4218 10.3167 65.4618 10.011 65.4618 9.68729V9.54943C65.4618 9.22975 65.4218 8.92806 65.3419 8.64434C65.266 8.35663 65.1501 8.10288 64.9943 7.8831C64.8424 7.65933 64.6506 7.48351 64.4189 7.35564C64.1912 7.22777 63.9233 7.16383 63.6156 7.16383C63.312 7.16383 63.0443 7.22777 62.8125 7.35564C62.5847 7.48351 62.3929 7.65933 62.2371 7.8831C62.0852 8.10288 61.9714 8.35663 61.8954 8.64434C61.8195 8.92806 61.7816 9.22975 61.7816 9.54943ZM69.0762 7.75723V12.8581H67.9672V6.37263H69.0163L69.0762 7.75723ZM68.8125 9.36962L68.3509 9.35163C68.3549 8.90807 68.4209 8.49849 68.5487 8.12287C68.6766 7.74325 68.8564 7.41358 69.0881 7.13387C69.3199 6.85415 69.5957 6.63836 69.9153 6.48651C70.239 6.33067 70.5967 6.25275 70.9883 6.25275C71.3079 6.25275 71.5956 6.29671 71.8514 6.38462C72.1072 6.46854 72.3249 6.60439 72.5048 6.79221C72.6886 6.98002 72.8284 7.22377 72.9243 7.52347C73.0202 7.81917 73.0681 8.18081 73.0681 8.60838V12.8581H71.9533V8.59639C71.9533 8.25673 71.9034 7.985 71.8034 7.78122C71.7035 7.57342 71.5576 7.42357 71.3658 7.33166C71.1741 7.23576 70.9383 7.18781 70.6586 7.18781C70.3829 7.18781 70.1311 7.24575 69.9033 7.36163C69.6796 7.47752 69.4857 7.63736 69.3219 7.84115C69.1621 8.04494 69.0362 8.27871 68.9443 8.54245C68.8565 8.80218 68.8125 9.0779 68.8125 9.36962ZM78.5286 11.1378C78.5286 10.978 78.4927 10.8301 78.4207 10.6943C78.3529 10.5544 78.2109 10.4285 77.9952 10.3167C77.7834 10.2008 77.4637 10.1009 77.0362 10.017C76.6765 9.94104 76.3508 9.85112 76.0591 9.74724C75.7714 9.64334 75.5257 9.51746 75.3219 9.36962C75.122 9.22176 74.9683 9.04794 74.8603 8.84814C74.7524 8.64833 74.6985 8.41457 74.6985 8.14684C74.6985 7.8911 74.7544 7.64934 74.8664 7.42157C74.9822 7.1938 75.144 6.992 75.3518 6.81618C75.5636 6.64036 75.8174 6.5025 76.1131 6.40259C76.4088 6.3027 76.7384 6.25275 77.1021 6.25275C77.6216 6.25275 78.0651 6.34465 78.4328 6.52848C78.8004 6.71229 79.0821 6.95804 79.2779 7.26573C79.4737 7.56943 79.5716 7.90709 79.5716 8.27871H78.4627C78.4627 8.09889 78.4088 7.92506 78.3009 7.75723C78.197 7.58541 78.0431 7.44355 77.8393 7.33166C77.6396 7.21977 77.3938 7.16383 77.1021 7.16383C76.7944 7.16383 76.5447 7.21178 76.3528 7.30769C76.165 7.3996 76.0272 7.51748 75.9393 7.66133C75.8554 7.80519 75.8134 7.95704 75.8134 8.11688C75.8134 8.23675 75.8334 8.34464 75.8733 8.44055C75.9173 8.53245 75.9932 8.61837 76.1011 8.69828C76.209 8.77421 76.3609 8.84614 76.5566 8.91407C76.7525 8.98201 77.0022 9.04994 77.3059 9.11787C77.8373 9.23774 78.2749 9.3816 78.6186 9.54943C78.9622 9.71726 79.218 9.92306 79.3858 10.1668C79.5537 10.4106 79.6376 10.7063 79.6376 11.0539C79.6376 11.3376 79.5775 11.5974 79.4577 11.8331C79.3419 12.0689 79.172 12.2727 78.9483 12.4446C78.7284 12.6124 78.4647 12.7442 78.157 12.8402C77.8534 12.932 77.5117 12.978 77.132 12.978C76.5606 12.978 76.0771 12.8761 75.6815 12.6723C75.2859 12.4685 74.9862 12.2047 74.7825 11.8811C74.5787 11.5574 74.4767 11.2158 74.4767 10.8561H75.5916C75.6076 11.1599 75.6955 11.4016 75.8553 11.5814C76.0152 11.7572 76.211 11.8831 76.4428 11.959C76.6745 12.031 76.9043 12.0669 77.132 12.0669C77.4358 12.0669 77.6896 12.027 77.8933 11.9471C78.1011 11.8671 78.2589 11.7572 78.3668 11.6174C78.4747 11.4775 78.5286 11.3176 78.5286 11.1378ZM82.2988 6.37263V12.8581H81.184V6.37263H82.2988ZM81.1001 4.65237C81.1001 4.47254 81.154 4.32069 81.2619 4.19682C81.3738 4.07295 81.5376 4.01101 81.7535 4.01101C81.9652 4.01101 82.1271 4.07295 82.2389 4.19682C82.3549 4.32069 82.4128 4.47254 82.4128 4.65237C82.4128 4.82419 82.3549 4.97204 82.2389 5.09592C82.1271 5.2158 81.9652 5.27574 81.7535 5.27574C81.5376 5.27574 81.3738 5.2158 81.2619 5.09592C81.154 4.97204 81.1001 4.82419 81.1001 4.65237ZM86.051 11.8571L87.8253 6.37263H88.9581L86.6266 12.8581H85.8832L86.051 11.8571ZM84.5706 6.37263L86.3988 11.8871L86.5246 12.8581H85.7813L83.4318 6.37263H84.5706ZM92.6325 12.978C92.1809 12.978 91.7713 12.9021 91.4037 12.7502C91.0401 12.5943 90.7264 12.3766 90.4627 12.0968C90.2029 11.8172 90.0031 11.4855 89.8632 11.1019C89.7234 10.7183 89.6535 10.2987 89.6535 9.84313V9.59139C89.6535 9.06392 89.7314 8.59439 89.8872 8.18281C90.0431 7.76722 90.2549 7.41558 90.5226 7.12787C90.7903 6.84015 91.094 6.62237 91.4337 6.47453C91.7733 6.32668 92.1249 6.25275 92.4886 6.25275C92.9521 6.25275 93.3517 6.33267 93.6874 6.49251C94.0271 6.65235 94.3047 6.87612 94.5206 7.16383C94.7363 7.44755 94.8962 7.78321 95.0001 8.17082C95.104 8.55444 95.1559 8.97401 95.1559 9.42955V9.92705H90.3128V9.02196H94.0471V8.93805C94.031 8.65033 93.9711 8.37061 93.8672 8.09889C93.7673 7.82716 93.6075 7.60339 93.3876 7.42757C93.1679 7.25174 92.8683 7.16383 92.4886 7.16383C92.2369 7.16383 92.0051 7.21777 91.7933 7.32567C91.5816 7.42956 91.3997 7.58541 91.2479 7.7932C91.096 8.00099 90.9782 8.25473 90.8942 8.55444C90.8103 8.85413 90.7684 9.19979 90.7684 9.59139V9.84313C90.7684 10.1508 90.8103 10.4405 90.8942 10.7123C90.9821 10.98 91.1079 11.2158 91.2719 11.4195C91.4396 11.6233 91.6415 11.7832 91.8772 11.8991C92.117 12.0149 92.3887 12.0729 92.6924 12.0729C93.084 12.0729 93.4157 11.9929 93.6874 11.8331C93.9591 11.6733 94.1968 11.4595 94.4007 11.1918L95.072 11.7252C94.9321 11.937 94.7544 12.1388 94.5385 12.3306C94.3227 12.5224 94.057 12.6782 93.7413 12.7982C93.4296 12.9181 93.06 12.978 92.6325 12.978ZM103.583 11.5993V3.65137H104.698V12.8581H103.679L103.583 11.5993ZM99.2198 9.68729V9.56142C99.2198 9.06592 99.2797 8.61637 99.3997 8.21278C99.5236 7.80519 99.6973 7.45554 99.9211 7.16383C100.149 6.87213 100.419 6.64835 100.73 6.49251C101.046 6.33267 101.398 6.25275 101.785 6.25275C102.193 6.25275 102.548 6.32468 102.852 6.46854C103.16 6.60839 103.42 6.81418 103.631 7.08591C103.847 7.35364 104.017 7.67732 104.141 8.05694C104.265 8.43656 104.351 8.86611 104.399 9.34563V9.89708C104.355 10.3726 104.269 10.8002 104.141 11.1798C104.017 11.5594 103.847 11.8831 103.631 12.1508C103.42 12.4185 103.16 12.6243 102.852 12.7682C102.544 12.908 102.185 12.978 101.773 12.978C101.394 12.978 101.046 12.8961 100.73 12.7322C100.419 12.5684 100.149 12.3386 99.9211 12.0429C99.6973 11.7472 99.5236 11.3996 99.3997 11C99.2797 10.5964 99.2198 10.1588 99.2198 9.68729ZM100.335 9.56142V9.68729C100.335 10.011 100.367 10.3147 100.431 10.5984C100.499 10.8821 100.602 11.1318 100.742 11.3477C100.882 11.5634 101.06 11.7332 101.276 11.8571C101.492 11.977 101.749 12.0369 102.049 12.0369C102.417 12.0369 102.718 11.959 102.954 11.8032C103.194 11.6473 103.386 11.4415 103.529 11.1857C103.673 10.93 103.785 10.6523 103.865 10.3526V8.90807C103.817 8.6883 103.747 8.47651 103.655 8.27272C103.567 8.06493 103.452 7.88111 103.308 7.72128C103.168 7.55744 102.994 7.42757 102.786 7.33166C102.582 7.23576 102.341 7.18781 102.061 7.18781C101.757 7.18781 101.495 7.25174 101.276 7.37961C101.06 7.5035 100.882 7.67532 100.742 7.8951C100.602 8.11088 100.499 8.36262 100.431 8.65033C100.367 8.93405 100.335 9.23774 100.335 9.56142ZM109.116 12.978C108.664 12.978 108.255 12.9021 107.887 12.7502C107.523 12.5943 107.21 12.3766 106.946 12.0968C106.686 11.8172 106.487 11.4855 106.347 11.1019C106.207 10.7183 106.137 10.2987 106.137 9.84313V9.59139C106.137 9.06392 106.215 8.59439 106.371 8.18281C106.526 7.76722 106.738 7.41558 107.006 7.12787C107.274 6.84015 107.577 6.62237 107.917 6.47453C108.257 6.32668 108.608 6.25275 108.972 6.25275C109.436 6.25275 109.835 6.33267 110.171 6.49251C110.51 6.65235 110.788 6.87612 111.004 7.16383C111.22 7.44755 111.38 7.78321 111.484 8.17082C111.587 8.55444 111.64 8.97401 111.64 9.42955V9.92705H106.796V9.02196H110.53V8.93805C110.515 8.65033 110.454 8.37061 110.351 8.09889C110.251 7.82716 110.091 7.60339 109.871 7.42757C109.651 7.25174 109.352 7.16383 108.972 7.16383C108.72 7.16383 108.488 7.21777 108.277 7.32567C108.065 7.42956 107.883 7.58541 107.731 7.7932C107.579 8.00099 107.462 8.25473 107.378 8.55444C107.294 8.85413 107.252 9.19979 107.252 9.59139V9.84313C107.252 10.1508 107.294 10.4405 107.378 10.7123C107.466 10.98 107.591 11.2158 107.755 11.4195C107.923 11.6233 108.125 11.7832 108.361 11.8991C108.6 12.0149 108.872 12.0729 109.176 12.0729C109.567 12.0729 109.899 11.9929 110.171 11.8331C110.443 11.6733 110.68 11.4595 110.884 11.1918L111.555 11.7252C111.416 11.937 111.238 12.1388 111.022 12.3306C110.806 12.5224 110.54 12.6782 110.225 12.7982C109.913 12.9181 109.543 12.978 109.116 12.978ZM116.711 11.1378C116.711 10.978 116.674 10.8301 116.602 10.6943C116.534 10.5544 116.393 10.4285 116.177 10.3167C115.965 10.2008 115.645 10.1009 115.218 10.017C114.858 9.94104 114.532 9.85112 114.241 9.74724C113.953 9.64334 113.708 9.51746 113.503 9.36962C113.304 9.22176 113.15 9.04794 113.041 8.84814C112.934 8.64833 112.88 8.41457 112.88 8.14684C112.88 7.8911 112.936 7.64934 113.048 7.42157C113.164 7.1938 113.326 6.992 113.534 6.81618C113.746 6.64036 113.999 6.5025 114.295 6.40259C114.59 6.3027 114.92 6.25275 115.283 6.25275C115.803 6.25275 116.246 6.34465 116.615 6.52848C116.982 6.71229 117.264 6.95804 117.46 7.26573C117.655 7.56943 117.753 7.90709 117.753 8.27871H116.644C116.644 8.09889 116.59 7.92506 116.482 7.75723C116.378 7.58541 116.225 7.44355 116.021 7.33166C115.821 7.21977 115.576 7.16383 115.283 7.16383C114.976 7.16383 114.726 7.21178 114.535 7.30769C114.347 7.3996 114.209 7.51748 114.121 7.66133C114.037 7.80519 113.994 7.95704 113.994 8.11688C113.994 8.23675 114.015 8.34464 114.055 8.44055C114.099 8.53245 114.175 8.61837 114.282 8.69828C114.391 8.77421 114.542 8.84614 114.738 8.91407C114.934 8.98201 115.184 9.04994 115.488 9.11787C116.019 9.23774 116.456 9.3816 116.8 9.54943C117.144 9.71726 117.399 9.92306 117.568 10.1668C117.735 10.4106 117.819 10.7063 117.819 11.0539C117.819 11.3376 117.76 11.5974 117.639 11.8331C117.523 12.0689 117.353 12.2727 117.13 12.4446C116.91 12.6124 116.646 12.7442 116.339 12.8402C116.034 12.932 115.693 12.978 115.313 12.978C114.742 12.978 114.259 12.8761 113.863 12.6723C113.468 12.4685 113.167 12.2047 112.964 11.8811C112.76 11.5574 112.659 11.2158 112.659 10.8561H113.773C113.789 11.1599 113.877 11.4016 114.037 11.5814C114.196 11.7572 114.393 11.8831 114.624 11.959C114.856 12.031 115.086 12.0669 115.313 12.0669C115.617 12.0669 115.871 12.027 116.075 11.9471C116.282 11.8671 116.441 11.7572 116.549 11.6174C116.656 11.4775 116.711 11.3176 116.711 11.1378ZM120.48 6.37263V12.8581H119.366V6.37263H120.48ZM119.282 4.65237C119.282 4.47254 119.335 4.32069 119.444 4.19682C119.555 4.07295 119.719 4.01101 119.935 4.01101C120.147 4.01101 120.309 4.07295 120.42 4.19682C120.536 4.32069 120.594 4.47254 120.594 4.65237C120.594 4.82419 120.536 4.97204 120.42 5.09592C120.309 5.2158 120.147 5.27574 119.935 5.27574C119.719 5.27574 119.555 5.2158 119.444 5.09592C119.335 4.97204 119.282 4.82419 119.282 4.65237ZM126.462 6.37263H127.47V12.7202C127.47 13.2917 127.354 13.7791 127.122 14.1828C126.889 14.5863 126.566 14.8921 126.151 15.0999C125.739 15.3116 125.263 15.4175 124.724 15.4175C124.5 15.4175 124.237 15.3816 123.933 15.3097C123.633 15.2417 123.337 15.1238 123.046 14.956C122.758 14.7921 122.516 14.5704 122.321 14.2907L122.902 13.6313C123.173 13.959 123.458 14.1868 123.754 14.3146C124.053 14.4425 124.348 14.5064 124.641 14.5064C124.992 14.5064 125.296 14.4405 125.551 14.3087C125.807 14.1768 126.004 13.981 126.145 13.7212C126.289 13.4654 126.36 13.1498 126.36 12.7742V7.79919L126.462 6.37263ZM121.997 9.68729V9.56142C121.997 9.06592 122.055 8.61637 122.171 8.21278C122.291 7.80519 122.46 7.45554 122.68 7.16383C122.904 6.87213 123.173 6.64835 123.489 6.49251C123.805 6.33267 124.161 6.25275 124.556 6.25275C124.964 6.25275 125.319 6.32468 125.623 6.46854C125.931 6.60839 126.191 6.81418 126.403 7.08591C126.618 7.35364 126.788 7.67732 126.912 8.05694C127.036 8.43656 127.122 8.86611 127.17 9.34563V9.89708C127.126 10.3726 127.04 10.8002 126.912 11.1798C126.788 11.5594 126.618 11.8831 126.403 12.1508C126.191 12.4185 125.931 12.6243 125.623 12.7682C125.316 12.908 124.955 12.978 124.545 12.978C124.156 12.978 123.805 12.8961 123.489 12.7322C123.178 12.5684 122.91 12.3386 122.687 12.0429C122.462 11.7472 122.291 11.3996 122.171 11C122.055 10.5964 121.997 10.1588 121.997 9.68729ZM123.106 9.56142V9.68729C123.106 10.011 123.138 10.3147 123.201 10.5984C123.269 10.8821 123.372 11.1318 123.507 11.3477C123.648 11.5634 123.825 11.7332 124.04 11.8571C124.257 11.977 124.515 12.0369 124.814 12.0369C125.182 12.0369 125.486 11.959 125.725 11.8032C125.965 11.6473 126.155 11.4415 126.295 11.1857C126.439 10.93 126.55 10.6523 126.631 10.3526V8.90807C126.586 8.6883 126.518 8.47651 126.426 8.27272C126.338 8.06493 126.222 7.88111 126.079 7.72128C125.939 7.55744 125.766 7.42757 125.557 7.33166C125.349 7.23576 125.106 7.18781 124.826 7.18781C124.522 7.18781 124.26 7.25174 124.04 7.37961C123.825 7.5035 123.648 7.67532 123.507 7.8951C123.372 8.11088 123.269 8.36262 123.201 8.65033C123.138 8.93405 123.106 9.23774 123.106 9.56142ZM130.263 7.75723V12.8581H129.154V6.37263H130.203L130.263 7.75723ZM129.998 9.36962L129.538 9.35163C129.541 8.90807 129.607 8.49849 129.735 8.12287C129.863 7.74325 130.043 7.41358 130.274 7.13387C130.506 6.85415 130.782 6.63836 131.102 6.48651C131.426 6.33067 131.783 6.25275 132.175 6.25275C132.494 6.25275 132.782 6.29671 133.037 6.38462C133.294 6.46854 133.512 6.60439 133.691 6.79221C133.875 6.98002 134.015 7.22377 134.111 7.52347C134.207 7.81917 134.255 8.18081 134.255 8.60838V12.8581H133.14V8.59639C133.14 8.25673 133.09 7.985 132.989 7.78122C132.89 7.57342 132.744 7.42357 132.552 7.33166C132.36 7.23576 132.124 7.18781 131.845 7.18781C131.57 7.18781 131.318 7.24575 131.09 7.36163C130.866 7.47752 130.673 7.63736 130.508 7.84115C130.349 8.04494 130.223 8.27871 130.13 8.54245C130.043 8.80218 129.998 9.0779 129.998 9.36962Z" fill="white"/>
<path d="M205.243 0.583008H179.55C177.399 0.583008 175.656 2.33174 175.656 4.48889V12.3007C175.656 14.4579 177.399 16.2066 179.55 16.2066H205.243C207.393 16.2066 209.135 14.4579 209.135 12.3007V4.48889C209.135 2.33174 207.393 0.583008 205.243 0.583008Z" fill="black" fill-opacity="0.1"/>
<path d="M8.55106 3.9834V4.77678L3.95096 15.0908H2.46337L7.05584 5.14296H1.04443V3.9834H8.55106Z" fill="white"/>
<path d="M184.015 11.456H184.117C184.699 11.456 185.171 11.3743 185.534 11.2108C185.897 11.0473 186.177 10.8276 186.374 10.5515C186.57 10.2754 186.704 9.96479 186.777 9.61969C186.849 9.27095 186.886 8.91312 186.886 8.54622V7.33109C186.886 6.97144 186.844 6.65176 186.761 6.37205C186.681 6.09233 186.568 5.85802 186.423 5.66912C186.281 5.48022 186.119 5.33673 185.937 5.23865C185.755 5.14056 185.564 5.09152 185.36 5.09152C185.127 5.09152 184.918 5.13875 184.733 5.23319C184.551 5.32402 184.397 5.45297 184.27 5.62007C184.146 5.78718 184.052 5.98335 183.987 6.20858C183.922 6.4338 183.888 6.67901 183.888 6.9442C183.888 7.18033 183.917 7.40918 183.975 7.63078C184.035 7.85238 184.123 8.05218 184.243 8.23018C184.363 8.40818 184.512 8.54986 184.69 8.6552C184.872 8.75692 185.084 8.80778 185.327 8.80778C185.552 8.80778 185.763 8.76419 185.96 8.677C186.159 8.58618 186.336 8.46448 186.488 8.31191C186.644 8.15571 186.768 7.97952 186.858 7.78335C186.953 7.58719 187.008 7.38194 187.022 7.16761H187.502C187.502 7.46913 187.442 7.767 187.321 8.06125C187.205 8.35187 187.042 8.61706 186.831 8.85682C186.62 9.09658 186.374 9.28911 186.09 9.43442C185.807 9.5761 185.498 9.64693 185.164 9.64693C184.771 9.64693 184.432 9.57064 184.145 9.41807C183.858 9.2655 183.622 9.06206 183.436 8.80778C183.255 8.55349 183.118 8.27014 183.028 7.95772C182.941 7.64168 182.897 7.322 182.897 6.99869C182.897 6.62088 182.95 6.2667 183.055 5.93613C183.161 5.60554 183.317 5.31493 183.524 5.06428C183.731 4.80998 183.987 4.612 184.292 4.47033C184.6 4.32865 184.956 4.25781 185.36 4.25781C185.815 4.25781 186.201 4.34863 186.521 4.53026C186.84 4.7119 187.1 4.95529 187.3 5.26044C187.503 5.56559 187.653 5.90887 187.746 6.29031C187.841 6.67175 187.888 7.06408 187.888 7.46731V7.8324C187.888 8.24289 187.861 8.66065 187.807 9.08568C187.755 9.50708 187.656 9.91031 187.506 10.2954C187.361 10.6804 187.149 11.0255 186.869 11.3307C186.59 11.6322 186.224 11.872 185.774 12.05C185.327 12.2243 184.776 12.3115 184.117 12.3115H184.015V11.456ZM189.354 11.7667C189.354 11.5959 189.407 11.4524 189.512 11.3361C189.621 11.2163 189.777 11.1563 189.981 11.1563C190.185 11.1563 190.339 11.2163 190.444 11.3361C190.553 11.4524 190.608 11.5959 190.608 11.7667C190.608 11.9337 190.553 12.0753 190.444 12.1916C190.339 12.3079 190.185 12.366 189.981 12.366C189.777 12.366 189.621 12.3079 189.512 12.1916C189.407 12.0753 189.354 11.9337 189.354 11.7667ZM189.36 6.95509C189.36 6.78436 189.412 6.64087 189.517 6.52462C189.627 6.40474 189.783 6.3448 189.986 6.3448C190.189 6.3448 190.344 6.40474 190.449 6.52462C190.559 6.64087 190.613 6.78436 190.613 6.95509C190.613 7.1222 190.559 7.26388 190.449 7.38012C190.344 7.49637 190.189 7.55449 189.986 7.55449C189.783 7.55449 189.627 7.49637 189.517 7.38012C189.412 7.26388 189.36 7.1222 189.36 6.95509ZM197.19 11.4724V12.3007H191.997V11.5759L194.596 8.68245C194.915 8.32644 195.163 8.02493 195.337 7.77791C195.516 7.52725 195.638 7.30383 195.708 7.10767C195.78 6.90788 195.817 6.70444 195.817 6.49738C195.817 6.23582 195.762 5.99969 195.653 5.789C195.548 5.57466 195.392 5.40393 195.184 5.27679C194.978 5.14965 194.727 5.08607 194.433 5.08607C194.081 5.08607 193.786 5.15509 193.55 5.29314C193.317 5.42755 193.143 5.61645 193.027 5.85984C192.911 6.10323 192.853 6.38295 192.853 6.69899H191.844C191.844 6.25217 191.942 5.84349 192.139 5.47296C192.335 5.10242 192.625 4.80817 193.01 4.5902C193.395 4.36862 193.87 4.25781 194.433 4.25781C194.934 4.25781 195.363 4.34681 195.719 4.52482C196.075 4.69919 196.347 4.94621 196.536 5.26589C196.729 5.58193 196.825 5.95248 196.825 6.3775C196.825 6.60999 196.785 6.84612 196.705 7.08587C196.628 7.322 196.521 7.55813 196.384 7.79426C196.249 8.03038 196.092 8.26287 195.91 8.49174C195.731 8.72059 195.54 8.94582 195.337 9.16742L193.212 11.4724H197.19ZM201.582 4.32321V12.3007H200.573V5.58193L198.541 6.32301V5.41302L201.424 4.32321H201.582Z" fill="white"/>
<path d="M168.08 21.9746H34.3797C33.3248 21.9746 32.4697 22.8298 32.4697 23.8846C32.4697 24.9395 33.3248 25.7947 34.3797 25.7947H168.08C169.135 25.7947 169.99 24.9395 169.99 23.8846C169.99 22.8298 169.135 21.9746 168.08 21.9746Z" fill="black" fill-opacity="0.1"/>
<path d="M87.0969 22.7393H34.3809C33.7479 22.7393 33.2349 23.2523 33.2349 23.8852C33.2349 24.5181 33.7479 25.0312 34.3809 25.0312H87.0969C87.7299 25.0312 88.243 24.5181 88.243 23.8852C88.243 23.2523 87.7299 22.7393 87.0969 22.7393Z" fill="#2F4AFD" stroke="black" stroke-opacity="0.05" stroke-width="0.275777"/>
<path d="M138.007 31.9072H34.0217C33.1645 31.9072 32.4697 32.6021 32.4697 33.4593C32.4697 34.3165 33.1645 35.0113 34.0217 35.0113H138.007C138.864 35.0113 139.56 34.3165 139.56 33.4593C139.56 32.6021 138.864 31.9072 138.007 31.9072Z" fill="white" fill-opacity="0.3"/>
<path d="M82.2075 41.1221H34.0217C33.1645 41.1221 32.4697 41.817 32.4697 42.6742C32.4697 43.5313 33.1645 44.2261 34.0217 44.2261H82.2075C83.0647 44.2261 83.7596 43.5313 83.7596 42.6742C83.7596 41.817 83.0647 41.1221 82.2075 41.1221Z" fill="white" fill-opacity="0.3"/>
</g>
<defs>
<clipPath id="clip0_379_3721">
<rect width="209.802" height="44.6387" fill="white"/>
</clipPath>
</defs>
</svg>
