<svg width="208" height="40" viewBox="0 0 208 40" fill="none" xmlns="http://www.w3.org/2000/svg">
<path d="M0.0747712 13.3589H7.04286V12.3315H1.93954V12.23L4.38687 10.0804C6.33423 8.37386 6.86431 7.61307 6.86431 6.56674V6.55441C6.86431 5.07646 5.4247 3.99219 3.5443 3.99219C1.48534 3.99219 0.00781177 5.159 0 6.78209L0.0156149 6.78873L1.29899 6.79536L1.30568 6.78209C1.30568 5.70446 2.16385 4.9873 3.45502 4.9873C4.72276 4.9873 5.49166 5.71014 5.49166 6.67489V6.68722C5.49166 7.48596 5.08881 7.96216 3.71617 9.22383L0.0747712 12.5725V13.3589Z" fill="white"/>
<mask id="mask0_379_3778" style="mask-type:luminance" maskUnits="userSpaceOnUse" x="30" y="1" width="177" height="38">
<path d="M30.9038 1.00684H206.624V38.5208H30.9038V1.00684Z" fill="white"/>
</mask>
<g mask="url(#mask0_379_3778)">
<mask id="mask1_379_3778" style="mask-type:luminance" maskUnits="userSpaceOnUse" x="30" y="1" width="177" height="13">
<path d="M30.9038 1.00684H206.624V13.9955H30.9038V1.00684Z" fill="white"/>
</mask>
<g mask="url(#mask1_379_3778)">
<path d="M35.6706 9.34012L37.4029 4.16347H38.242L37.7565 6.17605L35.8924 11.582H35.0592L35.6706 9.34012ZM33.8784 4.16347L35.257 9.23822L35.6706 11.582H34.8434L32.7275 4.16347H33.8784ZM40.4837 9.23312L41.8324 4.16347H42.9892L40.8793 11.582H40.0522L40.4837 9.23312ZM38.3679 4.16347L40.0522 9.34012L40.6636 11.582H39.8304L38.0323 6.17605L37.5407 4.16347H38.3679ZM46.6036 11.6839C46.1521 11.6839 45.7425 11.6194 45.3748 11.4902C45.0112 11.3578 44.6975 11.1726 44.4338 10.9349C44.174 10.6971 43.9743 10.4152 43.8344 10.0891C43.6945 9.763 43.6246 9.40635 43.6246 9.01913V8.80513C43.6246 8.35676 43.7025 7.95764 43.8584 7.60778C44.0142 7.25451 44.226 6.9556 44.4937 6.71103C44.7615 6.46647 45.0651 6.28134 45.4048 6.15567C45.7445 6.02999 46.0962 5.96714 46.4597 5.96714C46.9233 5.96714 47.3228 6.03508 47.6585 6.17095C47.9982 6.30682 48.276 6.49704 48.4917 6.7416C48.7075 6.98277 48.8673 7.2681 48.9712 7.59758C49.0751 7.92367 49.127 8.28033 49.127 8.66756V9.09046H44.2839V8.32109H48.0182V8.24976C48.0022 8.00519 47.9423 7.76742 47.8384 7.53644C47.7384 7.30546 47.5786 7.11525 47.3589 6.96579C47.139 6.81634 46.8394 6.7416 46.4597 6.7416C46.208 6.7416 45.9762 6.78746 45.7645 6.87917C45.5527 6.96749 45.3709 7.09996 45.219 7.2766C45.0671 7.45322 44.9493 7.66892 44.8654 7.92367C44.7814 8.17843 44.7395 8.47225 44.7395 8.80513V9.01913C44.7395 9.28068 44.7814 9.52694 44.8654 9.75787C44.9533 9.98554 45.0792 10.1859 45.243 10.3591C45.4108 10.5324 45.6126 10.6683 45.8484 10.7667C46.0881 10.8653 46.3599 10.9145 46.6635 10.9145C47.0551 10.9145 47.3868 10.8466 47.6585 10.7107C47.9302 10.5748 48.1681 10.3931 48.3718 10.1655L49.0432 10.619C48.9033 10.799 48.7255 10.9706 48.5097 11.1336C48.2939 11.2966 48.0281 11.4292 47.7125 11.531C47.4008 11.6329 47.0312 11.6839 46.6036 11.6839ZM50.4157 3.75586H51.5307V10.512L51.4347 11.582H50.4157V3.75586ZM55.9122 8.77966V8.88665C55.9122 9.28747 55.8563 9.65942 55.7444 10.0025C55.6325 10.3421 55.4687 10.6377 55.2529 10.889C55.0371 11.1404 54.7734 11.3357 54.4617 11.475C54.15 11.6142 53.7924 11.6839 53.3888 11.6839C52.9772 11.6839 52.6155 11.6245 52.3038 11.5055C51.9962 11.3832 51.7365 11.2083 51.5247 10.9807C51.3129 10.7532 51.143 10.4781 51.0151 10.1553C50.8912 9.83262 50.8054 9.4692 50.7574 9.06498V8.59623C50.8054 8.18862 50.8912 7.82347 51.0151 7.50077C51.143 7.17808 51.3129 6.90295 51.5247 6.67537C51.7365 6.44439 51.9962 6.26946 52.3038 6.15057C52.6115 6.02829 52.9692 5.96714 53.3768 5.96714C53.7844 5.96714 54.146 6.03508 54.4617 6.17095C54.7774 6.30343 55.0411 6.49364 55.2529 6.7416C55.4687 6.98956 55.6325 7.28678 55.7444 7.63325C55.8563 7.97633 55.9122 8.35846 55.9122 8.77966ZM54.7973 8.88665V8.77966C54.7973 8.50452 54.7673 8.24636 54.7074 8.00519C54.6475 7.76063 54.5516 7.54663 54.4197 7.36321C54.2879 7.17638 54.114 7.03032 53.8982 6.92503C53.6825 6.81634 53.4168 6.76199 53.1011 6.76199C52.8213 6.76199 52.5776 6.80274 52.3698 6.88427C52.166 6.96579 51.9921 7.07618 51.8483 7.21545C51.7044 7.35132 51.5866 7.50758 51.4946 7.6842C51.4068 7.85744 51.3409 8.03747 51.2969 8.22429V9.45221C51.3608 9.68995 51.4647 9.91923 51.6086 10.1401C51.7565 10.3574 51.9522 10.5357 52.1959 10.675C52.4438 10.8144 52.7494 10.884 53.113 10.884C53.4128 10.884 53.6684 10.8329 53.8802 10.7311C54.0961 10.6258 54.2698 10.4814 54.4017 10.298C54.5377 10.1146 54.6375 9.90225 54.7015 9.66111C54.7654 9.41995 54.7973 9.16179 54.7973 8.88665ZM64.136 10.1197C64.136 9.98383 64.0999 9.85814 64.0281 9.7426C63.9601 9.62375 63.8183 9.51675 63.6024 9.42164C63.3907 9.32314 63.071 9.23822 62.6435 9.16688C62.2838 9.10235 61.9582 9.02592 61.6665 8.9376C61.3788 8.84929 61.1329 8.74229 60.9291 8.61661C60.7294 8.49093 60.5755 8.34317 60.4677 8.17334C60.3598 8.0035 60.3058 7.80479 60.3058 7.5772C60.3058 7.35981 60.3618 7.15431 60.4736 6.9607C60.5896 6.76708 60.7514 6.59554 60.9592 6.44609C61.171 6.29663 61.4246 6.17944 61.7204 6.09452C62.0161 6.0096 62.3458 5.96714 62.7093 5.96714C63.2288 5.96714 63.6724 6.04527 64.04 6.20152C64.4077 6.35777 64.6894 6.56667 64.8852 6.82822C65.081 7.08637 65.1789 7.3734 65.1789 7.68929H64.07C64.07 7.53644 64.016 7.38869 63.9082 7.24602C63.8043 7.09996 63.6504 6.97937 63.4467 6.88427C63.2469 6.78916 63.001 6.7416 62.7093 6.7416C62.4017 6.7416 62.1519 6.78237 61.9602 6.86389C61.7724 6.94201 61.6344 7.04222 61.5466 7.1645C61.4627 7.28678 61.4207 7.41586 61.4207 7.55172C61.4207 7.65363 61.4407 7.74535 61.4807 7.82686C61.5246 7.90499 61.6005 7.97802 61.7084 8.04596C61.8163 8.11049 61.9681 8.17164 62.164 8.22938C62.3597 8.28712 62.6095 8.34488 62.9132 8.40262C63.4446 8.50452 63.8822 8.62681 64.2258 8.76947C64.5695 8.91213 64.8252 9.08706 64.993 9.29426C65.1609 9.50146 65.2448 9.75285 65.2448 10.0483C65.2448 10.2895 65.1849 10.5103 65.065 10.7107C64.9491 10.9111 64.7793 11.0843 64.5555 11.2304C64.3357 11.3731 64.072 11.4851 63.7644 11.5667C63.4606 11.6448 63.119 11.6839 62.7394 11.6839C62.168 11.6839 61.6844 11.5972 61.2888 11.424C60.8932 11.2508 60.5936 11.0267 60.3897 10.7515C60.1859 10.4764 60.084 10.1859 60.084 9.88025H61.1989C61.2149 10.1384 61.3028 10.3438 61.4627 10.4968C61.6225 10.6462 61.8182 10.7532 62.05 10.8177C62.2818 10.8789 62.5116 10.9094 62.7394 10.9094C63.043 10.9094 63.2968 10.8754 63.5006 10.8075C63.7083 10.7396 63.8663 10.6462 63.9741 10.5273C64.082 10.4084 64.136 10.2725 64.136 10.1197ZM69.4166 6.06905V6.79255H65.9101V6.06905H69.4166ZM67.097 4.72903H68.2058V10.2164C68.2058 10.4033 68.2398 10.5443 68.3077 10.6393C68.3757 10.7345 68.4636 10.7974 68.5715 10.8279C68.6794 10.8585 68.7953 10.8737 68.9191 10.8737C69.0111 10.8737 69.1069 10.867 69.2068 10.8533C69.3107 10.8364 69.3886 10.8228 69.4406 10.8126L69.4466 11.582C69.3587 11.6058 69.2428 11.6278 69.0989 11.6482C68.9591 11.672 68.7892 11.6839 68.5895 11.6839C68.3177 11.6839 68.068 11.638 67.8402 11.5463C67.6124 11.4546 67.4307 11.3018 67.2947 11.0877C67.1629 10.8703 67.097 10.5782 67.097 10.2114V4.72903ZM71.8262 6.93522V11.582H70.7173V6.06905H71.7962L71.8262 6.93522ZM73.8522 6.03848L73.8461 6.91484C73.7543 6.89785 73.6663 6.88766 73.5824 6.88427C73.5025 6.87747 73.4106 6.87408 73.3067 6.87408C73.051 6.87408 72.8252 6.90805 72.6294 6.97598C72.4336 7.04392 72.2678 7.13903 72.1319 7.2613C71.9961 7.38359 71.8882 7.52965 71.8083 7.69949C71.7323 7.86593 71.6824 8.04935 71.6584 8.24976L71.3467 8.40262C71.3467 8.06974 71.3846 7.75723 71.4605 7.46512C71.5405 7.17299 71.6624 6.91484 71.8262 6.69065C71.99 6.46307 72.1978 6.28644 72.4496 6.16076C72.7053 6.03168 73.009 5.96714 73.3607 5.96714C73.4406 5.96714 73.5325 5.97564 73.6364 5.99262C73.7403 6.0062 73.8122 6.0215 73.8522 6.03848ZM78.8451 10.3082V6.06905H79.9601V11.582H78.8991L78.8451 10.3082ZM79.0549 9.14651L79.5165 9.13632C79.5165 9.50316 79.4705 9.84287 79.3786 10.1553C79.2907 10.4644 79.1469 10.7328 78.947 10.9603C78.7472 11.1879 78.4855 11.3663 78.1618 11.4954C77.8382 11.6211 77.4446 11.6839 76.981 11.6839C76.6653 11.6839 76.3756 11.6448 76.1119 11.5667C75.8522 11.4885 75.6283 11.368 75.4406 11.2049C75.2528 11.0419 75.1069 10.8296 75.003 10.5681C74.9031 10.3065 74.8532 9.99228 74.8532 9.62545V6.06905H75.962V9.63563C75.962 9.88357 75.994 10.0891 76.058 10.2521C76.1258 10.4118 76.2158 10.5392 76.3277 10.6343C76.4435 10.726 76.5714 10.7905 76.7113 10.8279C76.8551 10.8653 77.003 10.884 77.1549 10.884C77.6264 10.884 78 10.8075 78.2757 10.6547C78.5514 10.4984 78.7492 10.2895 78.8691 10.0279C78.993 9.763 79.0549 9.4692 79.0549 9.14651ZM84.2457 10.9094C84.5094 10.9094 84.7531 10.8636 84.977 10.7719C85.2008 10.6801 85.3846 10.5544 85.5284 10.3948C85.6723 10.2318 85.7542 10.0466 85.7741 9.83945H86.8291C86.8091 10.1655 86.6793 10.4695 86.4395 10.7515C86.2037 11.03 85.894 11.2558 85.5104 11.4292C85.1268 11.599 84.7053 11.6839 84.2457 11.6839C83.7581 11.6839 83.3326 11.6108 82.9689 11.4648C82.6094 11.3187 82.3096 11.1183 82.0699 10.8636C81.8341 10.6088 81.6563 10.3167 81.5365 9.98715C81.4205 9.65432 81.3626 9.30275 81.3626 8.93251V8.71852C81.3626 8.34827 81.4205 7.9984 81.5365 7.66892C81.6563 7.33604 81.8341 7.04222 82.0699 6.78746C82.3096 6.53271 82.6094 6.33229 82.9689 6.18623C83.3326 6.04017 83.7581 5.96714 84.2457 5.96714C84.7531 5.96714 85.1967 6.05546 85.5764 6.23209C85.9559 6.40533 86.2537 6.6431 86.4695 6.9454C86.6892 7.24432 86.8091 7.584 86.8291 7.96443H85.7741C85.7542 7.73685 85.6783 7.53135 85.5464 7.34792C85.4185 7.1645 85.2427 7.01844 85.019 6.90975C84.7991 6.79765 84.5414 6.7416 84.2457 6.7416C83.906 6.7416 83.6203 6.79935 83.3885 6.91484C83.1608 7.02693 82.979 7.17979 82.8432 7.3734C82.7113 7.56362 82.6153 7.77591 82.5554 8.01029C82.4994 8.24127 82.4714 8.47734 82.4714 8.71852V8.93251C82.4714 9.17368 82.4994 9.41145 82.5554 9.64582C82.6114 9.88024 82.7052 10.0925 82.8371 10.2827C82.973 10.4729 83.1547 10.6258 83.3826 10.7413C83.6143 10.8533 83.902 10.9094 84.2457 10.9094ZM90.7911 6.06905V6.79255H87.2846V6.06905H90.7911ZM88.4714 4.72903H89.5804V10.2164C89.5804 10.4033 89.6143 10.5443 89.6823 10.6393C89.7501 10.7345 89.838 10.7974 89.946 10.8279C90.0539 10.8585 90.1697 10.8737 90.2936 10.8737C90.3855 10.8737 90.4814 10.867 90.5813 10.8533C90.6852 10.8364 90.7632 10.8228 90.8151 10.8126L90.8211 11.582C90.7332 11.6058 90.6173 11.6278 90.4735 11.6482C90.3335 11.672 90.1637 11.6839 89.9639 11.6839C89.6922 11.6839 89.4424 11.638 89.2147 11.5463C88.9869 11.4546 88.8051 11.3018 88.6693 11.0877C88.5374 10.8703 88.4714 10.5782 88.4714 10.2114V4.72903ZM96.0598 10.3082V6.06905H97.1746V11.582H96.1138L96.0598 10.3082ZM96.2696 9.14651L96.7312 9.13632C96.7312 9.50316 96.6852 9.84287 96.5932 10.1553C96.5054 10.4644 96.3615 10.7328 96.1617 10.9603C95.9619 11.1879 95.7001 11.3663 95.3765 11.4954C95.0528 11.6211 94.6593 11.6839 94.1957 11.6839C93.88 11.6839 93.5903 11.6448 93.3266 11.5667C93.0668 11.4885 92.843 11.368 92.6552 11.2049C92.4674 11.0419 92.3215 10.8296 92.2176 10.5681C92.1177 10.3065 92.0679 9.99228 92.0679 9.62545V6.06905H93.1767V9.63563C93.1767 9.88357 93.2087 10.0891 93.2727 10.2521C93.3405 10.4118 93.4305 10.5392 93.5424 10.6343C93.6582 10.726 93.7861 10.7905 93.9259 10.8279C94.0698 10.8653 94.2177 10.884 94.3695 10.884C94.841 10.884 95.2147 10.8075 95.4904 10.6547C95.7661 10.4984 95.9639 10.2895 96.0838 10.0279C96.2076 9.763 96.2696 9.4692 96.2696 9.14651ZM99.9738 6.93522V11.582H98.865V6.06905H99.9439L99.9738 6.93522ZM102 6.03848L101.994 6.91484C101.902 6.89785 101.814 6.88766 101.73 6.88427C101.65 6.87747 101.558 6.87408 101.454 6.87408C101.199 6.87408 100.973 6.90805 100.777 6.97598C100.581 7.04392 100.415 7.13903 100.28 7.2613C100.144 7.38359 100.036 7.52965 99.9559 7.69949C99.88 7.86593 99.83 8.04935 99.806 8.24976L99.4943 8.40262C99.4943 8.06974 99.5323 7.75723 99.6082 7.46512C99.6881 7.17299 99.81 6.91484 99.9738 6.69065C100.138 6.46307 100.345 6.28644 100.597 6.16076C100.853 6.03168 101.157 5.96714 101.508 5.96714C101.588 5.96714 101.68 5.97564 101.784 5.99262C101.888 6.0062 101.96 6.0215 102 6.03848ZM105.596 11.6839C105.145 11.6839 104.735 11.6194 104.367 11.4902C104.004 11.3578 103.69 11.1726 103.426 10.9349C103.167 10.6971 102.967 10.4152 102.827 10.0891C102.687 9.763 102.617 9.40635 102.617 9.01913V8.80513C102.617 8.35676 102.695 7.95764 102.851 7.60778C103.007 7.25451 103.219 6.9556 103.486 6.71103C103.754 6.46647 104.058 6.28134 104.397 6.15567C104.737 6.02999 105.089 5.96714 105.452 5.96714C105.916 5.96714 106.316 6.03508 106.651 6.17095C106.991 6.30682 107.269 6.49704 107.484 6.7416C107.7 6.98277 107.86 7.2681 107.964 7.59758C108.068 7.92367 108.12 8.28033 108.12 8.66756V9.09046H103.277V8.32109H107.011V8.24976C106.995 8.00519 106.935 7.76742 106.831 7.53644C106.731 7.30546 106.571 7.11525 106.351 6.96579C106.132 6.81634 105.832 6.7416 105.452 6.7416C105.201 6.7416 104.969 6.78746 104.757 6.87917C104.545 6.96749 104.363 7.09996 104.212 7.2766C104.06 7.45322 103.942 7.66892 103.858 7.92367C103.774 8.17843 103.732 8.47225 103.732 8.80513V9.01913C103.732 9.28068 103.774 9.52694 103.858 9.75787C103.946 9.98554 104.072 10.1859 104.236 10.3591C104.403 10.5324 104.605 10.6683 104.841 10.7667C105.081 10.8653 105.352 10.9145 105.656 10.9145C106.048 10.9145 106.379 10.8466 106.651 10.7107C106.923 10.5748 107.161 10.3931 107.364 10.1655L108.036 10.619C107.896 10.799 107.718 10.9706 107.502 11.1336C107.287 11.2966 107.021 11.4292 106.705 11.531C106.393 11.6329 106.024 11.6839 105.596 11.6839Z" fill="white"/>
<path d="M202.806 1.00684H178.357C176.248 1.00684 174.537 2.46064 174.537 4.25401V10.7484C174.537 12.5417 176.248 13.9955 178.357 13.9955H202.806C204.915 13.9955 206.626 12.5417 206.626 10.7484V4.25401C206.626 2.46064 204.915 1.00684 202.806 1.00684Z" fill="black" fill-opacity="0.1"/>
<path d="M182.054 7.91893L181.247 7.74292L181.645 4.38477H185.715V5.17683H182.5L182.26 7.01107C182.405 6.94004 182.59 6.87366 182.811 6.8119C183.036 6.75014 183.294 6.71926 183.585 6.71926C183.952 6.71926 184.28 6.7733 184.571 6.88137C184.862 6.98637 185.108 7.13768 185.313 7.33531C185.519 7.53293 185.677 7.7707 185.786 8.04862C185.895 8.32654 185.95 8.63688 185.95 8.97964C185.95 9.30387 185.897 9.60186 185.791 9.87358C185.69 10.1454 185.536 10.3831 185.328 10.5869C185.122 10.7877 184.859 10.9436 184.544 11.0547C184.231 11.1659 183.863 11.2215 183.438 11.2215C183.119 11.2215 182.815 11.1845 182.528 11.1103C182.245 11.0332 181.99 10.9173 181.765 10.7629C181.543 10.6054 181.362 10.4109 181.22 10.1793C181.082 9.94463 180.995 9.6698 180.958 9.35483H181.918C181.961 9.60804 182.048 9.82112 182.179 9.99405C182.309 10.167 182.48 10.2982 182.691 10.3877C182.905 10.4742 183.154 10.5174 183.438 10.5174C183.678 10.5174 183.89 10.4819 184.075 10.4109C184.26 10.3399 184.416 10.2379 184.544 10.1052C184.671 9.97242 184.767 9.81182 184.833 9.62348C184.902 9.43511 184.936 9.22359 184.936 8.9889C184.936 8.77583 184.902 8.57821 184.833 8.39602C184.763 8.21383 184.66 8.0548 184.522 7.91893C184.387 7.78305 184.222 7.67807 184.026 7.60396C183.83 7.52676 183.605 7.48816 183.351 7.48816C183.013 7.48816 182.757 7.52676 182.582 7.60396C182.411 7.68115 182.236 7.78615 182.054 7.91893ZM187.121 10.675C187.121 10.5298 187.174 10.4078 187.279 10.309C187.388 10.2071 187.544 10.1562 187.748 10.1562C187.952 10.1562 188.106 10.2071 188.211 10.309C188.32 10.4078 188.375 10.5298 188.375 10.675C188.375 10.817 188.32 10.9374 188.211 11.0362C188.106 11.1351 187.952 11.1845 187.748 11.1845C187.544 11.1845 187.388 11.1351 187.279 11.0362C187.174 10.9374 187.121 10.817 187.121 10.675ZM187.127 6.58493C187.127 6.4398 187.18 6.31783 187.284 6.21901C187.394 6.11711 187.55 6.06616 187.753 6.06616C187.956 6.06616 188.111 6.11711 188.216 6.21901C188.326 6.31783 188.38 6.4398 188.38 6.58493C188.38 6.72697 188.326 6.84741 188.216 6.94622C188.111 7.04504 187.956 7.09444 187.753 7.09444C187.55 7.09444 187.394 7.04504 187.284 6.94622C187.18 6.84741 187.127 6.72697 187.127 6.58493ZM195.121 8.85921V9.56326H189.388V9.05839L192.941 4.38477H193.764L192.881 5.73729L190.532 8.85921H195.121ZM194.015 4.38477V11.1289H193.006V4.38477H194.015ZM201.164 4.38477V4.86648L197.877 11.1289H196.815L200.096 5.08882H195.801V4.38477H201.164Z" fill="white"/>
</g>
<mask id="mask2_379_3778" style="mask-type:luminance" maskUnits="userSpaceOnUse" x="30" y="19" width="139" height="4">
<path d="M166.514 19.1904H32.8138C31.759 19.1904 30.9038 19.9174 30.9038 20.814C30.9038 21.7107 31.759 22.4376 32.8138 22.4376H166.514C167.57 22.4376 168.424 21.7107 168.424 20.814C168.424 19.9174 167.57 19.1904 166.514 19.1904Z" fill="white"/>
</mask>
<g mask="url(#mask2_379_3778)">
<path d="M166.514 19.1904H32.8138C31.759 19.1904 30.9038 19.9174 30.9038 20.814C30.9038 21.7107 31.759 22.4376 32.8138 22.4376H166.514C167.57 22.4376 168.424 21.7107 168.424 20.814C168.424 19.9174 167.57 19.1904 166.514 19.1904Z" fill="black" fill-opacity="0.1"/>
<path d="M53.1782 19.666H34.7647C33.0698 19.666 31.6958 20.0907 31.6958 20.6146C31.6958 21.1386 33.0698 21.5633 34.7647 21.5633H53.1782C54.8731 21.5633 56.2471 21.1386 56.2471 20.6146C56.2471 20.0907 54.8731 19.666 53.1782 19.666Z" fill="#2F4AFD" stroke="black" stroke-opacity="0.05" stroke-width="0.275777"/>
</g>
<path d="M112.927 27.6338H32.5778C31.6533 27.6338 30.9038 28.2709 30.9038 29.0567C30.9038 29.8426 31.6533 30.4796 32.5778 30.4796H112.927C113.851 30.4796 114.601 29.8426 114.601 29.0567C114.601 28.2709 113.851 27.6338 112.927 27.6338Z" fill="white" fill-opacity="0.3"/>
<path d="M146.406 35.6748H32.5778C31.6533 35.6748 30.9038 36.3119 30.9038 37.0977C30.9038 37.8837 31.6533 38.5207 32.5778 38.5207H146.406C147.33 38.5207 148.08 37.8837 148.08 37.0977C148.08 36.3119 147.33 35.6748 146.406 35.6748Z" fill="white" fill-opacity="0.3"/>
</g>
</svg>
