			<svg xmlns="http://www.w3.org/2000/svg" width="" height="" viewBox="0 0 1920 1080" fill="none"  >
  <path d="M914.921 135.44C972.905 163.524 1030.54 191.44 1089.36 214.027C1068.24 280.856 1063.02 326.845 1059.52 363.279C1059.3 365.536 1059.09 367.756 1058.88 369.942C1055.73 403.124 1053.34 428.391 1039.95 455.24C1025.68 483.86 998.893 514.318 945.26 557.987C891.651 601.636 811.264 658.449 689.842 739.792C637.401 737.038 588.54 735.007 543.073 733.161C539.01 732.996 534.974 732.833 530.964 732.67C490.063 731.014 451.971 729.471 416.542 727.634C338.732 723.598 273.797 718.143 220.209 706.948C166.623 695.754 124.423 678.829 92.0589 651.882C59.7022 624.94 37.1354 587.945 22.8779 536.534C-5.66233 433.622 -10.5442 326.969 30.5252 235.287C71.5854 143.626 158.619 66.8341 314.115 23.7113C469.584 -19.404 602.846 4.94368 727.57 51.7083C789.939 75.093 850.165 104.08 909.972 133.043L914.921 135.44Z" fill="black"/>
  <path d="M914.921 135.44C972.905 163.524 1030.54 191.44 1089.36 214.027C1068.24 280.856 1063.02 326.845 1059.52 363.279C1059.3 365.536 1059.09 367.756 1058.88 369.942C1055.73 403.124 1053.34 428.391 1039.95 455.24C1025.68 483.86 998.893 514.318 945.26 557.987C891.651 601.636 811.264 658.449 689.842 739.792C637.401 737.038 588.54 735.007 543.073 733.161C539.01 732.996 534.974 732.833 530.964 732.67C490.063 731.014 451.971 729.471 416.542 727.634C338.732 723.598 273.797 718.143 220.209 706.948C166.623 695.754 124.423 678.829 92.0589 651.882C59.7022 624.94 37.1354 587.945 22.8779 536.534C-5.66233 433.622 -10.5442 326.969 30.5252 235.287C71.5854 143.626 158.619 66.8341 314.115 23.7113C469.584 -19.404 602.846 4.94368 727.57 51.7083C789.939 75.093 850.165 104.08 909.972 133.043L914.921 135.44Z" fill="url(#a)" fill-opacity="0.75"/>
  <path d="M914.921 135.44C972.905 163.524 1030.54 191.44 1089.36 214.027C1068.24 280.856 1063.02 326.845 1059.52 363.279C1059.3 365.536 1059.09 367.756 1058.88 369.942C1055.73 403.124 1053.34 428.391 1039.95 455.24C1025.68 483.86 998.893 514.318 945.26 557.987C891.651 601.636 811.264 658.449 689.842 739.792C637.401 737.038 588.54 735.007 543.073 733.161C539.01 732.996 534.974 732.833 530.964 732.67C490.063 731.014 451.971 729.471 416.542 727.634C338.732 723.598 273.797 718.143 220.209 706.948C166.623 695.754 124.423 678.829 92.0589 651.882C59.7022 624.94 37.1354 587.945 22.8779 536.534C-5.66233 433.622 -10.5442 326.969 30.5252 235.287C71.5854 143.626 158.619 66.8341 314.115 23.7113C469.584 -19.404 602.846 4.94368 727.57 51.7083C789.939 75.093 850.165 104.08 909.972 133.043L914.921 135.44Z" stroke="black"/>
  <defs>
    <linearGradient id="a" x1="1" y1="-0.3" x2="0" y2="0" gradientUnits="objectBoundingBox">
      <stop offset="0" stop-color="#018EFF" stop-opacity="0.5">
        <animate class="colorList54321" attributeName="stop-color" values="#018EFF;#5E4EC2;#6E15B3;#533AA5;#2E10A6;#018EFF" 
        dur="8s" repeatCount="indefinite">
        </animate>
      </stop>
      <stop offset="0.25" stop-color="#5E4EC2" stop-opacity="0.5">
        <animate class="colorList54321" attributeName="stop-color" values="#5E4EC2;#6E15B3;#533AA5;#2E10A6;#018EFF;#5E4EC2"
         dur="8s" repeatCount="indefinite">
        </animate>  
      </stop>
      <stop offset="0.50" stop-color="#6E15B3" stop-opacity="0.5">
        <animate class="colorList54321" attributeName="stop-color" values="#6E15B3;#533AA5;#2E10A6;#018EFF;#5E4EC2;#6E15B3" 
        dur="8s" repeatCount="indefinite">
        </animate>
      </stop>
      <stop offset="0.75" stop-color="#533AA5" stop-opacity="0.5">
        <animate class="colorList54321" attributeName="stop-color" values="#533AA5;#2E10A6;#018EFF;#5E4EC2;#6E15B3;#533AA5"
         dur="8s" repeatCount="indefinite">
        </animate>
      </stop>8s
      <stop offset="1" stop-color="#2E10A6" stop-opacity="0.5">
        <animate class="colorList54321" attributeName="stop-color" values="#2E10A6;#018EFF;#5E4EC2;#6E15B3;#533AA5;#2E10A6" 
        dur="8s" repeatCount="indefinite">
        </animate>
      </stop>
    </linearGradient>
  </defs>
</svg>