<svg width="264" height="155" viewBox="0 0 264 155" fill="none" xmlns="http://www.w3.org/2000/svg">
<rect x="0.660156" y="0.808594" width="262.73" height="154.051" rx="10.5514" fill="url(#paint0_linear_172_181)"/>
<path d="M35.8812 21.1787H22.5542C21.4976 21.1787 20.6504 21.9426 20.6504 22.8762V34.759C20.6504 35.6926 21.4976 36.4565 22.5542 36.4565H35.8812C36.9378 36.4565 37.785 35.6926 37.785 34.759V22.8762C37.785 21.9426 36.9378 21.1787 35.8812 21.1787ZM27.3139 33.0614L22.5542 28.8176L23.8964 27.6208L27.3139 30.6594L34.539 24.2173L35.8812 25.4225L27.3139 33.0614Z" fill="black" fill-opacity="0.3"/>
<path d="M35.8812 53.0078H22.5542C21.4976 53.0078 20.6504 53.7717 20.6504 54.7053V66.5881C20.6504 67.5217 21.4976 68.2856 22.5542 68.2856H35.8812C36.9378 68.2856 37.785 67.5217 37.785 66.5881V54.7053C37.785 53.7717 36.9378 53.0078 35.8812 53.0078ZM27.3139 64.8905L22.5542 60.6467L23.8964 59.4499L27.3139 62.4885L34.539 56.0464L35.8812 57.2516L27.3139 64.8905Z" fill="black" fill-opacity="0.3"/>
<path opacity="0.2" d="M174.861 21.1787H49.2078C47.6306 21.1787 46.3521 22.3187 46.3521 23.725C46.3521 25.1313 47.6306 26.2713 49.2078 26.2713H174.861C176.439 26.2713 177.717 25.1313 177.717 23.725C177.717 22.3187 176.439 21.1787 174.861 21.1787Z" fill="white"/>
<path opacity="0.2" d="M136.309 53.0078H49.2078C47.6306 53.0078 46.3521 54.1478 46.3521 55.5541C46.3521 56.9604 47.6306 58.1004 49.2078 58.1004H136.309C137.886 58.1004 139.164 56.9604 139.164 55.5541C139.164 54.1478 137.886 53.0078 136.309 53.0078Z" fill="white"/>
<path opacity="0.2" d="M160.583 31.3643H49.2078C47.6306 31.3643 46.3521 32.5043 46.3521 33.9105C46.3521 35.3168 47.6306 36.4568 49.2078 36.4568H160.583C162.16 36.4568 163.438 35.3168 163.438 33.9105C163.438 32.5043 162.16 31.3643 160.583 31.3643Z" fill="white"/>
<path opacity="0.2" d="M160.583 63.1924H49.2078C47.6306 63.1924 46.3521 64.3324 46.3521 65.7387C46.3521 67.145 47.6306 68.285 49.2078 68.285H160.583C162.16 68.285 163.438 67.145 163.438 65.7387C163.438 64.3324 162.16 63.1924 160.583 63.1924Z" fill="white"/>
<path d="M240.544 84.8359H23.5062C21.929 84.8359 20.6504 85.976 20.6504 87.3822V92.4748C20.6504 93.8811 21.929 95.0211 23.5062 95.0211H240.544C242.121 95.0211 243.4 93.8811 243.4 92.4748V87.3822C243.4 85.976 242.121 84.8359 240.544 84.8359Z" fill="black" fill-opacity="0.1"/>
<path d="M86.3329 114.119H26.3619C23.2075 114.119 20.6504 116.399 20.6504 119.212V131.943C20.6504 134.756 23.2075 137.036 26.3619 137.036H86.3329C89.4873 137.036 92.0444 134.756 92.0444 131.943V119.212C92.0444 116.399 89.4873 114.119 86.3329 114.119Z" fill="black" fill-opacity="0.15"/>
<path d="M237.688 114.119H112.035C108.88 114.119 106.323 116.399 106.323 119.212V131.943C106.323 134.756 108.88 137.036 112.035 137.036H237.688C240.843 137.036 243.4 134.756 243.4 131.943V119.212C243.4 116.399 240.843 114.119 237.688 114.119Z" fill="black" fill-opacity="0.15"/>
<defs>
<linearGradient id="paint0_linear_172_181" x1="0.660156" y1="0.808594" x2="244.416" y2="180.586" gradientUnits="userSpaceOnUse">
<stop stop-color="#0C6EC9"/>
<stop offset="1" stop-color="#2719BF" stop-opacity="0.9"/>
</linearGradient>
</defs>
</svg>
