<svg width="702" height="426" viewBox="0 0 702 426" fill="none" xmlns="http://www.w3.org/2000/svg">
<g clip-path="url(#clip0_412_381)">
<path d="M136.921 33.8413H701.04V34.182H136.921V33.8413Z" fill="white" fill-opacity="0.2"/>
<path d="M0 0H693.479C698.185 0 702 0.228159 702 0.509608V31.3409C702 31.6223 698.185 31.8505 693.479 31.8505H0V0Z" fill="white" fill-opacity="0.15"/>
<g opacity="0.7">
<path d="M673.039 17.8073C673.191 17.803 673.33 17.7467 673.443 17.6256L676.746 14.2605C676.841 14.1653 676.893 14.0442 676.893 13.9015C676.893 13.6159 676.668 13.3867 676.381 13.3867C676.242 13.3867 676.107 13.443 676.007 13.5425L673.043 16.5746L670.071 13.5425C669.971 13.4473 669.84 13.3867 669.697 13.3867C669.41 13.3867 669.184 13.6159 669.184 13.9015C669.184 14.0442 669.236 14.1653 669.332 14.2605L672.639 17.6256C672.756 17.7467 672.887 17.8073 673.039 17.8073Z" fill="white"/>
<path d="M635.447 16.165H633.548V15.3984H635.447C635.815 15.3984 636.113 15.3398 636.341 15.2227C636.569 15.1055 636.735 14.9427 636.839 14.7344C636.946 14.526 637 14.2884 637 14.0215C637 13.7773 636.946 13.5479 636.839 13.333C636.735 13.1182 636.569 12.9456 636.341 12.8154C636.113 12.682 635.815 12.6152 635.447 12.6152H633.768V18.9531H632.825V11.8438H635.447C635.984 11.8438 636.438 11.9365 636.81 12.1221C637.181 12.3076 637.462 12.5648 637.654 12.8936C637.846 13.2191 637.942 13.5918 637.942 14.0117C637.942 14.4674 637.846 14.8564 637.654 15.1787C637.462 15.501 637.181 15.7467 636.81 15.916C636.438 16.082 635.984 16.165 635.447 16.165ZM642.229 17.7324V13.6699H643.138V18.9531H642.273L642.229 17.7324ZM642.4 16.6191L642.776 16.6094C642.776 16.9609 642.739 17.2865 642.664 17.5859C642.592 17.8822 642.475 18.1393 642.312 18.3574C642.15 18.5755 641.937 18.7464 641.673 18.8701C641.409 18.9906 641.089 19.0508 640.711 19.0508C640.454 19.0508 640.218 19.0133 640.003 18.9385C639.791 18.8636 639.609 18.748 639.456 18.5918C639.303 18.4355 639.184 18.2321 639.1 17.9814C639.018 17.7308 638.978 17.4297 638.978 17.0781V13.6699H639.881V17.0879C639.881 17.3255 639.907 17.5225 639.959 17.6787C640.014 17.8317 640.088 17.9538 640.179 18.0449C640.273 18.1328 640.377 18.1947 640.491 18.2305C640.608 18.2663 640.729 18.2842 640.853 18.2842C641.237 18.2842 641.541 18.2109 641.766 18.0645C641.99 17.9147 642.151 17.7145 642.249 17.4639C642.35 17.21 642.4 16.9284 642.4 16.6191ZM644.51 11.4531H645.418V17.9277L645.34 18.9531H644.51V11.4531ZM648.987 16.2676V16.3701C648.987 16.7542 648.942 17.1107 648.851 17.4395C648.759 17.765 648.626 18.0482 648.45 18.2891C648.274 18.5299 648.06 18.7171 647.806 18.8506C647.552 18.984 647.26 19.0508 646.932 19.0508C646.596 19.0508 646.302 18.9938 646.048 18.8799C645.797 18.7627 645.586 18.5951 645.413 18.377C645.241 18.1589 645.102 17.8952 644.998 17.5859C644.897 17.2767 644.827 16.9284 644.788 16.541V16.0918C644.827 15.7012 644.897 15.3512 644.998 15.042C645.102 14.7327 645.241 14.4691 645.413 14.251C645.586 14.0296 645.797 13.862 646.048 13.748C646.299 13.6309 646.59 13.5723 646.922 13.5723C647.254 13.5723 647.549 13.6374 647.806 13.7676C648.063 13.8945 648.278 14.0768 648.45 14.3145C648.626 14.5521 648.759 14.8369 648.851 15.1689C648.942 15.4977 648.987 15.8639 648.987 16.2676ZM648.079 16.3701V16.2676C648.079 16.0039 648.055 15.7565 648.006 15.5254C647.957 15.291 647.879 15.0859 647.771 14.9102C647.664 14.7311 647.522 14.5911 647.347 14.4902C647.171 14.3861 646.954 14.334 646.697 14.334C646.469 14.334 646.271 14.373 646.102 14.4512C645.936 14.5293 645.794 14.6351 645.677 14.7686C645.56 14.8988 645.464 15.0485 645.389 15.2178C645.317 15.3838 645.263 15.5563 645.228 15.7354V16.9121C645.28 17.14 645.364 17.3597 645.481 17.5713C645.602 17.7796 645.761 17.9505 645.96 18.084C646.162 18.2174 646.411 18.2842 646.707 18.2842C646.951 18.2842 647.16 18.2354 647.332 18.1377C647.508 18.0368 647.649 17.8984 647.757 17.7227C647.868 17.5469 647.949 17.3434 648.001 17.1123C648.053 16.8812 648.079 16.6338 648.079 16.3701ZM651.111 11.4531V18.9531H650.203V11.4531H651.111ZM653.543 13.6699V18.9531H652.635V13.6699H653.543ZM652.566 12.2686C652.566 12.1221 652.61 11.9984 652.698 11.8975C652.789 11.7965 652.923 11.7461 653.099 11.7461C653.271 11.7461 653.403 11.7965 653.494 11.8975C653.589 11.9984 653.636 12.1221 653.636 12.2686C653.636 12.4085 653.589 12.529 653.494 12.6299C653.403 12.7275 653.271 12.7764 653.099 12.7764C652.923 12.7764 652.789 12.7275 652.698 12.6299C652.61 12.529 652.566 12.4085 652.566 12.2686ZM658.069 17.5518C658.069 17.4215 658.04 17.3011 657.981 17.1904C657.926 17.0765 657.811 16.974 657.635 16.8828C657.462 16.7884 657.202 16.707 656.854 16.6387C656.561 16.5768 656.295 16.5036 656.058 16.4189C655.823 16.3343 655.623 16.2318 655.457 16.1113C655.294 15.9909 655.169 15.8493 655.081 15.6865C654.993 15.5238 654.949 15.3333 654.949 15.1152C654.949 14.9069 654.995 14.71 655.086 14.5244C655.18 14.3389 655.312 14.1745 655.481 14.0312C655.654 13.888 655.861 13.7757 656.102 13.6943C656.342 13.613 656.611 13.5723 656.907 13.5723C657.33 13.5723 657.692 13.6471 657.991 13.7969C658.291 13.9466 658.52 14.1468 658.68 14.3975C658.839 14.6449 658.919 14.9199 658.919 15.2227H658.016C658.016 15.0762 657.972 14.9346 657.884 14.7979C657.799 14.6579 657.674 14.5423 657.508 14.4512C657.345 14.36 657.145 14.3145 656.907 14.3145C656.657 14.3145 656.453 14.3535 656.297 14.4316C656.144 14.5065 656.032 14.6025 655.96 14.7197C655.892 14.8369 655.857 14.9606 655.857 15.0908C655.857 15.1885 655.874 15.2764 655.906 15.3545C655.942 15.4294 656.004 15.4993 656.092 15.5645C656.18 15.6263 656.303 15.6849 656.463 15.7402C656.622 15.7956 656.826 15.8509 657.073 15.9062C657.506 16.0039 657.863 16.1211 658.143 16.2578C658.423 16.3945 658.631 16.5622 658.768 16.7607C658.904 16.9593 658.973 17.2002 658.973 17.4834C658.973 17.7145 658.924 17.9261 658.826 18.1182C658.732 18.3102 658.593 18.4762 658.411 18.6162C658.232 18.7529 658.017 18.8604 657.767 18.9385C657.519 19.0133 657.241 19.0508 656.932 19.0508C656.466 19.0508 656.072 18.9678 655.75 18.8018C655.428 18.6357 655.184 18.4209 655.018 18.1572C654.852 17.8936 654.769 17.6152 654.769 17.3223H655.677C655.69 17.5697 655.761 17.7666 655.892 17.9131C656.022 18.0563 656.181 18.1589 656.37 18.2207C656.559 18.2793 656.746 18.3086 656.932 18.3086C657.179 18.3086 657.386 18.276 657.552 18.2109C657.721 18.1458 657.85 18.0563 657.938 17.9424C658.025 17.8285 658.069 17.6982 658.069 17.5518ZM661.062 11.4531V18.9531H660.159V11.4531H661.062ZM660.848 16.1113L660.472 16.0967C660.475 15.7354 660.529 15.4017 660.633 15.0957C660.737 14.7865 660.883 14.5179 661.072 14.29C661.261 14.0622 661.486 13.8864 661.746 13.7627C662.01 13.6357 662.301 13.5723 662.62 13.5723C662.881 13.5723 663.115 13.6081 663.323 13.6797C663.532 13.748 663.709 13.8587 663.855 14.0117C664.005 14.1647 664.119 14.3633 664.197 14.6074C664.275 14.8483 664.314 15.1429 664.314 15.4912V18.9531H663.406V15.4814C663.406 15.2048 663.366 14.9834 663.284 14.8174C663.203 14.6481 663.084 14.526 662.928 14.4512C662.771 14.373 662.579 14.334 662.352 14.334C662.127 14.334 661.922 14.3812 661.736 14.4756C661.554 14.57 661.396 14.7002 661.263 14.8662C661.132 15.0322 661.03 15.2227 660.955 15.4375C660.883 15.6491 660.848 15.8737 660.848 16.1113Z" fill="white"/>
</g>
<g opacity="0.7">
<path d="M580.039 17.8073C580.191 17.803 580.33 17.7467 580.443 17.6256L583.746 14.2605C583.841 14.1653 583.893 14.0442 583.893 13.9015C583.893 13.6159 583.668 13.3867 583.381 13.3867C583.242 13.3867 583.107 13.443 583.007 13.5425L580.043 16.5746L577.071 13.5425C576.971 13.4473 576.84 13.3867 576.697 13.3867C576.41 13.3867 576.184 13.6159 576.184 13.9015C576.184 14.0442 576.236 14.1653 576.332 14.2605L579.639 17.6256C579.756 17.7467 579.887 17.8073 580.039 17.8073Z" fill="white"/>
<path d="M544.342 18.1865V18.9531H540.577V18.1865H544.342ZM540.768 11.8438V18.9531H539.825V11.8438H540.768ZM543.844 14.9004V15.667H540.577V14.9004H543.844ZM544.293 11.8438V12.6152H540.577V11.8438H544.293ZM548.604 17.9277V11.4531H549.513V18.9531H548.683L548.604 17.9277ZM545.05 16.3701V16.2676C545.05 15.8639 545.099 15.4977 545.196 15.1689C545.297 14.8369 545.439 14.5521 545.621 14.3145C545.807 14.0768 546.026 13.8945 546.28 13.7676C546.537 13.6374 546.824 13.5723 547.14 13.5723C547.472 13.5723 547.761 13.6309 548.009 13.748C548.259 13.862 548.471 14.0296 548.644 14.251C548.819 14.4691 548.958 14.7327 549.059 15.042C549.16 15.3512 549.229 15.7012 549.269 16.0918V16.541C549.233 16.9284 549.163 17.2767 549.059 17.5859C548.958 17.8952 548.819 18.1589 548.644 18.377C548.471 18.5951 548.259 18.7627 548.009 18.8799C547.758 18.9938 547.465 19.0508 547.13 19.0508C546.821 19.0508 546.537 18.984 546.28 18.8506C546.026 18.7171 545.807 18.5299 545.621 18.2891C545.439 18.0482 545.297 17.765 545.196 17.4395C545.099 17.1107 545.05 16.7542 545.05 16.3701ZM545.958 16.2676V16.3701C545.958 16.6338 545.984 16.8812 546.036 17.1123C546.091 17.3434 546.176 17.5469 546.29 17.7227C546.404 17.8984 546.549 18.0368 546.725 18.1377C546.9 18.2354 547.11 18.2842 547.354 18.2842C547.654 18.2842 547.9 18.2207 548.092 18.0938C548.287 17.9668 548.443 17.7992 548.561 17.5908C548.678 17.3825 548.769 17.1562 548.834 16.9121V15.7354C548.795 15.5563 548.738 15.3838 548.663 15.2178C548.591 15.0485 548.497 14.8988 548.38 14.7686C548.266 14.6351 548.124 14.5293 547.955 14.4512C547.789 14.373 547.592 14.334 547.364 14.334C547.117 14.334 546.904 14.3861 546.725 14.4902C546.549 14.5911 546.404 14.7311 546.29 14.9102C546.176 15.0859 546.091 15.291 546.036 15.5254C545.984 15.7565 545.958 16.0039 545.958 16.2676ZM551.9 13.6699V18.9531H550.992V13.6699H551.9ZM550.924 12.2686C550.924 12.1221 550.968 11.9984 551.056 11.8975C551.147 11.7965 551.28 11.7461 551.456 11.7461C551.629 11.7461 551.76 11.7965 551.852 11.8975C551.946 11.9984 551.993 12.1221 551.993 12.2686C551.993 12.4085 551.946 12.529 551.852 12.6299C551.76 12.7275 551.629 12.7764 551.456 12.7764C551.28 12.7764 551.147 12.7275 551.056 12.6299C550.968 12.529 550.924 12.4085 550.924 12.2686ZM555.562 13.6699V14.3633H552.706V13.6699H555.562ZM553.673 12.3857H554.576V17.6445C554.576 17.8236 554.604 17.9587 554.659 18.0498C554.715 18.141 554.786 18.2012 554.874 18.2305C554.962 18.2598 555.056 18.2744 555.157 18.2744C555.232 18.2744 555.31 18.2679 555.392 18.2549C555.476 18.2386 555.54 18.2256 555.582 18.2158L555.587 18.9531C555.515 18.9759 555.421 18.9971 555.304 19.0166C555.19 19.0394 555.051 19.0508 554.889 19.0508C554.667 19.0508 554.464 19.0068 554.278 18.9189C554.093 18.8311 553.945 18.6846 553.834 18.4795C553.727 18.2712 553.673 17.9912 553.673 17.6396V12.3857ZM557.604 13.6699V18.9531H556.695V13.6699H557.604ZM556.627 12.2686C556.627 12.1221 556.671 11.9984 556.759 11.8975C556.85 11.7965 556.983 11.7461 557.159 11.7461C557.332 11.7461 557.464 11.7965 557.555 11.8975C557.649 11.9984 557.696 12.1221 557.696 12.2686C557.696 12.4085 557.649 12.529 557.555 12.6299C557.464 12.7275 557.332 12.7764 557.159 12.7764C556.983 12.7764 556.85 12.7275 556.759 12.6299C556.671 12.529 556.627 12.4085 556.627 12.2686ZM559.957 14.7979V18.9531H559.054V13.6699H559.908L559.957 14.7979ZM559.742 16.1113L559.366 16.0967C559.369 15.7354 559.423 15.4017 559.527 15.0957C559.632 14.7865 559.778 14.5179 559.967 14.29C560.156 14.0622 560.38 13.8864 560.641 13.7627C560.904 13.6357 561.196 13.5723 561.515 13.5723C561.775 13.5723 562.009 13.6081 562.218 13.6797C562.426 13.748 562.604 13.8587 562.75 14.0117C562.9 14.1647 563.014 14.3633 563.092 14.6074C563.17 14.8483 563.209 15.1429 563.209 15.4912V18.9531H562.301V15.4814C562.301 15.2048 562.26 14.9834 562.179 14.8174C562.097 14.6481 561.979 14.526 561.822 14.4512C561.666 14.373 561.474 14.334 561.246 14.334C561.021 14.334 560.816 14.3812 560.631 14.4756C560.449 14.57 560.291 14.7002 560.157 14.8662C560.027 15.0322 559.924 15.2227 559.85 15.4375C559.778 15.6491 559.742 15.8737 559.742 16.1113ZM568.004 13.6699H568.824V18.8408C568.824 19.3063 568.73 19.7035 568.541 20.0322C568.352 20.361 568.089 20.61 567.75 20.7793C567.415 20.9518 567.027 21.0381 566.588 21.0381C566.406 21.0381 566.191 21.0088 565.943 20.9502C565.699 20.8949 565.458 20.7988 565.221 20.6621C564.986 20.5286 564.789 20.348 564.63 20.1201L565.104 19.583C565.325 19.8499 565.556 20.0355 565.797 20.1396C566.041 20.2438 566.282 20.2959 566.52 20.2959C566.806 20.2959 567.053 20.2422 567.262 20.1348C567.47 20.0273 567.631 19.8678 567.745 19.6562C567.862 19.4479 567.921 19.1908 567.921 18.8848V14.832L568.004 13.6699ZM564.366 16.3701V16.2676C564.366 15.8639 564.413 15.4977 564.508 15.1689C564.605 14.8369 564.744 14.5521 564.923 14.3145C565.105 14.0768 565.325 13.8945 565.582 13.7676C565.839 13.6374 566.129 13.5723 566.451 13.5723C566.783 13.5723 567.073 13.6309 567.32 13.748C567.571 13.862 567.783 14.0296 567.955 14.251C568.131 14.4691 568.269 14.7327 568.37 15.042C568.471 15.3512 568.541 15.7012 568.58 16.0918V16.541C568.544 16.9284 568.474 17.2767 568.37 17.5859C568.269 17.8952 568.131 18.1589 567.955 18.377C567.783 18.5951 567.571 18.7627 567.32 18.8799C567.07 18.9938 566.777 19.0508 566.441 19.0508C566.126 19.0508 565.839 18.984 565.582 18.8506C565.328 18.7171 565.11 18.5299 564.928 18.2891C564.745 18.0482 564.605 17.765 564.508 17.4395C564.413 17.1107 564.366 16.7542 564.366 16.3701ZM565.27 16.2676V16.3701C565.27 16.6338 565.296 16.8812 565.348 17.1123C565.403 17.3434 565.486 17.5469 565.597 17.7227C565.711 17.8984 565.855 18.0368 566.031 18.1377C566.207 18.2354 566.417 18.2842 566.661 18.2842C566.961 18.2842 567.208 18.2207 567.403 18.0938C567.599 17.9668 567.753 17.7992 567.867 17.5908C567.984 17.3825 568.076 17.1562 568.141 16.9121V15.7354C568.105 15.5563 568.049 15.3838 567.975 15.2178C567.903 15.0485 567.809 14.8988 567.691 14.7686C567.577 14.6351 567.436 14.5293 567.267 14.4512C567.097 14.373 566.899 14.334 566.671 14.334C566.424 14.334 566.21 14.3861 566.031 14.4902C565.855 14.5911 565.711 14.7311 565.597 14.9102C565.486 15.0859 565.403 15.291 565.348 15.5254C565.296 15.7565 565.27 16.0039 565.27 16.2676Z" fill="white"/>
</g>
<g opacity="0.5" clip-path="url(#clip1_412_381)">
<path d="M523.5 18.6341V20.5091H525.375L530.905 14.9791L529.03 13.1041L523.5 18.6341ZM532.355 13.5291C532.55 13.3341 532.55 13.0191 532.355 12.8241L531.185 11.6541C530.99 11.4591 530.675 11.4591 530.48 11.6541L529.565 12.5691L531.44 14.4441L532.355 13.5291Z" fill="white"/>
</g>
<g clip-path="url(#clip2_412_381)">
<path d="M608 9.34277C604.32 9.34277 601.333 12.3294 601.333 16.0094C601.333 19.6894 604.32 22.6761 608 22.6761C611.68 22.6761 614.667 19.6894 614.667 16.0094C614.667 12.3294 611.68 9.34277 608 9.34277ZM606.667 19.3428L603.333 16.0094L604.273 15.0694L606.667 17.4561L611.727 12.3961L612.667 13.3428L606.667 19.3428Z" fill="#2AD986"/>
</g>
<rect x="323" y="9.00928" width="15" height="14" rx="4" fill="black" fill-opacity="0.15"/>
<rect x="342" y="9.00928" width="15" height="14" rx="4" fill="black" fill-opacity="0.15"/>
<rect x="361" y="9.00928" width="15" height="14" rx="4" fill="black" fill-opacity="0.15"/>
<rect x="380" y="9.00928" width="15" height="14" rx="4" fill="black" fill-opacity="0.15"/>
<g opacity="0.5" clip-path="url(#clip3_412_381)">
<path d="M313 14.0093C313.55 14.0093 314 13.5593 314 13.0093C314 12.4593 313.55 12.0093 313 12.0093C312.45 12.0093 312 12.4593 312 13.0093C312 13.5593 312.45 14.0093 313 14.0093ZM313 15.0093C312.45 15.0093 312 15.4593 312 16.0093C312 16.5593 312.45 17.0093 313 17.0093C313.55 17.0093 314 16.5593 314 16.0093C314 15.4593 313.55 15.0093 313 15.0093ZM313 18.0093C312.45 18.0093 312 18.4593 312 19.0093C312 19.5593 312.45 20.0093 313 20.0093C313.55 20.0093 314 19.5593 314 19.0093C314 18.4593 313.55 18.0093 313 18.0093Z" fill="white"/>
</g>
<rect x="33" y="9.00928" width="51" height="14" rx="4" fill="black" fill-opacity="0.15"/>
<path opacity="0.5" d="M23.5405 17.6747C23.6066 17.4667 24.4174 14.9473 24.4174 14.9473C24.8078 13.9134 25.5646 12.9449 27 12.9449L25.982 15.4197L24.964 17.8945C24.5435 18.8868 23.7628 19.7959 22.3093 19.7959C22.3093 19.7959 21.6907 15.5594 21.6847 15.4643C21.6486 15.5653 20.7778 17.7935 20.7778 17.7935C20.3694 18.8215 19.5886 19.79 18.1411 19.7959L17 12.9449C17.9429 12.9449 19.1081 13.7114 19.1922 14.9711C19.1922 14.9711 19.3363 17.4845 19.3423 17.6806C19.4264 17.4667 20.4114 14.9414 20.4114 14.9414C20.8018 13.9134 21.5405 12.939 22.9219 12.939C22.9219 12.939 23.5165 17.4608 23.5405 17.6747Z" fill="white"/>
<g clip-path="url(#clip4_412_381)">
<path d="M96 12.2593C93.5 12.2593 91.365 13.8143 90.5 16.0093C91.365 18.2043 93.5 19.7593 96 19.7593C98.5 19.7593 100.635 18.2043 101.5 16.0093C100.635 13.8143 98.5 12.2593 96 12.2593ZM96 18.5093C94.62 18.5093 93.5 17.3893 93.5 16.0093C93.5 14.6293 94.62 13.5093 96 13.5093C97.38 13.5093 98.5 14.6293 98.5 16.0093C98.5 17.3893 97.38 18.5093 96 18.5093ZM96 14.5093C95.17 14.5093 94.5 15.1793 94.5 16.0093C94.5 16.8393 95.17 17.5093 96 17.5093C96.83 17.5093 97.5 16.8393 97.5 16.0093C97.5 15.1793 96.83 14.5093 96 14.5093Z" fill="#1D76E1"/>
</g>
<rect x="11" y="46" width="15" height="14" rx="4" fill="black" fill-opacity="0.15"/>
<rect x="11" y="64" width="15" height="14" rx="4" fill="black" fill-opacity="0.15"/>
<rect x="11" y="82" width="15" height="14" rx="4" fill="black" fill-opacity="0.15"/>
<rect x="11" y="100" width="15" height="14" rx="4" fill="black" fill-opacity="0.15"/>
<rect x="11" y="118" width="15" height="14" rx="4" fill="black" fill-opacity="0.15"/>
<rect x="11" y="136" width="15" height="14" rx="4" fill="black" fill-opacity="0.15"/>
<rect x="11" y="154" width="15" height="14" rx="4" fill="black" fill-opacity="0.15"/>
<rect x="11" y="172" width="15" height="14" rx="4" fill="black" fill-opacity="0.15"/>
<rect x="11" y="190" width="15" height="14" rx="4" fill="black" fill-opacity="0.15"/>
<rect x="11" y="208" width="15" height="15" rx="4" fill="black" fill-opacity="0.15"/>
<rect x="11" y="326" width="15" height="14" rx="4" fill="black" fill-opacity="0.15"/>
<rect x="11" y="344" width="15" height="14" rx="4" fill="black" fill-opacity="0.15"/>
<rect x="11" y="362" width="15" height="14" rx="4" fill="black" fill-opacity="0.15"/>
<rect x="11" y="380" width="15" height="14" rx="4" fill="black" fill-opacity="0.15"/>
<rect x="11" y="398" width="15" height="15" rx="4" fill="black" fill-opacity="0.15"/>
<line opacity="0.1" x1="33.5" y1="32" x2="33.5" y2="426" stroke="white"/>
<line opacity="0.1" x1="42.5" y1="71" x2="42.5" y2="130" stroke="white"/>
<line opacity="0.1" x1="49.5" y1="73" x2="49.5" y2="130" stroke="white"/>
<line opacity="0.1" x1="58.5" y1="91" x2="58.5" y2="131" stroke="white"/>
<line opacity="0.1" x1="66.5" y1="109" x2="66.5" y2="131" stroke="white"/>
<rect opacity="0.3" x="42" y="37" width="52" height="3" rx="1.5" fill="white"/>
<rect opacity="0.3" x="42" y="46" width="82" height="3" rx="1.5" fill="white"/>
<rect opacity="0.3" x="42" y="55" width="61" height="3" rx="1.5" fill="white"/>
<rect opacity="0.3" x="42" y="64" width="71" height="3" rx="1.5" fill="white"/>
<rect opacity="0.3" x="52" y="73" width="53" height="3" rx="1.5" fill="white"/>
<rect opacity="0.3" x="52" y="82" width="42" height="3" rx="1.5" fill="white"/>
<rect opacity="0.3" x="62" y="91" width="42" height="3" rx="1.5" fill="white"/>
<rect opacity="0.3" x="62" y="100" width="29" height="3" rx="1.5" fill="white"/>
<rect opacity="0.3" x="72" y="109" width="47" height="3" rx="1.5" fill="white"/>
<rect opacity="0.3" x="72" y="118" width="34" height="3" rx="1.5" fill="white"/>
<rect opacity="0.3" x="72" y="127" width="41" height="3" rx="1.5" fill="white"/>
<rect x="138" y="32" width="438" height="394" fill="white" fill-opacity="0.15"/>
<path d="M204.812 164.047V174H203.485L198.475 166.323V174H197.155V164.047H198.475L203.506 171.744V164.047H204.812ZM206.623 170.384V170.227C206.623 169.693 206.701 169.199 206.855 168.743C207.01 168.283 207.234 167.884 207.525 167.547C207.817 167.205 208.17 166.941 208.585 166.754C209 166.562 209.465 166.467 209.979 166.467C210.499 166.467 210.966 166.562 211.381 166.754C211.8 166.941 212.156 167.205 212.447 167.547C212.743 167.884 212.969 168.283 213.124 168.743C213.279 169.199 213.356 169.693 213.356 170.227V170.384C213.356 170.917 213.279 171.411 213.124 171.867C212.969 172.323 212.743 172.722 212.447 173.063C212.156 173.401 211.802 173.665 211.388 173.856C210.978 174.043 210.513 174.137 209.993 174.137C209.474 174.137 209.007 174.043 208.592 173.856C208.177 173.665 207.822 173.401 207.525 173.063C207.234 172.722 207.01 172.323 206.855 171.867C206.701 171.411 206.623 170.917 206.623 170.384ZM207.888 170.227V170.384C207.888 170.753 207.931 171.102 208.018 171.43C208.104 171.753 208.234 172.04 208.407 172.291C208.585 172.542 208.806 172.74 209.07 172.886C209.335 173.027 209.642 173.098 209.993 173.098C210.34 173.098 210.643 173.027 210.902 172.886C211.167 172.74 211.385 172.542 211.559 172.291C211.732 172.04 211.862 171.753 211.948 171.43C212.039 171.102 212.085 170.753 212.085 170.384V170.227C212.085 169.862 212.039 169.518 211.948 169.194C211.862 168.866 211.729 168.577 211.552 168.326C211.379 168.071 211.16 167.87 210.896 167.725C210.636 167.579 210.33 167.506 209.979 167.506C209.633 167.506 209.328 167.579 209.063 167.725C208.804 167.87 208.585 168.071 208.407 168.326C208.234 168.577 208.104 168.866 208.018 169.194C207.931 169.518 207.888 169.862 207.888 170.227ZM217.574 169.249V170.288H214.238V169.249H217.574ZM221.771 173.098C222.072 173.098 222.35 173.036 222.605 172.913C222.861 172.79 223.07 172.621 223.234 172.407C223.398 172.188 223.492 171.94 223.515 171.662H224.718C224.695 172.1 224.547 172.507 224.273 172.886C224.005 173.259 223.651 173.562 223.214 173.795C222.776 174.023 222.296 174.137 221.771 174.137C221.215 174.137 220.73 174.039 220.315 173.843C219.905 173.647 219.563 173.378 219.29 173.036C219.021 172.694 218.818 172.302 218.682 171.86C218.549 171.414 218.483 170.942 218.483 170.445V170.158C218.483 169.661 218.549 169.192 218.682 168.75C218.818 168.303 219.021 167.909 219.29 167.567C219.563 167.226 219.905 166.957 220.315 166.761C220.73 166.565 221.215 166.467 221.771 166.467C222.35 166.467 222.856 166.585 223.289 166.822C223.722 167.055 224.062 167.374 224.308 167.779C224.558 168.18 224.695 168.636 224.718 169.146H223.515C223.492 168.841 223.405 168.565 223.255 168.319C223.109 168.073 222.909 167.877 222.653 167.731C222.403 167.581 222.109 167.506 221.771 167.506C221.384 167.506 221.058 167.583 220.794 167.738C220.534 167.889 220.327 168.094 220.172 168.354C220.021 168.609 219.912 168.894 219.844 169.208C219.78 169.518 219.748 169.835 219.748 170.158V170.445C219.748 170.769 219.78 171.088 219.844 171.402C219.908 171.717 220.015 172.002 220.165 172.257C220.32 172.512 220.527 172.717 220.787 172.872C221.051 173.022 221.38 173.098 221.771 173.098ZM225.805 170.384V170.227C225.805 169.693 225.882 169.199 226.037 168.743C226.192 168.283 226.415 167.884 226.707 167.547C226.999 167.205 227.352 166.941 227.767 166.754C228.181 166.562 228.646 166.467 229.161 166.467C229.681 166.467 230.148 166.562 230.562 166.754C230.982 166.941 231.337 167.205 231.629 167.547C231.925 167.884 232.151 168.283 232.306 168.743C232.461 169.199 232.538 169.693 232.538 170.227V170.384C232.538 170.917 232.461 171.411 232.306 171.867C232.151 172.323 231.925 172.722 231.629 173.063C231.337 173.401 230.984 173.665 230.569 173.856C230.159 174.043 229.694 174.137 229.175 174.137C228.655 174.137 228.188 174.043 227.773 173.856C227.359 173.665 227.003 173.401 226.707 173.063C226.415 172.722 226.192 172.323 226.037 171.867C225.882 171.411 225.805 170.917 225.805 170.384ZM227.069 170.227V170.384C227.069 170.753 227.113 171.102 227.199 171.43C227.286 171.753 227.416 172.04 227.589 172.291C227.767 172.542 227.988 172.74 228.252 172.886C228.516 173.027 228.824 173.098 229.175 173.098C229.521 173.098 229.824 173.027 230.084 172.886C230.348 172.74 230.567 172.542 230.74 172.291C230.913 172.04 231.043 171.753 231.13 171.43C231.221 171.102 231.267 170.753 231.267 170.384V170.227C231.267 169.862 231.221 169.518 231.13 169.194C231.043 168.866 230.911 168.577 230.733 168.326C230.56 168.071 230.341 167.87 230.077 167.725C229.817 167.579 229.512 167.506 229.161 167.506C228.815 167.506 228.509 167.579 228.245 167.725C227.985 167.87 227.767 168.071 227.589 168.326C227.416 168.577 227.286 168.866 227.199 169.194C227.113 169.518 227.069 169.862 227.069 170.227ZM238.786 172.564V163.5H240.058V174H238.896L238.786 172.564ZM233.81 170.384V170.24C233.81 169.675 233.878 169.162 234.015 168.702C234.156 168.237 234.354 167.839 234.609 167.506C234.869 167.173 235.177 166.918 235.532 166.74C235.892 166.558 236.293 166.467 236.735 166.467C237.2 166.467 237.606 166.549 237.952 166.713C238.303 166.872 238.599 167.107 238.841 167.417C239.087 167.722 239.281 168.091 239.422 168.524C239.563 168.957 239.661 169.447 239.716 169.994V170.623C239.666 171.165 239.568 171.653 239.422 172.086C239.281 172.519 239.087 172.888 238.841 173.193C238.599 173.499 238.303 173.733 237.952 173.897C237.601 174.057 237.191 174.137 236.722 174.137C236.289 174.137 235.892 174.043 235.532 173.856C235.177 173.67 234.869 173.408 234.609 173.07C234.354 172.733 234.156 172.337 234.015 171.881C233.878 171.421 233.81 170.922 233.81 170.384ZM235.081 170.24V170.384C235.081 170.753 235.118 171.099 235.19 171.423C235.268 171.746 235.386 172.031 235.546 172.277C235.705 172.523 235.908 172.717 236.154 172.858C236.4 172.995 236.694 173.063 237.036 173.063C237.455 173.063 237.799 172.975 238.068 172.797C238.342 172.619 238.561 172.384 238.725 172.093C238.889 171.801 239.016 171.484 239.107 171.143V169.495C239.053 169.244 238.973 169.003 238.868 168.771C238.768 168.534 238.636 168.324 238.472 168.142C238.312 167.955 238.114 167.807 237.877 167.697C237.645 167.588 237.369 167.533 237.05 167.533C236.703 167.533 236.405 167.606 236.154 167.752C235.908 167.893 235.705 168.089 235.546 168.34C235.386 168.586 235.268 168.873 235.19 169.201C235.118 169.525 235.081 169.871 235.081 170.24ZM245.096 174.137C244.581 174.137 244.114 174.05 243.694 173.877C243.28 173.699 242.922 173.451 242.621 173.132C242.325 172.813 242.097 172.435 241.938 171.997C241.778 171.56 241.698 171.081 241.698 170.562V170.274C241.698 169.673 241.787 169.137 241.965 168.668C242.143 168.194 242.384 167.793 242.689 167.465C242.995 167.137 243.341 166.888 243.729 166.72C244.116 166.551 244.517 166.467 244.932 166.467C245.46 166.467 245.916 166.558 246.299 166.74C246.686 166.923 247.003 167.178 247.249 167.506C247.495 167.829 247.677 168.212 247.796 168.654C247.914 169.092 247.974 169.57 247.974 170.09V170.657H242.45V169.625H246.709V169.529C246.691 169.201 246.622 168.882 246.504 168.572C246.39 168.262 246.208 168.007 245.957 167.807C245.706 167.606 245.365 167.506 244.932 167.506C244.645 167.506 244.38 167.567 244.139 167.69C243.897 167.809 243.69 167.987 243.517 168.224C243.343 168.461 243.209 168.75 243.113 169.092C243.018 169.434 242.97 169.828 242.97 170.274V170.562C242.97 170.912 243.018 171.243 243.113 171.553C243.214 171.858 243.357 172.127 243.544 172.359C243.735 172.592 243.965 172.774 244.234 172.906C244.508 173.038 244.818 173.104 245.164 173.104C245.611 173.104 245.989 173.013 246.299 172.831C246.609 172.649 246.88 172.405 247.112 172.1L247.878 172.708C247.718 172.95 247.516 173.18 247.27 173.398C247.023 173.617 246.72 173.795 246.36 173.932C246.005 174.068 245.583 174.137 245.096 174.137ZM254.796 172.688L256.696 166.604H257.53L257.366 167.813L255.432 174H254.618L254.796 172.688ZM253.518 166.604L255.138 172.756L255.254 174H254.399L252.253 166.604H253.518ZM259.349 172.708L260.894 166.604H262.151L260.005 174H259.157L259.349 172.708ZM257.715 166.604L259.574 172.585L259.786 174H258.979L256.99 167.8L256.826 166.604H257.715ZM266.52 174.137C266.005 174.137 265.537 174.05 265.118 173.877C264.703 173.699 264.346 173.451 264.045 173.132C263.749 172.813 263.521 172.435 263.361 171.997C263.202 171.56 263.122 171.081 263.122 170.562V170.274C263.122 169.673 263.211 169.137 263.389 168.668C263.566 168.194 263.808 167.793 264.113 167.465C264.419 167.137 264.765 166.888 265.152 166.72C265.54 166.551 265.941 166.467 266.355 166.467C266.884 166.467 267.34 166.558 267.723 166.74C268.11 166.923 268.427 167.178 268.673 167.506C268.919 167.829 269.101 168.212 269.22 168.654C269.338 169.092 269.397 169.57 269.397 170.09V170.657H263.874V169.625H268.133V169.529C268.115 169.201 268.046 168.882 267.928 168.572C267.814 168.262 267.632 168.007 267.381 167.807C267.13 167.606 266.788 167.506 266.355 167.506C266.068 167.506 265.804 167.567 265.562 167.69C265.321 167.809 265.114 167.987 264.94 168.224C264.767 168.461 264.633 168.75 264.537 169.092C264.441 169.434 264.394 169.828 264.394 170.274V170.562C264.394 170.912 264.441 171.243 264.537 171.553C264.637 171.858 264.781 172.127 264.968 172.359C265.159 172.592 265.389 172.774 265.658 172.906C265.932 173.038 266.242 173.104 266.588 173.104C267.035 173.104 267.413 173.013 267.723 172.831C268.033 172.649 268.304 172.405 268.536 172.1L269.302 172.708C269.142 172.95 268.939 173.18 268.693 173.398C268.447 173.617 268.144 173.795 267.784 173.932C267.429 174.068 267.007 174.137 266.52 174.137ZM270.867 163.5H272.139V172.564L272.029 174H270.867V163.5ZM277.136 170.24V170.384C277.136 170.922 277.072 171.421 276.944 171.881C276.817 172.337 276.63 172.733 276.384 173.07C276.138 173.408 275.837 173.67 275.481 173.856C275.126 174.043 274.718 174.137 274.258 174.137C273.788 174.137 273.376 174.057 273.021 173.897C272.67 173.733 272.373 173.499 272.132 173.193C271.89 172.888 271.697 172.519 271.551 172.086C271.41 171.653 271.312 171.165 271.257 170.623V169.994C271.312 169.447 271.41 168.957 271.551 168.524C271.697 168.091 271.89 167.722 272.132 167.417C272.373 167.107 272.67 166.872 273.021 166.713C273.371 166.549 273.779 166.467 274.244 166.467C274.709 166.467 275.121 166.558 275.481 166.74C275.841 166.918 276.142 167.173 276.384 167.506C276.63 167.839 276.817 168.237 276.944 168.702C277.072 169.162 277.136 169.675 277.136 170.24ZM275.864 170.384V170.24C275.864 169.871 275.83 169.525 275.762 169.201C275.693 168.873 275.584 168.586 275.434 168.34C275.283 168.089 275.085 167.893 274.839 167.752C274.593 167.606 274.29 167.533 273.93 167.533C273.611 167.533 273.333 167.588 273.096 167.697C272.863 167.807 272.665 167.955 272.501 168.142C272.337 168.324 272.202 168.534 272.098 168.771C271.997 169.003 271.922 169.244 271.872 169.495V171.143C271.945 171.462 272.063 171.769 272.228 172.065C272.396 172.357 272.619 172.596 272.897 172.783C273.18 172.97 273.529 173.063 273.943 173.063C274.285 173.063 274.577 172.995 274.818 172.858C275.064 172.717 275.263 172.523 275.413 172.277C275.568 172.031 275.682 171.746 275.755 171.423C275.828 171.099 275.864 170.753 275.864 170.384ZM283.042 172.038C283.042 171.856 283.001 171.687 282.919 171.532C282.841 171.373 282.68 171.229 282.434 171.102C282.192 170.969 281.827 170.855 281.34 170.76C280.93 170.673 280.558 170.571 280.226 170.452C279.897 170.334 279.617 170.19 279.385 170.021C279.157 169.853 278.981 169.655 278.858 169.427C278.735 169.199 278.674 168.932 278.674 168.627C278.674 168.335 278.738 168.06 278.865 167.8C278.997 167.54 279.182 167.31 279.419 167.109C279.66 166.909 279.95 166.752 280.287 166.638C280.624 166.524 281 166.467 281.415 166.467C282.007 166.467 282.513 166.572 282.933 166.781C283.352 166.991 283.673 167.271 283.896 167.622C284.12 167.968 284.231 168.354 284.231 168.777H282.967C282.967 168.572 282.905 168.374 282.782 168.183C282.664 167.987 282.488 167.825 282.256 167.697C282.028 167.57 281.748 167.506 281.415 167.506C281.064 167.506 280.779 167.561 280.561 167.67C280.346 167.775 280.189 167.909 280.089 168.073C279.993 168.237 279.945 168.41 279.945 168.593C279.945 168.729 279.968 168.853 280.014 168.962C280.064 169.067 280.15 169.165 280.273 169.256C280.396 169.342 280.57 169.424 280.793 169.502C281.016 169.579 281.301 169.657 281.647 169.734C282.254 169.871 282.753 170.035 283.145 170.227C283.536 170.418 283.828 170.653 284.02 170.931C284.211 171.209 284.307 171.546 284.307 171.942C284.307 172.266 284.238 172.562 284.102 172.831C283.969 173.1 283.776 173.332 283.521 173.528C283.27 173.72 282.969 173.87 282.618 173.979C282.272 174.084 281.882 174.137 281.449 174.137C280.798 174.137 280.246 174.021 279.795 173.788C279.344 173.556 279.002 173.255 278.77 172.886C278.537 172.517 278.421 172.127 278.421 171.717H279.692C279.711 172.063 279.811 172.339 279.993 172.544C280.175 172.744 280.399 172.888 280.663 172.975C280.927 173.057 281.189 173.098 281.449 173.098C281.796 173.098 282.085 173.052 282.317 172.961C282.554 172.87 282.734 172.744 282.857 172.585C282.98 172.425 283.042 172.243 283.042 172.038ZM287.342 166.604V174H286.07V166.604H287.342ZM285.975 164.642C285.975 164.437 286.036 164.263 286.159 164.122C286.287 163.981 286.474 163.91 286.72 163.91C286.961 163.91 287.146 163.981 287.273 164.122C287.406 164.263 287.472 164.437 287.472 164.642C287.472 164.838 287.406 165.006 287.273 165.147C287.146 165.284 286.961 165.353 286.72 165.353C286.474 165.353 286.287 165.284 286.159 165.147C286.036 165.006 285.975 164.838 285.975 164.642ZM292.469 166.604V167.574H288.47V166.604H292.469ZM289.823 164.806H291.088V172.168C291.088 172.419 291.127 172.608 291.204 172.735C291.282 172.863 291.382 172.947 291.505 172.988C291.628 173.029 291.76 173.05 291.901 173.05C292.006 173.05 292.116 173.041 292.229 173.022C292.348 173 292.437 172.981 292.496 172.968L292.503 174C292.403 174.032 292.271 174.062 292.106 174.089C291.947 174.121 291.753 174.137 291.525 174.137C291.215 174.137 290.931 174.075 290.671 173.952C290.411 173.829 290.204 173.624 290.049 173.337C289.898 173.045 289.823 172.653 289.823 172.161V164.806ZM297.021 174.137C296.507 174.137 296.039 174.05 295.62 173.877C295.205 173.699 294.848 173.451 294.547 173.132C294.251 172.813 294.023 172.435 293.863 171.997C293.704 171.56 293.624 171.081 293.624 170.562V170.274C293.624 169.673 293.713 169.137 293.891 168.668C294.068 168.194 294.31 167.793 294.615 167.465C294.921 167.137 295.267 166.888 295.654 166.72C296.042 166.551 296.443 166.467 296.857 166.467C297.386 166.467 297.842 166.558 298.225 166.74C298.612 166.923 298.929 167.178 299.175 167.506C299.421 167.829 299.603 168.212 299.722 168.654C299.84 169.092 299.899 169.57 299.899 170.09V170.657H294.376V169.625H298.635V169.529C298.617 169.201 298.548 168.882 298.43 168.572C298.316 168.262 298.133 168.007 297.883 167.807C297.632 167.606 297.29 167.506 296.857 167.506C296.57 167.506 296.306 167.567 296.064 167.69C295.823 167.809 295.616 167.987 295.442 168.224C295.269 168.461 295.135 168.75 295.039 169.092C294.943 169.434 294.896 169.828 294.896 170.274V170.562C294.896 170.912 294.943 171.243 295.039 171.553C295.139 171.858 295.283 172.127 295.47 172.359C295.661 172.592 295.891 172.774 296.16 172.906C296.434 173.038 296.743 173.104 297.09 173.104C297.536 173.104 297.915 173.013 298.225 172.831C298.535 172.649 298.806 172.405 299.038 172.1L299.804 172.708C299.644 172.95 299.441 173.18 299.195 173.398C298.949 173.617 298.646 173.795 298.286 173.932C297.931 174.068 297.509 174.137 297.021 174.137ZM304.842 163.5H306.113V172.564L306.004 174H304.842V163.5ZM311.11 170.24V170.384C311.11 170.922 311.047 171.421 310.919 171.881C310.791 172.337 310.604 172.733 310.358 173.07C310.112 173.408 309.812 173.67 309.456 173.856C309.101 174.043 308.693 174.137 308.232 174.137C307.763 174.137 307.351 174.057 306.995 173.897C306.644 173.733 306.348 173.499 306.106 173.193C305.865 172.888 305.671 172.519 305.525 172.086C305.384 171.653 305.286 171.165 305.231 170.623V169.994C305.286 169.447 305.384 168.957 305.525 168.524C305.671 168.091 305.865 167.722 306.106 167.417C306.348 167.107 306.644 166.872 306.995 166.713C307.346 166.549 307.754 166.467 308.219 166.467C308.684 166.467 309.096 166.558 309.456 166.74C309.816 166.918 310.117 167.173 310.358 167.506C310.604 167.839 310.791 168.237 310.919 168.702C311.047 169.162 311.11 169.675 311.11 170.24ZM309.839 170.384V170.24C309.839 169.871 309.805 169.525 309.736 169.201C309.668 168.873 309.559 168.586 309.408 168.34C309.258 168.089 309.06 167.893 308.813 167.752C308.567 167.606 308.264 167.533 307.904 167.533C307.585 167.533 307.307 167.588 307.07 167.697C306.838 167.807 306.64 167.955 306.476 168.142C306.312 168.324 306.177 168.534 306.072 168.771C305.972 169.003 305.897 169.244 305.847 169.495V171.143C305.92 171.462 306.038 171.769 306.202 172.065C306.371 172.357 306.594 172.596 306.872 172.783C307.155 172.97 307.503 173.063 307.918 173.063C308.26 173.063 308.551 172.995 308.793 172.858C309.039 172.717 309.237 172.523 309.388 172.277C309.543 172.031 309.657 171.746 309.729 171.423C309.802 171.099 309.839 170.753 309.839 170.384ZM317.235 172.291V166.604H318.507V174H317.297L317.235 172.291ZM317.475 170.732L318.001 170.719C318.001 171.211 317.949 171.667 317.844 172.086C317.743 172.501 317.579 172.861 317.352 173.166C317.124 173.471 316.825 173.711 316.456 173.884C316.087 174.052 315.638 174.137 315.109 174.137C314.749 174.137 314.419 174.084 314.118 173.979C313.822 173.875 313.567 173.713 313.353 173.494C313.138 173.275 312.972 172.991 312.854 172.64C312.74 172.289 312.683 171.867 312.683 171.375V166.604H313.947V171.389C313.947 171.721 313.984 171.997 314.057 172.216C314.134 172.43 314.237 172.601 314.364 172.729C314.496 172.852 314.642 172.938 314.802 172.988C314.966 173.038 315.134 173.063 315.308 173.063C315.845 173.063 316.271 172.961 316.586 172.756C316.9 172.546 317.126 172.266 317.263 171.915C317.404 171.56 317.475 171.165 317.475 170.732ZM321.809 166.604V174H320.537V166.604H321.809ZM320.441 164.642C320.441 164.437 320.503 164.263 320.626 164.122C320.754 163.981 320.94 163.91 321.187 163.91C321.428 163.91 321.613 163.981 321.74 164.122C321.872 164.263 321.938 164.437 321.938 164.642C321.938 164.838 321.872 165.006 321.74 165.147C321.613 165.284 321.428 165.353 321.187 165.353C320.94 165.353 320.754 165.284 320.626 165.147C320.503 165.006 320.441 164.838 320.441 164.642ZM325.213 163.5V174H323.941V163.5H325.213ZM331.905 172.564V163.5H333.177V174H332.015L331.905 172.564ZM326.929 170.384V170.24C326.929 169.675 326.997 169.162 327.134 168.702C327.275 168.237 327.473 167.839 327.729 167.506C327.988 167.173 328.296 166.918 328.651 166.74C329.011 166.558 329.412 166.467 329.854 166.467C330.319 166.467 330.725 166.549 331.071 166.713C331.422 166.872 331.718 167.107 331.96 167.417C332.206 167.722 332.4 168.091 332.541 168.524C332.682 168.957 332.78 169.447 332.835 169.994V170.623C332.785 171.165 332.687 171.653 332.541 172.086C332.4 172.519 332.206 172.888 331.96 173.193C331.718 173.499 331.422 173.733 331.071 173.897C330.72 174.057 330.31 174.137 329.841 174.137C329.408 174.137 329.011 174.043 328.651 173.856C328.296 173.67 327.988 173.408 327.729 173.07C327.473 172.733 327.275 172.337 327.134 171.881C326.997 171.421 326.929 170.922 326.929 170.384ZM328.2 170.24V170.384C328.2 170.753 328.237 171.099 328.31 171.423C328.387 171.746 328.506 172.031 328.665 172.277C328.825 172.523 329.027 172.717 329.273 172.858C329.52 172.995 329.813 173.063 330.155 173.063C330.575 173.063 330.919 172.975 331.188 172.797C331.461 172.619 331.68 172.384 331.844 172.093C332.008 171.801 332.135 171.484 332.227 171.143V169.495C332.172 169.244 332.092 169.003 331.987 168.771C331.887 168.534 331.755 168.324 331.591 168.142C331.431 167.955 331.233 167.807 330.996 167.697C330.764 167.588 330.488 167.533 330.169 167.533C329.823 167.533 329.524 167.606 329.273 167.752C329.027 167.893 328.825 168.089 328.665 168.34C328.506 168.586 328.387 168.873 328.31 169.201C328.237 169.525 328.2 169.871 328.2 170.24ZM338.215 174.137C337.7 174.137 337.233 174.05 336.813 173.877C336.399 173.699 336.041 173.451 335.74 173.132C335.444 172.813 335.216 172.435 335.057 171.997C334.897 171.56 334.817 171.081 334.817 170.562V170.274C334.817 169.673 334.906 169.137 335.084 168.668C335.262 168.194 335.503 167.793 335.809 167.465C336.114 167.137 336.46 166.888 336.848 166.72C337.235 166.551 337.636 166.467 338.051 166.467C338.579 166.467 339.035 166.558 339.418 166.74C339.805 166.923 340.122 167.178 340.368 167.506C340.614 167.829 340.797 168.212 340.915 168.654C341.034 169.092 341.093 169.57 341.093 170.09V170.657H335.569V169.625H339.828V169.529C339.81 169.201 339.742 168.882 339.623 168.572C339.509 168.262 339.327 168.007 339.076 167.807C338.826 167.606 338.484 167.506 338.051 167.506C337.764 167.506 337.499 167.567 337.258 167.69C337.016 167.809 336.809 167.987 336.636 168.224C336.463 168.461 336.328 168.75 336.232 169.092C336.137 169.434 336.089 169.828 336.089 170.274V170.562C336.089 170.912 336.137 171.243 336.232 171.553C336.333 171.858 336.476 172.127 336.663 172.359C336.854 172.592 337.085 172.774 337.354 172.906C337.627 173.038 337.937 173.104 338.283 173.104C338.73 173.104 339.108 173.013 339.418 172.831C339.728 172.649 339.999 172.405 340.231 172.1L340.997 172.708C340.838 172.95 340.635 173.18 340.389 173.398C340.143 173.617 339.84 173.795 339.479 173.932C339.124 174.068 338.702 174.137 338.215 174.137ZM343.834 167.766V174H342.569V166.604H343.8L343.834 167.766ZM346.145 166.562L346.138 167.738C346.033 167.715 345.933 167.702 345.837 167.697C345.746 167.688 345.641 167.684 345.522 167.684C345.231 167.684 344.973 167.729 344.75 167.82C344.527 167.911 344.338 168.039 344.183 168.203C344.028 168.367 343.905 168.563 343.813 168.791C343.727 169.014 343.67 169.26 343.643 169.529L343.287 169.734C343.287 169.288 343.33 168.868 343.417 168.477C343.508 168.085 343.647 167.738 343.834 167.438C344.021 167.132 344.258 166.895 344.545 166.727C344.837 166.553 345.183 166.467 345.584 166.467C345.675 166.467 345.78 166.478 345.898 166.501C346.017 166.519 346.099 166.54 346.145 166.562Z" fill="white"/>
<rect x="584" y="40" width="118" height="13" rx="4" fill="black" fill-opacity="0.15"/>
<rect x="584" y="62" width="118" height="57" rx="4" fill="black" fill-opacity="0.15"/>
<rect x="584" y="128" width="118" height="37" rx="4" fill="black" fill-opacity="0.15"/>
<rect x="584" y="174" width="118" height="89" rx="4" fill="black" fill-opacity="0.15"/>
<rect x="584" y="272" width="118" height="36" rx="4" fill="black" fill-opacity="0.15"/>
<rect x="584" y="317" width="118" height="62" rx="4" fill="black" fill-opacity="0.15"/>
<rect x="584" y="388" width="118" height="39" rx="4" fill="black" fill-opacity="0.15"/>
<path d="M204.849 103.761H200.126L200.101 101.298H204.15C204.844 101.298 205.424 101.201 205.89 101.006C206.355 100.811 206.706 100.528 206.943 100.155C207.189 99.7829 207.312 99.3301 207.312 98.7969C207.312 98.2044 207.197 97.722 206.969 97.3496C206.749 96.9772 206.402 96.7064 205.928 96.5371C205.454 96.3594 204.853 96.2705 204.125 96.2705H201.256V112H197.765V93.5156H204.125C205.174 93.5156 206.11 93.6172 206.931 93.8203C207.76 94.015 208.463 94.3197 209.038 94.7344C209.614 95.1491 210.049 95.6696 210.346 96.2959C210.65 96.9222 210.803 97.667 210.803 98.5303C210.803 99.292 210.625 99.9945 210.27 100.638C209.923 101.272 209.385 101.789 208.657 102.187C207.938 102.584 207.024 102.813 205.915 102.872L204.849 103.761ZM204.696 112H199.098L200.558 109.258H204.696C205.39 109.258 205.962 109.144 206.41 108.915C206.867 108.687 207.206 108.373 207.426 107.976C207.654 107.569 207.769 107.104 207.769 106.579C207.769 106.004 207.667 105.504 207.464 105.081C207.269 104.658 206.956 104.332 206.524 104.104C206.101 103.875 205.543 103.761 204.849 103.761H201.218L201.243 101.298H205.864L206.664 102.25C207.73 102.258 208.598 102.47 209.267 102.885C209.944 103.299 210.443 103.833 210.765 104.484C211.086 105.136 211.247 105.839 211.247 106.592C211.247 107.777 210.989 108.771 210.473 109.575C209.965 110.379 209.22 110.984 208.238 111.391C207.265 111.797 206.084 112 204.696 112ZM222.19 108.737V98.2637H225.567V112H222.394L222.19 108.737ZM222.622 105.894L223.663 105.868C223.663 106.791 223.562 107.641 223.358 108.42C223.155 109.199 222.838 109.876 222.406 110.451C221.983 111.018 221.446 111.463 220.794 111.784C220.142 112.097 219.372 112.254 218.483 112.254C217.806 112.254 217.188 112.161 216.63 111.975C216.071 111.78 215.589 111.479 215.183 111.073C214.785 110.659 214.476 110.13 214.256 109.486C214.036 108.835 213.926 108.052 213.926 107.138V98.2637H217.277V107.163C217.277 107.62 217.328 108.001 217.43 108.306C217.54 108.61 217.688 108.86 217.874 109.055C218.069 109.241 218.293 109.376 218.547 109.461C218.809 109.537 219.089 109.575 219.385 109.575C220.197 109.575 220.836 109.414 221.302 109.093C221.776 108.763 222.114 108.323 222.317 107.772C222.521 107.214 222.622 106.588 222.622 105.894ZM232.093 98.2637V112H228.729V98.2637H232.093ZM228.5 94.6709C228.5 94.1715 228.669 93.7568 229.008 93.4268C229.355 93.0967 229.82 92.9316 230.404 92.9316C230.988 92.9316 231.45 93.0967 231.788 93.4268C232.135 93.7568 232.309 94.1715 232.309 94.6709C232.309 95.1618 232.135 95.5723 231.788 95.9023C231.45 96.2324 230.988 96.3975 230.404 96.3975C229.82 96.3975 229.355 96.2324 229.008 95.9023C228.669 95.5723 228.5 95.1618 228.5 94.6709ZM238.847 92.5V112H235.482V92.5H238.847ZM250.285 109.08V92.5H253.662V112H250.615L250.285 109.08ZM241.462 105.297V105.03C241.462 103.981 241.58 103.029 241.817 102.174C242.063 101.311 242.418 100.57 242.884 99.9521C243.349 99.3343 243.912 98.8561 244.572 98.5176C245.241 98.179 245.998 98.0098 246.845 98.0098C247.666 98.0098 248.381 98.1748 248.99 98.5049C249.608 98.835 250.133 99.3047 250.564 99.9141C251.005 100.523 251.356 101.247 251.618 102.085C251.881 102.914 252.071 103.828 252.189 104.827V105.551C252.071 106.524 251.881 107.417 251.618 108.229C251.356 109.042 251.005 109.753 250.564 110.362C250.133 110.963 249.608 111.429 248.99 111.759C248.372 112.089 247.649 112.254 246.819 112.254C245.981 112.254 245.228 112.08 244.56 111.733C243.899 111.386 243.337 110.9 242.871 110.273C242.414 109.647 242.063 108.911 241.817 108.064C241.58 107.218 241.462 106.296 241.462 105.297ZM244.826 105.03V105.297C244.826 105.889 244.877 106.444 244.979 106.96C245.08 107.476 245.245 107.933 245.474 108.331C245.702 108.72 245.994 109.025 246.35 109.245C246.714 109.465 247.154 109.575 247.67 109.575C248.33 109.575 248.872 109.431 249.295 109.144C249.727 108.847 250.061 108.445 250.298 107.938C250.535 107.421 250.687 106.841 250.755 106.198V104.205C250.721 103.697 250.632 103.228 250.488 102.796C250.353 102.364 250.158 101.992 249.904 101.679C249.659 101.366 249.354 101.12 248.99 100.942C248.626 100.765 248.195 100.676 247.695 100.676C247.179 100.676 246.739 100.79 246.375 101.019C246.011 101.239 245.715 101.548 245.486 101.945C245.258 102.343 245.089 102.804 244.979 103.329C244.877 103.854 244.826 104.421 244.826 105.03ZM267.195 110.477L270.877 98.2637H274.47L268.96 114.082C268.833 114.421 268.668 114.789 268.465 115.187C268.27 115.584 268.008 115.961 267.678 116.316C267.348 116.68 266.933 116.977 266.434 117.205C265.943 117.434 265.346 117.548 264.644 117.548C264.339 117.548 264.068 117.527 263.831 117.484C263.594 117.442 263.344 117.387 263.082 117.319V114.806C263.167 114.814 263.264 114.818 263.374 114.818C263.493 114.827 263.594 114.831 263.679 114.831C264.17 114.831 264.576 114.772 264.897 114.653C265.219 114.543 265.477 114.361 265.672 114.107C265.875 113.862 266.044 113.54 266.18 113.143L267.195 110.477ZM265.38 98.2637L268.49 108.382L269.036 111.924L266.726 112.343L261.762 98.2637H265.38ZM275.295 105.271V105.005C275.295 103.998 275.439 103.071 275.727 102.225C276.014 101.37 276.433 100.629 276.983 100.003C277.534 99.3766 278.206 98.89 279.002 98.543C279.798 98.1875 280.703 98.0098 281.719 98.0098C282.751 98.0098 283.665 98.1875 284.461 98.543C285.265 98.89 285.942 99.3766 286.492 100.003C287.042 100.629 287.461 101.37 287.749 102.225C288.037 103.071 288.181 103.998 288.181 105.005V105.271C288.181 106.27 288.037 107.197 287.749 108.052C287.461 108.898 287.042 109.639 286.492 110.273C285.942 110.9 285.269 111.386 284.474 111.733C283.678 112.08 282.768 112.254 281.744 112.254C280.729 112.254 279.819 112.08 279.015 111.733C278.211 111.386 277.534 110.9 276.983 110.273C276.433 109.639 276.014 108.898 275.727 108.052C275.439 107.197 275.295 106.27 275.295 105.271ZM278.646 105.005V105.271C278.646 105.872 278.706 106.435 278.824 106.96C278.943 107.485 279.125 107.946 279.37 108.344C279.616 108.742 279.933 109.055 280.322 109.283C280.72 109.503 281.194 109.613 281.744 109.613C282.286 109.613 282.751 109.503 283.141 109.283C283.53 109.055 283.847 108.742 284.093 108.344C284.347 107.946 284.533 107.485 284.651 106.96C284.77 106.435 284.829 105.872 284.829 105.271V105.005C284.829 104.412 284.77 103.858 284.651 103.342C284.533 102.817 284.347 102.356 284.093 101.958C283.847 101.552 283.526 101.234 283.128 101.006C282.739 100.769 282.269 100.65 281.719 100.65C281.177 100.65 280.712 100.769 280.322 101.006C279.933 101.234 279.616 101.552 279.37 101.958C279.125 102.356 278.943 102.817 278.824 103.342C278.706 103.858 278.646 104.412 278.646 105.005ZM298.794 108.737V98.2637H302.171V112H298.997L298.794 108.737ZM299.226 105.894L300.267 105.868C300.267 106.791 300.165 107.641 299.962 108.42C299.759 109.199 299.441 109.876 299.01 110.451C298.587 111.018 298.049 111.463 297.397 111.784C296.746 112.097 295.976 112.254 295.087 112.254C294.41 112.254 293.792 112.161 293.233 111.975C292.675 111.78 292.192 111.479 291.786 111.073C291.388 110.659 291.079 110.13 290.859 109.486C290.639 108.835 290.529 108.052 290.529 107.138V98.2637H293.881V107.163C293.881 107.62 293.932 108.001 294.033 108.306C294.143 108.61 294.291 108.86 294.478 109.055C294.672 109.241 294.896 109.376 295.15 109.461C295.413 109.537 295.692 109.575 295.988 109.575C296.801 109.575 297.44 109.414 297.905 109.093C298.379 108.763 298.718 108.323 298.921 107.772C299.124 107.214 299.226 106.588 299.226 105.894ZM308.493 101.069V112H305.142V98.2637H308.315L308.493 101.069ZM312.67 98.1748L312.619 101.298C312.433 101.264 312.221 101.239 311.984 101.222C311.756 101.205 311.54 101.196 311.337 101.196C310.821 101.196 310.368 101.268 309.979 101.412C309.589 101.548 309.263 101.746 309.001 102.009C308.747 102.271 308.552 102.593 308.417 102.974C308.282 103.346 308.205 103.769 308.188 104.243L307.465 104.154C307.465 103.283 307.554 102.474 307.731 101.729C307.909 100.985 308.167 100.333 308.506 99.7744C308.844 99.2158 309.268 98.7842 309.775 98.4795C310.292 98.1663 310.884 98.0098 311.553 98.0098C311.739 98.0098 311.938 98.0267 312.149 98.0605C312.369 98.0859 312.543 98.124 312.67 98.1748ZM325.226 112H321.849V97.502C321.849 96.3678 322.077 95.4115 322.534 94.6328C323 93.8457 323.664 93.249 324.527 92.8428C325.399 92.4365 326.436 92.2334 327.638 92.2334C328.34 92.2334 329.017 92.3053 329.669 92.4492C330.329 92.5846 331.006 92.7624 331.7 92.9824L331.205 95.6992C330.757 95.5553 330.266 95.4199 329.732 95.293C329.208 95.166 328.586 95.1025 327.866 95.1025C326.978 95.1025 326.313 95.3057 325.873 95.7119C325.441 96.1182 325.226 96.7148 325.226 97.502V112ZM327.968 98.2637V100.676H319.779V98.2637H327.968ZM333.274 98.2637V112H329.91V98.2637H333.274ZM339.876 101.069V112H336.524V98.2637H339.698L339.876 101.069ZM344.053 98.1748L344.002 101.298C343.816 101.264 343.604 101.239 343.367 101.222C343.139 101.205 342.923 101.196 342.72 101.196C342.203 101.196 341.751 101.268 341.361 101.412C340.972 101.548 340.646 101.746 340.384 102.009C340.13 102.271 339.935 102.593 339.8 102.974C339.664 103.346 339.588 103.769 339.571 104.243L338.848 104.154C338.848 103.283 338.937 102.474 339.114 101.729C339.292 100.985 339.55 100.333 339.889 99.7744C340.227 99.2158 340.65 98.7842 341.158 98.4795C341.674 98.1663 342.267 98.0098 342.936 98.0098C343.122 98.0098 343.321 98.0267 343.532 98.0605C343.752 98.0859 343.926 98.124 344.053 98.1748ZM353.447 108.242C353.447 107.954 353.371 107.696 353.219 107.468C353.066 107.239 352.779 107.032 352.355 106.846C351.941 106.651 351.331 106.469 350.527 106.3C349.816 106.147 349.16 105.957 348.56 105.729C347.959 105.5 347.442 105.225 347.011 104.903C346.579 104.573 346.241 104.188 345.995 103.748C345.758 103.299 345.64 102.783 345.64 102.199C345.64 101.632 345.762 101.099 346.008 100.6C346.253 100.092 346.609 99.6475 347.074 99.2666C347.54 98.8773 348.107 98.5726 348.775 98.3525C349.444 98.124 350.197 98.0098 351.035 98.0098C352.203 98.0098 353.206 98.2002 354.044 98.5811C354.89 98.9619 355.538 99.4867 355.986 100.155C356.435 100.815 356.659 101.56 356.659 102.39H353.308C353.308 102.026 353.223 101.696 353.054 101.399C352.893 101.103 352.643 100.866 352.305 100.688C351.966 100.502 351.539 100.409 351.022 100.409C350.557 100.409 350.163 100.485 349.842 100.638C349.529 100.79 349.292 100.989 349.131 101.234C348.97 101.48 348.89 101.751 348.89 102.047C348.89 102.267 348.932 102.466 349.017 102.644C349.11 102.813 349.258 102.969 349.461 103.113C349.664 103.257 349.939 103.388 350.286 103.507C350.642 103.625 351.077 103.74 351.594 103.85C352.618 104.053 353.511 104.324 354.272 104.662C355.043 104.992 355.644 105.432 356.075 105.982C356.507 106.533 356.723 107.235 356.723 108.09C356.723 108.699 356.591 109.258 356.329 109.766C356.067 110.265 355.686 110.701 355.187 111.073C354.687 111.446 354.09 111.738 353.396 111.949C352.702 112.152 351.92 112.254 351.048 112.254C349.787 112.254 348.72 112.03 347.849 111.581C346.977 111.124 346.317 110.549 345.868 109.854C345.42 109.152 345.195 108.424 345.195 107.671H348.407C348.433 108.204 348.576 108.632 348.839 108.953C349.101 109.275 349.431 109.507 349.829 109.651C350.235 109.787 350.663 109.854 351.111 109.854C351.619 109.854 352.047 109.787 352.394 109.651C352.741 109.507 353.003 109.317 353.181 109.08C353.358 108.835 353.447 108.555 353.447 108.242ZM365.774 98.2637V100.676H357.903V98.2637H365.774ZM360.011 94.8867H363.375V108.039C363.375 108.445 363.43 108.758 363.54 108.979C363.65 109.199 363.815 109.347 364.035 109.423C364.255 109.499 364.518 109.537 364.822 109.537C365.042 109.537 365.245 109.524 365.432 109.499C365.618 109.474 365.774 109.448 365.901 109.423L365.914 111.937C365.635 112.03 365.317 112.106 364.962 112.165C364.615 112.224 364.221 112.254 363.781 112.254C363.028 112.254 362.368 112.127 361.801 111.873C361.234 111.611 360.794 111.192 360.48 110.616C360.167 110.032 360.011 109.262 360.011 108.306V94.8867ZM202.31 138.458L205.991 123.516H207.984L208.111 126.664L204.176 142H202.068L202.31 138.458ZM199.986 123.516L203.008 138.407V142H200.71L196.521 123.516H199.986ZM211.933 138.344L214.903 123.516H218.382L214.192 142H211.895L211.933 138.344ZM208.937 123.516L212.618 138.509L212.834 142H210.727L206.804 126.651L206.956 123.516H208.937ZM226.101 142.254C225.06 142.254 224.124 142.085 223.295 141.746C222.465 141.408 221.759 140.938 221.175 140.337C220.599 139.728 220.155 139.021 219.842 138.217C219.537 137.404 219.385 136.533 219.385 135.602V135.094C219.385 134.036 219.537 133.075 219.842 132.212C220.146 131.34 220.578 130.591 221.137 129.965C221.695 129.339 222.364 128.856 223.143 128.518C223.921 128.179 224.78 128.01 225.72 128.01C226.693 128.01 227.552 128.175 228.297 128.505C229.042 128.826 229.664 129.284 230.163 129.876C230.662 130.468 231.039 131.179 231.293 132.009C231.547 132.83 231.674 133.74 231.674 134.738V136.147H220.908V133.837H228.373V133.583C228.356 133.05 228.255 132.563 228.068 132.123C227.882 131.674 227.594 131.319 227.205 131.057C226.816 130.786 226.312 130.65 225.694 130.65C225.195 130.65 224.759 130.76 224.387 130.98C224.023 131.192 223.718 131.497 223.473 131.895C223.236 132.284 223.058 132.749 222.939 133.291C222.821 133.833 222.762 134.434 222.762 135.094V135.602C222.762 136.177 222.838 136.71 222.99 137.201C223.151 137.692 223.384 138.119 223.688 138.483C224.002 138.839 224.374 139.118 224.806 139.321C225.246 139.516 225.745 139.613 226.304 139.613C227.006 139.613 227.641 139.478 228.208 139.207C228.784 138.928 229.283 138.517 229.706 137.976L231.395 139.728C231.107 140.151 230.717 140.557 230.227 140.946C229.744 141.336 229.16 141.653 228.475 141.898C227.789 142.135 226.998 142.254 226.101 142.254ZM233.908 122.5H237.272V138.966L236.942 142H233.908V122.5ZM246.108 134.992V135.259C246.108 136.283 245.994 137.222 245.766 138.077C245.546 138.932 245.211 139.673 244.763 140.299C244.314 140.917 243.756 141.399 243.087 141.746C242.427 142.085 241.652 142.254 240.764 142.254C239.917 142.254 239.181 142.089 238.555 141.759C237.937 141.429 237.416 140.963 236.993 140.362C236.57 139.753 236.231 139.038 235.978 138.217C235.724 137.387 235.533 136.482 235.406 135.5V134.776C235.533 133.786 235.724 132.881 235.978 132.06C236.231 131.239 236.57 130.523 236.993 129.914C237.416 129.305 237.937 128.835 238.555 128.505C239.173 128.175 239.9 128.01 240.738 128.01C241.635 128.01 242.418 128.183 243.087 128.53C243.764 128.869 244.323 129.351 244.763 129.978C245.211 130.595 245.546 131.332 245.766 132.187C245.994 133.033 246.108 133.968 246.108 134.992ZM242.744 135.259V134.992C242.744 134.408 242.698 133.858 242.604 133.342C242.511 132.817 242.359 132.356 242.147 131.958C241.936 131.56 241.648 131.247 241.284 131.019C240.92 130.79 240.463 130.676 239.913 130.676C239.388 130.676 238.94 130.765 238.567 130.942C238.203 131.12 237.899 131.366 237.653 131.679C237.416 131.992 237.23 132.36 237.095 132.783C236.968 133.206 236.883 133.663 236.841 134.154V136.135C236.9 136.786 237.04 137.375 237.26 137.899C237.48 138.416 237.806 138.826 238.237 139.131C238.677 139.436 239.244 139.588 239.938 139.588C240.48 139.588 240.933 139.482 241.297 139.271C241.661 139.05 241.949 138.746 242.16 138.356C242.372 137.959 242.52 137.497 242.604 136.973C242.698 136.448 242.744 135.877 242.744 135.259ZM252.938 142H249.562V127.121C249.562 126.063 249.773 125.174 250.196 124.455C250.628 123.727 251.25 123.177 252.062 122.805C252.875 122.424 253.857 122.233 255.008 122.233C255.482 122.233 256.07 122.259 256.772 122.31C257.483 122.36 258.211 122.424 258.956 122.5C259.709 122.576 260.386 122.657 260.987 122.741L259.565 125.356C258.787 125.221 258.05 125.115 257.356 125.039C256.671 124.954 256.032 124.912 255.439 124.912C254.898 124.912 254.441 124.997 254.068 125.166C253.696 125.335 253.412 125.585 253.218 125.915C253.032 126.237 252.938 126.639 252.938 127.121V142ZM257.623 142V122.741H260.987V142H257.623ZM255.719 128.264V130.676H247.492V128.264H255.719ZM263.615 135.271V135.005C263.615 133.998 263.759 133.071 264.047 132.225C264.335 131.37 264.754 130.629 265.304 130.003C265.854 129.377 266.527 128.89 267.322 128.543C268.118 128.188 269.023 128.01 270.039 128.01C271.072 128.01 271.986 128.188 272.781 128.543C273.585 128.89 274.262 129.377 274.812 130.003C275.363 130.629 275.782 131.37 276.069 132.225C276.357 133.071 276.501 133.998 276.501 135.005V135.271C276.501 136.27 276.357 137.197 276.069 138.052C275.782 138.898 275.363 139.639 274.812 140.273C274.262 140.9 273.59 141.386 272.794 141.733C271.998 142.08 271.089 142.254 270.064 142.254C269.049 142.254 268.139 142.08 267.335 141.733C266.531 141.386 265.854 140.9 265.304 140.273C264.754 139.639 264.335 138.898 264.047 138.052C263.759 137.197 263.615 136.27 263.615 135.271ZM266.967 135.005V135.271C266.967 135.872 267.026 136.435 267.145 136.96C267.263 137.485 267.445 137.946 267.69 138.344C267.936 138.742 268.253 139.055 268.643 139.283C269.04 139.503 269.514 139.613 270.064 139.613C270.606 139.613 271.072 139.503 271.461 139.283C271.85 139.055 272.168 138.742 272.413 138.344C272.667 137.946 272.853 137.485 272.972 136.96C273.09 136.435 273.149 135.872 273.149 135.271V135.005C273.149 134.412 273.09 133.858 272.972 133.342C272.853 132.817 272.667 132.356 272.413 131.958C272.168 131.552 271.846 131.234 271.448 131.006C271.059 130.769 270.589 130.65 270.039 130.65C269.497 130.65 269.032 130.769 268.643 131.006C268.253 131.234 267.936 131.552 267.69 131.958C267.445 132.356 267.263 132.817 267.145 133.342C267.026 133.858 266.967 134.412 266.967 135.005ZM282.76 138.699L285.769 128.264H287.901L287.267 131.869L284.232 142H282.392L282.76 138.699ZM281.097 128.264L283.356 138.725L283.56 142H281.439L277.834 128.264H281.097ZM290.694 138.572L292.903 128.264H296.153L292.573 142H290.453L290.694 138.572ZM288.231 128.264L291.215 138.598L291.608 142H289.768L286.708 131.869L286.086 128.264H288.231ZM307.96 130.904V147.281H304.596V128.264H307.706L307.96 130.904ZM316.783 134.992V135.259C316.783 136.257 316.665 137.184 316.428 138.039C316.199 138.885 315.861 139.626 315.412 140.261C314.964 140.887 314.405 141.378 313.736 141.733C313.076 142.08 312.314 142.254 311.451 142.254C310.605 142.254 309.868 142.093 309.242 141.771C308.616 141.441 308.087 140.976 307.655 140.375C307.224 139.774 306.877 139.076 306.614 138.28C306.36 137.476 306.17 136.6 306.043 135.652V134.802C306.17 133.795 306.36 132.881 306.614 132.06C306.877 131.23 307.224 130.515 307.655 129.914C308.087 129.305 308.612 128.835 309.229 128.505C309.856 128.175 310.588 128.01 311.426 128.01C312.298 128.01 313.063 128.175 313.724 128.505C314.392 128.835 314.955 129.309 315.412 129.927C315.869 130.545 316.212 131.281 316.44 132.136C316.669 132.991 316.783 133.943 316.783 134.992ZM313.419 135.259V134.992C313.419 134.383 313.364 133.82 313.254 133.304C313.144 132.779 312.975 132.322 312.746 131.933C312.518 131.535 312.221 131.226 311.857 131.006C311.493 130.786 311.053 130.676 310.537 130.676C310.021 130.676 309.576 130.76 309.204 130.93C308.832 131.099 308.527 131.34 308.29 131.653C308.053 131.966 307.867 132.339 307.731 132.771C307.604 133.194 307.52 133.663 307.478 134.18V136.287C307.554 136.913 307.702 137.476 307.922 137.976C308.142 138.475 308.464 138.873 308.887 139.169C309.318 139.465 309.877 139.613 310.562 139.613C311.079 139.613 311.519 139.499 311.883 139.271C312.247 139.042 312.543 138.729 312.771 138.331C313 137.925 313.165 137.459 313.267 136.935C313.368 136.41 313.419 135.851 313.419 135.259ZM322.585 131.069V142H319.233V128.264H322.407L322.585 131.069ZM326.762 128.175L326.711 131.298C326.525 131.264 326.313 131.239 326.076 131.222C325.848 131.205 325.632 131.196 325.429 131.196C324.912 131.196 324.46 131.268 324.07 131.412C323.681 131.548 323.355 131.746 323.093 132.009C322.839 132.271 322.644 132.593 322.509 132.974C322.373 133.346 322.297 133.769 322.28 134.243L321.557 134.154C321.557 133.283 321.646 132.474 321.823 131.729C322.001 130.985 322.259 130.333 322.598 129.774C322.936 129.216 323.359 128.784 323.867 128.479C324.383 128.166 324.976 128.01 325.645 128.01C325.831 128.01 326.03 128.027 326.241 128.061C326.461 128.086 326.635 128.124 326.762 128.175ZM327.65 135.271V135.005C327.65 133.998 327.794 133.071 328.082 132.225C328.37 131.37 328.789 130.629 329.339 130.003C329.889 129.377 330.562 128.89 331.357 128.543C332.153 128.188 333.059 128.01 334.074 128.01C335.107 128.01 336.021 128.188 336.816 128.543C337.62 128.89 338.298 129.377 338.848 130.003C339.398 130.629 339.817 131.37 340.104 132.225C340.392 133.071 340.536 133.998 340.536 135.005V135.271C340.536 136.27 340.392 137.197 340.104 138.052C339.817 138.898 339.398 139.639 338.848 140.273C338.298 140.9 337.625 141.386 336.829 141.733C336.034 142.08 335.124 142.254 334.1 142.254C333.084 142.254 332.174 142.08 331.37 141.733C330.566 141.386 329.889 140.9 329.339 140.273C328.789 139.639 328.37 138.898 328.082 138.052C327.794 137.197 327.65 136.27 327.65 135.271ZM331.002 135.005V135.271C331.002 135.872 331.061 136.435 331.18 136.96C331.298 137.485 331.48 137.946 331.726 138.344C331.971 138.742 332.288 139.055 332.678 139.283C333.076 139.503 333.549 139.613 334.1 139.613C334.641 139.613 335.107 139.503 335.496 139.283C335.885 139.055 336.203 138.742 336.448 138.344C336.702 137.946 336.888 137.485 337.007 136.96C337.125 136.435 337.185 135.872 337.185 135.271V135.005C337.185 134.412 337.125 133.858 337.007 133.342C336.888 132.817 336.702 132.356 336.448 131.958C336.203 131.552 335.881 131.234 335.483 131.006C335.094 130.769 334.624 130.65 334.074 130.65C333.533 130.65 333.067 130.769 332.678 131.006C332.288 131.234 331.971 131.552 331.726 131.958C331.48 132.356 331.298 132.817 331.18 133.342C331.061 133.858 331.002 134.412 331.002 135.005ZM343.139 128.264H346.516V143.016C346.516 143.989 346.338 144.814 345.982 145.491C345.635 146.168 345.132 146.68 344.472 147.027C343.812 147.374 343.003 147.548 342.047 147.548C341.751 147.548 341.454 147.531 341.158 147.497C340.862 147.463 340.57 147.408 340.282 147.332L340.295 144.742C340.481 144.776 340.672 144.801 340.866 144.818C341.061 144.844 341.256 144.856 341.45 144.856C341.814 144.856 342.119 144.793 342.364 144.666C342.618 144.539 342.809 144.34 342.936 144.069C343.071 143.799 343.139 143.447 343.139 143.016V128.264ZM342.859 124.671C342.859 124.172 343.029 123.757 343.367 123.427C343.714 123.097 344.18 122.932 344.764 122.932C345.348 122.932 345.809 123.097 346.147 123.427C346.494 123.757 346.668 124.172 346.668 124.671C346.668 125.162 346.494 125.572 346.147 125.902C345.809 126.232 345.348 126.397 344.764 126.397C344.18 126.397 343.714 126.232 343.367 125.902C343.029 125.572 342.859 125.162 342.859 124.671ZM355.796 142.254C354.755 142.254 353.82 142.085 352.99 141.746C352.161 141.408 351.454 140.938 350.87 140.337C350.295 139.728 349.85 139.021 349.537 138.217C349.232 137.404 349.08 136.533 349.08 135.602V135.094C349.08 134.036 349.232 133.075 349.537 132.212C349.842 131.34 350.273 130.591 350.832 129.965C351.391 129.339 352.059 128.856 352.838 128.518C353.617 128.179 354.476 128.01 355.415 128.01C356.388 128.01 357.247 128.175 357.992 128.505C358.737 128.826 359.359 129.284 359.858 129.876C360.358 130.468 360.734 131.179 360.988 132.009C361.242 132.83 361.369 133.74 361.369 134.738V136.147H350.604V133.837H358.068V133.583C358.051 133.05 357.95 132.563 357.764 132.123C357.577 131.674 357.29 131.319 356.9 131.057C356.511 130.786 356.007 130.65 355.39 130.65C354.89 130.65 354.454 130.76 354.082 130.98C353.718 131.192 353.413 131.497 353.168 131.895C352.931 132.284 352.753 132.749 352.635 133.291C352.516 133.833 352.457 134.434 352.457 135.094V135.602C352.457 136.177 352.533 136.71 352.686 137.201C352.846 137.692 353.079 138.119 353.384 138.483C353.697 138.839 354.069 139.118 354.501 139.321C354.941 139.516 355.44 139.613 355.999 139.613C356.701 139.613 357.336 139.478 357.903 139.207C358.479 138.928 358.978 138.517 359.401 137.976L361.09 139.728C360.802 140.151 360.413 140.557 359.922 140.946C359.439 141.336 358.855 141.653 358.17 141.898C357.484 142.135 356.693 142.254 355.796 142.254ZM369.253 139.613C369.727 139.613 370.15 139.52 370.522 139.334C370.895 139.148 371.191 138.885 371.411 138.547C371.64 138.208 371.762 137.815 371.779 137.366H374.94C374.924 138.297 374.661 139.131 374.153 139.867C373.646 140.604 372.968 141.188 372.122 141.619C371.284 142.042 370.345 142.254 369.304 142.254C368.246 142.254 367.323 142.076 366.536 141.721C365.749 141.365 365.093 140.87 364.568 140.235C364.052 139.601 363.663 138.864 363.4 138.026C363.146 137.188 363.02 136.291 363.02 135.335V134.929C363.02 133.972 363.146 133.075 363.4 132.237C363.663 131.399 364.052 130.663 364.568 130.028C365.093 129.394 365.749 128.898 366.536 128.543C367.323 128.188 368.242 128.01 369.291 128.01C370.4 128.01 371.373 128.226 372.211 128.657C373.057 129.089 373.717 129.698 374.191 130.485C374.674 131.272 374.924 132.199 374.94 133.266H371.779C371.762 132.775 371.652 132.335 371.449 131.945C371.246 131.556 370.958 131.243 370.586 131.006C370.214 130.769 369.761 130.65 369.228 130.65C368.66 130.65 368.187 130.769 367.806 131.006C367.433 131.243 367.141 131.569 366.93 131.983C366.727 132.39 366.583 132.847 366.498 133.354C366.422 133.854 366.384 134.379 366.384 134.929V135.335C366.384 135.894 366.422 136.427 366.498 136.935C366.583 137.442 366.727 137.899 366.93 138.306C367.141 138.703 367.433 139.021 367.806 139.258C368.187 139.495 368.669 139.613 369.253 139.613ZM383.675 128.264V130.676H375.804V128.264H383.675ZM377.911 124.887H381.275V138.039C381.275 138.445 381.33 138.758 381.44 138.979C381.55 139.199 381.715 139.347 381.936 139.423C382.156 139.499 382.418 139.537 382.723 139.537C382.943 139.537 383.146 139.524 383.332 139.499C383.518 139.474 383.675 139.448 383.802 139.423L383.814 141.937C383.535 142.03 383.218 142.106 382.862 142.165C382.515 142.224 382.122 142.254 381.682 142.254C380.928 142.254 380.268 142.127 379.701 141.873C379.134 141.611 378.694 141.192 378.381 140.616C378.068 140.032 377.911 139.262 377.911 138.306V124.887Z" fill="white"/>
<rect x="192.5" y="85.5" width="202" height="67" stroke="#0072F7"/>
<path d="M410.786 161.272C410.73 161.328 410.665 161.375 410.59 161.412L405.884 163.696C405.803 163.736 405.735 163.803 405.695 163.885L403.411 168.591C403.285 168.85 403.019 169.011 402.73 168.999C402.443 168.99 402.186 168.81 402.081 168.542L397.053 155.999C396.944 155.728 397.006 155.42 397.214 155.213C397.42 155.007 397.73 154.944 398 155.052L410.544 160.08C410.81 160.187 410.989 160.441 411.001 160.728C411.008 160.936 410.929 161.132 410.786 161.272ZM405.476 163.477L402.777 167.761L404.856 163.477C404.986 163.206 405.208 162.987 405.476 162.856L409.76 160.777L405.476 163.477Z" fill="white"/>
</g>
<defs>
<clipPath id="clip0_412_381">
<rect width="702" height="426" fill="white"/>
</clipPath>
<clipPath id="clip1_412_381">
<rect width="12" height="12" fill="white" transform="translate(522 10.0093)"/>
</clipPath>
<clipPath id="clip2_412_381">
<rect width="16" height="16" fill="white" transform="translate(600 8.00928)"/>
</clipPath>
<clipPath id="clip3_412_381">
<rect width="12" height="12" fill="white" transform="translate(307 10.0093)"/>
</clipPath>
<clipPath id="clip4_412_381">
<rect width="12" height="12" fill="white" transform="translate(90 10.0093)"/>
</clipPath>
</defs>
</svg>
