<svg width="209" height="39" viewBox="0 0 209 39" fill="none" xmlns="http://www.w3.org/2000/svg">
<g clip-path="url(#clip0_379_3757)">
<mask id="mask0_379_3757" style="mask-type:luminance" maskUnits="userSpaceOnUse" x="0" y="0" width="208" height="38">
<path d="M0 0.806641H207.742V37.9061H0V0.806641Z" fill="white"/>
</mask>
<g mask="url(#mask0_379_3757)">
<path d="M4.97425 13.1091C7.1303 13.1091 8.71274 11.9793 8.71274 10.4511V10.4388C8.71274 9.13822 7.64588 8.30817 6.07906 8.19339V8.16778C7.42157 7.92684 8.36232 7.15371 8.36232 6.02485V6.01156C8.36232 4.62278 7.01089 3.65234 4.95975 3.65234C2.94542 3.65234 1.55715 4.64839 1.38529 6.13868L1.37861 6.20223H2.66867L2.67647 6.13868C2.78806 5.21282 3.69089 4.64176 4.95975 4.64176C6.27324 4.64176 7.01088 5.19385 7.01088 6.15101V6.1643C7.01088 7.07687 6.11589 7.74943 4.83253 7.74943H3.54246V8.71324H4.89279C6.39934 8.71324 7.34679 9.34122 7.34679 10.4644V10.4767C7.34679 11.4472 6.38484 12.1197 4.97425 12.1197C3.54247 12.1197 2.56487 11.4974 2.45997 10.5972L2.45327 10.5336H1.16211L1.16992 10.6095C1.31165 12.0562 2.75125 13.1091 4.97425 13.1091Z" fill="white"/>
<mask id="mask1_379_3757" style="mask-type:luminance" maskUnits="userSpaceOnUse" x="32" y="0" width="176" height="38">
<path d="M32.0205 0.806641H207.741V37.9061H32.0205V0.806641Z" fill="white"/>
</mask>
<g mask="url(#mask1_379_3757)">
<mask id="mask2_379_3757" style="mask-type:luminance" maskUnits="userSpaceOnUse" x="32" y="0" width="176" height="14">
<path d="M32.0205 0.806641H207.741V13.7953H32.0205V0.806641Z" fill="white"/>
</mask>
<g mask="url(#mask2_379_3757)">
<path d="M38.9209 10.4412V11.2412H34.2996V10.4412H38.9209ZM34.5333 3.82265V11.2412H33.3765V3.82265H34.5333ZM38.3095 7.0122V7.81213H34.2996V7.0122H38.3095ZM38.861 3.82265V4.62768H34.2996V3.82265H38.861ZM41.3904 3.41504V11.2412H40.2755V3.41504H41.3904ZM45.8619 11.343C45.4104 11.343 45.0008 11.2785 44.6331 11.1494C44.2695 11.017 43.9558 10.8318 43.6921 10.5941C43.4323 10.3563 43.2326 10.0744 43.0927 9.74828C42.9528 9.42219 42.8829 9.06553 42.8829 8.67831V8.46431C42.8829 8.01594 42.9608 7.61682 43.1166 7.26696C43.2725 6.91369 43.4843 6.61478 43.7521 6.37021C44.0198 6.12565 44.3234 5.94052 44.6631 5.81485C45.0027 5.68917 45.3545 5.62632 45.7181 5.62632C46.1816 5.62632 46.5811 5.69426 46.9168 5.83013C47.2565 5.966 47.5342 6.15622 47.75 6.40078C47.9658 6.64195 48.1256 6.92728 48.2295 7.25676C48.3334 7.58285 48.3853 7.93951 48.3853 8.32674V8.74964H43.5423V7.98027H47.2765V7.90894C47.2605 7.66437 47.2005 7.4266 47.0966 7.19562C46.9967 6.96464 46.8369 6.77443 46.6172 6.62497C46.3973 6.47552 46.0977 6.40078 45.7181 6.40078C45.4663 6.40078 45.2345 6.44664 45.0228 6.53835C44.811 6.62667 44.6291 6.75914 44.4773 6.93578C44.3254 7.1124 44.2076 7.3281 44.1237 7.58285C44.0398 7.83761 43.9978 8.13143 43.9978 8.46431V8.67831C43.9978 8.93986 44.0398 9.18612 44.1237 9.4171C44.2116 9.64468 44.3375 9.84509 44.5013 10.0183C44.6692 10.1916 44.8709 10.3274 45.1066 10.4259C45.3464 10.5245 45.6182 10.5737 45.9218 10.5737C46.3134 10.5737 46.6451 10.5058 46.9168 10.3698C47.1886 10.234 47.4264 10.0523 47.6302 9.82471L48.3014 10.2782C48.1616 10.4582 47.9838 10.6298 47.768 10.7927C47.5523 10.9558 47.2864 11.0883 46.9708 11.1902C46.6592 11.2921 46.2894 11.343 45.8619 11.343ZM50.783 6.82368V11.2412H49.668V5.72823H50.7231L50.783 6.82368ZM50.5552 8.27579L50.0398 8.26051C50.0437 7.88347 50.1017 7.53529 50.2135 7.21601C50.3254 6.89332 50.4913 6.61308 50.711 6.37531C50.9308 6.13753 51.2045 5.95412 51.5322 5.82504C51.8599 5.69256 52.2394 5.62632 52.6711 5.62632C52.9747 5.62632 53.2545 5.66369 53.5102 5.73842C53.766 5.80975 53.9877 5.92354 54.1755 6.07979C54.3633 6.23605 54.5092 6.43645 54.6131 6.68102C54.717 6.92558 54.7689 7.2211 54.7689 7.56757V11.2412H53.6601V7.61342C53.6601 7.3247 53.6021 7.09372 53.4862 6.92048C53.3744 6.74726 53.2145 6.62157 53.0067 6.54345C52.7989 6.46192 52.5551 6.42117 52.2755 6.42117C51.9478 6.42117 51.6741 6.47042 51.4542 6.56893C51.2345 6.66743 51.0586 6.8033 50.9268 6.97653C50.7949 7.14977 50.6991 7.34847 50.6391 7.57266C50.5831 7.79345 50.5552 8.02783 50.5552 8.27579ZM54.7569 7.75609L54.0137 7.9497C54.0177 7.64739 54.0756 7.35697 54.1876 7.07844C54.3034 6.79991 54.4692 6.55194 54.6851 6.33455C54.9048 6.11716 55.1745 5.94562 55.4943 5.81994C55.8139 5.69086 56.1795 5.62632 56.5911 5.62632C56.9388 5.62632 57.2464 5.66538 57.5142 5.74351C57.7859 5.82164 58.0137 5.94222 58.1975 6.10527C58.3853 6.26491 58.5271 6.47042 58.6231 6.72178C58.719 6.97313 58.7669 7.27205 58.7669 7.61852V11.2412H57.652V7.60833C57.652 7.29922 57.5941 7.05975 57.4782 6.88992C57.3663 6.71668 57.2065 6.59609 56.9987 6.52816C56.7949 6.45683 56.5512 6.42117 56.2674 6.42117C56.0237 6.42117 55.8079 6.45683 55.62 6.52816C55.4322 6.59949 55.2744 6.698 55.1465 6.82368C55.0186 6.94596 54.9208 7.08693 54.8528 7.24657C54.789 7.40623 54.7569 7.57606 54.7569 7.75609ZM63.1365 11.343C62.685 11.343 62.2753 11.2785 61.9077 11.1494C61.5441 11.017 61.2304 10.8318 60.9667 10.5941C60.7069 10.3563 60.5072 10.0744 60.3674 9.74828C60.2274 9.42219 60.1576 9.06553 60.1576 8.67831V8.46431C60.1576 8.01594 60.2354 7.61682 60.3912 7.26696C60.5471 6.91369 60.7589 6.61478 61.0267 6.37021C61.2944 6.12565 61.598 5.94052 61.9377 5.81485C62.2773 5.68917 62.629 5.62632 62.9927 5.62632C63.4562 5.62632 63.8558 5.69426 64.1914 5.83013C64.5311 5.966 64.8088 6.15622 65.0246 6.40078C65.2403 6.64195 65.4003 6.92728 65.5042 7.25676C65.608 7.58285 65.6599 7.93951 65.6599 8.32674V8.74964H60.8169V7.98027H64.5511V7.90894C64.5352 7.66437 64.4751 7.4266 64.3712 7.19562C64.2713 6.96464 64.1115 6.77443 63.8918 6.62497C63.672 6.47552 63.3723 6.40078 62.9927 6.40078C62.7409 6.40078 62.5091 6.44664 62.2973 6.53835C62.0856 6.62667 61.9037 6.75914 61.7519 6.93578C61.6001 7.1124 61.4822 7.3281 61.3983 7.58285C61.3144 7.83761 61.2724 8.13143 61.2724 8.46431V8.67831C61.2724 8.93986 61.3144 9.18612 61.3983 9.4171C61.4862 9.64468 61.612 9.84509 61.7759 10.0183C61.9437 10.1916 62.1455 10.3274 62.3812 10.4259C62.6211 10.5245 62.8928 10.5737 63.1964 10.5737C63.588 10.5737 63.9197 10.5058 64.1914 10.3698C64.4632 10.234 64.701 10.0523 64.9048 9.82471L65.576 10.2782C65.4362 10.4582 65.2584 10.6298 65.0426 10.7927C64.8268 10.9558 64.5611 11.0883 64.2453 11.1902C63.9338 11.2921 63.564 11.343 63.1365 11.343ZM68.0635 6.9052V11.2412H66.9547V5.72823H68.0036L68.0635 6.9052ZM67.7998 8.27579L67.3382 8.26051C67.3423 7.88347 67.4082 7.53529 67.5361 7.21601C67.664 6.89332 67.8438 6.61308 68.0756 6.37531C68.3073 6.13753 68.583 5.95412 68.9027 5.82504C69.2263 5.69256 69.584 5.62632 69.9756 5.62632C70.2953 5.62632 70.583 5.66369 70.8388 5.73842C71.0945 5.80975 71.3123 5.92524 71.4921 6.08488C71.6759 6.24454 71.8157 6.45173 71.9117 6.70649C72.0076 6.95785 72.0555 7.26526 72.0555 7.62871V11.2412H70.9407V7.61852C70.9407 7.3298 70.8907 7.09882 70.7908 6.92558C70.6909 6.74895 70.5451 6.62157 70.3533 6.54345C70.1614 6.46192 69.9257 6.42117 69.646 6.42117C69.3702 6.42117 69.1184 6.47042 68.8907 6.56893C68.6669 6.66743 68.4732 6.8033 68.3092 6.97653C68.1494 7.14977 68.0236 7.34847 67.9317 7.57266C67.8438 7.79345 67.7998 8.02783 67.7998 8.27579ZM76.4551 5.72823V6.45173H72.9487V5.72823H76.4551ZM74.1355 4.38821H75.2443V9.87566C75.2443 10.0625 75.2782 10.2035 75.3462 10.2985C75.4142 10.3937 75.5021 10.4566 75.6099 10.4871C75.7178 10.5176 75.8338 10.5329 75.9576 10.5329C76.0495 10.5329 76.1455 10.5262 76.2453 10.5125C76.3492 10.4955 76.4271 10.482 76.479 10.4718L76.485 11.2412C76.3971 11.265 76.2813 11.287 76.1374 11.3074C75.9976 11.3312 75.8277 11.343 75.628 11.343C75.3562 11.343 75.1065 11.2972 74.8787 11.2055C74.651 11.1138 74.469 10.9609 74.3332 10.7469C74.2013 10.5295 74.1355 10.2374 74.1355 9.87057V4.38821ZM80.7947 3.41504H81.9096V10.1712L81.8137 11.2412H80.7947V3.41504ZM86.2912 8.43884V8.54583C86.2912 8.94665 86.2353 9.3186 86.1233 9.66166C86.0115 10.0013 85.8477 10.2969 85.6318 10.5482C85.4161 10.7996 85.1523 10.9949 84.8406 11.1342C84.5289 11.2734 84.1714 11.343 83.7677 11.343C83.3562 11.343 82.9945 11.2837 82.6828 11.1647C82.3751 11.0424 82.1154 10.8675 81.9036 10.6399C81.6918 10.4123 81.522 10.1372 81.3941 9.81452C81.2702 9.49182 81.1844 9.12838 81.1364 8.72416V8.25541C81.1844 7.8478 81.2702 7.48265 81.3941 7.15995C81.522 6.83726 81.6918 6.56213 81.9036 6.33455C82.1154 6.10357 82.3751 5.92864 82.6828 5.80975C82.9905 5.68747 83.3481 5.62632 83.7558 5.62632C84.1633 5.62632 84.5249 5.69426 84.8406 5.83013C85.1563 5.96261 85.42 6.15282 85.6318 6.40078C85.8477 6.64874 86.0115 6.94596 86.1233 7.29243C86.2353 7.63551 86.2912 8.01764 86.2912 8.43884ZM85.1763 8.54583V8.43884C85.1763 8.1637 85.1464 7.90554 85.0864 7.66437C85.0264 7.41981 84.9306 7.20581 84.7987 7.02239C84.6669 6.83556 84.493 6.6895 84.2772 6.58421C84.0615 6.47552 83.7957 6.42117 83.48 6.42117C83.2003 6.42117 82.9565 6.46192 82.7487 6.54345C82.545 6.62497 82.3711 6.73536 82.2273 6.87463C82.0834 7.0105 81.9656 7.16676 81.8736 7.34338C81.7858 7.51662 81.7198 7.69665 81.6759 7.88347V9.11139C81.7398 9.34916 81.8437 9.57844 81.9875 9.79923C82.1354 10.0166 82.3311 10.195 82.575 10.3342C82.8227 10.4735 83.1284 10.5432 83.492 10.5432C83.7917 10.5432 84.0475 10.4921 84.2592 10.3902C84.475 10.285 84.6489 10.1406 84.7807 9.95718C84.9166 9.77375 85.0165 9.56146 85.0804 9.32029C85.1444 9.07913 85.1763 8.82097 85.1763 8.54583ZM91.5179 10.2985V7.46057C91.5179 7.24318 91.466 7.05466 91.3621 6.89501C91.2622 6.73197 91.1104 6.60629 90.9066 6.51798C90.7028 6.42966 90.451 6.3855 90.1513 6.3855C89.8716 6.3855 89.6258 6.42626 89.4141 6.50778C89.2063 6.5893 89.0425 6.6963 88.9225 6.82877C88.8067 6.96125 88.7487 7.10391 88.7487 7.25676H87.6398C87.6398 7.05975 87.6997 6.86444 87.8197 6.67083C87.9396 6.47721 88.1114 6.30228 88.3352 6.14603C88.5629 5.98638 88.8347 5.8607 89.1503 5.76899C89.47 5.67387 89.8256 5.62632 90.2172 5.62632C90.6887 5.62632 91.1043 5.69426 91.464 5.83013C91.8276 5.966 92.1114 6.1715 92.3152 6.44664C92.5229 6.71838 92.6268 7.05975 92.6268 7.47076V10.0387C92.6268 10.2221 92.6448 10.4175 92.6807 10.6246C92.7207 10.8318 92.7786 11.0102 92.8546 11.1597V11.2412H91.6978C91.6418 11.1324 91.5978 10.9881 91.5659 10.8081C91.5339 10.6246 91.5179 10.4548 91.5179 10.2985ZM91.7097 7.89875L91.7217 8.56111H90.6008C90.2852 8.56111 90.0034 8.5832 89.7557 8.62736C89.5079 8.66812 89.3001 8.73095 89.1323 8.81588C88.9645 8.9008 88.8367 9.00779 88.7487 9.13687C88.6608 9.26255 88.6168 9.41031 88.6168 9.58014C88.6168 9.75338 88.6628 9.91132 88.7547 10.054C88.8466 10.1967 88.9844 10.3105 89.1683 10.3954C89.3561 10.4769 89.5858 10.5176 89.8576 10.5176C90.1973 10.5176 90.4969 10.4566 90.7567 10.3342C91.0164 10.2119 91.2223 10.0625 91.3741 9.88585C91.53 9.70922 91.6139 9.53768 91.6258 9.37124L92.0993 9.82471C92.0714 9.96738 91.9954 10.1253 91.8716 10.2985C91.7477 10.4718 91.5818 10.6382 91.3741 10.7979C91.1703 10.9541 90.9265 11.0849 90.6428 11.1902C90.3631 11.2921 90.0474 11.343 89.6957 11.343C89.2562 11.343 88.8706 11.27 88.5389 11.124C88.2113 10.9779 87.9555 10.7826 87.7717 10.538C87.5919 10.2901 87.502 10.0132 87.502 9.70752C87.502 9.41201 87.5699 9.15215 87.7058 8.92796C87.8417 8.70038 88.0374 8.51186 88.2932 8.36241C88.5489 8.20956 88.8567 8.09406 89.2162 8.01594C89.5759 7.93781 89.9775 7.89875 90.421 7.89875H91.7097ZM98.1473 9.77886C98.1473 9.64299 98.1113 9.5173 98.0394 9.40182C97.9714 9.28293 97.8296 9.17593 97.6138 9.08082C97.402 8.98232 97.0823 8.8974 96.6548 8.82606C96.2951 8.76153 95.9695 8.6851 95.6778 8.59678C95.3901 8.50847 95.1442 8.40147 94.9405 8.27579C94.7407 8.15011 94.5868 8.00235 94.4789 7.83252C94.3711 7.66268 94.3171 7.46397 94.3171 7.23638C94.3171 7.01899 94.3731 6.81349 94.4849 6.61988C94.6009 6.42626 94.7627 6.25472 94.9705 6.10527C95.1823 5.95581 95.436 5.83862 95.7317 5.7537C96.0274 5.66878 96.3571 5.62632 96.7207 5.62632C97.2401 5.62632 97.6837 5.70445 98.0513 5.8607C98.4189 6.01695 98.7007 6.22585 98.8965 6.4874C99.0923 6.74555 99.1902 7.03258 99.1902 7.34847H98.0814C98.0814 7.19562 98.0273 7.04787 97.9195 6.9052C97.8156 6.75914 97.6617 6.63855 97.458 6.54345C97.2581 6.44834 97.0124 6.40078 96.7207 6.40078C96.413 6.40078 96.1632 6.44155 95.9714 6.52307C95.7837 6.60119 95.6458 6.7014 95.5578 6.82368C95.4739 6.94596 95.4319 7.07504 95.4319 7.2109C95.4319 7.31281 95.452 7.40453 95.492 7.48604C95.5358 7.56417 95.6118 7.6372 95.7197 7.70514C95.8275 7.76967 95.9794 7.83082 96.1753 7.88856C96.371 7.9463 96.6208 8.00406 96.9245 8.0618C97.456 8.1637 97.8935 8.28599 98.2371 8.42865C98.5809 8.57131 98.8365 8.74624 99.0044 8.95344C99.1722 9.16064 99.2561 9.41201 99.2561 9.70752C99.2561 9.94869 99.1962 10.1695 99.0763 10.3698C98.9604 10.5703 98.7907 10.7435 98.5668 10.8896C98.3471 11.0323 98.0834 11.1443 97.7756 11.2259C97.4719 11.304 97.1303 11.343 96.7507 11.343C96.1792 11.343 95.6957 11.2564 95.3001 11.0832C94.9045 10.91 94.6048 10.6858 94.401 10.4106C94.1972 10.1355 94.0953 9.84509 94.0953 9.53938H95.2102C95.2262 9.79754 95.3141 10.003 95.4739 10.1559C95.6338 10.3053 95.8295 10.4123 96.0613 10.4769C96.2931 10.538 96.5229 10.5686 96.7507 10.5686C97.0543 10.5686 97.3081 10.5346 97.5119 10.4667C97.7197 10.3988 97.8776 10.3053 97.9854 10.1865C98.0933 10.0676 98.1473 9.93171 98.1473 9.77886ZM101.917 5.72823V11.2412H100.803V5.72823H101.917ZM100.719 4.26592C100.719 4.11307 100.773 3.98399 100.881 3.8787C100.992 3.7734 101.156 3.72075 101.372 3.72075C101.584 3.72075 101.746 3.7734 101.858 3.8787C101.973 3.98399 102.031 4.11307 102.031 4.26592C102.031 4.41198 101.973 4.53766 101.858 4.64296C101.746 4.74487 101.584 4.79582 101.372 4.79582C101.156 4.79582 100.992 4.74487 100.881 4.64296C100.773 4.53766 100.719 4.41198 100.719 4.26592ZM106.293 10.5686C106.557 10.5686 106.801 10.5228 107.024 10.431C107.248 10.3393 107.432 10.2136 107.576 10.054C107.72 9.89095 107.802 9.70582 107.822 9.49863H108.876C108.856 9.82471 108.727 10.1287 108.487 10.4106C108.251 10.6892 107.941 10.915 107.558 11.0883C107.174 11.2581 106.753 11.343 106.293 11.343C105.806 11.343 105.38 11.27 105.016 11.124C104.657 10.9779 104.357 10.7775 104.117 10.5228C103.881 10.268 103.704 9.97587 103.584 9.64638C103.468 9.3135 103.41 8.96193 103.41 8.59169V8.3777C103.41 8.00745 103.468 7.65758 103.584 7.3281C103.704 6.99522 103.881 6.7014 104.117 6.44664C104.357 6.19189 104.657 5.99147 105.016 5.84541C105.38 5.69935 105.806 5.62632 106.293 5.62632C106.801 5.62632 107.244 5.71464 107.624 5.89127C108.003 6.06451 108.301 6.30228 108.517 6.60458C108.737 6.9035 108.856 7.24318 108.876 7.62361H107.822C107.802 7.39603 107.726 7.19053 107.594 7.0071C107.466 6.82368 107.29 6.67762 107.066 6.56893C106.846 6.45683 106.589 6.40078 106.293 6.40078C105.953 6.40078 105.668 6.45853 105.436 6.57402C105.208 6.68611 105.026 6.83897 104.89 7.03258C104.759 7.2228 104.663 7.43509 104.603 7.66947C104.547 7.90045 104.519 8.13652 104.519 8.3777V8.59169C104.519 8.83286 104.547 9.07063 104.603 9.305C104.659 9.53938 104.753 9.75168 104.885 9.9419C105.02 10.1321 105.202 10.285 105.43 10.4005C105.662 10.5125 105.949 10.5686 106.293 10.5686ZM113.899 9.77886C113.899 9.64299 113.864 9.5173 113.791 9.40182C113.723 9.28293 113.581 9.17593 113.366 9.08082C113.154 8.98232 112.835 8.8974 112.407 8.82606C112.047 8.76153 111.721 8.6851 111.43 8.59678C111.142 8.50847 110.896 8.40147 110.693 8.27579C110.493 8.15011 110.339 8.00235 110.231 7.83252C110.123 7.66268 110.069 7.46397 110.069 7.23638C110.069 7.01899 110.125 6.81349 110.237 6.61988C110.353 6.42626 110.515 6.25472 110.723 6.10527C110.934 5.95581 111.188 5.83862 111.484 5.7537C111.779 5.66878 112.109 5.62632 112.473 5.62632C112.992 5.62632 113.436 5.70445 113.803 5.8607C114.171 6.01695 114.453 6.22585 114.648 6.4874C114.845 6.74555 114.943 7.03258 114.943 7.34847H113.834C113.834 7.19562 113.78 7.04787 113.672 6.9052C113.568 6.75914 113.414 6.63855 113.21 6.54345C113.01 6.44834 112.764 6.40078 112.473 6.40078C112.165 6.40078 111.915 6.44155 111.723 6.52307C111.536 6.60119 111.398 6.7014 111.31 6.82368C111.226 6.94596 111.184 7.07504 111.184 7.2109C111.184 7.31281 111.204 7.40453 111.244 7.48604C111.288 7.56417 111.364 7.6372 111.472 7.70514C111.58 7.76967 111.731 7.83082 111.927 7.88856C112.123 7.9463 112.373 8.00406 112.676 8.0618C113.209 8.1637 113.646 8.28599 113.99 8.42865C114.332 8.57131 114.589 8.74624 114.756 8.95344C114.924 9.16064 115.009 9.41201 115.009 9.70752C115.009 9.94869 114.948 10.1695 114.829 10.3698C114.713 10.5703 114.542 10.7435 114.319 10.8896C114.099 11.0323 113.836 11.1443 113.528 11.2259C113.224 11.304 112.883 11.343 112.503 11.343C111.931 11.343 111.448 11.2564 111.052 11.0832C110.657 10.91 110.357 10.6858 110.153 10.4106C109.949 10.1355 109.847 9.84509 109.847 9.53938H110.962C110.978 9.79754 111.066 10.003 111.226 10.1559C111.386 10.3053 111.582 10.4123 111.814 10.4769C112.046 10.538 112.275 10.5686 112.503 10.5686C112.807 10.5686 113.06 10.5346 113.264 10.4667C113.472 10.3988 113.629 10.3053 113.738 10.1865C113.846 10.0676 113.899 9.93171 113.899 9.77886Z" fill="white"/>
<path d="M203.923 0.806641H178.711C176.601 0.806641 174.891 2.26045 174.891 4.05381V10.5481C174.891 12.3415 176.601 13.7953 178.711 13.7953H203.923C206.033 13.7953 207.742 12.3415 207.742 10.5481V4.05381C207.742 2.26045 206.033 0.806641 203.923 0.806641Z" fill="black" fill-opacity="0.1"/>
<path d="M181.941 10.6428H183.028V4.694H181.941L180.099 5.80767V6.71456L181.859 5.64642H181.941V10.6428ZM186.723 10.6428H187.809V4.694H186.723L184.881 5.80767V6.71456L186.64 5.64642H186.723V10.6428ZM190.603 6.70982C191.005 6.70982 191.311 6.44231 191.311 6.1084C191.311 5.77069 191.005 5.50601 190.603 5.50601C190.2 5.50601 189.89 5.77069 189.89 6.1084C189.89 6.44231 190.2 6.70982 190.603 6.70982ZM190.603 9.82698C191.005 9.82698 191.311 9.55851 191.311 9.2246C191.311 8.88689 191.005 8.62319 190.603 8.62319C190.2 8.62319 189.89 8.88689 189.89 9.2246C189.89 9.55851 190.2 9.82698 190.603 9.82698ZM194.637 10.6428H195.724V4.694H194.637L192.795 5.80767V6.71456L194.555 5.64642H194.637V10.6428ZM197.707 10.6428H202.421V9.85544H199.186V9.77291L200.67 8.51599C201.941 7.44404 202.31 6.9242 202.31 6.24878V6.23645C202.31 5.25463 201.35 4.5498 200.045 4.5498C198.638 4.5498 197.649 5.31723 197.644 6.4053L197.654 6.4129H198.673L198.677 6.40056C198.677 5.74981 199.201 5.3125 199.986 5.3125C200.753 5.3125 201.224 5.74127 201.224 6.32278V6.33511C201.224 6.81701 200.957 7.12246 200.031 7.94302L197.707 10.0167V10.6428Z" fill="white"/>
</g>
<path d="M167.631 18.9902H33.9305C32.8757 18.9902 32.0205 19.7172 32.0205 20.6139C32.0205 21.5105 32.8757 22.2375 33.9305 22.2375H167.631C168.686 22.2375 169.541 21.5105 169.541 20.6139C169.541 19.7172 168.686 18.9902 167.631 18.9902Z" fill="black" fill-opacity="0.1"/>
<path d="M86.6473 19.6406H33.9311C33.2983 19.6406 32.7852 20.0768 32.7852 20.6148C32.7852 21.1528 33.2983 21.5889 33.9311 21.5889H86.6473C87.2802 21.5889 87.7933 21.1528 87.7933 20.6148C87.7933 20.0768 87.2802 19.6406 86.6473 19.6406Z" fill="#2F4AFD" stroke="black" stroke-opacity="0.05" stroke-width="0.275777"/>
<path d="M137.559 27.4336H33.5726C32.7154 27.4336 32.0205 28.0243 32.0205 28.7529C32.0205 29.4816 32.7154 30.0722 33.5726 30.0722H137.559C138.416 30.0722 139.11 29.4816 139.11 28.7529C139.11 28.0243 138.416 27.4336 137.559 27.4336Z" fill="white" fill-opacity="0.3"/>
<path d="M81.7583 35.2666H33.5726C32.7154 35.2666 32.0205 35.8572 32.0205 36.5858C32.0205 37.3145 32.7154 37.9052 33.5726 37.9052H81.7583C82.6154 37.9052 83.3104 37.3145 83.3104 36.5858C83.3104 35.8572 82.6154 35.2666 81.7583 35.2666Z" fill="white" fill-opacity="0.3"/>
</g>
</g>
</g>
<defs>
<clipPath id="clip0_379_3757">
<rect width="208.686" height="37.9448" fill="white" transform="translate(0 0.806641)"/>
</clipPath>
</defs>
</svg>
