<svg width="527" height="320" viewBox="0 0 527 320" fill="none" xmlns="http://www.w3.org/2000/svg">
<g filter="url(#filter0_b_565_12943)">
<g clip-path="url(#clip0_565_12943)">
<rect x="0.496094" y="0.182617" width="525.674" height="318.999" rx="10.2903" fill="#050435" fill-opacity="0.7"/>
<mask id="mask0_565_12943" style="mask-type:luminance" maskUnits="userSpaceOnUse" x="0" y="0" width="527" height="320">
<path d="M526.17 0.182617H0.496338V319.181H526.17V0.182617Z" fill="white"/>
</mask>
<g mask="url(#mask0_565_12943)">
<path d="M103.026 25.5234H525.451V25.7786H103.026V25.5234Z" fill="white" fill-opacity="0.2"/>
<path d="M0.496338 0.182617H519.79C523.314 0.182617 526.17 0.353468 526.17 0.564224V23.6514C526.17 23.8621 523.314 24.033 519.79 24.033H0.496338V0.182617Z" fill="white" fill-opacity="0.15"/>
<g opacity="0.7">
<path d="M504.484 13.5173C504.597 13.5141 504.702 13.4719 504.786 13.3812L507.259 10.8614C507.331 10.7901 507.37 10.6994 507.37 10.5925C507.37 10.3787 507.201 10.207 506.986 10.207C506.882 10.207 506.781 10.2492 506.706 10.3237L504.487 12.5942L502.261 10.3237C502.186 10.2524 502.088 10.207 501.981 10.207C501.766 10.207 501.597 10.3787 501.597 10.5925C501.597 10.6994 501.636 10.7901 501.708 10.8614L504.184 13.3812C504.272 13.4719 504.37 13.5173 504.484 13.5173Z" fill="white"/>
<path d="M476.334 12.2877H474.912V11.7136H476.334C476.61 11.7136 476.833 11.6697 477.003 11.582C477.174 11.4943 477.298 11.3724 477.376 11.2164C477.456 11.0603 477.497 10.8824 477.497 10.6826C477.497 10.4997 477.456 10.3279 477.376 10.167C477.298 10.0061 477.174 9.8769 477.003 9.7794C476.833 9.67951 476.61 9.62949 476.334 9.62949H475.077V14.3755H474.371V9.05184H476.334C476.736 9.05184 477.076 9.12126 477.355 9.26024C477.632 9.39915 477.843 9.59174 477.987 9.83796C478.13 10.0817 478.202 10.3608 478.202 10.6752C478.202 11.0165 478.13 11.3077 477.987 11.5491C477.843 11.7904 477.632 11.9744 477.355 12.1012C477.076 12.2255 476.736 12.2877 476.334 12.2877ZM481.413 13.4614V10.4193H482.093V14.3755H481.445L481.413 13.4614ZM481.541 12.6277L481.822 12.6204C481.822 12.8836 481.794 13.1275 481.738 13.3517C481.684 13.5735 481.597 13.7661 481.475 13.9294C481.353 14.0927 481.194 14.2207 480.996 14.3133C480.798 14.4035 480.559 14.4486 480.276 14.4486C480.083 14.4486 479.907 14.4205 479.746 14.3645C479.587 14.3084 479.451 14.2219 479.336 14.1049C479.221 13.9879 479.132 13.8356 479.069 13.6478C479.008 13.4602 478.978 13.2347 478.978 12.9714V10.4193H479.654V12.9787C479.654 13.1567 479.674 13.3042 479.713 13.4212C479.754 13.5357 479.809 13.6272 479.877 13.6954C479.948 13.7612 480.026 13.8075 480.111 13.8344C480.199 13.8612 480.289 13.8746 480.382 13.8746C480.67 13.8746 480.897 13.8197 481.066 13.71C481.234 13.5979 481.354 13.448 481.428 13.2603C481.503 13.0702 481.541 12.8593 481.541 12.6277ZM483.121 8.75928H483.801V13.6076L483.742 14.3755H483.121V8.75928ZM486.473 12.3645V12.4412C486.473 12.7289 486.439 12.9958 486.371 13.242C486.302 13.4858 486.203 13.6978 486.071 13.8782C485.939 14.0586 485.779 14.1987 485.589 14.2987C485.399 14.3986 485.18 14.4486 484.934 14.4486C484.683 14.4486 484.462 14.4059 484.272 14.3206C484.084 14.2329 483.926 14.1074 483.797 13.9441C483.668 13.7807 483.564 13.5833 483.486 13.3517C483.41 13.1201 483.358 12.8593 483.329 12.5692V12.2328C483.358 11.9404 483.41 11.6783 483.486 11.4467C483.564 11.2151 483.668 11.0177 483.797 10.8544C483.926 10.6886 484.084 10.5631 484.272 10.4778C484.46 10.3901 484.678 10.3462 484.927 10.3462C485.175 10.3462 485.396 10.3949 485.589 10.4924C485.781 10.5875 485.942 10.724 486.071 10.902C486.203 11.0799 486.302 11.2931 486.371 11.5418C486.439 11.788 486.473 12.0622 486.473 12.3645ZM485.793 12.4412V12.3645C485.793 12.167 485.775 11.9818 485.738 11.8087C485.702 11.6332 485.643 11.4796 485.563 11.348C485.482 11.2139 485.376 11.1091 485.245 11.0335C485.113 10.9556 484.951 10.9166 484.758 10.9166C484.588 10.9166 484.439 10.9458 484.313 11.0043C484.188 11.0628 484.082 11.142 483.994 11.242C483.907 11.3395 483.835 11.4516 483.779 11.5784C483.725 11.7027 483.684 11.8319 483.658 11.966V12.8471C483.697 13.0178 483.76 13.1823 483.848 13.3407C483.938 13.4967 484.057 13.6247 484.206 13.7247C484.358 13.8245 484.544 13.8746 484.766 13.8746C484.948 13.8746 485.105 13.838 485.234 13.7649C485.366 13.6893 485.471 13.5857 485.552 13.4541C485.635 13.3225 485.696 13.1701 485.735 12.997C485.774 12.824 485.793 12.6387 485.793 12.4412ZM488.064 8.75928V14.3755H487.384V8.75928H488.064ZM489.885 10.4193V14.3755H489.205V10.4193H489.885ZM489.153 9.36994C489.153 9.26024 489.186 9.16761 489.252 9.09205C489.32 9.01642 489.42 8.97868 489.552 8.97868C489.681 8.97868 489.78 9.01642 489.848 9.09205C489.919 9.16761 489.954 9.26024 489.954 9.36994C489.954 9.4747 489.919 9.56494 489.848 9.64049C489.78 9.71358 489.681 9.7502 489.552 9.7502C489.42 9.7502 489.32 9.71358 489.252 9.64049C489.186 9.56494 489.153 9.4747 489.153 9.36994ZM493.274 13.3261C493.274 13.2286 493.252 13.1384 493.208 13.0555C493.167 12.9702 493.081 12.8935 492.949 12.8252C492.819 12.7545 492.625 12.6935 492.364 12.6424C492.145 12.596 491.945 12.5412 491.768 12.4778C491.592 12.4144 491.442 12.3377 491.318 12.2474C491.196 12.1573 491.102 12.0513 491.036 11.9293C490.971 11.8075 490.938 11.6649 490.938 11.5015C490.938 11.3456 490.972 11.1981 491.04 11.0591C491.111 10.9202 491.209 10.7971 491.336 10.6898C491.466 10.5826 491.62 10.4985 491.801 10.4375C491.981 10.3767 492.182 10.3462 492.404 10.3462C492.721 10.3462 492.992 10.4022 493.216 10.5144C493.44 10.6265 493.612 10.7764 493.731 10.9641C493.85 11.1494 493.91 11.3553 493.91 11.582H493.234C493.234 11.4723 493.201 11.3663 493.135 11.2639C493.072 11.1591 492.978 11.0725 492.854 11.0043C492.732 10.936 492.582 10.902 492.404 10.902C492.217 10.902 492.064 10.9312 491.947 10.9896C491.832 11.0457 491.749 11.1176 491.695 11.2054C491.644 11.2931 491.617 11.3858 491.617 11.4833C491.617 11.5564 491.63 11.6223 491.654 11.6807C491.681 11.7368 491.728 11.7892 491.793 11.838C491.859 11.8843 491.951 11.9281 492.071 11.9696C492.19 12.011 492.343 12.0525 492.528 12.0939C492.852 12.167 493.12 12.2548 493.329 12.3571C493.539 12.4595 493.695 12.5851 493.797 12.7337C493.899 12.8824 493.951 13.0628 493.951 13.2749C493.951 13.448 493.914 13.6064 493.841 13.7503C493.77 13.894 493.666 14.0183 493.53 14.1232C493.396 14.2255 493.235 14.306 493.048 14.3645C492.862 14.4205 492.654 14.4486 492.422 14.4486C492.074 14.4486 491.778 14.3865 491.537 14.2622C491.296 14.1378 491.114 13.9769 490.989 13.7795C490.865 13.5821 490.803 13.3736 490.803 13.1543H491.483C491.492 13.3395 491.546 13.487 491.644 13.5967C491.741 13.7039 491.86 13.7807 492.002 13.827C492.143 13.8709 492.283 13.8928 492.422 13.8928C492.607 13.8928 492.762 13.8684 492.887 13.8197C493.013 13.7709 493.11 13.7039 493.176 13.6186C493.241 13.5333 493.274 13.4358 493.274 13.3261ZM495.515 8.75928V14.3755H494.839V8.75928H495.515ZM495.355 12.2474L495.073 12.2365C495.076 11.966 495.116 11.7161 495.194 11.4869C495.272 11.2554 495.381 11.0543 495.523 10.8836C495.664 10.713 495.833 10.5814 496.027 10.4888C496.225 10.3937 496.443 10.3462 496.682 10.3462C496.877 10.3462 497.052 10.373 497.208 10.4266C497.365 10.4778 497.497 10.5606 497.607 10.6752C497.719 10.7898 497.804 10.9385 497.863 11.1213C497.921 11.3017 497.95 11.5223 497.95 11.7831V14.3755H497.27V11.7758C497.27 11.5686 497.24 11.4028 497.179 11.2785C497.118 11.1518 497.029 11.0603 496.912 11.0043C496.795 10.9458 496.651 10.9166 496.481 10.9166C496.313 10.9166 496.159 10.9519 496.02 11.0226C495.884 11.0933 495.765 11.1908 495.666 11.3151C495.568 11.4394 495.491 11.582 495.435 11.7429C495.381 11.9013 495.355 12.0695 495.355 12.2474Z" fill="white"/>
</g>
<g opacity="0.7">
<path d="M434.843 13.5173C434.957 13.5141 435.061 13.4719 435.146 13.3812L437.619 10.8614C437.69 10.7901 437.729 10.6994 437.729 10.5925C437.729 10.3787 437.561 10.207 437.346 10.207C437.242 10.207 437.141 10.2492 437.066 10.3237L434.847 12.5942L432.621 10.3237C432.546 10.2524 432.448 10.207 432.341 10.207C432.126 10.207 431.957 10.3787 431.957 10.5925C431.957 10.6994 431.996 10.7901 432.068 10.8614L434.544 13.3812C434.632 13.4719 434.73 13.5173 434.843 13.5173Z" fill="white"/>
<path d="M408.113 13.8014V14.3755H405.293V13.8014H408.113ZM405.436 9.05184V14.3755H404.73V9.05184H405.436ZM407.74 11.3407V11.9147H405.293V11.3407H407.74ZM408.076 9.05184V9.62949H405.293V9.05184H408.076ZM411.304 13.6076V8.75928H411.985V14.3755H411.363L411.304 13.6076ZM408.643 12.4412V12.3645C408.643 12.0622 408.679 11.788 408.752 11.5418C408.828 11.2931 408.934 11.0799 409.07 10.902C409.21 10.724 409.374 10.5875 409.564 10.4924C409.756 10.3949 409.971 10.3462 410.208 10.3462C410.456 10.3462 410.673 10.3901 410.859 10.4778C411.046 10.5631 411.205 10.6886 411.334 10.8544C411.465 11.0177 411.569 11.2151 411.645 11.4467C411.72 11.6783 411.772 11.9404 411.802 12.2328V12.5692C411.775 12.8593 411.723 13.1201 411.645 13.3517C411.569 13.5833 411.465 13.7807 411.334 13.9441C411.205 14.1074 411.046 14.2329 410.859 14.3206C410.671 14.4059 410.451 14.4486 410.2 14.4486C409.969 14.4486 409.756 14.3986 409.564 14.2987C409.374 14.1987 409.21 14.0586 409.07 13.8782C408.934 13.6978 408.828 13.4858 408.752 13.242C408.679 12.9958 408.643 12.7289 408.643 12.4412ZM409.323 12.3645V12.4412C409.323 12.6387 409.342 12.824 409.381 12.997C409.422 13.1701 409.486 13.3225 409.571 13.4541C409.657 13.5857 409.765 13.6893 409.897 13.7649C410.028 13.838 410.185 13.8746 410.368 13.8746C410.593 13.8746 410.777 13.827 410.921 13.732C411.067 13.6369 411.184 13.5114 411.272 13.3553C411.36 13.1994 411.428 13.0299 411.476 12.8471V11.966C411.447 11.8319 411.404 11.7027 411.348 11.5784C411.294 11.4516 411.224 11.3395 411.136 11.242C411.051 11.142 410.945 11.0628 410.818 11.0043C410.694 10.9458 410.546 10.9166 410.376 10.9166C410.191 10.9166 410.031 10.9556 409.897 11.0335C409.765 11.1091 409.657 11.2139 409.571 11.348C409.486 11.4796 409.422 11.6332 409.381 11.8087C409.342 11.9818 409.323 12.167 409.323 12.3645ZM413.772 10.4193V14.3755H413.092V10.4193H413.772ZM413.041 9.36994C413.041 9.26024 413.074 9.16761 413.14 9.09205C413.208 9.01642 413.308 8.97868 413.44 8.97868C413.569 8.97868 413.667 9.01642 413.736 9.09205C413.807 9.16761 413.842 9.26024 413.842 9.36994C413.842 9.4747 413.807 9.56494 413.736 9.64049C413.667 9.71358 413.569 9.7502 413.44 9.7502C413.308 9.7502 413.208 9.71358 413.14 9.64049C413.074 9.56494 413.041 9.4747 413.041 9.36994ZM416.514 10.4193V10.9385H414.376V10.4193H416.514ZM415.1 9.45763H415.776V13.3955C415.776 13.5297 415.797 13.6308 415.838 13.699C415.88 13.7673 415.933 13.8124 415.999 13.8344C416.065 13.8563 416.136 13.8672 416.211 13.8672C416.267 13.8672 416.326 13.8624 416.387 13.8526C416.45 13.8404 416.498 13.8307 416.529 13.8233L416.533 14.3755C416.479 14.3925 416.409 14.4084 416.321 14.423C416.236 14.4401 416.132 14.4486 416.01 14.4486C415.844 14.4486 415.692 14.4157 415.553 14.3498C415.414 14.2841 415.304 14.1744 415.22 14.0208C415.14 13.8648 415.1 13.6552 415.1 13.3919V9.45763ZM418.044 10.4193V14.3755H417.363V10.4193H418.044ZM417.312 9.36994C417.312 9.26024 417.345 9.16761 417.411 9.09205C417.479 9.01642 417.579 8.97868 417.71 8.97868C417.84 8.97868 417.939 9.01642 418.007 9.09205C418.077 9.16761 418.112 9.26024 418.112 9.36994C418.112 9.4747 418.077 9.56494 418.007 9.64049C417.939 9.71358 417.84 9.7502 417.71 9.7502C417.579 9.7502 417.479 9.71358 417.411 9.64049C417.345 9.56494 417.312 9.4747 417.312 9.36994ZM419.806 11.2639V14.3755H419.129V10.4193H419.769L419.806 11.2639ZM419.645 12.2474L419.363 12.2365C419.365 11.966 419.406 11.7161 419.484 11.4869C419.562 11.2554 419.671 11.0543 419.813 10.8836C419.955 10.713 420.122 10.5814 420.318 10.4888C420.515 10.3937 420.733 10.3462 420.972 10.3462C421.167 10.3462 421.342 10.373 421.499 10.4266C421.654 10.4778 421.788 10.5606 421.897 10.6752C422.009 10.7898 422.095 10.9385 422.153 11.1213C422.211 11.3017 422.241 11.5223 422.241 11.7831V14.3755H421.561V11.7758C421.561 11.5686 421.53 11.4028 421.469 11.2785C421.408 11.1518 421.32 11.0603 421.202 11.0043C421.085 10.9458 420.941 10.9166 420.771 10.9166C420.602 10.9166 420.449 10.9519 420.31 11.0226C420.174 11.0933 420.056 11.1908 419.955 11.3151C419.858 11.4394 419.781 11.582 419.725 11.7429C419.671 11.9013 419.645 12.0695 419.645 12.2474ZM425.831 10.4193H426.445V14.2914C426.445 14.6399 426.375 14.9374 426.233 15.1835C426.092 15.4297 425.895 15.6162 425.641 15.743C425.39 15.8721 425.1 15.9367 424.771 15.9367C424.635 15.9367 424.474 15.9148 424.288 15.8709C424.105 15.8295 423.925 15.7576 423.747 15.6552C423.571 15.5552 423.424 15.42 423.305 15.2493L423.66 14.8471C423.825 15.047 423.998 15.186 424.179 15.2639C424.361 15.342 424.542 15.381 424.72 15.381C424.934 15.381 425.119 15.3408 425.276 15.2603C425.431 15.1798 425.552 15.0604 425.637 14.902C425.725 14.746 425.769 14.5534 425.769 14.3243V11.2895L425.831 10.4193ZM423.107 12.4412V12.3645C423.107 12.0622 423.142 11.788 423.213 11.5418C423.286 11.2931 423.39 11.0799 423.524 10.902C423.66 10.724 423.825 10.5875 424.018 10.4924C424.21 10.3949 424.427 10.3462 424.668 10.3462C424.917 10.3462 425.134 10.3901 425.319 10.4778C425.507 10.5631 425.666 10.6886 425.795 10.8544C425.926 11.0177 426.03 11.2151 426.105 11.4467C426.181 11.6783 426.233 11.9404 426.263 12.2328V12.5692C426.236 12.8593 426.183 13.1201 426.105 13.3517C426.03 13.5833 425.926 13.7807 425.795 13.9441C425.666 14.1074 425.507 14.2329 425.319 14.3206C425.132 14.4059 424.912 14.4486 424.661 14.4486C424.425 14.4486 424.21 14.3986 424.018 14.2987C423.827 14.1987 423.664 14.0586 423.528 13.8782C423.391 13.6978 423.286 13.4858 423.213 13.242C423.142 12.9958 423.107 12.7289 423.107 12.4412ZM423.784 12.3645V12.4412C423.784 12.6387 423.804 12.824 423.842 12.997C423.884 13.1701 423.946 13.3225 424.029 13.4541C424.114 13.5857 424.222 13.6893 424.354 13.7649C424.486 13.838 424.643 13.8746 424.826 13.8746C425.05 13.8746 425.235 13.827 425.381 13.732C425.528 13.6369 425.643 13.5114 425.729 13.3553C425.816 13.1994 425.885 13.0299 425.934 12.8471V11.966C425.907 11.8319 425.865 11.7027 425.81 11.5784C425.756 11.4516 425.685 11.3395 425.597 11.242C425.512 11.142 425.406 11.0628 425.279 11.0043C425.152 10.9458 425.004 10.9166 424.833 10.9166C424.648 10.9166 424.488 10.9556 424.354 11.0335C424.222 11.1091 424.114 11.2139 424.029 11.348C423.946 11.4796 423.884 11.6332 423.842 11.8087C423.804 11.9818 423.784 12.167 423.784 12.3645Z" fill="white"/>
</g>
<mask id="mask1_565_12943" style="mask-type:luminance" maskUnits="userSpaceOnUse" x="391" y="7" width="10" height="10">
<path d="M400.367 7.67773H391.382V16.6636H400.367V7.67773Z" fill="white"/>
</mask>
<g mask="url(#mask1_565_12943)">
<g opacity="0.5">
<path d="M392.506 14.1366V15.5406H393.91L398.051 11.3996L396.647 9.9956L392.506 14.1366ZM399.136 10.3139C399.282 10.1678 399.282 9.93195 399.136 9.78593L398.26 8.90981C398.114 8.76379 397.878 8.76379 397.732 8.90981L397.047 9.59498L398.451 10.999L399.136 10.3139Z" fill="white"/>
</g>
</g>
<mask id="mask2_565_12943" style="mask-type:luminance" maskUnits="userSpaceOnUse" x="449" y="6" width="13" height="13">
<path d="M461.771 6.17969H449.79V18.1609H461.771V6.17969Z" fill="white"/>
</mask>
<g mask="url(#mask2_565_12943)">
<path d="M455.78 7.17822C453.025 7.17822 450.788 9.41468 450.788 12.1704C450.788 14.926 453.025 17.1625 455.78 17.1625C458.536 17.1625 460.773 14.926 460.773 12.1704C460.773 9.41468 458.536 7.17822 455.78 7.17822ZM454.782 14.6665L452.286 12.1704L452.99 11.4665L454.782 13.2537L458.571 9.46463L459.275 10.1735L454.782 14.6665Z" fill="#2AD986"/>
</g>
<path d="M250.604 6.92969H245.362C243.707 6.92969 242.366 8.27073 242.366 9.92498V14.4179C242.366 16.0722 243.707 17.4132 245.362 17.4132H250.604C252.258 17.4132 253.599 16.0722 253.599 14.4179V9.92498C253.599 8.27073 252.258 6.92969 250.604 6.92969Z" fill="black" fill-opacity="0.15"/>
<path d="M264.831 6.92969H259.59C257.935 6.92969 256.594 8.27073 256.594 9.92498V14.4179C256.594 16.0722 257.935 17.4132 259.59 17.4132H264.831C266.486 17.4132 267.827 16.0722 267.827 14.4179V9.92498C267.827 8.27073 266.486 6.92969 264.831 6.92969Z" fill="black" fill-opacity="0.15"/>
<path d="M279.058 6.92969H273.817C272.162 6.92969 270.821 8.27073 270.821 9.92498V14.4179C270.821 16.0722 272.162 17.4132 273.817 17.4132H279.058C280.713 17.4132 282.054 16.0722 282.054 14.4179V9.92498C282.054 8.27073 280.713 6.92969 279.058 6.92969Z" fill="black" fill-opacity="0.15"/>
<path d="M293.286 6.92969H288.044C286.39 6.92969 285.049 8.27073 285.049 9.92498V14.4179C285.049 16.0722 286.39 17.4132 288.044 17.4132H293.286C294.94 17.4132 296.281 16.0722 296.281 14.4179V9.92498C296.281 8.27073 294.94 6.92969 293.286 6.92969Z" fill="black" fill-opacity="0.15"/>
<mask id="mask3_565_12943" style="mask-type:luminance" maskUnits="userSpaceOnUse" x="230" y="7" width="10" height="10">
<path d="M239.371 7.67773H230.385V16.6636H239.371V7.67773Z" fill="white"/>
</mask>
<g mask="url(#mask3_565_12943)">
<g opacity="0.5">
<path d="M234.877 10.6729C235.289 10.6729 235.626 10.336 235.626 9.92412C235.626 9.51226 235.289 9.17529 234.877 9.17529C234.466 9.17529 234.129 9.51226 234.129 9.92412C234.129 10.336 234.466 10.6729 234.877 10.6729ZM234.877 11.4218C234.466 11.4218 234.129 11.7587 234.129 12.1706C234.129 12.5824 234.466 12.9194 234.877 12.9194C235.289 12.9194 235.626 12.5824 235.626 12.1706C235.626 11.7587 235.289 11.4218 234.877 11.4218ZM234.877 13.6682C234.466 13.6682 234.129 14.0052 234.129 14.4171C234.129 14.8289 234.466 15.1659 234.877 15.1659C235.289 15.1659 235.626 14.8289 235.626 14.4171C235.626 14.0052 235.289 13.6682 234.877 13.6682Z" fill="white"/>
</g>
</g>
<path d="M60.4022 6.92969H28.2028C26.5486 6.92969 25.2075 8.27073 25.2075 9.92498V14.4179C25.2075 16.0722 26.5486 17.4132 28.2028 17.4132H60.4022C62.0565 17.4132 63.3975 16.0722 63.3975 14.4179V9.92498C63.3975 8.27073 62.0565 6.92969 60.4022 6.92969Z" fill="black" fill-opacity="0.15"/>
<path opacity="0.5" d="M18.1238 13.4178C18.1733 13.262 18.7804 11.3754 18.7804 11.3754C19.0727 10.6012 19.6394 9.876 20.7143 9.876L19.952 11.7292L19.1897 13.5824C18.8748 14.3254 18.2902 15.0062 17.2018 15.0062C17.2018 15.0062 16.7386 11.8338 16.7341 11.7626C16.7071 11.8382 16.055 13.5067 16.055 13.5067C15.7492 14.2765 15.1645 15.0018 14.0806 15.0062L13.2261 9.876C13.9321 9.876 14.8047 10.45 14.8676 11.3933C14.8676 11.3933 14.9756 13.2754 14.98 13.4222C15.043 13.262 15.7806 11.371 15.7806 11.371C16.073 10.6012 16.6261 9.87158 17.6605 9.87158C17.6605 9.87158 18.1058 13.2576 18.1238 13.4178Z" fill="white"/>
<mask id="mask4_565_12943" style="mask-type:luminance" maskUnits="userSpaceOnUse" x="67" y="7" width="10" height="10">
<path d="M76.876 7.67773H67.8901V16.6636H76.876V7.67773Z" fill="white"/>
</mask>
<g mask="url(#mask4_565_12943)">
<path d="M72.3834 9.3623C70.5114 9.3623 68.9126 10.5267 68.2649 12.1704C68.9126 13.8141 70.5114 14.9785 72.3834 14.9785C74.2555 14.9785 75.8542 13.8141 76.502 12.1704C75.8542 10.5267 74.2555 9.3623 72.3834 9.3623ZM72.3834 14.0425C71.35 14.0425 70.5114 13.2038 70.5114 12.1704C70.5114 11.137 71.35 10.2983 72.3834 10.2983C73.4168 10.2983 74.2555 11.137 74.2555 12.1704C74.2555 13.2038 73.4168 14.0425 72.3834 14.0425ZM72.3834 11.0472C71.7619 11.0472 71.2602 11.5489 71.2602 12.1704C71.2602 12.7919 71.7619 13.2936 72.3834 13.2936C73.0049 13.2936 73.5067 12.7919 73.5067 12.1704C73.5067 11.5489 73.0049 11.0472 72.3834 11.0472Z" fill="#1D76E1"/>
</g>
<path d="M16.9702 34.6289H11.7284C10.0742 34.6289 8.73315 35.9699 8.73315 37.6242V42.1171C8.73315 43.7714 10.0742 45.1124 11.7284 45.1124H16.9702C18.6245 45.1124 19.9655 43.7714 19.9655 42.1171V37.6242C19.9655 35.9699 18.6245 34.6289 16.9702 34.6289Z" fill="black" fill-opacity="0.15"/>
<path d="M16.9702 48.1069H11.7284C10.0742 48.1069 8.73315 49.448 8.73315 51.1022V55.5952C8.73315 57.2494 10.0742 58.5905 11.7284 58.5905H16.9702C18.6245 58.5905 19.9655 57.2494 19.9655 55.5952V51.1022C19.9655 49.448 18.6245 48.1069 16.9702 48.1069Z" fill="black" fill-opacity="0.15"/>
<path d="M16.9702 61.5869H11.7284C10.0742 61.5869 8.73315 62.928 8.73315 64.5822V69.0752C8.73315 70.7294 10.0742 72.0704 11.7284 72.0704H16.9702C18.6245 72.0704 19.9655 70.7294 19.9655 69.0752V64.5822C19.9655 62.928 18.6245 61.5869 16.9702 61.5869Z" fill="black" fill-opacity="0.15"/>
<path d="M16.9702 75.0649H11.7284C10.0742 75.0649 8.73315 76.406 8.73315 78.0602V82.5532C8.73315 84.2074 10.0742 85.5485 11.7284 85.5485H16.9702C18.6245 85.5485 19.9655 84.2074 19.9655 82.5532V78.0602C19.9655 76.406 18.6245 75.0649 16.9702 75.0649Z" fill="black" fill-opacity="0.15"/>
<path d="M16.9702 88.5439H11.7284C10.0742 88.5439 8.73315 89.885 8.73315 91.5392V96.0322C8.73315 97.6864 10.0742 99.0275 11.7284 99.0275H16.9702C18.6245 99.0275 19.9655 97.6864 19.9655 96.0322V91.5392C19.9655 89.885 18.6245 88.5439 16.9702 88.5439Z" fill="black" fill-opacity="0.15"/>
<path d="M16.9702 102.022H11.7284C10.0742 102.022 8.73315 103.363 8.73315 105.018V109.511C8.73315 111.165 10.0742 112.506 11.7284 112.506H16.9702C18.6245 112.506 19.9655 111.165 19.9655 109.511V105.018C19.9655 103.363 18.6245 102.022 16.9702 102.022Z" fill="black" fill-opacity="0.15"/>
<path d="M16.9702 115.501H11.7284C10.0742 115.501 8.73315 116.843 8.73315 118.497V122.99C8.73315 124.644 10.0742 125.985 11.7284 125.985H16.9702C18.6245 125.985 19.9655 124.644 19.9655 122.99V118.497C19.9655 116.843 18.6245 115.501 16.9702 115.501Z" fill="black" fill-opacity="0.15"/>
<path d="M16.9702 128.98H11.7284C10.0742 128.98 8.73315 130.321 8.73315 131.975V136.468C8.73315 138.122 10.0742 139.464 11.7284 139.464H16.9702C18.6245 139.464 19.9655 138.122 19.9655 136.468V131.975C19.9655 130.321 18.6245 128.98 16.9702 128.98Z" fill="black" fill-opacity="0.15"/>
<path d="M16.9702 142.459H11.7284C10.0742 142.459 8.73315 143.8 8.73315 145.454V149.947C8.73315 151.601 10.0742 152.943 11.7284 152.943H16.9702C18.6245 152.943 19.9655 151.601 19.9655 149.947V145.454C19.9655 143.8 18.6245 142.459 16.9702 142.459Z" fill="black" fill-opacity="0.15"/>
<path d="M16.9702 155.938H11.7284C10.0742 155.938 8.73315 157.279 8.73315 158.933V164.175C8.73315 165.829 10.0742 167.17 11.7284 167.17H16.9702C18.6245 167.17 19.9655 165.829 19.9655 164.175V158.933C19.9655 157.279 18.6245 155.938 16.9702 155.938Z" fill="black" fill-opacity="0.15"/>
<path d="M16.9702 244.299H11.7284C10.0742 244.299 8.73315 245.64 8.73315 247.295V251.788C8.73315 253.442 10.0742 254.783 11.7284 254.783H16.9702C18.6245 254.783 19.9655 253.442 19.9655 251.788V247.295C19.9655 245.64 18.6245 244.299 16.9702 244.299Z" fill="black" fill-opacity="0.15"/>
<path d="M16.9702 257.778H11.7284C10.0742 257.778 8.73315 259.119 8.73315 260.773V265.266C8.73315 266.92 10.0742 268.261 11.7284 268.261H16.9702C18.6245 268.261 19.9655 266.92 19.9655 265.266V260.773C19.9655 259.119 18.6245 257.778 16.9702 257.778Z" fill="black" fill-opacity="0.15"/>
<path d="M16.9702 271.256H11.7284C10.0742 271.256 8.73315 272.597 8.73315 274.252V278.745C8.73315 280.399 10.0742 281.74 11.7284 281.74H16.9702C18.6245 281.74 19.9655 280.399 19.9655 278.745V274.252C19.9655 272.597 18.6245 271.256 16.9702 271.256Z" fill="black" fill-opacity="0.15"/>
<path d="M16.9702 284.736H11.7284C10.0742 284.736 8.73315 286.077 8.73315 287.731V292.224C8.73315 293.878 10.0742 295.219 11.7284 295.219H16.9702C18.6245 295.219 19.9655 293.878 19.9655 292.224V287.731C19.9655 286.077 18.6245 284.736 16.9702 284.736Z" fill="black" fill-opacity="0.15"/>
<path d="M16.9702 298.214H11.7284C10.0742 298.214 8.73315 299.555 8.73315 301.209V306.451C8.73315 308.105 10.0742 309.446 11.7284 309.446H16.9702C18.6245 309.446 19.9655 308.105 19.9655 306.451V301.209C19.9655 299.555 18.6245 298.214 16.9702 298.214Z" fill="black" fill-opacity="0.15"/>
<path opacity="0.1" d="M25.5818 24.145V319.181" stroke="white" stroke-width="0.748824"/>
<path opacity="0.1" d="M32.3218 53.3501V97.5307" stroke="white" stroke-width="0.748824"/>
<path opacity="0.1" d="M37.5632 54.8472V97.5301" stroke="white" stroke-width="0.748824"/>
<path opacity="0.1" d="M44.302 68.3257V98.2786" stroke="white" stroke-width="0.748824"/>
<path opacity="0.1" d="M50.293 81.8042V98.2783" stroke="white" stroke-width="0.748824"/>
<path opacity="0.3" d="M69.7624 27.8896H33.07C32.4497 27.8896 31.9468 28.3925 31.9468 29.0129C31.9468 29.6332 32.4497 30.1361 33.07 30.1361H69.7624C70.3827 30.1361 70.8856 29.6332 70.8856 29.0129C70.8856 28.3925 70.3827 27.8896 69.7624 27.8896Z" fill="white"/>
<path opacity="0.3" d="M92.2271 34.6289H33.07C32.4497 34.6289 31.9468 35.1318 31.9468 35.7521C31.9468 36.3725 32.4497 36.8754 33.07 36.8754H92.2271C92.8474 36.8754 93.3503 36.3725 93.3503 35.7521C93.3503 35.1318 92.8474 34.6289 92.2271 34.6289Z" fill="white"/>
<path opacity="0.3" d="M76.5018 41.3677H33.07C32.4497 41.3677 31.9468 41.8706 31.9468 42.4909C31.9468 43.1113 32.4497 43.6141 33.07 43.6141H76.5018C77.1221 43.6141 77.625 43.1113 77.625 42.4909C77.625 41.8706 77.1221 41.3677 76.5018 41.3677Z" fill="white"/>
<path opacity="0.3" d="M83.99 48.1069H33.07C32.4497 48.1069 31.9468 48.6098 31.9468 49.2302C31.9468 49.8505 32.4497 50.3534 33.07 50.3534H83.99C84.6104 50.3534 85.1132 49.8505 85.1132 49.2302C85.1132 48.6098 84.6104 48.1069 83.99 48.1069Z" fill="white"/>
<path opacity="0.3" d="M77.9995 54.8472H40.5583C39.9379 54.8472 39.4351 55.3501 39.4351 55.9704C39.4351 56.5907 39.9379 57.0936 40.5583 57.0936H77.9995C78.6198 57.0936 79.1227 56.5907 79.1227 55.9704C79.1227 55.3501 78.6198 54.8472 77.9995 54.8472Z" fill="white"/>
<path opacity="0.3" d="M69.7624 61.5869H40.5583C39.9379 61.5869 39.4351 62.0898 39.4351 62.7101C39.4351 63.3305 39.9379 63.8334 40.5583 63.8334H69.7624C70.3828 63.8334 70.8856 63.3305 70.8856 62.7101C70.8856 62.0898 70.3828 61.5869 69.7624 61.5869Z" fill="white"/>
<path opacity="0.3" d="M77.2505 68.3257H48.0463C47.426 68.3257 46.9231 68.8286 46.9231 69.4489C46.9231 70.0693 47.426 70.5722 48.0463 70.5722H77.2505C77.8708 70.5722 78.3737 70.0693 78.3737 69.4489C78.3737 68.8286 77.8708 68.3257 77.2505 68.3257Z" fill="white"/>
<path opacity="0.3" d="M67.5157 75.0649H48.0463C47.426 75.0649 46.9231 75.5678 46.9231 76.1882C46.9231 76.8085 47.426 77.3114 48.0463 77.3114H67.5157C68.1361 77.3114 68.639 76.8085 68.639 76.1882C68.639 75.5678 68.1361 75.0649 67.5157 75.0649Z" fill="white"/>
<path opacity="0.3" d="M88.4833 81.8042H55.5351C54.9148 81.8042 54.4119 82.3071 54.4119 82.9274C54.4119 83.5478 54.9148 84.0507 55.5351 84.0507H88.4833C89.1037 84.0507 89.6066 83.5478 89.6066 82.9274C89.6066 82.3071 89.1037 81.8042 88.4833 81.8042Z" fill="white"/>
<path opacity="0.3" d="M78.7486 88.5439H55.5351C54.9148 88.5439 54.4119 89.0468 54.4119 89.6672C54.4119 90.2875 54.9148 90.7904 55.5351 90.7904H78.7486C79.369 90.7904 79.8719 90.2875 79.8719 89.6672C79.8719 89.0468 79.369 88.5439 78.7486 88.5439Z" fill="white"/>
<path opacity="0.3" d="M83.9904 95.2832H55.5351C54.9148 95.2832 54.4119 95.7861 54.4119 96.4064C54.4119 97.0268 54.9148 97.5297 55.5351 97.5297H83.9904C84.6107 97.5297 85.1136 97.0268 85.1136 96.4064C85.1136 95.7861 84.6107 95.2832 83.9904 95.2832Z" fill="white"/>
<path d="M431.819 24.145H103.834V319.181H431.819V24.145Z" fill="white" fill-opacity="0.15"/>
<path d="M154.252 128.452H152.923C152.872 128.168 152.776 127.918 152.637 127.702C152.498 127.486 152.328 127.303 152.126 127.152C151.924 127.002 151.698 126.888 151.448 126.811C151.201 126.735 150.938 126.696 150.66 126.696C150.157 126.696 149.707 126.823 149.309 127.076C148.914 127.329 148.602 127.699 148.372 128.188C148.144 128.677 148.031 129.273 148.031 129.978C148.031 130.688 148.144 131.287 148.372 131.776C148.602 132.265 148.916 132.634 149.313 132.884C149.711 133.134 150.159 133.259 150.656 133.259C150.931 133.259 151.193 133.222 151.44 133.148C151.69 133.071 151.916 132.959 152.117 132.811C152.319 132.664 152.49 132.483 152.629 132.27C152.771 132.054 152.869 131.807 152.923 131.529L154.252 131.533C154.181 131.962 154.044 132.357 153.839 132.718C153.637 133.076 153.377 133.385 153.059 133.647C152.744 133.905 152.383 134.106 151.977 134.248C151.57 134.39 151.127 134.461 150.647 134.461C149.892 134.461 149.218 134.282 148.627 133.924C148.036 133.563 147.57 133.047 147.23 132.377C146.892 131.706 146.722 130.907 146.722 129.978C146.722 129.046 146.893 128.246 147.234 127.579C147.575 126.908 148.041 126.394 148.632 126.036C149.222 125.675 149.894 125.495 150.647 125.495C151.11 125.495 151.542 125.561 151.943 125.695C152.346 125.826 152.708 126.019 153.029 126.275C153.35 126.527 153.616 126.837 153.826 127.204C154.036 127.567 154.178 127.983 154.252 128.452ZM158.483 134.473C157.869 134.473 157.334 134.333 156.876 134.052C156.419 133.77 156.064 133.377 155.811 132.871C155.558 132.365 155.432 131.775 155.432 131.098C155.432 130.419 155.558 129.826 155.811 129.317C156.064 128.809 156.419 128.414 156.876 128.133C157.334 127.851 157.869 127.711 158.483 127.711C159.096 127.711 159.632 127.851 160.089 128.133C160.547 128.414 160.902 128.809 161.155 129.317C161.407 129.826 161.534 130.419 161.534 131.098C161.534 131.775 161.407 132.365 161.155 132.871C160.902 133.377 160.547 133.77 160.089 134.052C159.632 134.333 159.096 134.473 158.483 134.473ZM158.487 133.404C158.885 133.404 159.214 133.299 159.476 133.088C159.737 132.878 159.93 132.598 160.055 132.249C160.183 131.9 160.247 131.515 160.247 131.094C160.247 130.677 160.183 130.293 160.055 129.944C159.93 129.591 159.737 129.309 159.476 129.096C159.214 128.883 158.885 128.776 158.487 128.776C158.086 128.776 157.754 128.883 157.49 129.096C157.229 129.309 157.034 129.591 156.906 129.944C156.781 130.293 156.719 130.677 156.719 131.094C156.719 131.515 156.781 131.9 156.906 132.249C157.034 132.598 157.229 132.878 157.49 133.088C157.754 133.299 158.086 133.404 158.487 133.404ZM162.956 134.341V127.796H164.179V128.861H164.26C164.396 128.5 164.619 128.219 164.929 128.017C165.239 127.813 165.61 127.711 166.041 127.711C166.479 127.711 166.845 127.813 167.141 128.017C167.439 128.222 167.659 128.503 167.801 128.861H167.869C168.026 128.512 168.274 128.233 168.615 128.026C168.956 127.816 169.362 127.711 169.834 127.711C170.428 127.711 170.912 127.897 171.287 128.269C171.665 128.641 171.854 129.202 171.854 129.952V134.341H170.58V130.071C170.58 129.628 170.459 129.307 170.218 129.108C169.976 128.909 169.688 128.81 169.352 128.81C168.938 128.81 168.615 128.938 168.385 129.194C168.155 129.446 168.04 129.772 168.04 130.169V134.341H166.77V129.99C166.77 129.635 166.659 129.35 166.438 129.134C166.216 128.918 165.928 128.81 165.573 128.81C165.331 128.81 165.108 128.874 164.904 129.002C164.702 129.127 164.539 129.302 164.414 129.526C164.291 129.75 164.23 130.01 164.23 130.306V134.341H162.956ZM178.642 134.486C178.227 134.486 177.852 134.409 177.517 134.256C177.182 134.1 176.916 133.874 176.72 133.579C176.527 133.283 176.431 132.921 176.431 132.492C176.431 132.123 176.502 131.819 176.644 131.58C176.786 131.341 176.977 131.152 177.219 131.013C177.46 130.874 177.73 130.769 178.029 130.698C178.327 130.627 178.631 130.573 178.941 130.536C179.333 130.49 179.651 130.454 179.895 130.425C180.139 130.394 180.317 130.344 180.428 130.276C180.539 130.208 180.594 130.097 180.594 129.944V129.914C180.594 129.542 180.489 129.253 180.279 129.049C180.071 128.844 179.762 128.742 179.35 128.742C178.921 128.742 178.583 128.837 178.335 129.027C178.091 129.215 177.922 129.424 177.828 129.654L176.631 129.381C176.773 128.983 176.98 128.662 177.253 128.418C177.529 128.171 177.845 127.992 178.203 127.881C178.561 127.767 178.938 127.711 179.333 127.711C179.594 127.711 179.871 127.742 180.164 127.804C180.459 127.864 180.735 127.975 180.99 128.137C181.249 128.299 181.46 128.53 181.625 128.831C181.79 129.13 181.872 129.517 181.872 129.995V134.341H180.628V133.446H180.577C180.494 133.611 180.371 133.773 180.206 133.932C180.041 134.091 179.83 134.223 179.571 134.329C179.313 134.434 179.003 134.486 178.642 134.486ZM178.919 133.463C179.271 133.463 179.573 133.394 179.823 133.255C180.075 133.115 180.267 132.934 180.398 132.709C180.531 132.482 180.598 132.239 180.598 131.981V131.137C180.553 131.182 180.465 131.225 180.334 131.265C180.206 131.302 180.06 131.334 179.895 131.363C179.73 131.388 179.57 131.412 179.414 131.435C179.257 131.455 179.127 131.472 179.021 131.486C178.774 131.517 178.548 131.57 178.344 131.644C178.142 131.718 177.98 131.824 177.858 131.963C177.739 132.1 177.679 132.282 177.679 132.509C177.679 132.824 177.796 133.063 178.029 133.225C178.262 133.384 178.558 133.463 178.919 133.463ZM186.745 134.341V127.796H187.968V128.861H188.049C188.186 128.5 188.409 128.219 188.718 128.017C189.028 127.813 189.399 127.711 189.83 127.711C190.268 127.711 190.634 127.813 190.93 128.017C191.228 128.222 191.448 128.503 191.59 128.861H191.659C191.815 128.512 192.063 128.233 192.404 128.026C192.745 127.816 193.151 127.711 193.623 127.711C194.217 127.711 194.701 127.897 195.076 128.269C195.454 128.641 195.643 129.202 195.643 129.952V134.341H194.369V130.071C194.369 129.628 194.248 129.307 194.007 129.108C193.765 128.909 193.477 128.81 193.142 128.81C192.727 128.81 192.404 128.938 192.174 129.194C191.944 129.446 191.829 129.772 191.829 130.169V134.341H190.559V129.99C190.559 129.635 190.448 129.35 190.227 129.134C190.005 128.918 189.717 128.81 189.362 128.81C189.12 128.81 188.897 128.874 188.693 129.002C188.491 129.127 188.328 129.302 188.203 129.526C188.08 129.75 188.019 130.01 188.019 130.306V134.341H186.745ZM200.172 134.473C199.527 134.473 198.971 134.336 198.506 134.06C198.042 133.782 197.684 133.391 197.432 132.888C197.182 132.383 197.057 131.79 197.057 131.111C197.057 130.441 197.182 129.85 197.432 129.338C197.684 128.827 198.037 128.428 198.488 128.141C198.943 127.854 199.474 127.711 200.082 127.711C200.452 127.711 200.809 127.772 201.156 127.894C201.503 128.016 201.814 128.208 202.089 128.469C202.365 128.731 202.582 129.07 202.741 129.488C202.9 129.902 202.98 130.407 202.98 131V131.452H197.777V130.498H201.731C201.731 130.162 201.663 129.865 201.527 129.607C201.39 129.346 201.199 129.14 200.952 128.989C200.707 128.838 200.42 128.763 200.091 128.763C199.733 128.763 199.42 128.851 199.153 129.027C198.889 129.201 198.684 129.428 198.54 129.709C198.398 129.988 198.327 130.29 198.327 130.617V131.363C198.327 131.8 198.403 132.172 198.557 132.479C198.713 132.786 198.93 133.02 199.209 133.182C199.487 133.341 199.812 133.421 200.184 133.421C200.426 133.421 200.646 133.387 200.845 133.319C201.044 133.248 201.216 133.142 201.361 133.003C201.506 132.864 201.616 132.692 201.693 132.488L202.899 132.705C202.802 133.06 202.629 133.371 202.379 133.638C202.132 133.902 201.821 134.108 201.446 134.256C201.074 134.401 200.649 134.473 200.172 134.473ZM205.668 125.614V134.341H204.394V125.614H205.668ZM208.656 130.455V134.341H207.382V125.614H208.639V128.861H208.72C208.873 128.509 209.108 128.229 209.423 128.022C209.738 127.814 210.15 127.711 210.659 127.711C211.108 127.711 211.5 127.803 211.835 127.988C212.173 128.172 212.434 128.448 212.619 128.814C212.807 129.178 212.9 129.633 212.9 130.178V134.341H211.626V130.331C211.626 129.851 211.503 129.479 211.256 129.215C211.008 128.948 210.665 128.814 210.224 128.814C209.923 128.814 209.653 128.878 209.415 129.006C209.179 129.134 208.993 129.321 208.856 129.569C208.723 129.813 208.656 130.108 208.656 130.455ZM217.358 134.473C216.744 134.473 216.209 134.333 215.751 134.052C215.294 133.77 214.939 133.377 214.686 132.871C214.433 132.365 214.307 131.775 214.307 131.098C214.307 130.419 214.433 129.826 214.686 129.317C214.939 128.809 215.294 128.414 215.751 128.133C216.209 127.851 216.744 127.711 217.358 127.711C217.971 127.711 218.507 127.851 218.964 128.133C219.422 128.414 219.777 128.809 220.03 129.317C220.282 129.826 220.409 130.419 220.409 131.098C220.409 131.775 220.282 132.365 220.03 132.871C219.777 133.377 219.422 133.77 218.964 134.052C218.507 134.333 217.971 134.473 217.358 134.473ZM217.362 133.404C217.76 133.404 218.089 133.299 218.351 133.088C218.612 132.878 218.805 132.598 218.93 132.249C219.058 131.9 219.122 131.515 219.122 131.094C219.122 130.677 219.058 130.293 218.93 129.944C218.805 129.591 218.612 129.309 218.351 129.096C218.089 128.883 217.76 128.776 217.362 128.776C216.961 128.776 216.629 128.883 216.365 129.096C216.104 129.309 215.909 129.591 215.781 129.944C215.656 130.293 215.594 130.677 215.594 131.094C215.594 131.515 215.656 131.9 215.781 132.249C215.909 132.598 216.104 132.878 216.365 133.088C216.629 133.299 216.961 133.404 217.362 133.404ZM221.831 134.341V127.796H223.063V128.836H223.131C223.25 128.483 223.46 128.206 223.762 128.005C224.066 127.8 224.409 127.698 224.793 127.698C224.872 127.698 224.966 127.701 225.074 127.706C225.185 127.712 225.271 127.719 225.334 127.728V128.946C225.283 128.932 225.192 128.917 225.061 128.9C224.931 128.88 224.8 128.87 224.669 128.87C224.368 128.87 224.1 128.934 223.864 129.061C223.631 129.186 223.446 129.361 223.31 129.586C223.173 129.807 223.105 130.06 223.105 130.344V134.341H221.831ZM232.433 134.473C231.789 134.473 231.233 134.336 230.767 134.06C230.304 133.782 229.946 133.391 229.693 132.888C229.443 132.383 229.318 131.79 229.318 131.111C229.318 130.441 229.443 129.85 229.693 129.338C229.946 128.827 230.298 128.428 230.75 128.141C231.205 127.854 231.736 127.711 232.344 127.711C232.713 127.711 233.071 127.772 233.418 127.894C233.764 128.016 234.075 128.208 234.351 128.469C234.627 128.731 234.844 129.07 235.003 129.488C235.162 129.902 235.242 130.407 235.242 131V131.452H230.039V130.498H233.993C233.993 130.162 233.925 129.865 233.789 129.607C233.652 129.346 233.46 129.14 233.213 128.989C232.969 128.838 232.682 128.763 232.352 128.763C231.994 128.763 231.682 128.851 231.415 129.027C231.151 129.201 230.946 129.428 230.801 129.709C230.659 129.988 230.588 130.29 230.588 130.617V131.363C230.588 131.8 230.665 132.172 230.818 132.479C230.975 132.786 231.192 133.02 231.47 133.182C231.749 133.341 232.074 133.421 232.446 133.421C232.688 133.421 232.908 133.387 233.107 133.319C233.306 133.248 233.477 133.142 233.622 133.003C233.767 132.864 233.878 132.692 233.955 132.488L235.161 132.705C235.064 133.06 234.891 133.371 234.641 133.638C234.394 133.902 234.083 134.108 233.708 134.256C233.335 134.401 232.911 134.473 232.433 134.473ZM241.074 136.796V133.323H240.998C240.921 133.462 240.81 133.621 240.665 133.8C240.523 133.979 240.327 134.135 240.077 134.269C239.827 134.402 239.503 134.469 239.106 134.469C238.577 134.469 238.106 134.334 237.691 134.064C237.279 133.792 236.955 133.404 236.719 132.901C236.486 132.395 236.37 131.789 236.37 131.081C236.37 130.374 236.488 129.769 236.724 129.266C236.962 128.763 237.289 128.378 237.704 128.111C238.118 127.844 238.589 127.711 239.114 127.711C239.52 127.711 239.847 127.779 240.094 127.915C240.344 128.049 240.537 128.205 240.674 128.384C240.813 128.563 240.921 128.721 240.998 128.857H241.104V127.796H242.349V136.796H241.074ZM239.387 133.383C239.753 133.383 240.063 133.286 240.316 133.093C240.572 132.897 240.765 132.625 240.895 132.279C241.029 131.932 241.096 131.529 241.096 131.069C241.096 130.614 241.03 130.216 240.9 129.875C240.769 129.534 240.577 129.269 240.324 129.079C240.072 128.888 239.759 128.793 239.387 128.793C239.003 128.793 238.684 128.892 238.428 129.091C238.172 129.29 237.979 129.561 237.849 129.905C237.721 130.249 237.657 130.637 237.657 131.069C237.657 131.506 237.722 131.9 237.853 132.249C237.983 132.598 238.177 132.875 238.432 133.08C238.691 133.282 239.009 133.383 239.387 133.383ZM248.208 131.627V127.796H249.486V134.341H248.233V133.208H248.165C248.015 133.557 247.773 133.848 247.441 134.081C247.111 134.311 246.701 134.427 246.209 134.427C245.789 134.427 245.417 134.334 245.093 134.15C244.772 133.962 244.519 133.685 244.334 133.319C244.153 132.952 244.062 132.499 244.062 131.959V127.796H245.336V131.806C245.336 132.252 245.459 132.607 245.706 132.871C245.954 133.135 246.275 133.267 246.67 133.267C246.908 133.267 247.145 133.208 247.381 133.088C247.62 132.969 247.817 132.789 247.974 132.547C248.133 132.306 248.211 131.999 248.208 131.627ZM251.198 134.341V127.796H252.472V134.341H251.198ZM251.842 126.786C251.62 126.786 251.43 126.712 251.271 126.564C251.115 126.414 251.036 126.235 251.036 126.027C251.036 125.817 251.115 125.638 251.271 125.49C251.43 125.34 251.62 125.265 251.842 125.265C252.063 125.265 252.252 125.34 252.409 125.49C252.568 125.638 252.647 125.817 252.647 126.027C252.647 126.235 252.568 126.414 252.409 126.564C252.252 126.712 252.063 126.786 251.842 126.786ZM254.187 136.796V127.796H255.431V128.857H255.537C255.611 128.721 255.718 128.563 255.857 128.384C255.996 128.205 256.189 128.049 256.437 127.915C256.684 127.779 257.01 127.711 257.417 127.711C257.945 127.711 258.417 127.844 258.831 128.111C259.246 128.378 259.572 128.763 259.807 129.266C260.046 129.769 260.165 130.374 260.165 131.081C260.165 131.789 260.047 132.395 259.812 132.901C259.576 133.404 259.252 133.792 258.84 134.064C258.428 134.334 257.958 134.469 257.43 134.469C257.032 134.469 256.706 134.402 256.454 134.269C256.204 134.135 256.008 133.979 255.866 133.8C255.724 133.621 255.614 133.462 255.537 133.323H255.461V136.796H254.187ZM255.435 131.069C255.435 131.529 255.502 131.932 255.635 132.279C255.769 132.625 255.962 132.897 256.215 133.093C256.468 133.286 256.778 133.383 257.144 133.383C257.525 133.383 257.843 133.282 258.099 133.08C258.354 132.875 258.547 132.598 258.678 132.249C258.812 131.9 258.878 131.506 258.878 131.069C258.878 130.637 258.813 130.249 258.682 129.905C258.555 129.561 258.361 129.29 258.103 129.091C257.847 128.892 257.528 128.793 257.144 128.793C256.775 128.793 256.462 128.888 256.206 129.079C255.954 129.269 255.762 129.534 255.631 129.875C255.501 130.216 255.435 130.614 255.435 131.069ZM264.414 134.473C263.769 134.473 263.214 134.336 262.748 134.06C262.285 133.782 261.927 133.391 261.674 132.888C261.424 132.383 261.299 131.79 261.299 131.111C261.299 130.441 261.424 129.85 261.674 129.338C261.927 128.827 262.279 128.428 262.731 128.141C263.185 127.854 263.716 127.711 264.324 127.711C264.694 127.711 265.052 127.772 265.398 127.894C265.745 128.016 266.056 128.208 266.331 128.469C266.607 128.731 266.824 129.07 266.983 129.488C267.143 129.902 267.222 130.407 267.222 131V131.452H262.019V130.498H265.974C265.974 130.162 265.905 129.865 265.769 129.607C265.633 129.346 265.441 129.14 265.194 128.989C264.949 128.838 264.662 128.763 264.333 128.763C263.975 128.763 263.662 128.851 263.395 129.027C263.131 129.201 262.927 129.428 262.782 129.709C262.64 129.988 262.569 130.29 262.569 130.617V131.363C262.569 131.8 262.645 132.172 262.799 132.479C262.955 132.786 263.172 133.02 263.451 133.182C263.729 133.341 264.055 133.421 264.427 133.421C264.668 133.421 264.888 133.387 265.087 133.319C265.286 133.248 265.458 133.142 265.603 133.003C265.748 132.864 265.858 132.692 265.935 132.488L267.141 132.705C267.045 133.06 266.871 133.371 266.621 133.638C266.374 133.902 266.063 134.108 265.688 134.256C265.316 134.401 264.891 134.473 264.414 134.473ZM274.262 134.469C273.733 134.469 273.262 134.334 272.847 134.064C272.435 133.792 272.111 133.404 271.876 132.901C271.643 132.395 271.526 131.789 271.526 131.081C271.526 130.374 271.644 129.769 271.88 129.266C272.118 128.763 272.445 128.378 272.86 128.111C273.275 127.844 273.745 127.711 274.27 127.711C274.677 127.711 275.003 127.779 275.251 127.915C275.501 128.049 275.694 128.205 275.83 128.384C275.969 128.563 276.077 128.721 276.154 128.857H276.231V125.614H277.505V134.341H276.26V133.323H276.154C276.077 133.462 275.966 133.621 275.822 133.8C275.68 133.979 275.483 134.135 275.233 134.269C274.983 134.402 274.66 134.469 274.262 134.469ZM274.543 133.383C274.91 133.383 275.219 133.286 275.472 133.093C275.728 132.897 275.921 132.625 276.052 132.279C276.185 131.932 276.252 131.529 276.252 131.069C276.252 130.614 276.187 130.216 276.056 129.875C275.925 129.534 275.733 129.269 275.481 129.079C275.228 128.888 274.915 128.793 274.543 128.793C274.16 128.793 273.84 128.892 273.584 129.091C273.329 129.29 273.135 129.561 273.005 129.905C272.877 130.249 272.813 130.637 272.813 131.069C272.813 131.506 272.878 131.9 273.009 132.249C273.14 132.598 273.333 132.875 273.589 133.08C273.847 133.282 274.165 133.383 274.543 133.383ZM282.08 134.473C281.467 134.473 280.931 134.333 280.474 134.052C280.017 133.77 279.661 133.377 279.409 132.871C279.156 132.365 279.029 131.775 279.029 131.098C279.029 130.419 279.156 129.826 279.409 129.317C279.661 128.809 280.017 128.414 280.474 128.133C280.931 127.851 281.467 127.711 282.08 127.711C282.694 127.711 283.23 127.851 283.687 128.133C284.144 128.414 284.499 128.809 284.752 129.317C285.005 129.826 285.132 130.419 285.132 131.098C285.132 131.775 285.005 132.365 284.752 132.871C284.499 133.377 284.144 133.77 283.687 134.052C283.23 134.333 282.694 134.473 282.08 134.473ZM282.085 133.404C282.482 133.404 282.812 133.299 283.073 133.088C283.335 132.878 283.528 132.598 283.653 132.249C283.781 131.9 283.845 131.515 283.845 131.094C283.845 130.677 283.781 130.293 283.653 129.944C283.528 129.591 283.335 129.309 283.073 129.096C282.812 128.883 282.482 128.776 282.085 128.776C281.684 128.776 281.352 128.883 281.088 129.096C280.826 129.309 280.632 129.591 280.504 129.944C280.379 130.293 280.316 130.677 280.316 131.094C280.316 131.515 280.379 131.9 280.504 132.249C280.632 132.598 280.826 132.878 281.088 133.088C281.352 133.299 281.684 133.404 282.085 133.404ZM146.901 149.341V142.796H148.124V143.861H148.205C148.342 143.5 148.565 143.219 148.874 143.017C149.184 142.813 149.555 142.711 149.987 142.711C150.424 142.711 150.791 142.813 151.086 143.017C151.384 143.222 151.605 143.503 151.747 143.861H151.815C151.971 143.512 152.22 143.233 152.561 143.026C152.901 142.816 153.308 142.711 153.779 142.711C154.373 142.711 154.857 142.897 155.232 143.269C155.61 143.641 155.799 144.202 155.799 144.952V149.341H154.525V145.071C154.525 144.628 154.404 144.307 154.163 144.108C153.921 143.909 153.633 143.81 153.298 143.81C152.883 143.81 152.561 143.938 152.33 144.194C152.1 144.446 151.985 144.772 151.985 145.169V149.341H150.715V144.99C150.715 144.635 150.605 144.35 150.383 144.134C150.161 143.918 149.873 143.81 149.518 143.81C149.276 143.81 149.053 143.874 148.849 144.002C148.647 144.127 148.484 144.302 148.359 144.526C148.237 144.75 148.176 145.01 148.176 145.306V149.341H146.901ZM160.328 149.473C159.683 149.473 159.128 149.336 158.662 149.06C158.199 148.782 157.841 148.391 157.588 147.888C157.338 147.383 157.213 146.79 157.213 146.111C157.213 145.441 157.338 144.85 157.588 144.338C157.841 143.827 158.193 143.428 158.645 143.141C159.099 142.854 159.631 142.711 160.238 142.711C160.608 142.711 160.966 142.772 161.312 142.894C161.659 143.016 161.97 143.208 162.246 143.469C162.521 143.731 162.738 144.07 162.898 144.488C163.057 144.902 163.136 145.407 163.136 146V146.452H157.933V145.498H161.888C161.888 145.162 161.819 144.865 161.683 144.607C161.547 144.346 161.355 144.14 161.108 143.989C160.863 143.838 160.577 143.763 160.247 143.763C159.889 143.763 159.577 143.851 159.309 144.027C159.045 144.201 158.841 144.428 158.696 144.709C158.554 144.988 158.483 145.29 158.483 145.617V146.363C158.483 146.8 158.559 147.172 158.713 147.479C158.869 147.786 159.086 148.02 159.365 148.182C159.643 148.341 159.969 148.421 160.341 148.421C160.582 148.421 160.802 148.387 161.001 148.319C161.2 148.248 161.372 148.142 161.517 148.003C161.662 147.864 161.773 147.692 161.849 147.488L163.055 147.705C162.959 148.06 162.785 148.371 162.535 148.638C162.288 148.902 161.977 149.108 161.602 149.256C161.23 149.401 160.805 149.473 160.328 149.473ZM164.55 149.341V142.796H165.781V143.836H165.85C165.969 143.483 166.179 143.206 166.48 143.005C166.784 142.8 167.128 142.698 167.512 142.698C167.591 142.698 167.685 142.701 167.793 142.706C167.904 142.712 167.99 142.719 168.053 142.728V143.946C168.002 143.932 167.911 143.917 167.78 143.9C167.649 143.88 167.519 143.87 167.388 143.87C167.087 143.87 166.818 143.934 166.583 144.061C166.35 144.186 166.165 144.361 166.029 144.586C165.892 144.807 165.824 145.06 165.824 145.344V149.341H164.55ZM171.678 149.473C171.045 149.473 170.499 149.33 170.042 149.043C169.587 148.753 169.238 148.354 168.993 147.846C168.749 147.337 168.627 146.755 168.627 146.098C168.627 145.434 168.752 144.847 169.002 144.338C169.252 143.827 169.604 143.428 170.059 143.141C170.513 142.854 171.049 142.711 171.665 142.711C172.162 142.711 172.606 142.803 172.995 142.988C173.384 143.169 173.698 143.425 173.937 143.755C174.178 144.084 174.322 144.469 174.367 144.909H173.127C173.059 144.603 172.903 144.338 172.658 144.117C172.417 143.895 172.093 143.784 171.687 143.784C171.331 143.784 171.02 143.878 170.753 144.066C170.489 144.25 170.283 144.515 170.135 144.858C169.988 145.199 169.914 145.603 169.914 146.069C169.914 146.546 169.986 146.958 170.131 147.304C170.276 147.651 170.481 147.919 170.745 148.11C171.012 148.3 171.326 148.395 171.687 148.395C171.928 148.395 172.147 148.351 172.343 148.263C172.542 148.172 172.708 148.043 172.841 147.875C172.978 147.708 173.073 147.506 173.127 147.27H174.367C174.322 147.694 174.184 148.071 173.954 148.404C173.724 148.736 173.415 148.998 173.029 149.188C172.645 149.378 172.195 149.473 171.678 149.473ZM177.634 149.486C177.22 149.486 176.845 149.409 176.509 149.256C176.174 149.1 175.909 148.874 175.713 148.579C175.519 148.283 175.423 147.921 175.423 147.492C175.423 147.123 175.494 146.819 175.636 146.58C175.778 146.341 175.97 146.152 176.211 146.013C176.453 145.874 176.722 145.769 177.021 145.698C177.319 145.627 177.623 145.573 177.933 145.536C178.325 145.49 178.643 145.454 178.887 145.425C179.132 145.394 179.309 145.344 179.42 145.276C179.531 145.208 179.586 145.097 179.586 144.944V144.914C179.586 144.542 179.481 144.253 179.271 144.049C179.063 143.844 178.754 143.742 178.342 143.742C177.913 143.742 177.575 143.837 177.328 144.027C177.083 144.215 176.914 144.424 176.82 144.654L175.623 144.381C175.765 143.983 175.972 143.662 176.245 143.418C176.521 143.171 176.838 142.992 177.195 142.881C177.553 142.767 177.93 142.711 178.325 142.711C178.586 142.711 178.863 142.742 179.156 142.804C179.451 142.864 179.727 142.975 179.982 143.137C180.241 143.299 180.453 143.53 180.617 143.831C180.782 144.13 180.865 144.517 180.865 144.995V149.341H179.62V148.446H179.569C179.487 148.611 179.363 148.773 179.198 148.932C179.034 149.091 178.822 149.223 178.563 149.329C178.305 149.434 177.995 149.486 177.634 149.486ZM177.911 148.463C178.264 148.463 178.565 148.394 178.815 148.255C179.068 148.115 179.259 147.934 179.39 147.709C179.524 147.482 179.59 147.239 179.59 146.981V146.137C179.545 146.182 179.457 146.225 179.326 146.265C179.198 146.302 179.052 146.334 178.887 146.363C178.722 146.388 178.562 146.412 178.406 146.435C178.249 146.455 178.119 146.472 178.014 146.486C177.767 146.517 177.541 146.57 177.336 146.644C177.134 146.718 176.972 146.824 176.85 146.963C176.731 147.1 176.671 147.282 176.671 147.509C176.671 147.824 176.788 148.063 177.021 148.225C177.254 148.384 177.551 148.463 177.911 148.463ZM185.012 149.469C184.483 149.469 184.012 149.334 183.597 149.064C183.185 148.792 182.861 148.404 182.626 147.901C182.393 147.395 182.276 146.789 182.276 146.081C182.276 145.374 182.394 144.769 182.63 144.266C182.868 143.763 183.195 143.378 183.61 143.111C184.025 142.844 184.495 142.711 185.02 142.711C185.427 142.711 185.753 142.779 186.001 142.915C186.251 143.049 186.444 143.205 186.58 143.384C186.719 143.563 186.827 143.721 186.904 143.857H186.981V140.614H188.255V149.341H187.01V148.323H186.904C186.827 148.462 186.716 148.621 186.572 148.8C186.43 148.979 186.233 149.135 185.983 149.269C185.733 149.402 185.41 149.469 185.012 149.469ZM185.293 148.383C185.66 148.383 185.969 148.286 186.222 148.093C186.478 147.897 186.671 147.625 186.802 147.279C186.935 146.932 187.002 146.529 187.002 146.069C187.002 145.614 186.937 145.216 186.806 144.875C186.675 144.534 186.483 144.269 186.231 144.079C185.978 143.888 185.665 143.793 185.293 143.793C184.91 143.793 184.59 143.892 184.334 144.091C184.079 144.29 183.885 144.561 183.755 144.905C183.627 145.249 183.563 145.637 183.563 146.069C183.563 146.506 183.628 146.9 183.759 147.249C183.89 147.598 184.083 147.875 184.339 148.08C184.597 148.282 184.915 148.383 185.293 148.383ZM192.83 149.473C192.217 149.473 191.681 149.333 191.224 149.052C190.767 148.77 190.411 148.377 190.159 147.871C189.906 147.365 189.779 146.775 189.779 146.098C189.779 145.419 189.906 144.826 190.159 144.317C190.411 143.809 190.767 143.414 191.224 143.133C191.681 142.851 192.217 142.711 192.83 142.711C193.444 142.711 193.98 142.851 194.437 143.133C194.894 143.414 195.249 143.809 195.502 144.317C195.755 144.826 195.882 145.419 195.882 146.098C195.882 146.775 195.755 147.365 195.502 147.871C195.249 148.377 194.894 148.77 194.437 149.052C193.98 149.333 193.444 149.473 192.83 149.473ZM192.835 148.404C193.232 148.404 193.562 148.299 193.823 148.088C194.085 147.878 194.278 147.598 194.403 147.249C194.531 146.9 194.595 146.515 194.595 146.094C194.595 145.677 194.531 145.293 194.403 144.944C194.278 144.591 194.085 144.309 193.823 144.096C193.562 143.883 193.232 143.776 192.835 143.776C192.434 143.776 192.102 143.883 191.838 144.096C191.576 144.309 191.382 144.591 191.254 144.944C191.129 145.293 191.066 145.677 191.066 146.094C191.066 146.515 191.129 146.9 191.254 147.249C191.382 147.598 191.576 147.878 191.838 148.088C192.102 148.299 192.434 148.404 192.835 148.404ZM202.086 140.614L201.975 146.831H200.795L200.684 140.614H202.086ZM201.387 149.422C201.151 149.422 200.95 149.34 200.782 149.175C200.615 149.008 200.532 148.806 200.535 148.57C200.532 148.337 200.615 148.138 200.782 147.973C200.95 147.806 201.151 147.722 201.387 147.722C201.617 147.722 201.816 147.806 201.984 147.973C202.151 148.138 202.237 148.337 202.24 148.57C202.237 148.726 202.195 148.87 202.116 149C202.039 149.128 201.937 149.231 201.809 149.307C201.681 149.384 201.541 149.422 201.387 149.422Z" fill="white"/>
<path d="M523.175 30.1353H440.805C439.15 30.1353 437.809 31.4763 437.809 33.1305V36.8747C437.809 38.5289 439.15 39.87 440.805 39.87H523.175C524.829 39.87 526.171 38.5289 526.171 36.8747V33.1305C526.171 31.4763 524.829 30.1353 523.175 30.1353Z" fill="black" fill-opacity="0.15"/>
<path d="M523.175 46.6094H440.805C439.15 46.6094 437.809 47.9504 437.809 49.6047V86.297C437.809 87.9513 439.15 89.2923 440.805 89.2923H523.175C524.829 89.2923 526.171 87.9513 526.171 86.297V49.6047C526.171 47.9504 524.829 46.6094 523.175 46.6094Z" fill="black" fill-opacity="0.15"/>
<path d="M523.175 96.0322H440.805C439.15 96.0322 437.809 97.3733 437.809 99.0275V120.743C437.809 122.398 439.15 123.739 440.805 123.739H523.175C524.829 123.739 526.171 122.398 526.171 120.743V99.0275C526.171 97.3733 524.829 96.0322 523.175 96.0322Z" fill="black" fill-opacity="0.15"/>
<path d="M523.175 130.478H440.805C439.15 130.478 437.809 131.819 437.809 133.473V194.128C437.809 195.782 439.15 197.123 440.805 197.123H523.175C524.829 197.123 526.171 195.782 526.171 194.128V133.473C526.171 131.819 524.829 130.478 523.175 130.478Z" fill="black" fill-opacity="0.15"/>
<path d="M523.175 203.863H440.805C439.15 203.863 437.809 205.204 437.809 206.858V227.825C437.809 229.479 439.15 230.82 440.805 230.82H523.175C524.829 230.82 526.171 229.479 526.171 227.825V206.858C526.171 205.204 524.829 203.863 523.175 203.863Z" fill="black" fill-opacity="0.15"/>
<path d="M523.175 237.56H440.805C439.15 237.56 437.809 238.901 437.809 240.555V280.991C437.809 282.646 439.15 283.987 440.805 283.987H523.175C524.829 283.987 526.171 282.646 526.171 280.991V240.555C526.171 238.901 524.829 237.56 523.175 237.56Z" fill="black" fill-opacity="0.15"/>
<path d="M523.175 290.726H440.805C439.15 290.726 437.809 292.067 437.809 293.721V316.934C437.809 318.589 439.15 319.93 440.805 319.93H523.175C524.829 319.93 526.171 318.589 526.171 316.934V293.721C526.171 292.067 524.829 290.726 523.175 290.726Z" fill="black" fill-opacity="0.15"/>
<path d="M163.591 75.2925H161.239C161.172 74.9068 161.048 74.5651 160.868 74.2674C160.688 73.9656 160.464 73.7098 160.195 73.5002C159.927 73.2905 159.621 73.1333 159.277 73.0285C158.937 72.9195 158.571 72.865 158.177 72.865C157.476 72.865 156.856 73.0411 156.315 73.3933C155.774 73.7413 155.351 74.2528 155.045 74.9278C154.739 75.5986 154.586 76.4183 154.586 77.3868C154.586 78.372 154.739 79.2022 155.045 79.8772C155.355 80.548 155.778 81.0553 156.315 81.3991C156.856 81.7387 157.474 81.9085 158.17 81.9085C158.556 81.9085 158.917 81.8582 159.252 81.7576C159.592 81.6528 159.895 81.4997 160.164 81.2985C160.436 81.0973 160.665 80.8499 160.849 80.5564C161.038 80.2629 161.168 79.9275 161.239 79.5502L163.591 79.5627C163.503 80.1749 163.312 80.7493 163.019 81.2859C162.73 81.8226 162.35 82.2963 161.881 82.7072C161.411 83.1139 160.862 83.4326 160.233 83.6631C159.604 83.8895 158.906 84.0028 158.139 84.0028C157.007 84.0028 155.996 83.7407 155.107 83.2166C154.219 82.6926 153.518 81.9358 153.007 80.9463C152.495 79.9569 152.24 78.7703 152.24 77.3868C152.24 75.999 152.498 74.8125 153.013 73.8272C153.529 72.8377 154.231 72.081 155.12 71.5569C156.009 71.0328 157.015 70.7708 158.139 70.7708C158.856 70.7708 159.522 70.8714 160.139 71.0726C160.755 71.2739 161.304 71.5695 161.786 71.9594C162.269 72.3451 162.665 72.8189 162.975 73.3807C163.289 73.9383 163.495 74.5756 163.591 75.2925ZM169.841 84.0153C168.898 84.0153 168.08 83.8078 167.388 83.3927C166.696 82.9777 166.16 82.397 165.778 81.6507C165.401 80.9044 165.212 80.0323 165.212 79.0345C165.212 78.0366 165.401 77.1625 165.778 76.412C166.16 75.6615 166.696 75.0787 167.388 74.6636C168.08 74.2486 168.898 74.041 169.841 74.041C170.784 74.041 171.602 74.2486 172.294 74.6636C172.985 75.0787 173.52 75.6615 173.897 76.412C174.279 77.1625 174.47 78.0366 174.47 79.0345C174.47 80.0323 174.279 80.9044 173.897 81.6507C173.52 82.397 172.985 82.9777 172.294 83.3927C171.602 83.8078 170.784 84.0153 169.841 84.0153ZM169.854 82.1915C170.365 82.1915 170.793 82.0511 171.136 81.7702C171.48 81.4851 171.736 81.1035 171.904 80.6256C172.076 80.1476 172.162 79.6152 172.162 79.0282C172.162 78.437 172.076 77.9025 171.904 77.4245C171.736 76.9423 171.48 76.5587 171.136 76.2736C170.793 75.9885 170.365 75.846 169.854 75.846C169.329 75.846 168.893 75.9885 168.545 76.2736C168.202 76.5587 167.944 76.9423 167.772 77.4245C167.604 77.9025 167.52 78.437 167.52 79.0282C167.52 79.6152 167.604 80.1476 167.772 80.6256C167.944 81.1035 168.202 81.4851 168.545 81.7702C168.893 82.0511 169.329 82.1915 169.854 82.1915ZM178.679 78.1666V83.8267H176.402V74.1668H178.578V75.8082H178.691C178.913 75.2674 179.268 74.8376 179.754 74.519C180.244 74.2004 180.85 74.041 181.571 74.041C182.238 74.041 182.819 74.1836 183.313 74.4687C183.812 74.7538 184.198 75.1668 184.471 75.7076C184.747 76.2485 184.884 76.9046 184.879 77.6761V83.8267H182.603V78.0282C182.603 77.3826 182.435 76.8774 182.1 76.5126C181.769 76.1478 181.309 75.9655 180.722 75.9655C180.324 75.9655 179.97 76.0535 179.66 76.2296C179.354 76.4015 179.112 76.651 178.936 76.978C178.764 77.305 178.679 77.7012 178.679 78.1666ZM194.829 76.7201L192.753 76.9465C192.695 76.7369 192.592 76.5398 192.445 76.3554C192.303 76.1709 192.11 76.0221 191.866 75.9089C191.623 75.7957 191.326 75.7391 190.973 75.7391C190.5 75.7391 190.101 75.8418 189.779 76.0472C189.46 76.2527 189.303 76.5189 189.307 76.8459C189.303 77.1268 189.405 77.3553 189.615 77.5314C189.829 77.7075 190.181 77.8521 190.672 77.9653L192.319 78.3175C193.233 78.5146 193.912 78.8269 194.357 79.2546C194.806 79.6822 195.032 80.242 195.036 80.9337C195.032 81.5417 194.854 82.0783 194.502 82.5437C194.154 83.0049 193.669 83.3655 193.049 83.6254C192.428 83.8854 191.716 84.0153 190.911 84.0153C189.728 84.0153 188.777 83.768 188.055 83.2732C187.334 82.7743 186.904 82.0804 186.766 81.1916L188.986 80.9778C189.087 81.4138 189.301 81.7429 189.628 81.9651C189.955 82.1873 190.38 82.2984 190.904 82.2984C191.445 82.2984 191.879 82.1873 192.206 81.9651C192.537 81.7429 192.703 81.4683 192.703 81.1413C192.703 80.8646 192.596 80.6361 192.382 80.4558C192.173 80.2755 191.846 80.1371 191.401 80.0407L189.753 79.6948C188.827 79.5019 188.141 79.177 187.697 78.72C187.252 78.2588 187.032 77.6761 187.037 76.9717C187.032 76.3763 187.194 75.8606 187.521 75.4246C187.852 74.9844 188.311 74.6448 188.898 74.4058C189.489 74.1626 190.171 74.041 190.942 74.041C192.074 74.041 192.965 74.2821 193.615 74.7643C194.269 75.2464 194.673 75.8984 194.829 76.7201ZM201.737 74.1668V75.9277H196.184V74.1668H201.737ZM197.555 71.8525H199.831V80.9212C199.831 81.2272 199.878 81.462 199.97 81.6255C200.066 81.7848 200.192 81.8939 200.347 81.9525C200.502 82.0112 200.674 82.0406 200.863 82.0406C201.005 82.0406 201.135 82.0301 201.253 82.0091C201.374 81.9882 201.467 81.9693 201.529 81.9525L201.913 83.7323C201.792 83.7743 201.618 83.8204 201.391 83.8707C201.169 83.921 200.896 83.9503 200.574 83.9587C200.003 83.9755 199.49 83.8895 199.033 83.7009C198.576 83.508 198.213 83.2103 197.945 82.8078C197.681 82.4054 197.551 81.9022 197.555 81.2985V71.8525ZM203.641 83.8267V74.1668H205.848V75.7768H205.949C206.125 75.2192 206.427 74.7894 206.855 74.4875C207.287 74.1815 207.779 74.0285 208.333 74.0285C208.458 74.0285 208.599 74.0347 208.754 74.0473C208.913 74.0557 209.045 74.0704 209.15 74.0913V76.1856C209.054 76.152 208.901 76.1227 208.691 76.0975C208.486 76.0682 208.286 76.0535 208.094 76.0535C207.679 76.0535 207.305 76.1436 206.974 76.3239C206.647 76.5 206.389 76.7453 206.201 77.0597C206.012 77.3742 205.918 77.7368 205.918 78.1477V83.8267H203.641ZM216.82 79.764V74.1668H219.096V83.8267H216.889V82.1098H216.788C216.57 82.6506 216.212 83.0929 215.713 83.4367C215.218 83.7805 214.608 83.9524 213.883 83.9524C213.249 83.9524 212.69 83.812 212.203 83.5311C211.721 83.246 211.344 82.833 211.071 82.2922C210.799 81.7471 210.663 81.0889 210.663 80.3174V74.1668H212.939V79.9652C212.939 80.5774 213.107 81.0637 213.442 81.4243C213.778 81.7848 214.218 81.9651 214.763 81.9651C215.098 81.9651 215.423 81.8834 215.738 81.7199C216.052 81.5563 216.31 81.3132 216.511 80.9903C216.717 80.6633 216.82 80.2545 216.82 79.764ZM224.217 84.0216C223.605 84.0216 223.053 83.9126 222.563 83.6946C222.077 83.4724 221.691 83.1454 221.406 82.7135C221.125 82.2817 220.984 81.7492 220.984 81.1161C220.984 80.5711 221.085 80.1204 221.286 79.764C221.488 79.4076 221.762 79.1225 222.11 78.9087C222.458 78.6949 222.85 78.5334 223.286 78.4244C223.726 78.3112 224.181 78.2295 224.651 78.1792C225.217 78.1205 225.676 78.0681 226.028 78.0219C226.38 77.9716 226.636 77.8962 226.795 77.7955C226.959 77.6907 227.041 77.5293 227.041 77.3113V77.2736C227.041 76.7998 226.9 76.4329 226.619 76.173C226.338 75.913 225.934 75.7831 225.406 75.7831C224.848 75.7831 224.406 75.9047 224.079 76.1478C223.756 76.391 223.538 76.6782 223.425 77.0094L221.299 76.7076C221.467 76.1206 221.743 75.63 222.129 75.2359C222.515 74.8376 222.986 74.54 223.544 74.3429C224.102 74.1417 224.718 74.041 225.393 74.041C225.858 74.041 226.322 74.0955 226.783 74.2045C227.244 74.3136 227.665 74.4938 228.047 74.7454C228.428 74.9928 228.734 75.3303 228.965 75.7579C229.2 76.1856 229.317 76.7201 229.317 77.3616V83.8267H227.129V82.4997H227.053C226.915 82.768 226.72 83.0196 226.468 83.2544C226.221 83.485 225.909 83.6715 225.531 83.8141C225.158 83.9524 224.72 84.0216 224.217 84.0216ZM224.808 82.3488C225.265 82.3488 225.661 82.2586 225.997 82.0783C226.332 81.8939 226.59 81.6507 226.77 81.3488C226.955 81.0469 227.047 80.7178 227.047 80.3614V79.2231C226.976 79.2818 226.854 79.3363 226.682 79.3867C226.514 79.437 226.326 79.481 226.116 79.5187C225.907 79.5565 225.699 79.59 225.494 79.6193C225.288 79.6487 225.11 79.6738 224.959 79.6948C224.619 79.7409 224.315 79.8164 224.047 79.9212C223.779 80.026 223.567 80.1728 223.412 80.3614C223.257 80.5459 223.179 80.7849 223.179 81.0784C223.179 81.4976 223.332 81.8142 223.638 82.028C223.944 82.2418 224.334 82.3488 224.808 82.3488ZM243.634 76.7201L241.559 76.9465C241.5 76.7369 241.397 76.5398 241.251 76.3554C241.108 76.1709 240.915 76.0221 240.672 75.9089C240.429 75.7957 240.131 75.7391 239.779 75.7391C239.305 75.7391 238.907 75.8418 238.584 76.0472C238.265 76.2527 238.108 76.5189 238.112 76.8459C238.108 77.1268 238.211 77.3553 238.421 77.5314C238.634 77.7075 238.987 77.8521 239.477 77.9653L241.125 78.3175C242.039 78.5146 242.718 78.8269 243.162 79.2546C243.611 79.6822 243.837 80.242 243.842 80.9337C243.837 81.5417 243.659 82.0783 243.307 82.5437C242.959 83.0049 242.475 83.3655 241.854 83.6254C241.234 83.8854 240.521 84.0153 239.716 84.0153C238.534 84.0153 237.582 83.768 236.861 83.2732C236.14 82.7743 235.71 82.0804 235.572 81.1916L237.792 80.9778C237.892 81.4138 238.106 81.7429 238.433 81.9651C238.76 82.1873 239.186 82.2984 239.71 82.2984C240.251 82.2984 240.685 82.1873 241.012 81.9651C241.343 81.7429 241.508 81.4683 241.508 81.1413C241.508 80.8646 241.402 80.6361 241.188 80.4558C240.978 80.2755 240.651 80.1371 240.207 80.0407L238.559 79.6948C237.632 79.5019 236.947 79.177 236.502 78.72C236.058 78.2588 235.838 77.6761 235.842 76.9717C235.838 76.3763 235.999 75.8606 236.326 75.4246C236.658 74.9844 237.117 74.6448 237.704 74.4058C238.295 74.1626 238.976 74.041 239.748 74.041C240.88 74.041 241.77 74.2821 242.42 74.7643C243.074 75.2464 243.479 75.8984 243.634 76.7201ZM249.995 84.0153C249.027 84.0153 248.19 83.8141 247.486 83.4116C246.786 83.0049 246.247 82.4305 245.87 81.6884C245.492 80.9421 245.304 80.0638 245.304 79.0533C245.304 78.0597 245.492 77.1876 245.87 76.4371C246.251 75.6825 246.784 75.0955 247.467 74.6762C248.151 74.2528 248.954 74.041 249.876 74.041C250.471 74.041 251.033 74.1375 251.561 74.3303C252.094 74.519 252.563 74.8125 252.97 75.2108C253.381 75.6091 253.704 76.1164 253.939 76.7327C254.173 77.3448 254.291 78.0744 254.291 78.9213V79.6193H246.373V78.0848H252.108C252.104 77.6488 252.01 77.261 251.825 76.9214C251.641 76.5776 251.383 76.3072 251.052 76.1101C250.725 75.913 250.343 75.8145 249.907 75.8145C249.442 75.8145 249.033 75.9277 248.681 76.1541C248.329 76.3763 248.054 76.6698 247.857 77.0346C247.664 77.3951 247.566 77.7914 247.562 78.2232V79.5627C247.562 80.1246 247.664 80.6067 247.87 81.0092C248.075 81.4075 248.362 81.7136 248.731 81.9274C249.1 82.137 249.532 82.2418 250.027 82.2418C250.358 82.2418 250.658 82.1957 250.926 82.1035C251.194 82.0071 251.427 81.8666 251.624 81.6821C251.821 81.4976 251.97 81.2691 252.071 80.9966L254.196 81.2356C254.062 81.7974 253.806 82.288 253.429 82.7072C253.056 83.1223 252.578 83.4451 251.995 83.6757C251.412 83.9021 250.746 84.0153 249.995 84.0153ZM262.374 79.764V74.1668H264.65V83.8267H262.443V82.1098H262.342C262.124 82.6506 261.766 83.0929 261.267 83.4367C260.772 83.7805 260.162 83.9524 259.437 83.9524C258.804 83.9524 258.244 83.812 257.758 83.5311C257.275 83.246 256.898 82.833 256.626 82.2922C256.353 81.7471 256.217 81.0889 256.217 80.3174V74.1668H258.493V79.9652C258.493 80.5774 258.661 81.0637 258.996 81.4243C259.332 81.7848 259.772 81.9651 260.317 81.9651C260.653 81.9651 260.977 81.8834 261.292 81.7199C261.606 81.5563 261.864 81.3132 262.065 80.9903C262.271 80.6633 262.374 80.2545 262.374 79.764ZM152.466 108.449V95.1668H154.705V96.7642H154.837C154.954 96.5294 155.12 96.28 155.334 96.0158C155.548 95.7475 155.837 95.519 156.202 95.3303C156.567 95.1375 157.032 95.041 157.598 95.041C158.344 95.041 159.017 95.2318 159.617 95.6133C160.22 95.9907 160.698 96.5504 161.051 97.2925C161.407 98.0304 161.585 98.936 161.585 100.009C161.585 101.07 161.411 101.971 161.063 102.714C160.715 103.456 160.241 104.022 159.642 104.412C159.042 104.802 158.363 104.996 157.604 104.996C157.051 104.996 156.592 104.904 156.227 104.72C155.862 104.535 155.569 104.313 155.346 104.053C155.128 103.789 154.959 103.54 154.837 103.305H154.743V108.449H152.466ZM154.699 99.9967C154.699 100.621 154.787 101.169 154.963 101.638C155.143 102.108 155.401 102.475 155.736 102.739C156.076 102.999 156.487 103.129 156.969 103.129C157.472 103.129 157.894 102.994 158.233 102.726C158.573 102.454 158.828 102.083 159 101.613C159.176 101.139 159.265 100.6 159.265 99.9967C159.265 99.3972 159.179 98.8647 159.007 98.3993C158.835 97.934 158.579 97.5692 158.239 97.3051C157.9 97.0409 157.476 96.9089 156.969 96.9089C156.483 96.9089 156.07 97.0367 155.73 97.2925C155.391 97.5482 155.133 97.9067 154.957 98.3679C154.785 98.8291 154.699 99.372 154.699 99.9967ZM163.535 104.827V95.1668H165.742V96.7768H165.843C166.019 96.2192 166.321 95.7894 166.748 95.4875C167.18 95.1815 167.673 95.0285 168.226 95.0285C168.352 95.0285 168.493 95.0347 168.648 95.0473C168.807 95.0557 168.939 95.0704 169.044 95.0913V97.1856C168.947 97.152 168.794 97.1227 168.585 97.0975C168.379 97.0682 168.18 97.0535 167.987 97.0535C167.572 97.0535 167.199 97.1436 166.868 97.3239C166.541 97.5 166.283 97.7453 166.094 98.0597C165.906 98.3742 165.811 98.7368 165.811 99.1477V104.827H163.535ZM170.556 104.827V95.1668H172.833V104.827H170.556ZM171.701 93.7958C171.34 93.7958 171.03 93.6763 170.77 93.4373C170.51 93.1942 170.38 92.9028 170.38 92.5632C170.38 92.2194 170.51 91.928 170.77 91.689C171.03 91.4458 171.34 91.3243 171.701 91.3243C172.066 91.3243 172.376 91.4458 172.632 91.689C172.892 91.928 173.022 92.2194 173.022 92.5632C173.022 92.9028 172.892 93.1942 172.632 93.4373C172.376 93.6763 172.066 93.7958 171.701 93.7958ZM175.174 104.827V95.1668H177.35V96.8082H177.463C177.664 96.2548 177.998 95.823 178.463 95.5127C178.929 95.1983 179.484 95.041 180.13 95.041C180.784 95.041 181.335 95.2004 181.784 95.519C182.237 95.8334 182.555 96.2632 182.74 96.8082H182.84C183.054 96.2716 183.415 95.8439 183.922 95.5253C184.433 95.2025 185.039 95.041 185.739 95.041C186.628 95.041 187.354 95.3219 187.915 95.8838C188.477 96.4456 188.758 97.2652 188.758 98.3427V104.827H186.475V98.6949C186.475 98.0954 186.316 97.6572 185.997 97.3805C185.679 97.0996 185.289 96.9592 184.828 96.9592C184.278 96.9592 183.849 97.1311 183.538 97.4749C183.232 97.8145 183.079 98.2568 183.079 98.8018V104.827H180.847V98.6006C180.847 98.1017 180.696 97.7034 180.394 97.4057C180.096 97.108 179.706 96.9592 179.224 96.9592C178.897 96.9592 178.599 97.043 178.331 97.2107C178.063 97.3742 177.849 97.6069 177.69 97.9088C177.53 98.2065 177.451 98.5545 177.451 98.9528V104.827H175.174ZM195.344 105.015C194.376 105.015 193.539 104.814 192.835 104.412C192.135 104.005 191.596 103.431 191.219 102.688C190.841 101.942 190.653 101.064 190.653 100.053C190.653 99.0597 190.841 98.1876 191.219 97.4371C191.6 96.6825 192.133 96.0955 192.816 95.6762C193.5 95.2528 194.302 95.041 195.225 95.041C195.82 95.041 196.382 95.1375 196.91 95.3303C197.443 95.519 197.912 95.8125 198.319 96.2108C198.73 96.6091 199.053 97.1164 199.287 97.7327C199.522 98.3448 199.64 99.0744 199.64 99.9213V100.619H191.722V99.0848H197.457C197.453 98.6488 197.359 98.261 197.174 97.9214C196.99 97.5776 196.732 97.3072 196.401 97.1101C196.074 96.913 195.692 96.8145 195.256 96.8145C194.791 96.8145 194.382 96.9277 194.03 97.1541C193.678 97.3763 193.403 97.6698 193.206 98.0346C193.013 98.3951 192.915 98.7914 192.91 99.2232V100.563C192.91 101.125 193.013 101.607 193.219 102.009C193.424 102.408 193.711 102.714 194.08 102.927C194.449 103.137 194.881 103.242 195.376 103.242C195.707 103.242 196.007 103.196 196.275 103.103C196.543 103.007 196.776 102.867 196.973 102.682C197.17 102.498 197.319 102.269 197.42 101.997L199.545 102.236C199.411 102.797 199.155 103.288 198.778 103.707C198.405 104.122 197.927 104.445 197.344 104.676C196.761 104.902 196.095 105.015 195.344 105.015ZM201.566 104.827V95.1668H203.842V104.827H201.566ZM202.71 93.7958C202.35 93.7958 202.039 93.6763 201.779 93.4373C201.52 93.1942 201.39 92.9028 201.39 92.5632C201.39 92.2194 201.52 91.928 201.779 91.689C202.039 91.4458 202.35 91.3243 202.71 91.3243C203.075 91.3243 203.385 91.4458 203.641 91.689C203.901 91.928 204.031 92.2194 204.031 92.5632C204.031 92.9028 203.901 93.1942 203.641 93.4373C203.385 93.6763 203.075 93.7958 202.71 93.7958ZM206.183 104.827V95.1668H208.391V96.7768H208.491C208.667 96.2192 208.969 95.7894 209.397 95.4875C209.829 95.1815 210.321 95.0285 210.875 95.0285C211.001 95.0285 211.141 95.0347 211.296 95.0473C211.456 95.0557 211.588 95.0704 211.692 95.0913V97.1856C211.596 97.152 211.443 97.1227 211.233 97.0975C211.028 97.0682 210.829 97.0535 210.636 97.0535C210.221 97.0535 209.848 97.1436 209.516 97.3239C209.189 97.5 208.932 97.7453 208.743 98.0597C208.554 98.3742 208.46 98.7368 208.46 99.1477V104.827H206.183ZM217.021 105.015C216.077 105.015 215.26 104.808 214.568 104.393C213.876 103.978 213.34 103.397 212.958 102.651C212.581 101.904 212.392 101.032 212.392 100.034C212.392 99.0366 212.581 98.1625 212.958 97.412C213.34 96.6615 213.876 96.0787 214.568 95.6636C215.26 95.2486 216.077 95.041 217.021 95.041C217.964 95.041 218.782 95.2486 219.473 95.6636C220.165 96.0787 220.7 96.6615 221.077 97.412C221.459 98.1625 221.649 99.0366 221.649 100.034C221.649 101.032 221.459 101.904 221.077 102.651C220.7 103.397 220.165 103.978 219.473 104.393C218.782 104.808 217.964 105.015 217.021 105.015ZM217.033 103.192C217.545 103.192 217.972 103.051 218.316 102.77C218.66 102.485 218.916 102.104 219.084 101.626C219.255 101.148 219.341 100.615 219.341 100.028C219.341 99.437 219.255 98.9025 219.084 98.4245C218.916 97.9423 218.66 97.5587 218.316 97.2736C217.972 96.9885 217.545 96.846 217.033 96.846C216.509 96.846 216.073 96.9885 215.725 97.2736C215.381 97.5587 215.124 97.9423 214.952 98.4245C214.784 98.9025 214.7 99.437 214.7 100.028C214.7 100.615 214.784 101.148 214.952 101.626C215.124 102.104 215.381 102.485 215.725 102.77C216.073 103.051 216.509 103.192 217.033 103.192ZM227.975 108.449V95.1668H230.213V96.7642H230.346C230.463 96.5294 230.629 96.28 230.842 96.0158C231.056 95.7475 231.345 95.519 231.71 95.3303C232.075 95.1375 232.54 95.041 233.106 95.041C233.853 95.041 234.526 95.2318 235.125 95.6133C235.729 95.9907 236.207 96.5504 236.559 97.2925C236.915 98.0304 237.094 98.936 237.094 100.009C237.094 101.07 236.92 101.971 236.572 102.714C236.224 103.456 235.75 104.022 235.15 104.412C234.551 104.802 233.872 104.996 233.113 104.996C232.559 104.996 232.1 104.904 231.735 104.72C231.371 104.535 231.077 104.313 230.855 104.053C230.637 103.789 230.467 103.54 230.346 103.305H230.251V108.449H227.975ZM230.207 99.9967C230.207 100.621 230.295 101.169 230.471 101.638C230.652 102.108 230.909 102.475 231.245 102.739C231.584 102.999 231.995 103.129 232.477 103.129C232.981 103.129 233.402 102.994 233.742 102.726C234.081 102.454 234.337 102.083 234.509 101.613C234.685 101.139 234.773 100.6 234.773 99.9967C234.773 99.3972 234.687 98.8647 234.515 98.3993C234.343 97.934 234.087 97.5692 233.748 97.3051C233.408 97.0409 232.985 96.9089 232.477 96.9089C231.991 96.9089 231.578 97.0367 231.239 97.2925C230.899 97.5482 230.641 97.9067 230.465 98.3679C230.293 98.8291 230.207 99.372 230.207 99.9967ZM239.043 104.827V95.1668H241.251V96.7768H241.351C241.527 96.2192 241.829 95.7894 242.257 95.4875C242.689 95.1815 243.181 95.0285 243.735 95.0285C243.86 95.0285 244.001 95.0347 244.156 95.0473C244.315 95.0557 244.447 95.0704 244.552 95.0913V97.1856C244.456 97.152 244.303 97.1227 244.093 97.0975C243.888 97.0682 243.689 97.0535 243.496 97.0535C243.081 97.0535 242.708 97.1436 242.376 97.3239C242.049 97.5 241.791 97.7453 241.603 98.0597C241.414 98.3742 241.32 98.7368 241.32 99.1477V104.827H239.043ZM249.881 105.015C248.937 105.015 248.12 104.808 247.428 104.393C246.736 103.978 246.199 103.397 245.818 102.651C245.441 101.904 245.252 101.032 245.252 100.034C245.252 99.0366 245.441 98.1625 245.818 97.412C246.199 96.6615 246.736 96.0787 247.428 95.6636C248.12 95.2486 248.937 95.041 249.881 95.041C250.824 95.041 251.642 95.2486 252.333 95.6636C253.025 96.0787 253.56 96.6615 253.937 97.412C254.319 98.1625 254.509 99.0366 254.509 100.034C254.509 101.032 254.319 101.904 253.937 102.651C253.56 103.397 253.025 103.978 252.333 104.393C251.642 104.808 250.824 105.015 249.881 105.015ZM249.893 103.192C250.405 103.192 250.832 103.051 251.176 102.77C251.52 102.485 251.776 102.104 251.943 101.626C252.115 101.148 252.201 100.615 252.201 100.028C252.201 99.437 252.115 98.9025 251.943 98.4245C251.776 97.9423 251.52 97.5587 251.176 97.2736C250.832 96.9885 250.405 96.846 249.893 96.846C249.369 96.846 248.933 96.9885 248.585 97.2736C248.241 97.5587 247.983 97.9423 247.812 98.4245C247.644 98.9025 247.56 99.437 247.56 100.028C247.56 100.615 247.644 101.148 247.812 101.626C247.983 102.104 248.241 102.485 248.585 102.77C248.933 103.051 249.369 103.192 249.893 103.192ZM256.442 95.1668H258.718V105.38C258.718 106.076 258.586 106.65 258.322 107.103C258.058 107.556 257.676 107.894 257.177 108.116C256.678 108.338 256.073 108.449 255.36 108.449C255.276 108.449 255.198 108.447 255.127 108.443C255.056 108.443 254.978 108.441 254.894 108.437V106.581C254.957 106.585 255.014 106.588 255.064 106.588C255.115 106.592 255.167 106.594 255.222 106.594C255.658 106.594 255.97 106.487 256.159 106.273C256.347 106.063 256.442 105.755 256.442 105.349V95.1668ZM257.574 93.7958C257.209 93.7958 256.896 93.6763 256.637 93.4373C256.381 93.1942 256.253 92.9028 256.253 92.5632C256.253 92.2194 256.381 91.928 256.637 91.689C256.896 91.4458 257.209 91.3243 257.574 91.3243C257.934 91.3243 258.242 91.4458 258.498 91.689C258.758 91.928 258.888 92.2194 258.888 92.5632C258.888 92.9028 258.758 93.1942 258.498 93.4373C258.242 93.6763 257.934 93.7958 257.574 93.7958ZM265.336 105.015C264.367 105.015 263.531 104.814 262.826 104.412C262.126 104.005 261.588 103.431 261.21 102.688C260.833 101.942 260.644 101.064 260.644 100.053C260.644 99.0597 260.833 98.1876 261.21 97.4371C261.592 96.6825 262.124 96.0955 262.808 95.6762C263.491 95.2528 264.294 95.041 265.216 95.041C265.812 95.041 266.373 95.1375 266.902 95.3303C267.434 95.519 267.904 95.8125 268.31 96.2108C268.721 96.6091 269.044 97.1164 269.279 97.7327C269.514 98.3448 269.631 99.0744 269.631 99.9213V100.619H261.713V99.0848H267.449C267.445 98.6488 267.35 98.261 267.166 97.9214C266.981 97.5776 266.723 97.3072 266.392 97.1101C266.065 96.913 265.684 96.8145 265.248 96.8145C264.782 96.8145 264.374 96.9277 264.021 97.1541C263.669 97.3763 263.395 97.6698 263.197 98.0346C263.005 98.3951 262.906 98.7914 262.902 99.2232V100.563C262.902 101.125 263.005 101.607 263.21 102.009C263.416 102.408 263.703 102.714 264.072 102.927C264.441 103.137 264.872 103.242 265.367 103.242C265.698 103.242 265.998 103.196 266.266 103.103C266.535 103.007 266.768 102.867 266.965 102.682C267.162 102.498 267.31 102.269 267.411 101.997L269.537 102.236C269.403 102.797 269.147 103.288 268.77 103.707C268.396 104.122 267.918 104.445 267.336 104.676C266.753 104.902 266.086 105.015 265.336 105.015ZM276.381 95.1668V96.9277H270.828V95.1668H276.381ZM272.199 92.8525H274.475V101.921C274.475 102.227 274.521 102.462 274.614 102.626C274.71 102.785 274.836 102.894 274.991 102.953C275.146 103.011 275.318 103.041 275.507 103.041C275.649 103.041 275.779 103.03 275.896 103.009C276.018 102.988 276.11 102.969 276.173 102.953L276.557 104.732C276.435 104.774 276.261 104.82 276.035 104.871C275.813 104.921 275.54 104.95 275.217 104.959C274.647 104.975 274.133 104.89 273.676 104.701C273.219 104.508 272.857 104.21 272.588 103.808C272.324 103.405 272.194 102.902 272.199 102.298V92.8525ZM282.395 105.015C281.451 105.015 280.634 104.808 279.942 104.393C279.25 103.978 278.713 103.397 278.332 102.651C277.955 101.904 277.766 101.032 277.766 100.034C277.766 99.0366 277.955 98.1625 278.332 97.412C278.713 96.6615 279.25 96.0787 279.942 95.6636C280.634 95.2486 281.451 95.041 282.395 95.041C283.338 95.041 284.155 95.2486 284.847 95.6636C285.539 96.0787 286.074 96.6615 286.451 97.412C286.832 98.1625 287.023 99.0366 287.023 100.034C287.023 101.032 286.832 101.904 286.451 102.651C286.074 103.397 285.539 103.978 284.847 104.393C284.155 104.808 283.338 105.015 282.395 105.015ZM282.407 103.192C282.919 103.192 283.346 103.051 283.69 102.77C284.034 102.485 284.29 102.104 284.457 101.626C284.629 101.148 284.715 100.615 284.715 100.028C284.715 99.437 284.629 98.9025 284.457 98.4245C284.29 97.9423 284.034 97.5587 283.69 97.2736C283.346 96.9885 282.919 96.846 282.407 96.846C281.883 96.846 281.447 96.9885 281.099 97.2736C280.755 97.5587 280.497 97.9423 280.325 98.4245C280.158 98.9025 280.074 99.437 280.074 100.028C280.074 100.615 280.158 101.148 280.325 101.626C280.497 102.104 280.755 102.485 281.099 102.77C281.447 103.051 281.883 103.192 282.407 103.192Z" fill="white"/>
<path d="M295.908 64.207H144.645V114.378H295.908V64.207Z" stroke="#0072F7" stroke-width="0.748824"/>
<path d="M308.103 120.947C308.061 120.989 308.012 121.024 307.956 121.052L304.432 122.762C304.371 122.792 304.32 122.842 304.29 122.903L302.58 126.427C302.486 126.621 302.286 126.742 302.07 126.733C301.855 126.726 301.663 126.591 301.584 126.391L297.819 116.998C297.737 116.795 297.784 116.565 297.939 116.41C298.094 116.255 298.326 116.208 298.528 116.289L307.921 120.054C308.121 120.134 308.255 120.324 308.264 120.539C308.269 120.695 308.21 120.842 308.103 120.947ZM304.126 122.598L302.105 125.806L303.662 122.598C303.759 122.395 303.926 122.231 304.126 122.133L307.334 120.576L304.126 122.598Z" fill="white"/>
</g>
</g>
</g>
<defs>
<filter id="filter0_b_565_12943" x="-23.2507" y="-23.5642" width="573.168" height="366.493" filterUnits="userSpaceOnUse" color-interpolation-filters="sRGB">
<feFlood flood-opacity="0" result="BackgroundImageFix"/>
<feGaussianBlur in="BackgroundImageFix" stdDeviation="11.8734"/>
<feComposite in2="SourceAlpha" operator="in" result="effect1_backgroundBlur_565_12943"/>
<feBlend mode="normal" in="SourceGraphic" in2="effect1_backgroundBlur_565_12943" result="shape"/>
</filter>
<clipPath id="clip0_565_12943">
<rect x="0.496094" y="0.182617" width="525.674" height="318.999" rx="10.2903" fill="white"/>
</clipPath>
</defs>
</svg>
