<svg width="702" height="426" viewBox="0 0 702 426" fill="none" xmlns="http://www.w3.org/2000/svg">
<g filter="url(#filter0_b_172_184)">
<g clip-path="url(#clip0_172_184)">
<rect x="0.985352" y="0.164062" width="700.718" height="425.222" rx="13.7168" fill="#050435" fill-opacity="0.7"/>
<mask id="mask0_172_184" style="mask-type:luminance" maskUnits="userSpaceOnUse" x="0" y="0" width="702" height="426">
<path d="M701.703 0.164062H0.985352V425.386H701.703V0.164062Z" fill="white"/>
</mask>
<g mask="url(#mask0_172_184)">
<path d="M137.656 33.9434H700.744V34.2834H137.656V33.9434Z" fill="white" fill-opacity="0.2"/>
<path d="M0.985352 0.164062H693.197C697.895 0.164062 701.703 0.391805 701.703 0.67274V31.4477C701.703 31.7286 697.895 31.9564 693.197 31.9564H0.985352V0.164062Z" fill="white" fill-opacity="0.15"/>
<g opacity="0.7">
<path d="M672.795 17.9389C672.946 17.9346 673.085 17.8784 673.198 17.7575L676.495 14.3986C676.59 14.3035 676.642 14.1827 676.642 14.0402C676.642 13.7551 676.417 13.5264 676.131 13.5264C675.992 13.5264 675.857 13.5826 675.757 13.6819L672.799 16.7084L669.832 13.6819C669.732 13.5869 669.602 13.5264 669.459 13.5264C669.172 13.5264 668.947 13.7551 668.947 14.0402C668.947 14.1827 668.999 14.3035 669.094 14.3986L672.395 17.7575C672.512 17.8784 672.643 17.9389 672.795 17.9389Z" fill="white"/>
<path d="M635.272 16.3H633.376V15.5348H635.272C635.639 15.5348 635.936 15.4763 636.164 15.3594C636.391 15.2424 636.557 15.0799 636.661 14.872C636.768 14.664 636.822 14.4268 636.822 14.1604C636.822 13.9166 636.768 13.6877 636.661 13.4731C636.557 13.2587 636.391 13.0865 636.164 12.9565C635.936 12.8233 635.639 12.7567 635.272 12.7567H633.596V19.083H632.654V11.9867H635.272C635.808 11.9867 636.261 12.0792 636.632 12.2645C637.002 12.4496 637.283 12.7063 637.474 13.0345C637.666 13.3595 637.762 13.7315 637.762 14.1506C637.762 14.6055 637.666 14.9938 637.474 15.3155C637.283 15.6372 637.002 15.8824 636.632 16.0514C636.261 16.2171 635.808 16.3 635.272 16.3ZM642.041 17.8645V13.8094H642.948V19.083H642.085L642.041 17.8645ZM642.212 16.7532L642.587 16.7436C642.587 17.0944 642.55 17.4194 642.475 17.7183C642.403 18.014 642.287 18.2707 642.124 18.4884C641.962 18.7061 641.75 18.8767 641.486 19.0001C641.223 19.1204 640.903 19.1805 640.526 19.1805C640.269 19.1805 640.034 19.1431 639.819 19.0684C639.608 18.9936 639.426 18.8783 639.273 18.7223C639.12 18.5663 639.002 18.3633 638.918 18.1131C638.836 17.8629 638.796 17.5624 638.796 17.2114V13.8094H639.697V17.2212C639.697 17.4584 639.723 17.655 639.775 17.8109C639.83 17.9636 639.904 18.0855 639.995 18.1764C640.089 18.2642 640.193 18.326 640.306 18.3617C640.423 18.3974 640.544 18.4153 640.668 18.4153C641.051 18.4153 641.354 18.3421 641.579 18.196C641.803 18.0465 641.963 17.8466 642.061 17.5965C642.162 17.3431 642.212 17.062 642.212 16.7532ZM644.318 11.5967H645.224V18.0595L645.146 19.083H644.318V11.5967ZM648.787 16.4024V16.5047C648.787 16.8881 648.742 17.2439 648.651 17.5721C648.559 17.897 648.426 18.1797 648.251 18.4202C648.075 18.6606 647.861 18.8474 647.608 18.9807C647.354 19.1138 647.063 19.1805 646.736 19.1805C646.4 19.1805 646.107 19.1236 645.853 19.0099C645.603 18.8929 645.392 18.7256 645.219 18.5079C645.048 18.2902 644.909 18.027 644.805 17.7183C644.704 17.4096 644.634 17.062 644.595 16.6753V16.2269C644.634 15.837 644.704 15.4877 644.805 15.179C644.909 14.8703 645.048 14.6072 645.219 14.3895C645.392 14.1685 645.603 14.0012 645.853 13.8874C646.104 13.7705 646.394 13.712 646.726 13.712C647.057 13.712 647.351 13.777 647.608 13.907C647.864 14.0336 648.079 14.2156 648.251 14.4529C648.426 14.69 648.559 14.9743 648.651 15.3057C648.742 15.6339 648.787 15.9994 648.787 16.4024ZM647.88 16.5047V16.4024C647.88 16.1392 647.856 15.8922 647.808 15.6615C647.759 15.4276 647.681 15.2228 647.573 15.0475C647.466 14.8687 647.324 14.7289 647.15 14.6282C646.974 14.5243 646.757 14.4723 646.501 14.4723C646.273 14.4723 646.076 14.5112 645.907 14.5893C645.741 14.6673 645.6 14.7729 645.483 14.9061C645.366 15.0361 645.27 15.1855 645.195 15.3545C645.123 15.5202 645.07 15.6924 645.035 15.8712V17.0457C645.087 17.2732 645.17 17.4925 645.287 17.7037C645.408 17.9116 645.567 18.0822 645.765 18.2155C645.967 18.3486 646.215 18.4153 646.511 18.4153C646.754 18.4153 646.963 18.3666 647.135 18.2691C647.31 18.1684 647.451 18.0302 647.559 17.8548C647.67 17.6793 647.751 17.4762 647.803 17.2455C647.854 17.0149 647.88 16.7679 647.88 16.5047ZM650.907 11.5967V19.083H650.001V11.5967H650.907ZM653.334 13.8094V19.083H652.428V13.8094H653.334ZM652.359 12.4107C652.359 12.2645 652.403 12.141 652.491 12.0403C652.582 11.9395 652.716 11.8891 652.891 11.8891C653.063 11.8891 653.195 11.9395 653.286 12.0403C653.38 12.141 653.427 12.2645 653.427 12.4107C653.427 12.5503 653.38 12.6706 653.286 12.7713C653.195 12.8688 653.063 12.9176 652.891 12.9176C652.716 12.9176 652.582 12.8688 652.491 12.7713C652.403 12.6706 652.359 12.5503 652.359 12.4107ZM657.852 17.6842C657.852 17.5542 657.823 17.434 657.764 17.3235C657.709 17.2098 657.595 17.1075 657.419 17.0165C657.246 16.9222 656.987 16.841 656.639 16.7728C656.347 16.711 656.081 16.638 655.845 16.5534C655.61 16.469 655.411 16.3666 655.245 16.2464C655.082 16.1262 654.957 15.9848 654.87 15.8223C654.782 15.6599 654.738 15.4698 654.738 15.2521C654.738 15.0442 654.784 14.8476 654.875 14.6624C654.968 14.4772 655.1 14.3131 655.269 14.1701C655.442 14.0271 655.648 13.915 655.889 13.8338C656.128 13.7526 656.397 13.712 656.692 13.712C657.115 13.712 657.476 13.7867 657.774 13.9362C658.074 14.0856 658.302 14.2855 658.462 14.5357C658.621 14.7826 658.701 15.0571 658.701 15.3594H657.799C657.799 15.2132 657.755 15.0718 657.667 14.9354C657.583 14.7956 657.458 14.6802 657.292 14.5893C657.129 14.4983 656.93 14.4529 656.692 14.4529C656.443 14.4529 656.239 14.4918 656.083 14.5697C655.931 14.6445 655.819 14.7403 655.747 14.8573C655.679 14.9743 655.644 15.0978 655.644 15.2277C655.644 15.3253 655.661 15.413 655.693 15.491C655.729 15.5657 655.791 15.6355 655.879 15.7006C655.967 15.7623 656.089 15.8207 656.249 15.8759C656.408 15.9312 656.611 15.9864 656.858 16.0416C657.29 16.1392 657.647 16.2562 657.926 16.3926C658.206 16.5291 658.413 16.6964 658.55 16.8946C658.686 17.0928 658.755 17.3333 658.755 17.616C658.755 17.8466 658.706 18.0579 658.608 18.2496C658.514 18.4413 658.375 18.6069 658.194 18.7467C658.015 18.8831 657.8 18.9904 657.551 19.0684C657.303 19.1431 657.026 19.1805 656.717 19.1805C656.252 19.1805 655.859 19.0977 655.537 18.932C655.216 18.7662 654.972 18.5518 654.807 18.2885C654.641 18.0254 654.558 17.7475 654.558 17.4552H655.465C655.478 17.7021 655.548 17.8986 655.679 18.0449C655.809 18.1878 655.968 18.2902 656.156 18.3519C656.345 18.4104 656.532 18.4397 656.717 18.4397C656.964 18.4397 657.17 18.4071 657.336 18.3421C657.505 18.2772 657.634 18.1878 657.721 18.0741C657.808 17.9604 657.852 17.8304 657.852 17.6842ZM660.84 11.5967V19.083H659.938V11.5967H660.84ZM660.626 16.2464L660.251 16.2318C660.254 15.8712 660.308 15.5381 660.411 15.2326C660.515 14.924 660.661 14.6559 660.85 14.4284C661.038 14.201 661.263 14.0255 661.522 13.9021C661.786 13.7753 662.076 13.712 662.395 13.712C662.655 13.712 662.889 13.7477 663.097 13.8192C663.305 13.8874 663.482 13.9979 663.628 14.1506C663.777 14.3033 663.891 14.5016 663.969 14.7452C664.047 14.9857 664.086 15.2797 664.086 15.6274V19.083H663.179V15.6176C663.179 15.3415 663.139 15.1205 663.058 14.9548C662.977 14.7858 662.858 14.664 662.702 14.5893C662.546 14.5112 662.354 14.4723 662.127 14.4723C661.903 14.4723 661.698 14.5194 661.512 14.6137C661.331 14.7079 661.173 14.8378 661.04 15.0035C660.91 15.1692 660.808 15.3594 660.733 15.5738C660.661 15.785 660.626 16.0092 660.626 16.2464Z" fill="white"/>
</g>
<g opacity="0.7">
<path d="M579.965 17.9389C580.116 17.9346 580.255 17.8784 580.368 17.7575L583.665 14.3986C583.76 14.3035 583.812 14.1827 583.812 14.0402C583.812 13.7551 583.587 13.5264 583.301 13.5264C583.162 13.5264 583.027 13.5826 582.927 13.6819L579.969 16.7084L577.002 13.6819C576.902 13.5869 576.772 13.5264 576.629 13.5264C576.342 13.5264 576.117 13.7551 576.117 14.0402C576.117 14.1827 576.169 14.3035 576.264 14.3986L579.565 17.7575C579.682 17.8784 579.813 17.9389 579.965 17.9389Z" fill="white"/>
<path d="M544.333 18.3178V19.083H540.575V18.3178H544.333ZM540.765 11.9867V19.083H539.824V11.9867H540.765ZM543.836 15.0377V15.8029H540.575V15.0377H543.836ZM544.284 11.9867V12.7567H540.575V11.9867H544.284ZM548.587 18.0595V11.5967H549.495V19.083H548.666L548.587 18.0595ZM545.04 16.5047V16.4024C545.04 15.9994 545.089 15.6339 545.185 15.3057C545.286 14.9743 545.428 14.69 545.61 14.4529C545.795 14.2156 546.014 14.0336 546.267 13.907C546.524 13.777 546.81 13.712 547.126 13.712C547.457 13.712 547.746 13.7705 547.993 13.8874C548.243 14.0012 548.454 14.1685 548.627 14.3895C548.802 14.6072 548.941 14.8703 549.041 15.179C549.142 15.4877 549.211 15.837 549.251 16.2269V16.6753C549.215 17.062 549.145 17.4096 549.041 17.7183C548.941 18.027 548.802 18.2902 548.627 18.5079C548.454 18.7256 548.243 18.8929 547.993 19.0099C547.743 19.1236 547.45 19.1805 547.116 19.1805C546.807 19.1805 546.524 19.1138 546.267 18.9807C546.014 18.8474 545.795 18.6606 545.61 18.4202C545.428 18.1797 545.286 17.897 545.185 17.5721C545.089 17.2439 545.04 16.8881 545.04 16.5047ZM545.946 16.4024V16.5047C545.946 16.7679 545.972 17.0149 546.024 17.2455C546.079 17.4762 546.164 17.6793 546.277 17.8548C546.391 18.0302 546.536 18.1684 546.712 18.2691C546.886 18.3666 547.096 18.4153 547.339 18.4153C547.639 18.4153 547.884 18.3519 548.076 18.2252C548.271 18.0985 548.426 17.9312 548.544 17.7232C548.661 17.5152 548.752 17.2894 548.817 17.0457V15.8712C548.778 15.6924 548.721 15.5202 548.646 15.3545C548.574 15.1855 548.48 15.0361 548.364 14.9061C548.25 14.7729 548.108 14.6673 547.939 14.5893C547.774 14.5112 547.577 14.4723 547.349 14.4723C547.103 14.4723 546.89 14.5243 546.712 14.6282C546.536 14.7289 546.391 14.8687 546.277 15.0475C546.164 15.2228 546.079 15.4276 546.024 15.6615C545.972 15.8922 545.946 16.1392 545.946 16.4024ZM551.877 13.8094V19.083H550.971V13.8094H551.877ZM550.903 12.4107C550.903 12.2645 550.947 12.141 551.035 12.0403C551.126 11.9395 551.258 11.8891 551.434 11.8891C551.607 11.8891 551.737 11.9395 551.829 12.0403C551.923 12.141 551.97 12.2645 551.97 12.4107C551.97 12.5503 551.923 12.6706 551.829 12.7713C551.737 12.8688 551.607 12.9176 551.434 12.9176C551.258 12.9176 551.126 12.8688 551.035 12.7713C550.947 12.6706 550.903 12.5503 550.903 12.4107ZM555.532 13.8094V14.5016H552.682V13.8094H555.532ZM553.647 12.5276H554.548V17.7768C554.548 17.9555 554.576 18.0904 554.631 18.1813C554.687 18.2724 554.758 18.3325 554.846 18.3617C554.934 18.3909 555.027 18.4055 555.128 18.4055C555.203 18.4055 555.281 18.399 555.363 18.3861C555.447 18.3698 555.51 18.3568 555.552 18.347L555.557 19.083C555.486 19.1057 555.392 19.1269 555.275 19.1464C555.161 19.1691 555.022 19.1805 554.861 19.1805C554.639 19.1805 554.436 19.1366 554.251 19.0488C554.066 18.9612 553.918 18.815 553.808 18.6102C553.701 18.4023 553.647 18.1228 553.647 17.7719V12.5276ZM557.571 13.8094V19.083H556.663V13.8094H557.571ZM556.596 12.4107C556.596 12.2645 556.639 12.141 556.727 12.0403C556.818 11.9395 556.951 11.8891 557.127 11.8891C557.299 11.8891 557.431 11.9395 557.522 12.0403C557.616 12.141 557.663 12.2645 557.663 12.4107C557.663 12.5503 557.616 12.6706 557.522 12.7713C557.431 12.8688 557.299 12.9176 557.127 12.9176C556.951 12.9176 556.818 12.8688 556.727 12.7713C556.639 12.6706 556.596 12.5503 556.596 12.4107ZM559.919 14.9354V19.083H559.018V13.8094H559.871L559.919 14.9354ZM559.705 16.2464L559.33 16.2318C559.333 15.8712 559.386 15.5381 559.49 15.2326C559.595 14.924 559.741 14.6559 559.929 14.4284C560.118 14.201 560.342 14.0255 560.602 13.9021C560.865 13.7753 561.156 13.712 561.475 13.712C561.734 13.712 561.968 13.7477 562.176 13.8192C562.384 13.8874 562.562 13.9979 562.707 14.1506C562.857 14.3033 562.971 14.5016 563.049 14.7452C563.127 14.9857 563.165 15.2797 563.165 15.6274V19.083H562.259V15.6176C562.259 15.3415 562.218 15.1205 562.137 14.9548C562.056 14.7858 561.938 14.664 561.781 14.5893C561.625 14.5112 561.434 14.4723 561.206 14.4723C560.981 14.4723 560.777 14.5194 560.592 14.6137C560.411 14.7079 560.253 14.8378 560.119 15.0035C559.989 15.1692 559.886 15.3594 559.813 15.5738C559.741 15.785 559.705 16.0092 559.705 16.2464ZM567.952 13.8094H568.77V18.9709C568.77 19.4355 568.676 19.832 568.488 20.1601C568.299 20.4883 568.037 20.7369 567.698 20.9058C567.364 21.078 566.977 21.1642 566.538 21.1642C566.357 21.1642 566.142 21.1349 565.894 21.0764C565.651 21.0212 565.41 20.9253 565.174 20.7889C564.939 20.6556 564.743 20.4753 564.584 20.2478L565.057 19.7117C565.278 19.9781 565.508 20.1634 565.749 20.2673C565.992 20.3713 566.233 20.4233 566.47 20.4233C566.756 20.4233 567.002 20.3697 567.211 20.2625C567.419 20.1552 567.579 19.996 567.693 19.7848C567.81 19.5769 567.869 19.3202 567.869 19.0148V14.9694L567.952 13.8094ZM564.32 16.5047V16.4024C564.32 15.9994 564.367 15.6339 564.462 15.3057C564.559 14.9743 564.698 14.69 564.876 14.4529C565.058 14.2156 565.278 14.0336 565.534 13.907C565.791 13.777 566.08 13.712 566.402 13.712C566.733 13.712 567.022 13.7705 567.269 13.8874C567.52 14.0012 567.731 14.1685 567.903 14.3895C568.079 14.6072 568.216 14.8703 568.317 15.179C568.418 15.4877 568.488 15.837 568.527 16.2269V16.6753C568.491 17.062 568.421 17.4096 568.317 17.7183C568.216 18.027 568.079 18.2902 567.903 18.5079C567.731 18.7256 567.52 18.8929 567.269 19.0099C567.019 19.1236 566.727 19.1805 566.392 19.1805C566.077 19.1805 565.791 19.1138 565.534 18.9807C565.281 18.8474 565.063 18.6606 564.881 18.4202C564.699 18.1797 564.559 17.897 564.462 17.5721C564.367 17.2439 564.32 16.8881 564.32 16.5047ZM565.223 16.4024V16.5047C565.223 16.7679 565.249 17.0149 565.301 17.2455C565.356 17.4762 565.438 17.6793 565.549 17.8548C565.663 18.0302 565.807 18.1684 565.982 18.2691C566.158 18.3666 566.368 18.4153 566.611 18.4153C566.911 18.4153 567.157 18.3519 567.352 18.2252C567.547 18.0985 567.701 17.9312 567.815 17.7232C567.932 17.5152 568.024 17.2894 568.088 17.0457V15.8712C568.053 15.6924 567.997 15.5202 567.923 15.3545C567.851 15.1855 567.757 15.0361 567.639 14.9061C567.525 14.7729 567.385 14.6673 567.216 14.5893C567.046 14.5112 566.849 14.4723 566.621 14.4723C566.375 14.4723 566.161 14.5243 565.982 14.6282C565.807 14.7289 565.663 14.8687 565.549 15.0475C565.438 15.2228 565.356 15.4276 565.301 15.6615C565.249 15.8922 565.223 16.1392 565.223 16.4024Z" fill="white"/>
</g>
<mask id="mask1_172_184" style="mask-type:luminance" maskUnits="userSpaceOnUse" x="522" y="10" width="13" height="13">
<path d="M534.009 10.1553H522.031V22.1334H534.009V10.1553Z" fill="white"/>
</mask>
<g mask="url(#mask1_172_184)">
<g opacity="0.5">
<path d="M523.529 18.7646V20.6362H525.4L530.92 15.1163L529.049 13.2447L523.529 18.7646ZM532.368 13.6689C532.562 13.4743 532.562 13.1599 532.368 12.9652L531.2 11.7974C531.005 11.6027 530.691 11.6027 530.496 11.7974L529.583 12.7107L531.454 14.5823L532.368 13.6689Z" fill="white"/>
</g>
</g>
<mask id="mask2_172_184" style="mask-type:luminance" maskUnits="userSpaceOnUse" x="599" y="8" width="17" height="17">
<path d="M615.859 8.1582H599.889V24.129H615.859V8.1582Z" fill="white"/>
</mask>
<g mask="url(#mask2_172_184)">
<path d="M607.874 9.48926C604.201 9.48926 601.219 12.4704 601.219 16.1437C601.219 19.817 604.201 22.7982 607.874 22.7982C611.547 22.7982 614.529 19.817 614.529 16.1437C614.529 12.4704 611.547 9.48926 607.874 9.48926ZM606.543 19.471L603.216 16.1437L604.154 15.2054L606.543 17.5878L611.594 12.537L612.533 13.482L606.543 19.471Z" fill="#2AD986"/>
</g>
<path d="M334.375 9.15723H327.388C325.183 9.15723 323.395 10.9448 323.395 13.1499V19.139C323.395 21.3441 325.183 23.1316 327.388 23.1316H334.375C336.58 23.1316 338.368 21.3441 338.368 19.139V13.1499C338.368 10.9448 336.58 9.15723 334.375 9.15723Z" fill="black" fill-opacity="0.15"/>
<path d="M353.34 9.15723H346.353C344.148 9.15723 342.36 10.9448 342.36 13.1499V19.139C342.36 21.3441 344.148 23.1316 346.353 23.1316H353.34C355.545 23.1316 357.333 21.3441 357.333 19.139V13.1499C357.333 10.9448 355.545 9.15723 353.34 9.15723Z" fill="black" fill-opacity="0.15"/>
<path d="M372.305 9.15723H365.318C363.113 9.15723 361.325 10.9448 361.325 13.1499V19.139C361.325 21.3441 363.113 23.1316 365.318 23.1316H372.305C374.51 23.1316 376.298 21.3441 376.298 19.139V13.1499C376.298 10.9448 374.51 9.15723 372.305 9.15723Z" fill="black" fill-opacity="0.15"/>
<path d="M391.271 9.15723H384.284C382.079 9.15723 380.291 10.9448 380.291 13.1499V19.139C380.291 21.3441 382.079 23.1316 384.284 23.1316H391.271C393.476 23.1316 395.264 21.3441 395.264 19.139V13.1499C395.264 10.9448 393.476 9.15723 391.271 9.15723Z" fill="black" fill-opacity="0.15"/>
<mask id="mask3_172_184" style="mask-type:luminance" maskUnits="userSpaceOnUse" x="307" y="10" width="13" height="13">
<path d="M319.402 10.1553H307.424V22.1334H319.402V10.1553Z" fill="white"/>
</mask>
<g mask="url(#mask3_172_184)">
<g opacity="0.5">
<path d="M313.413 14.1477C313.962 14.1477 314.411 13.6985 314.411 13.1495C314.411 12.6005 313.962 12.1514 313.413 12.1514C312.864 12.1514 312.415 12.6005 312.415 13.1495C312.415 13.6985 312.864 14.1477 313.413 14.1477ZM313.413 15.1459C312.864 15.1459 312.415 15.5951 312.415 16.1441C312.415 16.6931 312.864 17.1422 313.413 17.1422C313.962 17.1422 314.411 16.6931 314.411 16.1441C314.411 15.5951 313.962 15.1459 313.413 15.1459ZM313.413 18.1404C312.864 18.1404 312.415 18.5896 312.415 19.1386C312.415 19.6876 312.864 20.1368 313.413 20.1368C313.962 20.1368 314.411 19.6876 314.411 19.1386C314.411 18.5896 313.962 18.1404 313.413 18.1404Z" fill="white"/>
</g>
</g>
<path d="M80.8389 9.15723H37.9175C35.7124 9.15723 33.9248 10.9448 33.9248 13.1499V19.139C33.9248 21.3441 35.7124 23.1316 37.9175 23.1316H80.8389C83.0441 23.1316 84.8316 21.3441 84.8316 19.139V13.1499C84.8316 10.9448 83.0441 9.15723 80.8389 9.15723Z" fill="black" fill-opacity="0.15"/>
<path opacity="0.5" d="M24.4827 17.8061C24.5486 17.5985 25.358 15.0837 25.358 15.0837C25.7476 14.0517 26.5031 13.085 27.9358 13.085L26.9197 15.5553L25.9036 18.0255C25.4838 19.016 24.7045 19.9235 23.2537 19.9235C23.2537 19.9235 22.6362 15.6947 22.6302 15.5998C22.5942 15.7006 21.725 17.9247 21.725 17.9247C21.3173 18.9509 20.538 19.9176 19.0931 19.9235L17.9541 13.085C18.8953 13.085 20.0584 13.8501 20.1423 15.1075C20.1423 15.1075 20.2861 17.6163 20.2921 17.812C20.3761 17.5985 21.3593 15.0778 21.3593 15.0778C21.749 14.0517 22.4863 13.0791 23.8652 13.0791C23.8652 13.0791 24.4587 17.5926 24.4827 17.8061Z" fill="white"/>
<mask id="mask4_172_184" style="mask-type:luminance" maskUnits="userSpaceOnUse" x="90" y="10" width="13" height="13">
<path d="M102.798 10.1553H90.8203V22.1334H102.798V10.1553Z" fill="white"/>
</mask>
<g mask="url(#mask4_172_184)">
<path d="M96.8098 12.4004C94.3143 12.4004 92.1832 13.9525 91.3198 16.1435C92.1832 18.3345 94.3143 19.8867 96.8098 19.8867C99.3052 19.8867 101.436 18.3345 102.3 16.1435C101.436 13.9525 99.3052 12.4004 96.8098 12.4004ZM96.8098 18.639C95.4323 18.639 94.3143 17.521 94.3143 16.1435C94.3143 14.7661 95.4323 13.6481 96.8098 13.6481C98.1873 13.6481 99.3052 14.7661 99.3052 16.1435C99.3052 17.521 98.1873 18.639 96.8098 18.639ZM96.8098 14.6463C95.9813 14.6463 95.3125 15.3151 95.3125 16.1435C95.3125 16.972 95.9813 17.6408 96.8098 17.6408C97.6383 17.6408 98.307 16.972 98.307 16.1435C98.307 15.3151 97.6383 14.6463 96.8098 14.6463Z" fill="#1D76E1"/>
</g>
<path d="M22.9447 46.0801H15.9575C13.7524 46.0801 11.9648 47.8677 11.9648 50.0728V56.0618C11.9648 58.2669 13.7524 60.0545 15.9575 60.0545H22.9447C25.1499 60.0545 26.9374 58.2669 26.9374 56.0618V50.0728C26.9374 47.8677 25.1499 46.0801 22.9447 46.0801Z" fill="black" fill-opacity="0.15"/>
<path d="M22.9447 64.0469H15.9575C13.7524 64.0469 11.9648 65.8345 11.9648 68.0396V74.0286C11.9648 76.2337 13.7524 78.0213 15.9575 78.0213H22.9447C25.1499 78.0213 26.9374 76.2337 26.9374 74.0286V68.0396C26.9374 65.8345 25.1499 64.0469 22.9447 64.0469Z" fill="black" fill-opacity="0.15"/>
<path d="M22.9447 82.0146H15.9575C13.7524 82.0146 11.9648 83.8022 11.9648 86.0073V91.9964C11.9648 94.2015 13.7524 95.9891 15.9575 95.9891H22.9447C25.1499 95.9891 26.9374 94.2015 26.9374 91.9964V86.0073C26.9374 83.8022 25.1499 82.0146 22.9447 82.0146Z" fill="black" fill-opacity="0.15"/>
<path d="M22.9447 99.9814H15.9575C13.7524 99.9814 11.9648 101.769 11.9648 103.974V109.963C11.9648 112.168 13.7524 113.956 15.9575 113.956H22.9447C25.1499 113.956 26.9374 112.168 26.9374 109.963V103.974C26.9374 101.769 25.1499 99.9814 22.9447 99.9814Z" fill="black" fill-opacity="0.15"/>
<path d="M22.9447 117.948H15.9575C13.7524 117.948 11.9648 119.736 11.9648 121.941V127.93C11.9648 130.135 13.7524 131.923 15.9575 131.923H22.9447C25.1499 131.923 26.9374 130.135 26.9374 127.93V121.941C26.9374 119.736 25.1499 117.948 22.9447 117.948Z" fill="black" fill-opacity="0.15"/>
<path d="M22.9447 135.916H15.9575C13.7524 135.916 11.9648 137.703 11.9648 139.908V145.897C11.9648 148.102 13.7524 149.89 15.9575 149.89H22.9447C25.1499 149.89 26.9374 148.102 26.9374 145.897V139.908C26.9374 137.703 25.1499 135.916 22.9447 135.916Z" fill="black" fill-opacity="0.15"/>
<path d="M22.9447 153.883H15.9575C13.7524 153.883 11.9648 155.67 11.9648 157.876V163.865C11.9648 166.07 13.7524 167.857 15.9575 167.857H22.9447C25.1499 167.857 26.9374 166.07 26.9374 163.865V157.876C26.9374 155.67 25.1499 153.883 22.9447 153.883Z" fill="black" fill-opacity="0.15"/>
<path d="M22.9447 171.85H15.9575C13.7524 171.85 11.9648 173.637 11.9648 175.842V181.831C11.9648 184.036 13.7524 185.824 15.9575 185.824H22.9447C25.1499 185.824 26.9374 184.036 26.9374 181.831V175.842C26.9374 173.637 25.1499 171.85 22.9447 171.85Z" fill="black" fill-opacity="0.15"/>
<path d="M22.9447 189.817H15.9575C13.7524 189.817 11.9648 191.604 11.9648 193.81V199.799C11.9648 202.004 13.7524 203.791 15.9575 203.791H22.9447C25.1499 203.791 26.9374 202.004 26.9374 199.799V193.81C26.9374 191.604 25.1499 189.817 22.9447 189.817Z" fill="black" fill-opacity="0.15"/>
<path d="M22.9447 207.784H15.9575C13.7524 207.784 11.9648 209.572 11.9648 211.777V218.764C11.9648 220.969 13.7524 222.757 15.9575 222.757H22.9447C25.1499 222.757 26.9374 220.969 26.9374 218.764V211.777C26.9374 209.572 25.1499 207.784 22.9447 207.784Z" fill="black" fill-opacity="0.15"/>
<path d="M22.9447 325.569H15.9575C13.7524 325.569 11.9648 327.356 11.9648 329.562V335.551C11.9648 337.756 13.7524 339.543 15.9575 339.543H22.9447C25.1499 339.543 26.9374 337.756 26.9374 335.551V329.562C26.9374 327.356 25.1499 325.569 22.9447 325.569Z" fill="black" fill-opacity="0.15"/>
<path d="M22.9447 343.536H15.9575C13.7524 343.536 11.9648 345.323 11.9648 347.528V353.517C11.9648 355.722 13.7524 357.51 15.9575 357.51H22.9447C25.1499 357.51 26.9374 355.722 26.9374 353.517V347.528C26.9374 345.323 25.1499 343.536 22.9447 343.536Z" fill="black" fill-opacity="0.15"/>
<path d="M22.9447 361.503H15.9575C13.7524 361.503 11.9648 363.291 11.9648 365.496V371.485C11.9648 373.69 13.7524 375.477 15.9575 375.477H22.9447C25.1499 375.477 26.9374 373.69 26.9374 371.485V365.496C26.9374 363.291 25.1499 361.503 22.9447 361.503Z" fill="black" fill-opacity="0.15"/>
<path d="M22.9447 379.47H15.9575C13.7524 379.47 11.9648 381.258 11.9648 383.463V389.452C11.9648 391.657 13.7524 393.445 15.9575 393.445H22.9447C25.1499 393.445 26.9374 391.657 26.9374 389.452V383.463C26.9374 381.258 25.1499 379.47 22.9447 379.47Z" fill="black" fill-opacity="0.15"/>
<path d="M22.9447 397.437H15.9575C13.7524 397.437 11.9648 399.225 11.9648 401.43V408.417C11.9648 410.622 13.7524 412.41 15.9575 412.41H22.9447C25.1499 412.41 26.9374 410.622 26.9374 408.417V401.43C26.9374 399.225 25.1499 397.437 22.9447 397.437Z" fill="black" fill-opacity="0.15"/>
<path opacity="0.1" d="M34.4238 32.1055V425.386" stroke="white" stroke-width="0.998173"/>
<path opacity="0.1" d="M43.4077 71.0352V129.927" stroke="white" stroke-width="0.998173"/>
<path opacity="0.1" d="M50.395 73.0312V129.927" stroke="white" stroke-width="0.998173"/>
<path opacity="0.1" d="M59.3779 90.998V130.925" stroke="white" stroke-width="0.998173"/>
<path opacity="0.1" d="M67.3638 108.965V130.925" stroke="white" stroke-width="0.998173"/>
<path opacity="0.3" d="M93.3159 37.0967H44.4055C43.5785 37.0967 42.9082 37.767 42.9082 38.5939C42.9082 39.4209 43.5785 40.0912 44.4055 40.0912H93.3159C94.1429 40.0912 94.8132 39.4209 94.8132 38.5939C94.8132 37.767 94.1429 37.0967 93.3159 37.0967Z" fill="white"/>
<path opacity="0.3" d="M123.261 46.0801H44.4055C43.5785 46.0801 42.9082 46.7504 42.9082 47.5773C42.9082 48.4043 43.5785 49.0746 44.4055 49.0746H123.261C124.088 49.0746 124.758 48.4043 124.758 47.5773C124.758 46.7504 124.088 46.0801 123.261 46.0801Z" fill="white"/>
<path opacity="0.3" d="M102.3 55.0635H44.4055C43.5785 55.0635 42.9082 55.7338 42.9082 56.5607C42.9082 57.3877 43.5785 58.058 44.4055 58.058H102.3C103.126 58.058 103.797 57.3877 103.797 56.5607C103.797 55.7338 103.126 55.0635 102.3 55.0635Z" fill="white"/>
<path opacity="0.3" d="M112.281 64.0469H44.4055C43.5785 64.0469 42.9082 64.7172 42.9082 65.5441C42.9082 66.371 43.5785 67.0414 44.4055 67.0414H112.281C113.108 67.0414 113.778 66.371 113.778 65.5441C113.778 64.7172 113.108 64.0469 112.281 64.0469Z" fill="white"/>
<path opacity="0.3" d="M104.296 73.0312H54.3874C53.5605 73.0312 52.8901 73.7016 52.8901 74.5285C52.8901 75.3554 53.5605 76.0258 54.3874 76.0258H104.296C105.123 76.0258 105.793 75.3554 105.793 74.5285C105.793 73.7016 105.123 73.0312 104.296 73.0312Z" fill="white"/>
<path opacity="0.3" d="M93.3162 82.0146H54.3874C53.5605 82.0146 52.8901 82.685 52.8901 83.5119C52.8901 84.3388 53.5605 85.0092 54.3874 85.0092H93.3162C94.1431 85.0092 94.8134 84.3388 94.8134 83.5119C94.8134 82.685 94.1431 82.0146 93.3162 82.0146Z" fill="white"/>
<path opacity="0.3" d="M103.298 90.998H64.3688C63.5419 90.998 62.8716 91.6684 62.8716 92.4953C62.8716 93.3222 63.5419 93.9926 64.3688 93.9926H103.298C104.125 93.9926 104.795 93.3222 104.795 92.4953C104.795 91.6684 104.125 90.998 103.298 90.998Z" fill="white"/>
<path opacity="0.3" d="M90.3213 99.9814H64.3688C63.5419 99.9814 62.8716 100.652 62.8716 101.479C62.8716 102.306 63.5419 102.976 64.3688 102.976H90.3213C91.1483 102.976 91.8186 102.306 91.8186 101.479C91.8186 100.652 91.1483 99.9814 90.3213 99.9814Z" fill="white"/>
<path opacity="0.3" d="M118.271 108.965H74.3513C73.5243 108.965 72.854 109.635 72.854 110.462C72.854 111.289 73.5243 111.959 74.3513 111.959H118.271C119.098 111.959 119.768 111.289 119.768 110.462C119.768 109.635 119.098 108.965 118.271 108.965Z" fill="white"/>
<path opacity="0.3" d="M105.295 117.948H74.3513C73.5243 117.948 72.854 118.619 72.854 119.446C72.854 120.272 73.5243 120.943 74.3513 120.943H105.295C106.122 120.943 106.792 120.272 106.792 119.446C106.792 118.619 106.122 117.948 105.295 117.948Z" fill="white"/>
<path opacity="0.3" d="M112.282 126.932H74.3513C73.5243 126.932 72.854 127.602 72.854 128.429C72.854 129.256 73.5243 129.927 74.3513 129.927H112.282C113.109 129.927 113.779 129.256 113.779 128.429C113.779 127.602 113.109 126.932 112.282 126.932Z" fill="white"/>
<path d="M575.933 32.1055H138.733V425.386H575.933V32.1055Z" fill="white" fill-opacity="0.15"/>
<path d="M203.684 168.769H202.277C202.223 168.469 202.122 168.204 201.975 167.976C201.828 167.747 201.647 167.553 201.434 167.394C201.22 167.235 200.981 167.114 200.717 167.033C200.455 166.952 200.177 166.912 199.883 166.912C199.351 166.912 198.874 167.045 198.454 167.313C198.036 167.58 197.705 167.973 197.462 168.49C197.221 169.007 197.101 169.638 197.101 170.383C197.101 171.135 197.221 171.769 197.462 172.286C197.705 172.803 198.037 173.194 198.458 173.458C198.879 173.723 199.352 173.855 199.878 173.855C200.17 173.855 200.446 173.816 200.708 173.738C200.972 173.656 201.211 173.538 201.425 173.381C201.638 173.225 201.819 173.034 201.966 172.809C202.116 172.58 202.22 172.319 202.277 172.024L203.684 172.029C203.608 172.483 203.463 172.9 203.246 173.282C203.033 173.661 202.758 173.989 202.421 174.265C202.088 174.539 201.706 174.751 201.276 174.901C200.846 175.051 200.377 175.126 199.869 175.126C199.07 175.126 198.357 174.937 197.732 174.558C197.107 174.176 196.614 173.631 196.253 172.922C195.896 172.212 195.717 171.366 195.717 170.383C195.717 169.397 195.897 168.551 196.258 167.845C196.619 167.135 197.112 166.591 197.737 166.213C198.362 165.831 199.073 165.64 199.869 165.64C200.359 165.64 200.816 165.711 201.24 165.852C201.667 165.99 202.05 166.195 202.39 166.465C202.729 166.733 203.01 167.06 203.233 167.448C203.455 167.833 203.605 168.273 203.684 168.769ZM208.16 175.14C207.51 175.14 206.944 174.991 206.46 174.693C205.976 174.396 205.6 173.98 205.333 173.445C205.065 172.91 204.931 172.284 204.931 171.569C204.931 170.851 205.065 170.222 205.333 169.684C205.6 169.146 205.976 168.729 206.46 168.431C206.944 168.133 207.51 167.985 208.16 167.985C208.809 167.985 209.375 168.133 209.859 168.431C210.343 168.729 210.719 169.146 210.986 169.684C211.254 170.222 211.388 170.851 211.388 171.569C211.388 172.284 211.254 172.91 210.986 173.445C210.719 173.98 210.343 174.396 209.859 174.693C209.375 174.991 208.809 175.14 208.16 175.14ZM208.164 174.008C208.585 174.008 208.934 173.897 209.21 173.674C209.487 173.452 209.691 173.156 209.823 172.786C209.958 172.417 210.026 172.009 210.026 171.564C210.026 171.123 209.958 170.717 209.823 170.347C209.691 169.974 209.487 169.675 209.21 169.45C208.934 169.224 208.585 169.112 208.164 169.112C207.74 169.112 207.389 169.224 207.109 169.45C206.833 169.675 206.627 169.974 206.491 170.347C206.359 170.717 206.293 171.123 206.293 171.564C206.293 172.009 206.359 172.417 206.491 172.786C206.627 173.156 206.833 173.452 207.109 173.674C207.389 173.897 207.74 174.008 208.164 174.008ZM212.892 175V168.075H214.186V169.202H214.272C214.416 168.82 214.652 168.523 214.98 168.309C215.308 168.093 215.7 167.985 216.157 167.985C216.62 167.985 217.007 168.093 217.32 168.309C217.636 168.526 217.868 168.823 218.019 169.202H218.091C218.256 168.832 218.519 168.538 218.88 168.318C219.241 168.096 219.67 167.985 220.169 167.985C220.798 167.985 221.31 168.181 221.707 168.575C222.107 168.969 222.306 169.563 222.306 170.356V175H220.958V170.482C220.958 170.013 220.831 169.674 220.575 169.463C220.32 169.253 220.015 169.148 219.66 169.148C219.221 169.148 218.88 169.283 218.636 169.554C218.393 169.821 218.271 170.165 218.271 170.586V175H216.928V170.397C216.928 170.021 216.81 169.719 216.576 169.49C216.342 169.262 216.036 169.148 215.661 169.148C215.405 169.148 215.169 169.215 214.953 169.351C214.74 169.483 214.567 169.668 214.434 169.905C214.305 170.143 214.241 170.418 214.241 170.73V175H212.892ZM229.489 175.153C229.05 175.153 228.653 175.072 228.298 174.91C227.944 174.745 227.663 174.506 227.455 174.193C227.251 173.88 227.149 173.497 227.149 173.043C227.149 172.653 227.224 172.331 227.374 172.078C227.524 171.826 227.727 171.626 227.983 171.479C228.238 171.331 228.524 171.22 228.839 171.145C229.155 171.07 229.477 171.013 229.804 170.974C230.219 170.926 230.556 170.887 230.814 170.857C231.073 170.824 231.261 170.771 231.378 170.699C231.495 170.627 231.554 170.509 231.554 170.347V170.316C231.554 169.922 231.442 169.617 231.22 169.4C231.001 169.184 230.673 169.076 230.237 169.076C229.783 169.076 229.426 169.176 229.164 169.378C228.906 169.576 228.727 169.797 228.628 170.041L227.361 169.752C227.511 169.331 227.73 168.992 228.019 168.733C228.31 168.472 228.646 168.282 229.024 168.165C229.403 168.045 229.801 167.985 230.219 167.985C230.496 167.985 230.789 168.018 231.098 168.084C231.411 168.147 231.702 168.264 231.973 168.435C232.246 168.607 232.47 168.852 232.645 169.17C232.819 169.486 232.906 169.896 232.906 170.401V175H231.59V174.053H231.536C231.448 174.228 231.318 174.399 231.143 174.567C230.969 174.735 230.745 174.875 230.472 174.986C230.198 175.098 229.87 175.153 229.489 175.153ZM229.782 174.071C230.154 174.071 230.473 173.998 230.738 173.85C231.005 173.703 231.208 173.511 231.346 173.273C231.488 173.033 231.558 172.776 231.558 172.502V171.61C231.51 171.658 231.417 171.703 231.279 171.745C231.143 171.784 230.989 171.818 230.814 171.848C230.64 171.876 230.47 171.901 230.305 171.925C230.139 171.946 230.001 171.964 229.89 171.979C229.628 172.012 229.39 172.068 229.173 172.146C228.96 172.224 228.788 172.337 228.659 172.484C228.533 172.628 228.47 172.821 228.47 173.061C228.47 173.395 228.593 173.647 228.839 173.819C229.086 173.987 229.4 174.071 229.782 174.071ZM239.891 169.765L238.669 169.982C238.618 169.826 238.537 169.677 238.426 169.536C238.318 169.394 238.17 169.279 237.984 169.188C237.798 169.098 237.565 169.053 237.285 169.053C236.904 169.053 236.585 169.139 236.329 169.31C236.074 169.478 235.946 169.696 235.946 169.964C235.946 170.195 236.032 170.382 236.203 170.523C236.374 170.664 236.651 170.78 237.033 170.87L238.133 171.123C238.77 171.27 239.245 171.497 239.558 171.803C239.87 172.11 240.026 172.508 240.026 172.998C240.026 173.413 239.906 173.783 239.666 174.107C239.428 174.429 239.096 174.681 238.669 174.865C238.246 175.048 237.754 175.14 237.195 175.14C236.42 175.14 235.787 174.974 235.297 174.644C234.807 174.31 234.506 173.837 234.395 173.224L235.698 173.025C235.779 173.365 235.946 173.622 236.199 173.796C236.451 173.968 236.78 174.053 237.186 174.053C237.628 174.053 237.981 173.962 238.246 173.778C238.51 173.592 238.642 173.365 238.642 173.097C238.642 172.881 238.561 172.699 238.399 172.552C238.24 172.405 237.995 172.293 237.664 172.218L236.492 171.961C235.845 171.814 235.368 171.579 235.058 171.258C234.751 170.936 234.598 170.529 234.598 170.036C234.598 169.627 234.712 169.27 234.941 168.963C235.169 168.656 235.485 168.417 235.888 168.246C236.29 168.072 236.752 167.985 237.272 167.985C238.02 167.985 238.609 168.147 239.039 168.472C239.469 168.793 239.753 169.224 239.891 169.765ZM244.869 175V168.075H246.163V169.202H246.248C246.393 168.82 246.629 168.523 246.956 168.309C247.284 168.093 247.676 167.985 248.133 167.985C248.596 167.985 248.984 168.093 249.296 168.309C249.612 168.526 249.845 168.823 249.995 169.202H250.067C250.233 168.832 250.496 168.538 250.856 168.318C251.217 168.096 251.647 167.985 252.146 167.985C252.774 167.985 253.286 168.181 253.683 168.575C254.083 168.969 254.283 169.563 254.283 170.356V175H252.935V170.482C252.935 170.013 252.807 169.674 252.551 169.463C252.296 169.253 251.991 169.148 251.636 169.148C251.197 169.148 250.856 169.283 250.613 169.554C250.369 169.821 250.248 170.165 250.248 170.586V175H248.904V170.397C248.904 170.021 248.787 169.719 248.552 169.49C248.318 169.262 248.013 169.148 247.637 169.148C247.382 169.148 247.146 169.215 246.929 169.351C246.716 169.483 246.543 169.668 246.411 169.905C246.281 170.143 246.217 170.418 246.217 170.73V175H244.869ZM259.074 175.14C258.392 175.14 257.804 174.994 257.311 174.702C256.821 174.408 256.443 173.995 256.175 173.463C255.911 172.928 255.778 172.301 255.778 171.582C255.778 170.873 255.911 170.248 256.175 169.707C256.443 169.166 256.815 168.744 257.293 168.44C257.774 168.136 258.336 167.985 258.98 167.985C259.37 167.985 259.749 168.049 260.116 168.178C260.482 168.308 260.812 168.511 261.103 168.787C261.395 169.064 261.625 169.423 261.793 169.865C261.961 170.304 262.045 170.837 262.045 171.465V171.943H256.54V170.933H260.724C260.724 170.579 260.652 170.264 260.508 169.991C260.364 169.714 260.161 169.496 259.899 169.337C259.641 169.178 259.337 169.098 258.989 169.098C258.61 169.098 258.279 169.191 257.997 169.378C257.717 169.561 257.501 169.802 257.347 170.099C257.197 170.394 257.122 170.714 257.122 171.059V171.848C257.122 172.311 257.203 172.705 257.366 173.03C257.531 173.354 257.761 173.602 258.055 173.774C258.35 173.942 258.694 174.026 259.088 174.026C259.343 174.026 259.576 173.99 259.787 173.918C259.997 173.843 260.179 173.732 260.332 173.584C260.485 173.437 260.603 173.255 260.684 173.039L261.96 173.269C261.858 173.644 261.674 173.974 261.41 174.256C261.148 174.536 260.819 174.754 260.422 174.91C260.029 175.063 259.579 175.14 259.074 175.14ZM264.889 165.766V175H263.541V165.766H264.889ZM268.051 170.888V175H266.703V165.766H268.033V169.202H268.119C268.281 168.829 268.529 168.533 268.863 168.314C269.196 168.094 269.632 167.985 270.17 167.985C270.645 167.985 271.06 168.082 271.414 168.278C271.772 168.473 272.049 168.765 272.244 169.152C272.442 169.537 272.542 170.018 272.542 170.595V175H271.193V170.757C271.193 170.249 271.063 169.856 270.801 169.576C270.54 169.294 270.176 169.152 269.71 169.152C269.392 169.152 269.106 169.22 268.853 169.355C268.604 169.49 268.407 169.689 268.263 169.95C268.122 170.209 268.051 170.521 268.051 170.888ZM277.258 175.14C276.608 175.14 276.042 174.991 275.558 174.693C275.074 174.396 274.698 173.98 274.431 173.445C274.163 172.91 274.029 172.284 274.029 171.569C274.029 170.851 274.163 170.222 274.431 169.684C274.698 169.146 275.074 168.729 275.558 168.431C276.042 168.133 276.608 167.985 277.258 167.985C277.907 167.985 278.473 168.133 278.957 168.431C279.441 168.729 279.817 169.146 280.084 169.684C280.352 170.222 280.486 170.851 280.486 171.569C280.486 172.284 280.352 172.91 280.084 173.445C279.817 173.98 279.441 174.396 278.957 174.693C278.473 174.991 277.907 175.14 277.258 175.14ZM277.262 174.008C277.683 174.008 278.032 173.897 278.308 173.674C278.585 173.452 278.789 173.156 278.921 172.786C279.057 172.417 279.124 172.009 279.124 171.564C279.124 171.123 279.057 170.717 278.921 170.347C278.789 169.974 278.585 169.675 278.308 169.45C278.032 169.224 277.683 169.112 277.262 169.112C276.838 169.112 276.487 169.224 276.207 169.45C275.931 169.675 275.725 169.974 275.589 170.347C275.457 170.717 275.391 171.123 275.391 171.564C275.391 172.009 275.457 172.417 275.589 172.786C275.725 173.156 275.931 173.452 276.207 173.674C276.487 173.897 276.838 174.008 277.262 174.008ZM281.99 175V168.075H283.293V169.175H283.366C283.492 168.802 283.714 168.509 284.033 168.296C284.355 168.079 284.718 167.971 285.124 167.971C285.208 167.971 285.307 167.974 285.422 167.98C285.539 167.986 285.63 167.994 285.697 168.003V169.292C285.642 169.277 285.546 169.261 285.408 169.242C285.27 169.221 285.131 169.211 284.993 169.211C284.675 169.211 284.391 169.279 284.141 169.414C283.895 169.546 283.699 169.731 283.555 169.968C283.411 170.203 283.339 170.47 283.339 170.771V175H281.99ZM289.6 175.14C288.918 175.14 288.33 174.994 287.837 174.702C287.347 174.408 286.968 173.995 286.701 173.463C286.436 172.928 286.304 172.301 286.304 171.582C286.304 170.873 286.436 170.248 286.701 169.707C286.968 169.166 287.341 168.744 287.819 168.44C288.3 168.136 288.862 167.985 289.505 167.985C289.896 167.985 290.275 168.049 290.641 168.178C291.008 168.308 291.337 168.511 291.629 168.787C291.92 169.064 292.15 169.423 292.319 169.865C292.487 170.304 292.571 170.837 292.571 171.465V171.943H287.066V170.933H291.25C291.25 170.579 291.178 170.264 291.034 169.991C290.889 169.714 290.686 169.496 290.425 169.337C290.166 169.178 289.863 169.098 289.514 169.098C289.136 169.098 288.805 169.191 288.522 169.378C288.243 169.561 288.026 169.802 287.873 170.099C287.723 170.394 287.648 170.714 287.648 171.059V171.848C287.648 172.311 287.729 172.705 287.891 173.03C288.056 173.354 288.286 173.602 288.581 173.774C288.876 173.942 289.22 174.026 289.613 174.026C289.869 174.026 290.102 173.99 290.312 173.918C290.523 173.843 290.705 173.732 290.858 173.584C291.011 173.437 291.128 173.255 291.209 173.039L292.485 173.269C292.383 173.644 292.2 173.974 291.935 174.256C291.674 174.536 291.345 174.754 290.948 174.91C290.554 175.063 290.105 175.14 289.6 175.14ZM299.256 169.765L298.034 169.982C297.983 169.826 297.902 169.677 297.791 169.536C297.683 169.394 297.535 169.279 297.349 169.188C297.163 169.098 296.93 169.053 296.65 169.053C296.269 169.053 295.95 169.139 295.694 169.31C295.439 169.478 295.311 169.696 295.311 169.964C295.311 170.195 295.397 170.382 295.568 170.523C295.74 170.664 296.016 170.78 296.398 170.87L297.498 171.123C298.135 171.27 298.61 171.497 298.923 171.803C299.235 172.11 299.392 172.508 299.392 172.998C299.392 173.413 299.271 173.783 299.031 174.107C298.793 174.429 298.461 174.681 298.034 174.865C297.611 175.048 297.119 175.14 296.56 175.14C295.785 175.14 295.152 174.974 294.662 174.644C294.172 174.31 293.871 173.837 293.76 173.224L295.063 173.025C295.144 173.365 295.311 173.622 295.564 173.796C295.816 173.968 296.145 174.053 296.551 174.053C296.993 174.053 297.346 173.962 297.611 173.778C297.875 173.592 298.007 173.365 298.007 173.097C298.007 172.881 297.926 172.699 297.764 172.552C297.605 172.405 297.36 172.293 297.029 172.218L295.857 171.961C295.211 171.814 294.733 171.579 294.423 171.258C294.116 170.936 293.963 170.529 293.963 170.036C293.963 169.627 294.077 169.27 294.306 168.963C294.534 168.656 294.85 168.417 295.253 168.246C295.655 168.072 296.117 167.985 296.637 167.985C297.385 167.985 297.974 168.147 298.404 168.472C298.834 168.793 299.118 169.224 299.256 169.765ZM307.466 168.075V169.157H303.684V168.075H307.466ZM304.698 166.416H306.046V172.967C306.046 173.228 306.085 173.425 306.163 173.557C306.242 173.686 306.342 173.775 306.466 173.823C306.592 173.868 306.729 173.891 306.876 173.891C306.984 173.891 307.079 173.883 307.16 173.868C307.241 173.853 307.304 173.841 307.349 173.832L307.593 174.946C307.515 174.976 307.403 175.006 307.259 175.036C307.115 175.069 306.934 175.087 306.718 175.09C306.363 175.096 306.033 175.033 305.726 174.901C305.42 174.769 305.172 174.564 304.982 174.288C304.793 174.011 304.698 173.664 304.698 173.246V166.416ZM311.868 175.14C311.186 175.14 310.598 174.994 310.105 174.702C309.615 174.408 309.236 173.995 308.969 173.463C308.704 172.928 308.572 172.301 308.572 171.582C308.572 170.873 308.704 170.248 308.969 169.707C309.236 169.166 309.609 168.744 310.087 168.44C310.568 168.136 311.13 167.985 311.773 167.985C312.164 167.985 312.543 168.049 312.909 168.178C313.276 168.308 313.605 168.511 313.897 168.787C314.188 169.064 314.418 169.423 314.587 169.865C314.755 170.304 314.839 170.837 314.839 171.465V171.943H309.334V170.933H313.518C313.518 170.579 313.446 170.264 313.302 169.991C313.157 169.714 312.955 169.496 312.693 169.337C312.435 169.178 312.131 169.098 311.782 169.098C311.404 169.098 311.073 169.191 310.79 169.378C310.511 169.561 310.294 169.802 310.141 170.099C309.991 170.394 309.916 170.714 309.916 171.059V171.848C309.916 172.311 309.997 172.705 310.159 173.03C310.325 173.354 310.554 173.602 310.849 173.774C311.144 173.942 311.488 174.026 311.882 174.026C312.137 174.026 312.37 173.99 312.58 173.918C312.791 173.843 312.973 173.732 313.126 173.584C313.279 173.437 313.396 173.255 313.478 173.039L314.754 173.269C314.651 173.644 314.468 173.974 314.203 174.256C313.942 174.536 313.613 174.754 313.216 174.91C312.822 175.063 312.373 175.14 311.868 175.14ZM319.252 175.14C318.582 175.14 318.005 174.988 317.521 174.684C317.04 174.378 316.67 173.956 316.412 173.417C316.153 172.879 316.024 172.263 316.024 171.569C316.024 170.866 316.156 170.245 316.421 169.707C316.685 169.166 317.058 168.744 317.539 168.44C318.02 168.136 318.586 167.985 319.238 167.985C319.764 167.985 320.233 168.082 320.645 168.278C321.057 168.47 321.389 168.741 321.642 169.089C321.897 169.438 322.049 169.845 322.097 170.311H320.785C320.713 169.986 320.547 169.707 320.289 169.472C320.033 169.238 319.691 169.121 319.261 169.121C318.885 169.121 318.556 169.22 318.274 169.418C317.994 169.614 317.776 169.893 317.62 170.257C317.464 170.618 317.385 171.044 317.385 171.537C317.385 172.042 317.462 172.478 317.615 172.845C317.769 173.212 317.985 173.496 318.265 173.697C318.547 173.898 318.879 173.999 319.261 173.999C319.516 173.999 319.748 173.952 319.955 173.859C320.166 173.763 320.342 173.626 320.483 173.449C320.627 173.272 320.728 173.058 320.785 172.809H322.097C322.049 173.257 321.903 173.656 321.66 174.008C321.416 174.36 321.09 174.636 320.681 174.838C320.275 175.039 319.799 175.14 319.252 175.14ZM324.887 170.888V175H323.539V168.075H324.833V169.202H324.918C325.078 168.835 325.327 168.541 325.667 168.318C326.009 168.096 326.441 167.985 326.961 167.985C327.433 167.985 327.846 168.084 328.2 168.282C328.555 168.478 328.83 168.769 329.026 169.157C329.221 169.545 329.319 170.024 329.319 170.595V175H327.971V170.757C327.971 170.255 327.84 169.863 327.578 169.581C327.317 169.295 326.958 169.152 326.501 169.152C326.188 169.152 325.91 169.22 325.667 169.355C325.426 169.49 325.235 169.689 325.094 169.95C324.956 170.209 324.887 170.521 324.887 170.888ZM334.044 175.14C333.394 175.14 332.828 174.991 332.344 174.693C331.86 174.396 331.484 173.98 331.217 173.445C330.949 172.91 330.815 172.284 330.815 171.569C330.815 170.851 330.949 170.222 331.217 169.684C331.484 169.146 331.86 168.729 332.344 168.431C332.828 168.133 333.394 167.985 334.044 167.985C334.693 167.985 335.259 168.133 335.743 168.431C336.227 168.729 336.603 169.146 336.871 169.684C337.138 170.222 337.272 170.851 337.272 171.569C337.272 172.284 337.138 172.91 336.871 173.445C336.603 173.98 336.227 174.396 335.743 174.693C335.259 174.991 334.693 175.14 334.044 175.14ZM334.048 174.008C334.469 174.008 334.818 173.897 335.094 173.674C335.371 173.452 335.575 173.156 335.707 172.786C335.843 172.417 335.91 172.009 335.91 171.564C335.91 171.123 335.843 170.717 335.707 170.347C335.575 169.974 335.371 169.675 335.094 169.45C334.818 169.224 334.469 169.112 334.048 169.112C333.624 169.112 333.273 169.224 332.993 169.45C332.717 169.675 332.511 169.974 332.375 170.347C332.243 170.717 332.177 171.123 332.177 171.564C332.177 172.009 332.243 172.417 332.375 172.786C332.511 173.156 332.717 173.452 332.993 173.674C333.273 173.897 333.624 174.008 334.048 174.008ZM340.125 165.766V175H338.777V165.766H340.125ZM344.855 175.14C344.206 175.14 343.639 174.991 343.156 174.693C342.672 174.396 342.296 173.98 342.028 173.445C341.761 172.91 341.627 172.284 341.627 171.569C341.627 170.851 341.761 170.222 342.028 169.684C342.296 169.146 342.672 168.729 343.156 168.431C343.639 168.133 344.206 167.985 344.855 167.985C345.505 167.985 346.071 168.133 346.555 168.431C347.039 168.729 347.415 169.146 347.682 169.684C347.95 170.222 348.083 170.851 348.083 171.569C348.083 172.284 347.95 172.91 347.682 173.445C347.415 173.98 347.039 174.396 346.555 174.693C346.071 174.991 345.505 175.14 344.855 175.14ZM344.86 174.008C345.281 174.008 345.629 173.897 345.906 173.674C346.182 173.452 346.387 173.156 346.519 172.786C346.654 172.417 346.722 172.009 346.722 171.564C346.722 171.123 346.654 170.717 346.519 170.347C346.387 169.974 346.182 169.675 345.906 169.45C345.629 169.224 345.281 169.112 344.86 169.112C344.436 169.112 344.084 169.224 343.805 169.45C343.528 169.675 343.322 169.974 343.187 170.347C343.055 170.717 342.989 171.123 342.989 171.564C342.989 172.009 343.055 172.417 343.187 172.786C343.322 173.156 343.528 173.452 343.805 173.674C344.084 173.897 344.436 174.008 344.86 174.008ZM352.492 177.741C351.942 177.741 351.468 177.669 351.072 177.525C350.678 177.381 350.356 177.19 350.107 176.952C349.857 176.715 349.671 176.455 349.548 176.172L350.706 175.694C350.788 175.827 350.896 175.966 351.031 176.114C351.169 176.264 351.356 176.392 351.59 176.497C351.828 176.602 352.133 176.655 352.505 176.655C353.016 176.655 353.439 176.53 353.772 176.28C354.106 176.034 354.273 175.64 354.273 175.099V173.738H354.187C354.106 173.885 353.989 174.049 353.835 174.229C353.685 174.409 353.478 174.566 353.213 174.698C352.949 174.83 352.605 174.896 352.181 174.896C351.634 174.896 351.141 174.769 350.702 174.513C350.266 174.255 349.92 173.874 349.665 173.372C349.412 172.867 349.286 172.247 349.286 171.51C349.286 170.774 349.411 170.143 349.66 169.617C349.913 169.091 350.259 168.688 350.697 168.408C351.136 168.126 351.634 167.985 352.19 167.985C352.62 167.985 352.967 168.057 353.231 168.201C353.496 168.342 353.702 168.508 353.849 168.697C353.999 168.886 354.115 169.053 354.196 169.197H354.295V168.075H355.616V175.153C355.616 175.748 355.478 176.237 355.201 176.619C354.925 177 354.551 177.283 354.079 177.466C353.61 177.65 353.081 177.741 352.492 177.741ZM352.478 173.778C352.866 173.778 353.194 173.688 353.461 173.508C353.732 173.324 353.936 173.063 354.074 172.723C354.216 172.38 354.286 171.97 354.286 171.492C354.286 171.026 354.217 170.616 354.079 170.261C353.941 169.907 353.738 169.63 353.47 169.432C353.203 169.23 352.872 169.13 352.478 169.13C352.073 169.13 351.734 169.235 351.464 169.445C351.193 169.653 350.989 169.935 350.851 170.293C350.715 170.651 350.648 171.05 350.648 171.492C350.648 171.946 350.717 172.344 350.855 172.687C350.993 173.03 351.198 173.297 351.468 173.49C351.742 173.682 352.079 173.778 352.478 173.778ZM357.424 175V168.075H358.772V175H357.424ZM358.105 167.006C357.871 167.006 357.669 166.928 357.501 166.772C357.336 166.612 357.253 166.423 357.253 166.204C357.253 165.981 357.336 165.792 357.501 165.636C357.669 165.476 357.871 165.397 358.105 165.397C358.339 165.397 358.539 165.476 358.705 165.636C358.873 165.792 358.957 165.981 358.957 166.204C358.957 166.423 358.873 166.612 358.705 166.772C358.539 166.928 358.339 167.006 358.105 167.006ZM362.601 175.153C362.162 175.153 361.766 175.072 361.411 174.91C361.056 174.745 360.775 174.506 360.568 174.193C360.363 173.88 360.261 173.497 360.261 173.043C360.261 172.653 360.336 172.331 360.487 172.078C360.637 171.826 360.84 171.626 361.095 171.479C361.351 171.331 361.636 171.22 361.952 171.145C362.268 171.07 362.589 171.013 362.917 170.974C363.332 170.926 363.668 170.887 363.927 170.857C364.185 170.824 364.373 170.771 364.49 170.699C364.608 170.627 364.666 170.509 364.666 170.347V170.316C364.666 169.922 364.555 169.617 364.333 169.4C364.113 169.184 363.786 169.076 363.35 169.076C362.896 169.076 362.538 169.176 362.277 169.378C362.018 169.576 361.839 169.797 361.74 170.041L360.473 169.752C360.623 169.331 360.843 168.992 361.131 168.733C361.423 168.472 361.758 168.282 362.137 168.165C362.516 168.045 362.914 167.985 363.332 167.985C363.608 167.985 363.901 168.018 364.211 168.084C364.523 168.147 364.815 168.264 365.086 168.435C365.359 168.607 365.583 168.852 365.757 169.17C365.932 169.486 366.019 169.896 366.019 170.401V175H364.702V174.053H364.648C364.561 174.228 364.43 174.399 364.256 174.567C364.082 174.735 363.858 174.875 363.584 174.986C363.311 175.098 362.983 175.153 362.601 175.153ZM362.894 174.071C363.267 174.071 363.586 173.998 363.85 173.85C364.118 173.703 364.321 173.511 364.459 173.273C364.6 173.033 364.671 172.776 364.671 172.502V171.61C364.623 171.658 364.529 171.703 364.391 171.745C364.256 171.784 364.101 171.818 363.927 171.848C363.752 171.876 363.583 171.901 363.417 171.925C363.252 171.946 363.114 171.964 363.003 171.979C362.741 172.012 362.502 172.068 362.286 172.146C362.072 172.224 361.901 172.337 361.772 172.484C361.645 172.628 361.582 172.821 361.582 173.061C361.582 173.395 361.706 173.647 361.952 173.819C362.199 173.987 362.513 174.071 362.894 174.071ZM373.004 169.765L371.782 169.982C371.731 169.826 371.65 169.677 371.538 169.536C371.43 169.394 371.283 169.279 371.097 169.188C370.91 169.098 370.677 169.053 370.398 169.053C370.016 169.053 369.697 169.139 369.442 169.31C369.186 169.478 369.059 169.696 369.059 169.964C369.059 170.195 369.144 170.382 369.316 170.523C369.487 170.664 369.764 170.78 370.145 170.87L371.245 171.123C371.883 171.27 372.358 171.497 372.67 171.803C372.983 172.11 373.139 172.508 373.139 172.998C373.139 173.413 373.019 173.783 372.778 174.107C372.541 174.429 372.209 174.681 371.782 174.865C371.358 175.048 370.867 175.14 370.308 175.14C369.532 175.14 368.899 174.974 368.409 174.644C367.92 174.31 367.619 173.837 367.508 173.224L368.811 173.025C368.892 173.365 369.059 173.622 369.311 173.796C369.564 173.968 369.893 174.053 370.299 174.053C370.74 174.053 371.094 173.962 371.358 173.778C371.623 173.592 371.755 173.365 371.755 173.097C371.755 172.881 371.674 172.699 371.511 172.552C371.352 172.405 371.107 172.293 370.777 172.218L369.604 171.961C368.958 171.814 368.48 171.579 368.171 171.258C367.864 170.936 367.711 170.529 367.711 170.036C367.711 169.627 367.825 169.27 368.053 168.963C368.282 168.656 368.597 168.417 369 168.246C369.403 168.072 369.864 167.985 370.384 167.985C371.133 167.985 371.722 168.147 372.152 168.472C372.581 168.793 372.866 169.224 373.004 169.765ZM196.014 190V180.766H197.408V184.779H202.011V180.766H203.409V190H202.011V185.974H197.408V190H196.014ZM205.329 190V183.075H206.677V190H205.329ZM206.01 182.006C205.776 182.006 205.574 181.928 205.406 181.772C205.241 181.612 205.158 181.423 205.158 181.204C205.158 180.981 205.241 180.792 205.406 180.636C205.574 180.476 205.776 180.397 206.01 180.397C206.245 180.397 206.444 180.476 206.61 180.636C206.778 180.792 206.862 180.981 206.862 181.204C206.862 181.423 206.778 181.612 206.61 181.772C206.444 181.928 206.245 182.006 206.01 182.006ZM211.394 192.741C210.844 192.741 210.371 192.669 209.974 192.525C209.581 192.381 209.259 192.19 209.009 191.952C208.76 191.715 208.574 191.455 208.45 191.172L209.609 190.694C209.69 190.827 209.798 190.966 209.934 191.114C210.072 191.264 210.258 191.392 210.493 191.497C210.73 191.602 211.035 191.655 211.408 191.655C211.919 191.655 212.341 191.53 212.675 191.28C213.009 191.034 213.175 190.64 213.175 190.099V188.738H213.09C213.009 188.885 212.891 189.049 212.738 189.229C212.588 189.409 212.38 189.566 212.116 189.698C211.851 189.83 211.507 189.896 211.083 189.896C210.536 189.896 210.043 189.769 209.605 189.513C209.169 189.255 208.823 188.874 208.568 188.372C208.315 187.867 208.189 187.247 208.189 186.51C208.189 185.774 208.314 185.143 208.563 184.617C208.816 184.091 209.161 183.688 209.6 183.408C210.039 183.126 210.536 182.985 211.092 182.985C211.522 182.985 211.869 183.057 212.134 183.201C212.398 183.342 212.604 183.508 212.752 183.697C212.902 183.886 213.018 184.053 213.099 184.197H213.198V183.075H214.519V190.153C214.519 190.748 214.381 191.237 214.104 191.619C213.828 192 213.453 192.283 212.982 192.466C212.513 192.65 211.984 192.741 211.394 192.741ZM211.381 188.778C211.769 188.778 212.096 188.688 212.364 188.508C212.634 188.324 212.839 188.063 212.977 187.723C213.118 187.38 213.189 186.97 213.189 186.492C213.189 186.026 213.12 185.616 212.982 185.261C212.843 184.907 212.64 184.63 212.373 184.432C212.105 184.23 211.775 184.13 211.381 184.13C210.975 184.13 210.637 184.235 210.367 184.445C210.096 184.653 209.892 184.935 209.753 185.293C209.618 185.651 209.55 186.05 209.55 186.492C209.55 186.946 209.62 187.344 209.758 187.687C209.896 188.03 210.101 188.297 210.371 188.49C210.645 188.682 210.981 188.778 211.381 188.778ZM217.675 185.888V190H216.327V180.766H217.657V184.202H217.743C217.905 183.829 218.153 183.533 218.487 183.314C218.82 183.094 219.256 182.985 219.794 182.985C220.269 182.985 220.684 183.082 221.038 183.278C221.396 183.473 221.673 183.765 221.868 184.152C222.066 184.537 222.166 185.018 222.166 185.595V190H220.817V185.757C220.817 185.249 220.687 184.856 220.425 184.576C220.164 184.294 219.8 184.152 219.334 184.152C219.016 184.152 218.73 184.22 218.478 184.355C218.228 184.49 218.031 184.689 217.887 184.95C217.746 185.209 217.675 185.521 217.675 185.888ZM231.742 183.769H230.335C230.281 183.469 230.18 183.204 230.033 182.976C229.886 182.747 229.705 182.553 229.492 182.394C229.279 182.235 229.04 182.114 228.775 182.033C228.514 181.952 228.236 181.912 227.941 181.912C227.409 181.912 226.933 182.045 226.512 182.313C226.094 182.58 225.763 182.973 225.52 183.49C225.28 184.007 225.159 184.638 225.159 185.383C225.159 186.135 225.28 186.769 225.52 187.286C225.763 187.803 226.096 188.194 226.516 188.458C226.937 188.723 227.411 188.855 227.937 188.855C228.228 188.855 228.505 188.816 228.766 188.738C229.031 188.656 229.27 188.538 229.483 188.381C229.696 188.225 229.877 188.034 230.024 187.809C230.174 187.58 230.278 187.319 230.335 187.024L231.742 187.029C231.667 187.483 231.521 187.9 231.305 188.282C231.091 188.661 230.816 188.989 230.479 189.265C230.146 189.539 229.764 189.751 229.334 189.901C228.904 190.051 228.436 190.126 227.928 190.126C227.128 190.126 226.416 189.937 225.791 189.558C225.165 189.176 224.672 188.631 224.312 187.922C223.954 187.212 223.775 186.366 223.775 185.383C223.775 184.397 223.955 183.551 224.316 182.845C224.677 182.135 225.17 181.591 225.795 181.213C226.42 180.831 227.131 180.64 227.928 180.64C228.418 180.64 228.874 180.711 229.298 180.852C229.725 180.99 230.108 181.195 230.448 181.465C230.788 181.733 231.069 182.06 231.291 182.448C231.513 182.833 231.664 183.273 231.742 183.769ZM236.218 190.14C235.569 190.14 235.002 189.991 234.518 189.693C234.034 189.396 233.658 188.98 233.391 188.445C233.123 187.91 232.99 187.284 232.99 186.569C232.99 185.851 233.123 185.222 233.391 184.684C233.658 184.146 234.034 183.729 234.518 183.431C235.002 183.133 235.569 182.985 236.218 182.985C236.867 182.985 237.434 183.133 237.918 183.431C238.402 183.729 238.777 184.146 239.045 184.684C239.312 185.222 239.446 185.851 239.446 186.569C239.446 187.284 239.312 187.91 239.045 188.445C238.777 188.98 238.402 189.396 237.918 189.693C237.434 189.991 236.867 190.14 236.218 190.14ZM236.222 189.008C236.643 189.008 236.992 188.897 237.268 188.674C237.545 188.452 237.749 188.156 237.882 187.786C238.017 187.417 238.084 187.009 238.084 186.564C238.084 186.123 238.017 185.717 237.882 185.347C237.749 184.974 237.545 184.675 237.268 184.45C236.992 184.224 236.643 184.112 236.222 184.112C235.799 184.112 235.447 184.224 235.167 184.45C234.891 184.675 234.685 184.974 234.55 185.347C234.417 185.717 234.351 186.123 234.351 186.564C234.351 187.009 234.417 187.417 234.55 187.786C234.685 188.156 234.891 188.452 235.167 188.674C235.447 188.897 235.799 189.008 236.222 189.008ZM243.543 190.135C242.984 190.135 242.485 189.992 242.046 189.707C241.611 189.418 241.268 189.008 241.018 188.476C240.772 187.941 240.649 187.299 240.649 186.551C240.649 185.802 240.773 185.162 241.023 184.63C241.275 184.098 241.621 183.691 242.06 183.408C242.499 183.126 242.996 182.985 243.552 182.985C243.982 182.985 244.328 183.057 244.589 183.201C244.854 183.342 245.058 183.508 245.202 183.697C245.35 183.886 245.464 184.053 245.545 184.197H245.626V180.766H246.974V190H245.658V188.922H245.545C245.464 189.07 245.347 189.238 245.193 189.427C245.043 189.617 244.836 189.782 244.571 189.923C244.307 190.065 243.964 190.135 243.543 190.135ZM243.841 188.986C244.229 188.986 244.556 188.883 244.824 188.679C245.094 188.472 245.299 188.185 245.437 187.818C245.578 187.451 245.649 187.024 245.649 186.537C245.649 186.056 245.58 185.636 245.441 185.275C245.303 184.914 245.1 184.633 244.833 184.432C244.565 184.23 244.235 184.13 243.841 184.13C243.435 184.13 243.097 184.235 242.826 184.445C242.556 184.656 242.351 184.943 242.213 185.307C242.078 185.67 242.01 186.081 242.01 186.537C242.01 187 242.079 187.417 242.218 187.786C242.356 188.156 242.56 188.449 242.831 188.665C243.104 188.879 243.441 188.986 243.841 188.986ZM251.883 190.14C251.201 190.14 250.613 189.994 250.12 189.702C249.63 189.408 249.252 188.995 248.984 188.463C248.719 187.928 248.587 187.301 248.587 186.582C248.587 185.873 248.719 185.248 248.984 184.707C249.252 184.166 249.624 183.744 250.102 183.44C250.583 183.136 251.145 182.985 251.788 182.985C252.179 182.985 252.558 183.049 252.925 183.178C253.291 183.308 253.62 183.511 253.912 183.787C254.203 184.064 254.433 184.423 254.602 184.865C254.77 185.304 254.854 185.837 254.854 186.465V186.943H249.349V185.933H253.533C253.533 185.579 253.461 185.264 253.317 184.991C253.172 184.714 252.97 184.496 252.708 184.337C252.45 184.178 252.146 184.098 251.797 184.098C251.419 184.098 251.088 184.191 250.805 184.378C250.526 184.561 250.31 184.802 250.156 185.099C250.006 185.394 249.931 185.714 249.931 186.059V186.848C249.931 187.311 250.012 187.705 250.174 188.03C250.34 188.354 250.57 188.602 250.864 188.774C251.159 188.942 251.503 189.026 251.897 189.026C252.152 189.026 252.385 188.99 252.595 188.918C252.806 188.843 252.988 188.732 253.141 188.584C253.294 188.437 253.411 188.255 253.493 188.039L254.769 188.269C254.666 188.644 254.483 188.974 254.218 189.256C253.957 189.536 253.628 189.754 253.231 189.91C252.837 190.063 252.388 190.14 251.883 190.14Z" fill="white"/>
<path d="M697.71 40.0908H587.911C585.706 40.0908 583.918 41.8784 583.918 44.0835V49.0744C583.918 51.2795 585.706 53.0671 587.911 53.0671H697.71C699.915 53.0671 701.703 51.2795 701.703 49.0744V44.0835C701.703 41.8784 699.915 40.0908 697.71 40.0908Z" fill="black" fill-opacity="0.15"/>
<path d="M697.71 62.0508H587.911C585.706 62.0508 583.918 63.8384 583.918 66.0435V114.954C583.918 117.159 585.706 118.947 587.911 118.947H697.71C699.915 118.947 701.703 117.159 701.703 114.954V66.0435C701.703 63.8384 699.915 62.0508 697.71 62.0508Z" fill="black" fill-opacity="0.15"/>
<path d="M697.71 127.93H587.911C585.706 127.93 583.918 129.718 583.918 131.923V160.87C583.918 163.075 585.706 164.863 587.911 164.863H697.71C699.915 164.863 701.703 163.075 701.703 160.87V131.923C701.703 129.718 699.915 127.93 697.71 127.93Z" fill="black" fill-opacity="0.15"/>
<path d="M697.71 173.846H587.911C585.706 173.846 583.918 175.634 583.918 177.839V258.691C583.918 260.896 585.706 262.684 587.911 262.684H697.71C699.915 262.684 701.703 260.896 701.703 258.691V177.839C701.703 175.634 699.915 173.846 697.71 173.846Z" fill="black" fill-opacity="0.15"/>
<path d="M697.71 271.667H587.911C585.706 271.667 583.918 273.455 583.918 275.66V303.609C583.918 305.814 585.706 307.602 587.911 307.602H697.71C699.915 307.602 701.703 305.814 701.703 303.609V275.66C701.703 273.455 699.915 271.667 697.71 271.667Z" fill="black" fill-opacity="0.15"/>
<path d="M697.71 316.585H587.911C585.706 316.585 583.918 318.373 583.918 320.578V374.479C583.918 376.684 585.706 378.472 587.911 378.472H697.71C699.915 378.472 701.703 376.684 701.703 374.479V320.578C701.703 318.373 699.915 316.585 697.71 316.585Z" fill="black" fill-opacity="0.15"/>
<path d="M697.71 387.455H587.911C585.706 387.455 583.918 389.243 583.918 391.448V422.391C583.918 424.596 585.706 426.384 587.911 426.384H697.71C699.915 426.384 701.703 424.596 701.703 422.391V391.448C701.703 389.243 699.915 387.455 697.71 387.455Z" fill="black" fill-opacity="0.15"/>
<path d="M218.389 100.624H215.254C215.164 100.11 214.999 99.6545 214.759 99.2577C214.519 98.8553 214.22 98.5144 213.862 98.2349C213.504 97.9555 213.096 97.7459 212.638 97.6062C212.185 97.4609 211.696 97.3882 211.171 97.3882C210.238 97.3882 209.411 97.623 208.69 98.0924C207.969 98.5563 207.404 99.2381 206.996 100.138C206.588 101.032 206.384 102.125 206.384 103.416C206.384 104.729 206.588 105.836 206.996 106.735C207.41 107.63 207.974 108.306 208.69 108.764C209.411 109.217 210.235 109.443 211.163 109.443C211.677 109.443 212.158 109.376 212.605 109.242C213.057 109.102 213.463 108.898 213.82 108.63C214.183 108.362 214.488 108.032 214.734 107.641C214.985 107.25 215.159 106.802 215.254 106.299L218.389 106.316C218.272 107.132 218.017 107.898 217.626 108.613C217.241 109.329 216.735 109.96 216.109 110.508C215.483 111.05 214.751 111.475 213.912 111.782C213.074 112.084 212.144 112.235 211.121 112.235C209.612 112.235 208.265 111.885 207.08 111.187C205.895 110.488 204.962 109.479 204.28 108.161C203.598 106.842 203.257 105.26 203.257 103.416C203.257 101.566 203.601 99.9842 204.289 98.6708C204.976 97.3519 205.912 96.3431 207.097 95.6445C208.282 94.9459 209.623 94.5967 211.121 94.5967C212.077 94.5967 212.965 94.7308 213.787 94.999C214.608 95.2673 215.34 95.6613 215.983 96.1811C216.626 96.6952 217.154 97.3268 217.567 98.0756C217.987 98.8189 218.26 99.6684 218.389 100.624ZM226.72 112.251C225.462 112.251 224.372 111.975 223.45 111.422C222.528 110.868 221.813 110.094 221.304 109.099C220.801 108.105 220.55 106.942 220.55 105.612C220.55 104.282 220.801 103.117 221.304 102.116C221.813 101.116 222.528 100.339 223.45 99.7858C224.372 99.2325 225.462 98.9559 226.72 98.9559C227.977 98.9559 229.067 99.2325 229.989 99.7858C230.911 100.339 231.624 101.116 232.127 102.116C232.635 103.117 232.89 104.282 232.89 105.612C232.89 106.942 232.635 108.105 232.127 109.099C231.624 110.094 230.911 110.868 229.989 111.422C229.067 111.975 227.977 112.251 226.72 112.251ZM226.736 109.82C227.418 109.82 227.988 109.633 228.447 109.259C228.905 108.879 229.246 108.37 229.469 107.733C229.699 107.096 229.813 106.386 229.813 105.604C229.813 104.816 229.699 104.103 229.469 103.466C229.246 102.823 228.905 102.312 228.447 101.932C227.988 101.552 227.418 101.362 226.736 101.362C226.038 101.362 225.457 101.552 224.993 101.932C224.535 102.312 224.191 102.823 223.962 103.466C223.738 104.103 223.626 104.816 223.626 105.604C223.626 106.386 223.738 107.096 223.962 107.733C224.191 108.37 224.535 108.879 224.993 109.259C225.457 109.633 226.038 109.82 226.736 109.82ZM238.5 104.455V112H235.465V99.1235H238.366V101.312H238.517C238.813 100.591 239.285 100.018 239.934 99.593C240.587 99.1682 241.395 98.9559 242.356 98.9559C243.245 98.9559 244.019 99.1459 244.678 99.5259C245.343 99.906 245.858 100.456 246.221 101.177C246.59 101.898 246.771 102.773 246.766 103.801V112H243.731V104.271C243.731 103.41 243.508 102.737 243.06 102.25C242.619 101.764 242.007 101.521 241.225 101.521C240.694 101.521 240.221 101.638 239.808 101.873C239.4 102.102 239.079 102.435 238.844 102.871C238.615 103.307 238.5 103.835 238.5 104.455ZM260.028 102.527L257.261 102.829C257.183 102.549 257.046 102.287 256.851 102.041C256.661 101.795 256.404 101.597 256.079 101.446C255.755 101.295 255.359 101.219 254.889 101.219C254.258 101.219 253.727 101.356 253.296 101.63C252.872 101.904 252.662 102.259 252.668 102.695C252.662 103.069 252.799 103.374 253.078 103.609C253.363 103.843 253.833 104.036 254.487 104.187L256.683 104.656C257.901 104.919 258.807 105.335 259.399 105.905C259.997 106.476 260.299 107.222 260.305 108.144C260.299 108.954 260.061 109.669 259.592 110.29C259.128 110.905 258.483 111.385 257.656 111.732C256.828 112.078 255.878 112.251 254.805 112.251C253.229 112.251 251.961 111.922 250.999 111.262C250.038 110.597 249.465 109.672 249.281 108.487L252.24 108.202C252.374 108.784 252.659 109.222 253.095 109.519C253.531 109.815 254.098 109.963 254.797 109.963C255.518 109.963 256.096 109.815 256.532 109.519C256.974 109.222 257.194 108.856 257.194 108.42C257.194 108.052 257.052 107.747 256.767 107.507C256.487 107.266 256.052 107.082 255.459 106.953L253.263 106.492C252.028 106.235 251.114 105.802 250.521 105.193C249.929 104.578 249.636 103.801 249.641 102.862C249.636 102.069 249.851 101.381 250.287 100.8C250.728 100.213 251.34 99.7607 252.123 99.4421C252.911 99.1179 253.819 98.9559 254.847 98.9559C256.356 98.9559 257.544 99.2772 258.41 99.9199C259.282 100.563 259.821 101.432 260.028 102.527ZM269.237 99.1235V101.471H261.834V99.1235H269.237ZM263.662 96.0385H266.697V108.127C266.697 108.535 266.758 108.848 266.881 109.066C267.01 109.278 267.177 109.424 267.384 109.502C267.591 109.58 267.82 109.619 268.072 109.619C268.262 109.619 268.435 109.605 268.591 109.577C268.753 109.549 268.876 109.524 268.96 109.502L269.472 111.874C269.309 111.93 269.077 111.992 268.776 112.059C268.479 112.126 268.116 112.165 267.686 112.176C266.926 112.198 266.241 112.084 265.632 111.832C265.023 111.575 264.539 111.178 264.182 110.642C263.83 110.105 263.656 109.435 263.662 108.63V96.0385ZM271.775 112V99.1235H274.717V101.27H274.851C275.086 100.526 275.488 99.9535 276.059 99.5511C276.634 99.1431 277.291 98.9391 278.029 98.9391C278.196 98.9391 278.383 98.9475 278.59 98.9643C278.803 98.9754 278.979 98.995 279.118 99.0229V101.815C278.99 101.77 278.786 101.731 278.506 101.697C278.233 101.658 277.967 101.638 277.71 101.638C277.157 101.638 276.659 101.759 276.218 101.999C275.782 102.234 275.438 102.561 275.187 102.98C274.935 103.399 274.809 103.882 274.809 104.43V112H271.775ZM289.342 106.585V99.1235H292.376V112H289.434V109.711H289.3C289.009 110.432 288.531 111.022 287.866 111.48C287.207 111.939 286.394 112.168 285.427 112.168C284.583 112.168 283.837 111.98 283.188 111.606C282.546 111.226 282.043 110.675 281.679 109.955C281.316 109.228 281.135 108.351 281.135 107.322V99.1235H284.169V106.853C284.169 107.669 284.393 108.317 284.84 108.798C285.287 109.278 285.874 109.519 286.6 109.519C287.047 109.519 287.481 109.41 287.9 109.192C288.319 108.974 288.663 108.65 288.931 108.219C289.205 107.783 289.342 107.238 289.342 106.585ZM299.202 112.26C298.386 112.26 297.651 112.115 296.997 111.824C296.349 111.528 295.835 111.092 295.455 110.516C295.081 109.941 294.893 109.231 294.893 108.387C294.893 107.66 295.027 107.06 295.296 106.585C295.564 106.109 295.93 105.729 296.394 105.444C296.858 105.159 297.38 104.944 297.962 104.799C298.548 104.648 299.155 104.539 299.781 104.472C300.535 104.394 301.147 104.324 301.617 104.262C302.086 104.195 302.427 104.095 302.639 103.961C302.857 103.821 302.966 103.606 302.966 103.315V103.265C302.966 102.633 302.779 102.144 302.405 101.798C302.03 101.451 301.491 101.278 300.787 101.278C300.043 101.278 299.454 101.44 299.018 101.764C298.587 102.088 298.297 102.471 298.146 102.913L295.312 102.51C295.536 101.728 295.905 101.074 296.419 100.549C296.933 100.018 297.562 99.6209 298.305 99.3583C299.049 99.09 299.87 98.9559 300.77 98.9559C301.39 98.9559 302.008 99.0285 302.623 99.1738C303.237 99.3191 303.799 99.5595 304.308 99.8948C304.816 100.225 305.224 100.674 305.531 101.244C305.844 101.815 306.001 102.527 306.001 103.382V112H303.084V110.231H302.983C302.799 110.589 302.539 110.924 302.203 111.237C301.874 111.545 301.457 111.793 300.954 111.983C300.457 112.168 299.873 112.26 299.202 112.26ZM299.99 110.03C300.599 110.03 301.128 109.91 301.575 109.669C302.022 109.424 302.365 109.099 302.606 108.697C302.852 108.295 302.975 107.856 302.975 107.381V105.864C302.88 105.942 302.718 106.014 302.488 106.082C302.265 106.149 302.013 106.207 301.734 106.258C301.454 106.308 301.178 106.353 300.904 106.392C300.63 106.431 300.393 106.464 300.191 106.492C299.739 106.554 299.334 106.654 298.976 106.794C298.618 106.934 298.336 107.129 298.129 107.381C297.922 107.627 297.819 107.945 297.819 108.337C297.819 108.895 298.023 109.317 298.431 109.602C298.839 109.887 299.359 110.03 299.99 110.03ZM325.085 102.527L322.319 102.829C322.24 102.549 322.103 102.287 321.908 102.041C321.718 101.795 321.461 101.597 321.137 101.446C320.812 101.295 320.416 101.219 319.946 101.219C319.315 101.219 318.784 101.356 318.353 101.63C317.929 101.904 317.719 102.259 317.725 102.695C317.719 103.069 317.856 103.374 318.135 103.609C318.421 103.843 318.89 104.036 319.544 104.187L321.74 104.656C322.959 104.919 323.864 105.335 324.456 105.905C325.054 106.476 325.356 107.222 325.362 108.144C325.356 108.954 325.119 109.669 324.649 110.29C324.185 110.905 323.54 111.385 322.713 111.732C321.886 112.078 320.935 112.251 319.862 112.251C318.286 112.251 317.018 111.922 316.056 111.262C315.095 110.597 314.522 109.672 314.338 108.487L317.297 108.202C317.431 108.784 317.716 109.222 318.152 109.519C318.588 109.815 319.155 109.963 319.854 109.963C320.575 109.963 321.153 109.815 321.589 109.519C322.031 109.222 322.252 108.856 322.252 108.42C322.252 108.052 322.109 107.747 321.824 107.507C321.545 107.266 321.109 107.082 320.516 106.953L318.32 106.492C317.085 106.235 316.171 105.802 315.579 105.193C314.986 104.578 314.693 103.801 314.698 102.862C314.693 102.069 314.908 101.381 315.344 100.8C315.785 100.213 316.397 99.7607 317.18 99.4421C317.968 99.1179 318.876 98.9559 319.904 98.9559C321.413 98.9559 322.601 99.2772 323.467 99.9199C324.339 100.563 324.878 101.432 325.085 102.527ZM333.565 112.251C332.274 112.251 331.159 111.983 330.22 111.447C329.286 110.905 328.568 110.139 328.065 109.15C327.562 108.155 327.311 106.984 327.311 105.637C327.311 104.313 327.562 103.15 328.065 102.15C328.574 101.144 329.284 100.361 330.195 99.8026C331.106 99.2381 332.176 98.9559 333.405 98.9559C334.199 98.9559 334.948 99.0844 335.652 99.3415C336.362 99.593 336.988 99.9842 337.53 100.515C338.078 101.046 338.508 101.722 338.821 102.544C339.134 103.36 339.29 104.332 339.29 105.461V106.392H328.736V104.346H336.381C336.376 103.765 336.25 103.248 336.004 102.795C335.758 102.337 335.414 101.977 334.973 101.714C334.537 101.451 334.028 101.32 333.447 101.32C332.827 101.32 332.282 101.471 331.813 101.773C331.343 102.069 330.977 102.46 330.714 102.946C330.457 103.427 330.326 103.955 330.32 104.531V106.316C330.32 107.065 330.457 107.708 330.731 108.244C331.005 108.775 331.388 109.183 331.88 109.468C332.371 109.748 332.947 109.887 333.607 109.887C334.048 109.887 334.448 109.826 334.805 109.703C335.163 109.574 335.473 109.387 335.736 109.141C335.999 108.895 336.197 108.591 336.331 108.228L339.165 108.546C338.986 109.295 338.645 109.949 338.142 110.508C337.644 111.061 337.007 111.491 336.23 111.799C335.454 112.101 334.565 112.251 333.565 112.251ZM350.065 106.585V99.1235H353.099V112H350.157V109.711H350.023C349.732 110.432 349.254 111.022 348.589 111.48C347.93 111.939 347.117 112.168 346.15 112.168C345.306 112.168 344.56 111.98 343.911 111.606C343.269 111.226 342.766 110.675 342.403 109.955C342.039 109.228 341.858 108.351 341.858 107.322V99.1235H344.892V106.853C344.892 107.669 345.116 108.317 345.563 108.798C346.01 109.278 346.597 109.519 347.323 109.519C347.77 109.519 348.204 109.41 348.623 109.192C349.042 108.974 349.386 108.65 349.654 108.219C349.928 107.783 350.065 107.238 350.065 106.585ZM203.559 145.829V128.124H206.544V130.253H206.72C206.876 129.94 207.097 129.607 207.382 129.255C207.667 128.898 208.053 128.593 208.539 128.341C209.025 128.084 209.645 127.956 210.4 127.956C211.395 127.956 212.292 128.21 213.091 128.719C213.896 129.222 214.533 129.968 215.002 130.957C215.477 131.941 215.715 133.148 215.715 134.579C215.715 135.992 215.483 137.194 215.019 138.183C214.555 139.172 213.924 139.927 213.124 140.447C212.325 140.966 211.42 141.226 210.408 141.226C209.671 141.226 209.059 141.103 208.572 140.857C208.086 140.612 207.695 140.315 207.399 139.969C207.108 139.617 206.882 139.284 206.72 138.971H206.594V145.829H203.559ZM206.535 134.562C206.535 135.394 206.653 136.124 206.887 136.75C207.128 137.376 207.471 137.865 207.918 138.217C208.371 138.563 208.919 138.737 209.562 138.737C210.232 138.737 210.794 138.558 211.247 138.2C211.699 137.837 212.04 137.342 212.269 136.716C212.504 136.085 212.621 135.367 212.621 134.562C212.621 133.763 212.507 133.053 212.278 132.432C212.049 131.812 211.708 131.326 211.255 130.974C210.802 130.622 210.238 130.446 209.562 130.446C208.913 130.446 208.363 130.616 207.91 130.957C207.457 131.298 207.114 131.776 206.879 132.391C206.65 133.005 206.535 133.729 206.535 134.562ZM218.314 141V128.124H221.256V130.27H221.39C221.625 129.526 222.027 128.953 222.597 128.551C223.173 128.143 223.83 127.939 224.567 127.939C224.735 127.939 224.922 127.947 225.129 127.964C225.341 127.975 225.517 127.995 225.657 128.023V130.815C225.529 130.77 225.325 130.731 225.045 130.697C224.771 130.658 224.506 130.638 224.249 130.638C223.696 130.638 223.198 130.759 222.757 130.999C222.321 131.234 221.977 131.561 221.725 131.98C221.474 132.399 221.348 132.882 221.348 133.43V141H218.314ZM227.673 141V128.124H230.708V141H227.673ZM229.199 126.296C228.718 126.296 228.305 126.137 227.958 125.818C227.612 125.494 227.439 125.106 227.439 124.653C227.439 124.195 227.612 123.806 227.958 123.488C228.305 123.164 228.718 123.001 229.199 123.001C229.685 123.001 230.099 123.164 230.44 123.488C230.786 123.806 230.959 124.195 230.959 124.653C230.959 125.106 230.786 125.494 230.44 125.818C230.099 126.137 229.685 126.296 229.199 126.296ZM233.829 141V128.124H236.729V130.312H236.88C237.148 129.574 237.593 128.998 238.213 128.585C238.833 128.165 239.574 127.956 240.434 127.956C241.306 127.956 242.041 128.168 242.639 128.593C243.243 129.012 243.668 129.585 243.913 130.312H244.048C244.333 129.596 244.813 129.026 245.49 128.601C246.171 128.171 246.979 127.956 247.912 127.956C249.097 127.956 250.064 128.33 250.813 129.079C251.562 129.828 251.936 130.921 251.936 132.357V141H248.893V132.826C248.893 132.027 248.681 131.443 248.256 131.074C247.831 130.7 247.311 130.513 246.697 130.513C245.965 130.513 245.392 130.742 244.978 131.2C244.57 131.653 244.366 132.242 244.366 132.969V141H241.39V132.701C241.39 132.036 241.189 131.505 240.787 131.108C240.39 130.711 239.87 130.513 239.227 130.513C238.791 130.513 238.395 130.624 238.037 130.848C237.679 131.066 237.394 131.376 237.182 131.779C236.969 132.175 236.863 132.639 236.863 133.17V141H233.829ZM260.715 141.251C259.424 141.251 258.309 140.983 257.37 140.447C256.437 139.905 255.719 139.139 255.216 138.15C254.713 137.155 254.462 135.984 254.462 134.637C254.462 133.313 254.713 132.15 255.216 131.15C255.725 130.144 256.434 129.361 257.345 128.803C258.256 128.238 259.327 127.956 260.556 127.956C261.35 127.956 262.099 128.084 262.803 128.341C263.513 128.593 264.138 128.984 264.681 129.515C265.228 130.046 265.659 130.722 265.972 131.544C266.285 132.36 266.441 133.332 266.441 134.461V135.392H255.887V133.346H263.532C263.526 132.765 263.401 132.248 263.155 131.795C262.909 131.337 262.565 130.977 262.124 130.714C261.688 130.451 261.179 130.32 260.598 130.32C259.978 130.32 259.433 130.471 258.963 130.773C258.494 131.069 258.128 131.46 257.865 131.946C257.608 132.427 257.477 132.955 257.471 133.531V135.316C257.471 136.065 257.608 136.708 257.882 137.244C258.156 137.775 258.539 138.183 259.03 138.468C259.522 138.748 260.098 138.887 260.757 138.887C261.199 138.887 261.598 138.826 261.956 138.703C262.314 138.574 262.624 138.387 262.887 138.141C263.149 137.895 263.348 137.591 263.482 137.228L266.315 137.546C266.136 138.295 265.796 138.949 265.293 139.508C264.795 140.061 264.158 140.491 263.381 140.799C262.604 141.101 261.716 141.251 260.715 141.251ZM269.008 141V128.124H272.043V141H269.008ZM270.534 126.296C270.053 126.296 269.64 126.137 269.293 125.818C268.947 125.494 268.774 125.106 268.774 124.653C268.774 124.195 268.947 123.806 269.293 123.488C269.64 123.164 270.053 123.001 270.534 123.001C271.02 123.001 271.434 123.164 271.775 123.488C272.121 123.806 272.295 124.195 272.295 124.653C272.295 125.106 272.121 125.494 271.775 125.818C271.434 126.137 271.02 126.296 270.534 126.296ZM275.164 141V128.124H278.106V130.27H278.24C278.475 129.526 278.877 128.953 279.447 128.551C280.023 128.143 280.68 127.939 281.417 127.939C281.585 127.939 281.772 127.947 281.979 127.964C282.191 127.975 282.368 127.995 282.507 128.023V130.815C282.379 130.77 282.175 130.731 281.895 130.697C281.621 130.658 281.356 130.638 281.099 130.638C280.546 130.638 280.048 130.759 279.607 130.999C279.171 131.234 278.827 131.561 278.576 131.98C278.324 132.399 278.198 132.882 278.198 133.43V141H275.164ZM289.61 141.251C288.352 141.251 287.263 140.975 286.34 140.422C285.418 139.868 284.703 139.094 284.194 138.099C283.691 137.105 283.44 135.942 283.44 134.612C283.44 133.282 283.691 132.117 284.194 131.116C284.703 130.116 285.418 129.339 286.34 128.786C287.263 128.233 288.352 127.956 289.61 127.956C290.867 127.956 291.957 128.233 292.879 128.786C293.801 129.339 294.514 130.116 295.017 131.116C295.526 132.117 295.78 133.282 295.78 134.612C295.78 135.942 295.526 137.105 295.017 138.099C294.514 139.094 293.801 139.868 292.879 140.422C291.957 140.975 290.867 141.251 289.61 141.251ZM289.627 138.82C290.308 138.82 290.878 138.633 291.337 138.259C291.795 137.879 292.136 137.37 292.359 136.733C292.589 136.096 292.703 135.386 292.703 134.604C292.703 133.816 292.589 133.103 292.359 132.466C292.136 131.823 291.795 131.312 291.337 130.932C290.878 130.552 290.308 130.362 289.627 130.362C288.928 130.362 288.347 130.552 287.883 130.932C287.425 131.312 287.081 131.823 286.852 132.466C286.628 133.103 286.516 133.816 286.516 134.604C286.516 135.386 286.628 136.096 286.852 136.733C287.081 137.37 287.425 137.879 287.883 138.259C288.347 138.633 288.928 138.82 289.627 138.82ZM304.211 145.829V128.124H307.196V130.253H307.372C307.528 129.94 307.749 129.607 308.034 129.255C308.319 128.898 308.704 128.593 309.191 128.341C309.677 128.084 310.297 127.956 311.052 127.956C312.047 127.956 312.944 128.21 313.743 128.719C314.548 129.222 315.185 129.968 315.654 130.957C316.129 131.941 316.367 133.148 316.367 134.579C316.367 135.992 316.135 137.194 315.671 138.183C315.207 139.172 314.575 139.927 313.776 140.447C312.977 140.966 312.072 141.226 311.06 141.226C310.322 141.226 309.71 141.103 309.224 140.857C308.738 140.612 308.347 140.315 308.051 139.969C307.76 139.617 307.534 139.284 307.372 138.971H307.246V145.829H304.211ZM307.187 134.562C307.187 135.394 307.304 136.124 307.539 136.75C307.78 137.376 308.123 137.865 308.57 138.217C309.023 138.563 309.571 138.737 310.213 138.737C310.884 138.737 311.446 138.558 311.898 138.2C312.351 137.837 312.692 137.342 312.921 136.716C313.156 136.085 313.273 135.367 313.273 134.562C313.273 133.763 313.159 133.053 312.93 132.432C312.7 131.812 312.36 131.326 311.907 130.974C311.454 130.622 310.89 130.446 310.213 130.446C309.565 130.446 309.015 130.616 308.562 130.957C308.109 131.298 307.766 131.776 307.531 132.391C307.302 133.005 307.187 133.729 307.187 134.562ZM318.965 141V128.124H321.908V130.27H322.042C322.277 129.526 322.679 128.953 323.249 128.551C323.825 128.143 324.481 127.939 325.219 127.939C325.387 127.939 325.574 127.947 325.781 127.964C325.993 127.975 326.169 127.995 326.309 128.023V130.815C326.18 130.77 325.976 130.731 325.697 130.697C325.423 130.658 325.158 130.638 324.901 130.638C324.347 130.638 323.85 130.759 323.408 130.999C322.973 131.234 322.629 131.561 322.377 131.98C322.126 132.399 322 132.882 322 133.43V141H318.965ZM333.412 141.251C332.154 141.251 331.064 140.975 330.142 140.422C329.22 139.868 328.505 139.094 327.996 138.099C327.493 137.105 327.242 135.942 327.242 134.612C327.242 133.282 327.493 132.117 327.996 131.116C328.505 130.116 329.22 129.339 330.142 128.786C331.064 128.233 332.154 127.956 333.412 127.956C334.669 127.956 335.759 128.233 336.681 128.786C337.603 129.339 338.316 130.116 338.819 131.116C339.327 132.117 339.582 133.282 339.582 134.612C339.582 135.942 339.327 137.105 338.819 138.099C338.316 139.094 337.603 139.868 336.681 140.422C335.759 140.975 334.669 141.251 333.412 141.251ZM333.428 138.82C334.11 138.82 334.68 138.633 335.139 138.259C335.597 137.879 335.938 137.37 336.161 136.733C336.39 136.096 336.505 135.386 336.505 134.604C336.505 133.816 336.39 133.103 336.161 132.466C335.938 131.823 335.597 131.312 335.139 130.932C334.68 130.552 334.11 130.362 333.428 130.362C332.73 130.362 332.149 130.552 331.685 130.932C331.226 131.312 330.883 131.823 330.654 132.466C330.43 133.103 330.318 133.816 330.318 134.604C330.318 135.386 330.43 136.096 330.654 136.733C330.883 137.37 331.226 137.879 331.685 138.259C332.149 138.633 332.73 138.82 333.428 138.82ZM342.157 128.124H345.192V141.738C345.192 142.665 345.016 143.431 344.664 144.035C344.312 144.638 343.803 145.088 343.138 145.384C342.473 145.681 341.665 145.829 340.715 145.829C340.604 145.829 340.5 145.826 340.405 145.82C340.31 145.82 340.207 145.817 340.095 145.812V143.339C340.179 143.344 340.254 143.347 340.321 143.347C340.388 143.353 340.458 143.356 340.531 143.356C341.112 143.356 341.529 143.213 341.78 142.928C342.032 142.649 342.157 142.238 342.157 141.696V128.124ZM343.666 126.296C343.18 126.296 342.764 126.137 342.417 125.818C342.076 125.494 341.906 125.106 341.906 124.653C341.906 124.195 342.076 123.806 342.417 123.488C342.764 123.164 343.18 123.001 343.666 123.001C344.147 123.001 344.558 123.164 344.899 123.488C345.245 123.806 345.418 124.195 345.418 124.653C345.418 125.106 345.245 125.494 344.899 125.818C344.558 126.137 344.147 126.296 343.666 126.296ZM354.013 141.251C352.722 141.251 351.607 140.983 350.668 140.447C349.735 139.905 349.017 139.139 348.514 138.15C348.011 137.155 347.759 135.984 347.759 134.637C347.759 133.313 348.011 132.15 348.514 131.15C349.022 130.144 349.732 129.361 350.643 128.803C351.554 128.238 352.624 127.956 353.854 127.956C354.647 127.956 355.396 128.084 356.101 128.341C356.81 128.593 357.436 128.984 357.978 129.515C358.526 130.046 358.956 130.722 359.269 131.544C359.582 132.36 359.739 133.332 359.739 134.461V135.392H349.184V133.346H356.83C356.824 132.765 356.699 132.248 356.453 131.795C356.207 131.337 355.863 130.977 355.421 130.714C354.986 130.451 354.477 130.32 353.896 130.32C353.275 130.32 352.731 130.471 352.261 130.773C351.792 131.069 351.426 131.46 351.163 131.946C350.906 132.427 350.774 132.955 350.769 133.531V135.316C350.769 136.065 350.906 136.708 351.18 137.244C351.453 137.775 351.836 138.183 352.328 138.468C352.82 138.748 353.396 138.887 354.055 138.887C354.497 138.887 354.896 138.826 355.254 138.703C355.611 138.574 355.922 138.387 356.184 138.141C356.447 137.895 356.645 137.591 356.78 137.228L359.613 137.546C359.434 138.295 359.093 138.949 358.59 139.508C358.093 140.061 357.456 140.491 356.679 140.799C355.902 141.101 355.014 141.251 354.013 141.251ZM368.736 128.124V130.471H361.334V128.124H368.736ZM363.161 125.039H366.196V137.127C366.196 137.535 366.257 137.848 366.38 138.066C366.509 138.278 366.677 138.424 366.883 138.502C367.09 138.58 367.319 138.619 367.571 138.619C367.761 138.619 367.934 138.605 368.09 138.577C368.253 138.549 368.375 138.524 368.459 138.502L368.971 140.874C368.809 140.93 368.577 140.992 368.275 141.059C367.979 141.126 367.615 141.165 367.185 141.176C366.425 141.198 365.74 141.084 365.131 140.832C364.522 140.575 364.039 140.178 363.681 139.642C363.329 139.105 363.156 138.435 363.161 137.63V125.039ZM376.752 141.251C375.495 141.251 374.405 140.975 373.483 140.422C372.561 139.868 371.845 139.094 371.337 138.099C370.834 137.105 370.582 135.942 370.582 134.612C370.582 133.282 370.834 132.117 371.337 131.116C371.845 130.116 372.561 129.339 373.483 128.786C374.405 128.233 375.495 127.956 376.752 127.956C378.01 127.956 379.1 128.233 380.022 128.786C380.944 129.339 381.656 130.116 382.159 131.116C382.668 132.117 382.922 133.282 382.922 134.612C382.922 135.942 382.668 137.105 382.159 138.099C381.656 139.094 380.944 139.868 380.022 140.422C379.1 140.975 378.01 141.251 376.752 141.251ZM376.769 138.82C377.451 138.82 378.021 138.633 378.479 138.259C378.938 137.879 379.278 137.37 379.502 136.733C379.731 136.096 379.846 135.386 379.846 134.604C379.846 133.816 379.731 133.103 379.502 132.466C379.278 131.823 378.938 131.312 378.479 130.932C378.021 130.552 377.451 130.362 376.769 130.362C376.07 130.362 375.489 130.552 375.025 130.932C374.567 131.312 374.223 131.823 373.994 132.466C373.771 133.103 373.659 133.816 373.659 134.604C373.659 135.386 373.771 136.096 373.994 136.733C374.223 137.37 374.567 137.879 375.025 138.259C375.489 138.633 376.07 138.82 376.769 138.82Z" fill="white"/>
<path d="M394.765 85.5078H193.134V152.385H394.765V85.5078Z" stroke="#0072F7" stroke-width="0.998173"/>
<path d="M411.021 161.141C410.965 161.197 410.9 161.244 410.825 161.281L406.128 163.561C406.047 163.601 405.979 163.668 405.939 163.75L403.659 168.447C403.534 168.706 403.268 168.866 402.98 168.854C402.693 168.845 402.437 168.666 402.332 168.398L397.313 155.878C397.204 155.608 397.266 155.3 397.474 155.094C397.679 154.888 397.989 154.825 398.258 154.933L410.779 159.952C411.045 160.058 411.224 160.312 411.236 160.598C411.243 160.806 411.164 161.002 411.021 161.141ZM405.721 163.342L403.027 167.619L405.102 163.342C405.232 163.072 405.453 162.853 405.721 162.723L409.997 160.647L405.721 163.342Z" fill="white"/>
</g>
</g>
</g>
<defs>
<filter id="filter0_b_172_184" x="-30.6689" y="-31.4902" width="764.026" height="488.53" filterUnits="userSpaceOnUse" color-interpolation-filters="sRGB">
<feFlood flood-opacity="0" result="BackgroundImageFix"/>
<feGaussianBlur in="BackgroundImageFix" stdDeviation="15.8271"/>
<feComposite in2="SourceAlpha" operator="in" result="effect1_backgroundBlur_172_184"/>
<feBlend mode="normal" in="SourceGraphic" in2="effect1_backgroundBlur_172_184" result="shape"/>
</filter>
<clipPath id="clip0_172_184">
<rect x="0.985352" y="0.164062" width="700.718" height="425.222" rx="13.7168" fill="white"/>
</clipPath>
</defs>
</svg>
