<svg width="527" height="320" viewBox="0 0 527 320" fill="none" xmlns="http://www.w3.org/2000/svg">
<g filter="url(#filter0_b_805_11020)">
<g clip-path="url(#clip0_805_11020)">
<rect x="0.496094" y="0.181641" width="525.674" height="318.999" rx="10.2903" fill="#050435" fill-opacity="0.7"/>
<mask id="mask0_805_11020" style="mask-type:luminance" maskUnits="userSpaceOnUse" x="0" y="0" width="527" height="320">
<path d="M526.17 0.181641H0.496338V319.18H526.17V0.181641Z" fill="white"/>
</mask>
<g mask="url(#mask0_805_11020)">
<path d="M103.026 25.5234H525.451V25.7786H103.026V25.5234Z" fill="white" fill-opacity="0.2"/>
<path d="M0.496338 0.181641H519.79C523.314 0.181641 526.17 0.352491 526.17 0.563247V23.6504C526.17 23.8612 523.314 24.0321 519.79 24.0321H0.496338V0.181641Z" fill="white" fill-opacity="0.15"/>
<g opacity="0.7">
<path d="M504.484 13.5153C504.597 13.5121 504.702 13.4699 504.786 13.3793L507.259 10.8594C507.331 10.7881 507.37 10.6974 507.37 10.5906C507.37 10.3767 507.201 10.2051 506.986 10.2051C506.882 10.2051 506.781 10.2472 506.706 10.3217L504.487 12.5923L502.261 10.3217C502.186 10.2505 502.088 10.2051 501.981 10.2051C501.766 10.2051 501.597 10.3767 501.597 10.5906C501.597 10.6974 501.636 10.7881 501.708 10.8594L504.184 13.3793C504.272 13.4699 504.37 13.5153 504.484 13.5153Z" fill="white"/>
<path d="M476.334 12.2862H474.912V11.7121H476.334C476.61 11.7121 476.833 11.6683 477.003 11.5806C477.174 11.4928 477.298 11.3709 477.376 11.2149C477.456 11.0589 477.497 10.881 477.497 10.6811C477.497 10.4982 477.456 10.3264 477.376 10.1655C477.298 10.0047 477.174 9.87543 477.003 9.77793C476.833 9.67804 476.61 9.62802 476.334 9.62802H475.077V14.374H474.371V9.05038H476.334C476.736 9.05038 477.076 9.11979 477.355 9.25878C477.632 9.39768 477.843 9.59028 477.987 9.83649C478.13 10.0802 478.202 10.3593 478.202 10.6738C478.202 11.015 478.13 11.3063 477.987 11.5476C477.843 11.789 477.632 11.973 477.355 12.0997C477.076 12.224 476.736 12.2862 476.334 12.2862ZM481.413 13.4599V10.4178H482.093V14.374H481.445L481.413 13.4599ZM481.541 12.6262L481.822 12.619C481.822 12.8822 481.794 13.126 481.738 13.3502C481.684 13.5721 481.597 13.7646 481.475 13.9279C481.353 14.0912 481.194 14.2192 480.996 14.3118C480.798 14.4021 480.559 14.4471 480.276 14.4471C480.083 14.4471 479.907 14.4191 479.746 14.3631C479.587 14.307 479.451 14.2204 479.336 14.1034C479.221 13.9864 479.132 13.8341 479.069 13.6464C479.008 13.4587 478.978 13.2332 478.978 12.9699V10.4178H479.654V12.9773C479.654 13.1552 479.674 13.3027 479.713 13.4197C479.754 13.5343 479.809 13.6257 479.877 13.6939C479.948 13.7597 480.026 13.8061 480.111 13.8329C480.199 13.8597 480.289 13.8731 480.382 13.8731C480.67 13.8731 480.897 13.8182 481.066 13.7086C481.234 13.5964 481.354 13.4465 481.428 13.2588C481.503 13.0687 481.541 12.8578 481.541 12.6262ZM483.121 8.75781H483.801V13.6061L483.742 14.374H483.121V8.75781ZM486.473 12.363V12.4398C486.473 12.7274 486.439 12.9944 486.371 13.2406C486.302 13.4843 486.203 13.6964 486.071 13.8768C485.939 14.0571 485.779 14.1973 485.589 14.2972C485.399 14.3971 485.18 14.4471 484.934 14.4471C484.683 14.4471 484.462 14.4045 484.272 14.3192C484.084 14.2314 483.926 14.1059 483.797 13.9426C483.668 13.7793 483.564 13.5818 483.486 13.3502C483.41 13.1187 483.358 12.8578 483.329 12.5678V12.2314C483.358 11.9389 483.41 11.6768 483.486 11.4453C483.564 11.2137 483.668 11.0163 483.797 10.8529C483.926 10.6872 484.084 10.5617 484.272 10.4763C484.46 10.3886 484.678 10.3447 484.927 10.3447C485.175 10.3447 485.396 10.3935 485.589 10.491C485.781 10.586 485.942 10.7225 486.071 10.9005C486.203 11.0784 486.302 11.2917 486.371 11.5403C486.439 11.7865 486.473 12.0607 486.473 12.363ZM485.793 12.4398V12.363C485.793 12.1656 485.775 11.9803 485.738 11.8072C485.702 11.6317 485.643 11.4781 485.563 11.3466C485.482 11.2125 485.376 11.1076 485.245 11.0321C485.113 10.9541 484.951 10.9151 484.758 10.9151C484.588 10.9151 484.439 10.9443 484.313 11.0029C484.188 11.0613 484.082 11.1406 483.994 11.2405C483.907 11.338 483.835 11.4501 483.779 11.5769C483.725 11.7012 483.684 11.8304 483.658 11.9645V12.8456C483.697 13.0163 483.76 13.1808 483.848 13.3393C483.938 13.4952 484.057 13.6232 484.206 13.7232C484.358 13.8231 484.544 13.8731 484.766 13.8731C484.948 13.8731 485.105 13.8366 485.234 13.7634C485.366 13.6878 485.471 13.5842 485.552 13.4526C485.635 13.321 485.696 13.1686 485.735 12.9956C485.774 12.8225 485.793 12.6372 485.793 12.4398ZM488.064 8.75781V14.374H487.384V8.75781H488.064ZM489.885 10.4178V14.374H489.205V10.4178H489.885ZM489.153 9.36848C489.153 9.25878 489.186 9.16615 489.252 9.09059C489.32 9.01496 489.42 8.97722 489.552 8.97722C489.681 8.97722 489.78 9.01496 489.848 9.09059C489.919 9.16615 489.954 9.25878 489.954 9.36848C489.954 9.47324 489.919 9.56347 489.848 9.63903C489.78 9.71211 489.681 9.74873 489.552 9.74873C489.42 9.74873 489.32 9.71211 489.252 9.63903C489.186 9.56347 489.153 9.47324 489.153 9.36848ZM493.274 13.3247C493.274 13.2271 493.252 13.1369 493.208 13.054C493.167 12.9687 493.081 12.892 492.949 12.8237C492.819 12.753 492.625 12.6921 492.364 12.6409C492.145 12.5946 491.945 12.5397 491.768 12.4763C491.592 12.413 491.442 12.3362 491.318 12.246C491.196 12.1558 491.102 12.0498 491.036 11.9279C490.971 11.806 490.938 11.6634 490.938 11.5001C490.938 11.3441 490.972 11.1967 491.04 11.0577C491.111 10.9188 491.209 10.7957 491.336 10.6884C491.466 10.5811 491.62 10.497 491.801 10.4361C491.981 10.3752 492.182 10.3447 492.404 10.3447C492.721 10.3447 492.992 10.4007 493.216 10.5129C493.44 10.625 493.612 10.7749 493.731 10.9626C493.85 11.1479 493.91 11.3538 493.91 11.5806H493.234C493.234 11.4709 493.201 11.3648 493.135 11.2625C493.072 11.1576 492.978 11.0711 492.854 11.0029C492.732 10.9346 492.582 10.9005 492.404 10.9005C492.217 10.9005 492.064 10.9297 491.947 10.9882C491.832 11.0443 491.749 11.1162 491.695 11.2039C491.644 11.2917 491.617 11.3843 491.617 11.4818C491.617 11.555 491.63 11.6208 491.654 11.6793C491.681 11.7354 491.728 11.7877 491.793 11.8365C491.859 11.8828 491.951 11.9267 492.071 11.9681C492.19 12.0096 492.343 12.051 492.528 12.0924C492.852 12.1656 493.12 12.2533 493.329 12.3557C493.539 12.458 493.695 12.5836 493.797 12.7323C493.899 12.881 493.951 13.0614 493.951 13.2734C493.951 13.4465 493.914 13.6049 493.841 13.7488C493.77 13.8926 493.666 14.0169 493.53 14.1217C493.396 14.2241 493.235 14.3046 493.048 14.3631C492.862 14.4191 492.654 14.4471 492.422 14.4471C492.074 14.4471 491.778 14.385 491.537 14.2607C491.296 14.1363 491.114 13.9755 490.989 13.778C490.865 13.5806 490.803 13.3721 490.803 13.1528H491.483C491.492 13.3381 491.546 13.4855 491.644 13.5952C491.741 13.7024 491.86 13.7793 492.002 13.8255C492.143 13.8694 492.283 13.8914 492.422 13.8914C492.607 13.8914 492.762 13.867 492.887 13.8182C493.013 13.7695 493.11 13.7024 493.176 13.6172C493.241 13.5319 493.274 13.4343 493.274 13.3247ZM495.515 8.75781V14.374H494.839V8.75781H495.515ZM495.355 12.246L495.073 12.235C495.076 11.9645 495.116 11.7146 495.194 11.4855C495.272 11.2539 495.381 11.0528 495.523 10.8821C495.664 10.7116 495.833 10.5799 496.027 10.4873C496.225 10.3922 496.443 10.3447 496.682 10.3447C496.877 10.3447 497.052 10.3715 497.208 10.4251C497.365 10.4763 497.497 10.5592 497.607 10.6738C497.719 10.7883 497.804 10.937 497.863 11.1198C497.921 11.3002 497.95 11.5208 497.95 11.7816V14.374H497.27V11.7743C497.27 11.5672 497.24 11.4014 497.179 11.2771C497.118 11.1503 497.029 11.0589 496.912 11.0029C496.795 10.9443 496.651 10.9151 496.481 10.9151C496.313 10.9151 496.159 10.9504 496.02 11.0211C495.884 11.0918 495.765 11.1893 495.666 11.3136C495.568 11.4379 495.491 11.5806 495.435 11.7414C495.381 11.8999 495.355 12.0681 495.355 12.246Z" fill="white"/>
</g>
<g opacity="0.7">
<path d="M434.843 13.5153C434.957 13.5121 435.061 13.4699 435.146 13.3793L437.619 10.8594C437.69 10.7881 437.729 10.6974 437.729 10.5906C437.729 10.3767 437.561 10.2051 437.346 10.2051C437.242 10.2051 437.141 10.2472 437.066 10.3217L434.847 12.5923L432.621 10.3217C432.546 10.2505 432.448 10.2051 432.341 10.2051C432.126 10.2051 431.957 10.3767 431.957 10.5906C431.957 10.6974 431.996 10.7881 432.068 10.8594L434.544 13.3793C434.632 13.4699 434.73 13.5153 434.843 13.5153Z" fill="white"/>
<path d="M408.113 13.7999V14.374H405.293V13.7999H408.113ZM405.436 9.05038V14.374H404.73V9.05038H405.436ZM407.74 11.3392V11.9133H405.293V11.3392H407.74ZM408.076 9.05038V9.62802H405.293V9.05038H408.076ZM411.304 13.6061V8.75781H411.985V14.374H411.363L411.304 13.6061ZM408.643 12.4398V12.363C408.643 12.0607 408.679 11.7865 408.752 11.5403C408.828 11.2917 408.934 11.0784 409.07 10.9005C409.21 10.7225 409.374 10.586 409.564 10.491C409.756 10.3935 409.971 10.3447 410.208 10.3447C410.456 10.3447 410.673 10.3886 410.859 10.4763C411.046 10.5617 411.205 10.6872 411.334 10.8529C411.465 11.0163 411.569 11.2137 411.645 11.4453C411.72 11.6768 411.772 11.9389 411.802 12.2314V12.5678C411.775 12.8578 411.723 13.1187 411.645 13.3502C411.569 13.5818 411.465 13.7793 411.334 13.9426C411.205 14.1059 411.046 14.2314 410.859 14.3192C410.671 14.4045 410.451 14.4471 410.2 14.4471C409.969 14.4471 409.756 14.3971 409.564 14.2972C409.374 14.1973 409.21 14.0571 409.07 13.8768C408.934 13.6964 408.828 13.4843 408.752 13.2406C408.679 12.9944 408.643 12.7274 408.643 12.4398ZM409.323 12.363V12.4398C409.323 12.6372 409.342 12.8225 409.381 12.9956C409.422 13.1686 409.486 13.321 409.571 13.4526C409.657 13.5842 409.765 13.6878 409.897 13.7634C410.028 13.8366 410.185 13.8731 410.368 13.8731C410.593 13.8731 410.777 13.8256 410.921 13.7305C411.067 13.6354 411.184 13.5099 411.272 13.3539C411.36 13.1979 411.428 13.0284 411.476 12.8456V11.9645C411.447 11.8304 411.404 11.7012 411.348 11.5769C411.294 11.4501 411.224 11.338 411.136 11.2405C411.051 11.1406 410.945 11.0613 410.818 11.0029C410.694 10.9443 410.546 10.9151 410.376 10.9151C410.191 10.9151 410.031 10.9541 409.897 11.0321C409.765 11.1076 409.657 11.2125 409.571 11.3466C409.486 11.4781 409.422 11.6317 409.381 11.8072C409.342 11.9803 409.323 12.1656 409.323 12.363ZM413.772 10.4178V14.374H413.092V10.4178H413.772ZM413.041 9.36848C413.041 9.25878 413.074 9.16615 413.14 9.09059C413.208 9.01496 413.308 8.97722 413.44 8.97722C413.569 8.97722 413.667 9.01496 413.736 9.09059C413.807 9.16615 413.842 9.25878 413.842 9.36848C413.842 9.47324 413.807 9.56347 413.736 9.63903C413.667 9.71211 413.569 9.74873 413.44 9.74873C413.308 9.74873 413.208 9.71211 413.14 9.63903C413.074 9.56347 413.041 9.47324 413.041 9.36848ZM416.514 10.4178V10.937H414.376V10.4178H416.514ZM415.1 9.45617H415.776V13.3941C415.776 13.5282 415.797 13.6294 415.838 13.6976C415.88 13.7659 415.933 13.8109 415.999 13.8329C416.065 13.8548 416.136 13.8658 416.211 13.8658C416.267 13.8658 416.326 13.8609 416.387 13.8512C416.45 13.839 416.498 13.8292 416.529 13.8219L416.533 14.374C416.479 14.3911 416.409 14.4069 416.321 14.4215C416.236 14.4386 416.132 14.4471 416.01 14.4471C415.844 14.4471 415.692 14.4142 415.553 14.3484C415.414 14.2826 415.304 14.1729 415.22 14.0193C415.14 13.8634 415.1 13.6537 415.1 13.3904V9.45617ZM418.044 10.4178V14.374H417.363V10.4178H418.044ZM417.312 9.36848C417.312 9.25878 417.345 9.16615 417.411 9.09059C417.479 9.01496 417.579 8.97722 417.71 8.97722C417.84 8.97722 417.939 9.01496 418.007 9.09059C418.077 9.16615 418.112 9.25878 418.112 9.36848C418.112 9.47324 418.077 9.56347 418.007 9.63903C417.939 9.71211 417.84 9.74873 417.71 9.74873C417.579 9.74873 417.479 9.71211 417.411 9.63903C417.345 9.56347 417.312 9.47324 417.312 9.36848ZM419.806 11.2625V14.374H419.129V10.4178H419.769L419.806 11.2625ZM419.645 12.246L419.363 12.235C419.365 11.9645 419.406 11.7146 419.484 11.4855C419.562 11.2539 419.671 11.0528 419.813 10.8821C419.955 10.7116 420.122 10.5799 420.318 10.4873C420.515 10.3922 420.733 10.3447 420.972 10.3447C421.167 10.3447 421.342 10.3715 421.499 10.4251C421.654 10.4763 421.788 10.5592 421.897 10.6738C422.009 10.7883 422.095 10.937 422.153 11.1198C422.211 11.3002 422.241 11.5208 422.241 11.7816V14.374H421.561V11.7743C421.561 11.5672 421.53 11.4014 421.469 11.2771C421.408 11.1503 421.32 11.0589 421.202 11.0029C421.085 10.9443 420.941 10.9151 420.771 10.9151C420.602 10.9151 420.449 10.9504 420.31 11.0211C420.174 11.0918 420.056 11.1893 419.955 11.3136C419.858 11.4379 419.781 11.5806 419.725 11.7414C419.671 11.8999 419.645 12.0681 419.645 12.246ZM425.831 10.4178H426.445V14.2899C426.445 14.6385 426.375 14.9359 426.233 15.182C426.092 15.4283 425.895 15.6147 425.641 15.7415C425.39 15.8707 425.1 15.9353 424.771 15.9353C424.635 15.9353 424.474 15.9133 424.288 15.8695C424.105 15.8281 423.925 15.7561 423.747 15.6537C423.571 15.5538 423.424 15.4185 423.305 15.2479L423.66 14.8457C423.825 15.0455 423.998 15.1845 424.179 15.2625C424.361 15.3405 424.542 15.3795 424.72 15.3795C424.934 15.3795 425.119 15.3393 425.276 15.2589C425.431 15.1784 425.552 15.0589 425.637 14.9005C425.725 14.7445 425.769 14.552 425.769 14.3228V11.288L425.831 10.4178ZM423.107 12.4398V12.363C423.107 12.0607 423.142 11.7865 423.213 11.5403C423.286 11.2917 423.39 11.0784 423.524 10.9005C423.66 10.7225 423.825 10.586 424.018 10.491C424.21 10.3935 424.427 10.3447 424.668 10.3447C424.917 10.3447 425.134 10.3886 425.319 10.4763C425.507 10.5617 425.666 10.6872 425.795 10.8529C425.926 11.0163 426.03 11.2137 426.105 11.4453C426.181 11.6768 426.233 11.9389 426.263 12.2314V12.5678C426.236 12.8578 426.183 13.1187 426.105 13.3502C426.03 13.5818 425.926 13.7793 425.795 13.9426C425.666 14.1059 425.507 14.2314 425.319 14.3192C425.132 14.4045 424.912 14.4471 424.661 14.4471C424.425 14.4471 424.21 14.3971 424.018 14.2972C423.827 14.1973 423.664 14.0571 423.528 13.8768C423.391 13.6964 423.286 13.4843 423.213 13.2406C423.142 12.9944 423.107 12.7274 423.107 12.4398ZM423.784 12.363V12.4398C423.784 12.6372 423.804 12.8225 423.842 12.9956C423.884 13.1686 423.946 13.321 424.029 13.4526C424.114 13.5842 424.222 13.6878 424.354 13.7634C424.486 13.8366 424.643 13.8731 424.826 13.8731C425.05 13.8731 425.235 13.8256 425.381 13.7305C425.528 13.6354 425.643 13.5099 425.729 13.3539C425.816 13.1979 425.885 13.0284 425.934 12.8456V11.9645C425.907 11.8304 425.865 11.7012 425.81 11.5769C425.756 11.4501 425.685 11.338 425.597 11.2405C425.512 11.1406 425.406 11.0613 425.279 11.0029C425.152 10.9443 425.004 10.9151 424.833 10.9151C424.648 10.9151 424.488 10.9541 424.354 11.0321C424.222 11.1076 424.114 11.2125 424.029 11.3466C423.946 11.4781 423.884 11.6317 423.842 11.8072C423.804 11.9803 423.784 12.1656 423.784 12.363Z" fill="white"/>
</g>
<mask id="mask1_805_11020" style="mask-type:luminance" maskUnits="userSpaceOnUse" x="391" y="7" width="10" height="10">
<path d="M400.367 7.67578H391.382V16.6617H400.367V7.67578Z" fill="white"/>
</mask>
<g mask="url(#mask1_805_11020)">
<g opacity="0.5">
<path d="M392.506 14.1351V15.5392H393.91L398.051 11.3982L396.647 9.99414L392.506 14.1351ZM399.136 10.3124C399.282 10.1664 399.282 9.93049 399.136 9.78447L398.26 8.90834C398.114 8.76232 397.878 8.76232 397.732 8.90834L397.047 9.59352L398.451 10.9976L399.136 10.3124Z" fill="white"/>
</g>
</g>
<mask id="mask2_805_11020" style="mask-type:luminance" maskUnits="userSpaceOnUse" x="449" y="6" width="13" height="13">
<path d="M461.771 6.17773H449.79V18.1589H461.771V6.17773Z" fill="white"/>
</mask>
<g mask="url(#mask2_805_11020)">
<path d="M455.78 7.17578C453.025 7.17578 450.788 9.41224 450.788 12.1679C450.788 14.9236 453.025 17.1601 455.78 17.1601C458.536 17.1601 460.773 14.9236 460.773 12.1679C460.773 9.41224 458.536 7.17578 455.78 7.17578ZM454.782 14.664L452.286 12.1679L452.99 11.464L454.782 13.2512L458.571 9.46219L459.275 10.1711L454.782 14.664Z" fill="#2AD986"/>
</g>
<path d="M250.604 6.92773H245.362C243.707 6.92773 242.366 8.26877 242.366 9.92303V14.416C242.366 16.0702 243.707 17.4113 245.362 17.4113H250.604C252.258 17.4113 253.599 16.0702 253.599 14.416V9.92303C253.599 8.26877 252.258 6.92773 250.604 6.92773Z" fill="black" fill-opacity="0.15"/>
<path d="M264.831 6.92773H259.59C257.935 6.92773 256.594 8.26877 256.594 9.92303V14.416C256.594 16.0702 257.935 17.4113 259.59 17.4113H264.831C266.486 17.4113 267.827 16.0702 267.827 14.416V9.92303C267.827 8.26877 266.486 6.92773 264.831 6.92773Z" fill="black" fill-opacity="0.15"/>
<path d="M279.058 6.92773H273.817C272.162 6.92773 270.821 8.26877 270.821 9.92303V14.416C270.821 16.0702 272.162 17.4113 273.817 17.4113H279.058C280.713 17.4113 282.054 16.0702 282.054 14.416V9.92303C282.054 8.26877 280.713 6.92773 279.058 6.92773Z" fill="black" fill-opacity="0.15"/>
<path d="M293.286 6.92773H288.044C286.39 6.92773 285.049 8.26877 285.049 9.92303V14.416C285.049 16.0702 286.39 17.4113 288.044 17.4113H293.286C294.94 17.4113 296.281 16.0702 296.281 14.416V9.92303C296.281 8.26877 294.94 6.92773 293.286 6.92773Z" fill="black" fill-opacity="0.15"/>
<mask id="mask3_805_11020" style="mask-type:luminance" maskUnits="userSpaceOnUse" x="230" y="7" width="10" height="10">
<path d="M239.371 7.67578H230.385V16.6617H239.371V7.67578Z" fill="white"/>
</mask>
<g mask="url(#mask3_805_11020)">
<g opacity="0.5">
<path d="M234.877 10.6715C235.289 10.6715 235.626 10.3345 235.626 9.92265C235.626 9.5108 235.289 9.17383 234.877 9.17383C234.466 9.17383 234.129 9.5108 234.129 9.92265C234.129 10.3345 234.466 10.6715 234.877 10.6715ZM234.877 11.4203C234.466 11.4203 234.129 11.7573 234.129 12.1691C234.129 12.581 234.466 12.9179 234.877 12.9179C235.289 12.9179 235.626 12.581 235.626 12.1691C235.626 11.7573 235.289 11.4203 234.877 11.4203ZM234.877 13.6668C234.466 13.6668 234.129 14.0037 234.129 14.4156C234.129 14.8274 234.466 15.1644 234.877 15.1644C235.289 15.1644 235.626 14.8274 235.626 14.4156C235.626 14.0037 235.289 13.6668 234.877 13.6668Z" fill="white"/>
</g>
</g>
<path d="M60.4022 6.92773H28.2028C26.5486 6.92773 25.2075 8.26877 25.2075 9.92303V14.416C25.2075 16.0702 26.5486 17.4113 28.2028 17.4113H60.4022C62.0565 17.4113 63.3975 16.0702 63.3975 14.416V9.92303C63.3975 8.26877 62.0565 6.92773 60.4022 6.92773Z" fill="black" fill-opacity="0.15"/>
<path opacity="0.5" d="M18.1238 13.4173C18.1733 13.2615 18.7804 11.375 18.7804 11.375C19.0727 10.6007 19.6394 9.87551 20.7143 9.87551L19.952 11.7287L19.1897 13.5819C18.8748 14.3249 18.2902 15.0057 17.2018 15.0057C17.2018 15.0057 16.7386 11.8333 16.7341 11.7621C16.7071 11.8377 16.055 13.5063 16.055 13.5063C15.7492 14.276 15.1645 15.0013 14.0806 15.0057L13.2261 9.87551C13.9321 9.87551 14.8047 10.4495 14.8676 11.3928C14.8676 11.3928 14.9756 13.2749 14.98 13.4217C15.043 13.2615 15.7806 11.3705 15.7806 11.3705C16.073 10.6007 16.6261 9.87109 17.6605 9.87109C17.6605 9.87109 18.1058 13.2571 18.1238 13.4173Z" fill="white"/>
<mask id="mask4_805_11020" style="mask-type:luminance" maskUnits="userSpaceOnUse" x="67" y="7" width="10" height="10">
<path d="M76.876 7.67578H67.8901V16.6617H76.876V7.67578Z" fill="white"/>
</mask>
<g mask="url(#mask4_805_11020)">
<path d="M72.3834 9.35938C70.5114 9.35938 68.9126 10.5238 68.2649 12.1675C68.9126 13.8111 70.5114 14.9756 72.3834 14.9756C74.2555 14.9756 75.8542 13.8111 76.502 12.1675C75.8542 10.5238 74.2555 9.35938 72.3834 9.35938ZM72.3834 14.0395C71.35 14.0395 70.5114 13.2008 70.5114 12.1675C70.5114 11.1341 71.35 10.2954 72.3834 10.2954C73.4168 10.2954 74.2555 11.1341 74.2555 12.1675C74.2555 13.2008 73.4168 14.0395 72.3834 14.0395ZM72.3834 11.0442C71.7619 11.0442 71.2602 11.5459 71.2602 12.1675C71.2602 12.789 71.7619 13.2907 72.3834 13.2907C73.0049 13.2907 73.5067 12.789 73.5067 12.1675C73.5067 11.5459 73.0049 11.0442 72.3834 11.0442Z" fill="#1D76E1"/>
</g>
<path d="M16.9702 34.627H11.7284C10.0742 34.627 8.73315 35.968 8.73315 37.6222V42.1152C8.73315 43.7694 10.0742 45.1105 11.7284 45.1105H16.9702C18.6245 45.1105 19.9655 43.7694 19.9655 42.1152V37.6222C19.9655 35.968 18.6245 34.627 16.9702 34.627Z" fill="black" fill-opacity="0.15"/>
<path d="M16.9702 48.1055H11.7284C10.0742 48.1055 8.73315 49.4465 8.73315 51.1008V55.5937C8.73315 57.248 10.0742 58.589 11.7284 58.589H16.9702C18.6245 58.589 19.9655 57.248 19.9655 55.5937V51.1008C19.9655 49.4465 18.6245 48.1055 16.9702 48.1055Z" fill="black" fill-opacity="0.15"/>
<path d="M16.9702 61.5859H11.7284C10.0742 61.5859 8.73315 62.927 8.73315 64.5812V69.0742C8.73315 70.7284 10.0742 72.0695 11.7284 72.0695H16.9702C18.6245 72.0695 19.9655 70.7284 19.9655 69.0742V64.5812C19.9655 62.927 18.6245 61.5859 16.9702 61.5859Z" fill="black" fill-opacity="0.15"/>
<path d="M16.9702 75.0645H11.7284C10.0742 75.0645 8.73315 76.4055 8.73315 78.0597V82.5527C8.73315 84.2069 10.0742 85.548 11.7284 85.548H16.9702C18.6245 85.548 19.9655 84.2069 19.9655 82.5527V78.0597C19.9655 76.4055 18.6245 75.0645 16.9702 75.0645Z" fill="black" fill-opacity="0.15"/>
<path d="M16.9702 88.543H11.7284C10.0742 88.543 8.73315 89.884 8.73315 91.5383V96.0312C8.73315 97.6855 10.0742 99.0265 11.7284 99.0265H16.9702C18.6245 99.0265 19.9655 97.6855 19.9655 96.0312V91.5383C19.9655 89.884 18.6245 88.543 16.9702 88.543Z" fill="black" fill-opacity="0.15"/>
<path d="M16.9702 102.021H11.7284C10.0742 102.021 8.73315 103.363 8.73315 105.017V109.51C8.73315 111.164 10.0742 112.505 11.7284 112.505H16.9702C18.6245 112.505 19.9655 111.164 19.9655 109.51V105.017C19.9655 103.363 18.6245 102.021 16.9702 102.021Z" fill="black" fill-opacity="0.15"/>
<path d="M16.9702 115.5H11.7284C10.0742 115.5 8.73315 116.841 8.73315 118.495V122.988C8.73315 124.642 10.0742 125.984 11.7284 125.984H16.9702C18.6245 125.984 19.9655 124.642 19.9655 122.988V118.495C19.9655 116.841 18.6245 115.5 16.9702 115.5Z" fill="black" fill-opacity="0.15"/>
<path d="M16.9702 128.979H11.7284C10.0742 128.979 8.73315 130.32 8.73315 131.974V136.467C8.73315 138.121 10.0742 139.462 11.7284 139.462H16.9702C18.6245 139.462 19.9655 138.121 19.9655 136.467V131.974C19.9655 130.32 18.6245 128.979 16.9702 128.979Z" fill="black" fill-opacity="0.15"/>
<path d="M16.9702 142.457H11.7284C10.0742 142.457 8.73315 143.798 8.73315 145.452V149.945C8.73315 151.6 10.0742 152.941 11.7284 152.941H16.9702C18.6245 152.941 19.9655 151.6 19.9655 149.945V145.452C19.9655 143.798 18.6245 142.457 16.9702 142.457Z" fill="black" fill-opacity="0.15"/>
<path d="M16.9702 155.938H11.7284C10.0742 155.938 8.73315 157.279 8.73315 158.933V164.175C8.73315 165.829 10.0742 167.17 11.7284 167.17H16.9702C18.6245 167.17 19.9655 165.829 19.9655 164.175V158.933C19.9655 157.279 18.6245 155.938 16.9702 155.938Z" fill="black" fill-opacity="0.15"/>
<path d="M16.9702 244.299H11.7284C10.0742 244.299 8.73315 245.64 8.73315 247.294V251.787C8.73315 253.441 10.0742 254.782 11.7284 254.782H16.9702C18.6245 254.782 19.9655 253.441 19.9655 251.787V247.294C19.9655 245.64 18.6245 244.299 16.9702 244.299Z" fill="black" fill-opacity="0.15"/>
<path d="M16.9702 257.777H11.7284C10.0742 257.777 8.73315 259.118 8.73315 260.773V265.266C8.73315 266.92 10.0742 268.261 11.7284 268.261H16.9702C18.6245 268.261 19.9655 266.92 19.9655 265.266V260.773C19.9655 259.118 18.6245 257.777 16.9702 257.777Z" fill="black" fill-opacity="0.15"/>
<path d="M16.9702 271.256H11.7284C10.0742 271.256 8.73315 272.597 8.73315 274.251V278.744C8.73315 280.398 10.0742 281.739 11.7284 281.739H16.9702C18.6245 281.739 19.9655 280.398 19.9655 278.744V274.251C19.9655 272.597 18.6245 271.256 16.9702 271.256Z" fill="black" fill-opacity="0.15"/>
<path d="M16.9702 284.734H11.7284C10.0742 284.734 8.73315 286.075 8.73315 287.73V292.223C8.73315 293.877 10.0742 295.218 11.7284 295.218H16.9702C18.6245 295.218 19.9655 293.877 19.9655 292.223V287.73C19.9655 286.075 18.6245 284.734 16.9702 284.734Z" fill="black" fill-opacity="0.15"/>
<path d="M16.9702 298.213H11.7284C10.0742 298.213 8.73315 299.554 8.73315 301.208V306.45C8.73315 308.104 10.0742 309.445 11.7284 309.445H16.9702C18.6245 309.445 19.9655 308.104 19.9655 306.45V301.208C19.9655 299.554 18.6245 298.213 16.9702 298.213Z" fill="black" fill-opacity="0.15"/>
<path opacity="0.1" d="M25.5818 24.1445V319.181" stroke="white" stroke-width="0.748824"/>
<path opacity="0.1" d="M32.3218 53.3496V97.5302" stroke="white" stroke-width="0.748824"/>
<path opacity="0.1" d="M37.5632 54.8457V97.5286" stroke="white" stroke-width="0.748824"/>
<path opacity="0.1" d="M44.302 68.3242V98.2772" stroke="white" stroke-width="0.748824"/>
<path opacity="0.1" d="M50.293 81.8027V98.2769" stroke="white" stroke-width="0.748824"/>
<path opacity="0.3" d="M69.7624 27.8887H33.07C32.4497 27.8887 31.9468 28.3916 31.9468 29.0119C31.9468 29.6323 32.4497 30.1351 33.07 30.1351H69.7624C70.3827 30.1351 70.8856 29.6323 70.8856 29.0119C70.8856 28.3916 70.3827 27.8887 69.7624 27.8887Z" fill="white"/>
<path opacity="0.3" d="M92.2271 34.627H33.07C32.4497 34.627 31.9468 35.1298 31.9468 35.7502C31.9468 36.3705 32.4497 36.8734 33.07 36.8734H92.2271C92.8474 36.8734 93.3503 36.3705 93.3503 35.7502C93.3503 35.1298 92.8474 34.627 92.2271 34.627Z" fill="white"/>
<path opacity="0.3" d="M76.5018 41.3672H33.07C32.4497 41.3672 31.9468 41.8701 31.9468 42.4904C31.9468 43.1108 32.4497 43.6137 33.07 43.6137H76.5018C77.1221 43.6137 77.625 43.1108 77.625 42.4904C77.625 41.8701 77.1221 41.3672 76.5018 41.3672Z" fill="white"/>
<path opacity="0.3" d="M83.99 48.1055H33.07C32.4497 48.1055 31.9468 48.6084 31.9468 49.2287C31.9468 49.8491 32.4497 50.3519 33.07 50.3519H83.99C84.6104 50.3519 85.1132 49.8491 85.1132 49.2287C85.1132 48.6084 84.6104 48.1055 83.99 48.1055Z" fill="white"/>
<path opacity="0.3" d="M77.9995 54.8457H40.5583C39.9379 54.8457 39.4351 55.3486 39.4351 55.9689C39.4351 56.5893 39.9379 57.0922 40.5583 57.0922H77.9995C78.6198 57.0922 79.1227 56.5893 79.1227 55.9689C79.1227 55.3486 78.6198 54.8457 77.9995 54.8457Z" fill="white"/>
<path opacity="0.3" d="M69.7624 61.5859H40.5583C39.9379 61.5859 39.4351 62.0888 39.4351 62.7092C39.4351 63.3295 39.9379 63.8324 40.5583 63.8324H69.7624C70.3828 63.8324 70.8856 63.3295 70.8856 62.7092C70.8856 62.0888 70.3828 61.5859 69.7624 61.5859Z" fill="white"/>
<path opacity="0.3" d="M77.2505 68.3242H48.0463C47.426 68.3242 46.9231 68.8271 46.9231 69.4475C46.9231 70.0678 47.426 70.5707 48.0463 70.5707H77.2505C77.8708 70.5707 78.3737 70.0678 78.3737 69.4475C78.3737 68.8271 77.8708 68.3242 77.2505 68.3242Z" fill="white"/>
<path opacity="0.3" d="M67.5157 75.0645H48.0463C47.426 75.0645 46.9231 75.5673 46.9231 76.1877C46.9231 76.808 47.426 77.3109 48.0463 77.3109H67.5157C68.1361 77.3109 68.639 76.808 68.639 76.1877C68.639 75.5673 68.1361 75.0645 67.5157 75.0645Z" fill="white"/>
<path opacity="0.3" d="M88.4833 81.8027H55.5351C54.9148 81.8027 54.4119 82.3056 54.4119 82.926C54.4119 83.5463 54.9148 84.0492 55.5351 84.0492H88.4833C89.1037 84.0492 89.6066 83.5463 89.6066 82.926C89.6066 82.3056 89.1037 81.8027 88.4833 81.8027Z" fill="white"/>
<path opacity="0.3" d="M78.7486 88.543H55.5351C54.9148 88.543 54.4119 89.0459 54.4119 89.6662C54.4119 90.2866 54.9148 90.7894 55.5351 90.7894H78.7486C79.369 90.7894 79.8719 90.2866 79.8719 89.6662C79.8719 89.0459 79.369 88.543 78.7486 88.543Z" fill="white"/>
<path opacity="0.3" d="M83.9904 95.2832H55.5351C54.9148 95.2832 54.4119 95.7861 54.4119 96.4064C54.4119 97.0268 54.9148 97.5297 55.5351 97.5297H83.9904C84.6107 97.5297 85.1136 97.0268 85.1136 96.4064C85.1136 95.7861 84.6107 95.2832 83.9904 95.2832Z" fill="white"/>
<path d="M431.819 24.1445H103.834V319.181H431.819V24.1445Z" fill="white" fill-opacity="0.15"/>
<path d="M154.252 128.451H152.923C152.872 128.167 152.776 127.917 152.637 127.701C152.498 127.485 152.328 127.301 152.126 127.151C151.924 127 151.698 126.887 151.448 126.81C151.201 126.733 150.938 126.695 150.66 126.695C150.157 126.695 149.707 126.821 149.309 127.074C148.914 127.327 148.602 127.698 148.372 128.186C148.144 128.675 148.031 129.272 148.031 129.976C148.031 130.686 148.144 131.286 148.372 131.775C148.602 132.263 148.916 132.632 149.313 132.882C149.711 133.132 150.159 133.257 150.656 133.257C150.931 133.257 151.193 133.221 151.44 133.147C151.69 133.07 151.916 132.958 152.117 132.81C152.319 132.662 152.49 132.482 152.629 132.269C152.771 132.053 152.869 131.806 152.923 131.527L154.252 131.532C154.181 131.961 154.044 132.355 153.839 132.716C153.637 133.074 153.377 133.384 153.059 133.645C152.744 133.904 152.383 134.104 151.977 134.246C151.57 134.388 151.127 134.459 150.647 134.459C149.892 134.459 149.218 134.28 148.627 133.922C148.036 133.561 147.57 133.046 147.23 132.375C146.892 131.705 146.722 130.905 146.722 129.976C146.722 129.044 146.893 128.245 147.234 127.577C147.575 126.907 148.041 126.392 148.632 126.034C149.222 125.674 149.894 125.493 150.647 125.493C151.11 125.493 151.542 125.56 151.943 125.694C152.346 125.824 152.708 126.017 153.029 126.273C153.35 126.526 153.616 126.836 153.826 127.202C154.036 127.566 154.178 127.982 154.252 128.451ZM158.483 134.472C157.869 134.472 157.334 134.331 156.876 134.05C156.419 133.769 156.064 133.375 155.811 132.87C155.558 132.364 155.432 131.773 155.432 131.097C155.432 130.418 155.558 129.824 155.811 129.316C156.064 128.807 156.419 128.412 156.876 128.131C157.334 127.85 157.869 127.709 158.483 127.709C159.096 127.709 159.632 127.85 160.089 128.131C160.547 128.412 160.902 128.807 161.155 129.316C161.407 129.824 161.534 130.418 161.534 131.097C161.534 131.773 161.407 132.364 161.155 132.87C160.902 133.375 160.547 133.769 160.089 134.05C159.632 134.331 159.096 134.472 158.483 134.472ZM158.487 133.402C158.885 133.402 159.214 133.297 159.476 133.087C159.737 132.877 159.93 132.597 160.055 132.248C160.183 131.898 160.247 131.513 160.247 131.093C160.247 130.675 160.183 130.292 160.055 129.942C159.93 129.59 159.737 129.307 159.476 129.094C159.214 128.881 158.885 128.775 158.487 128.775C158.086 128.775 157.754 128.881 157.49 129.094C157.229 129.307 157.034 129.59 156.906 129.942C156.781 130.292 156.719 130.675 156.719 131.093C156.719 131.513 156.781 131.898 156.906 132.248C157.034 132.597 157.229 132.877 157.49 133.087C157.754 133.297 158.086 133.402 158.487 133.402ZM162.956 134.34V127.794H164.179V128.86H164.26C164.396 128.499 164.619 128.218 164.929 128.016C165.239 127.811 165.61 127.709 166.041 127.709C166.479 127.709 166.845 127.811 167.141 128.016C167.439 128.221 167.659 128.502 167.801 128.86H167.869C168.026 128.51 168.274 128.232 168.615 128.025C168.956 127.814 169.362 127.709 169.834 127.709C170.428 127.709 170.912 127.895 171.287 128.267C171.665 128.64 171.854 129.201 171.854 129.951V134.34H170.58V130.07C170.58 129.627 170.459 129.306 170.218 129.107C169.976 128.908 169.688 128.809 169.352 128.809C168.938 128.809 168.615 128.936 168.385 129.192C168.155 129.445 168.04 129.77 168.04 130.168V134.34H166.77V129.989C166.77 129.634 166.659 129.348 166.438 129.132C166.216 128.917 165.928 128.809 165.573 128.809C165.331 128.809 165.108 128.873 164.904 129C164.702 129.125 164.539 129.3 164.414 129.525C164.291 129.749 164.23 130.009 164.23 130.304V134.34H162.956ZM180.884 131.625V127.794H182.162V134.34H180.909V133.206H180.841C180.691 133.556 180.449 133.847 180.117 134.08C179.787 134.31 179.377 134.425 178.885 134.425C178.465 134.425 178.093 134.333 177.769 134.148C177.448 133.961 177.195 133.684 177.01 133.317C176.828 132.951 176.737 132.498 176.737 131.958V127.794H178.012V131.804C178.012 132.25 178.135 132.605 178.382 132.87C178.629 133.134 178.95 133.266 179.345 133.266C179.584 133.266 179.821 133.206 180.057 133.087C180.296 132.968 180.493 132.787 180.649 132.546C180.808 132.304 180.887 131.998 180.884 131.625ZM183.874 134.34V127.794H185.097V128.86H185.178C185.314 128.499 185.537 128.218 185.847 128.016C186.157 127.811 186.528 127.709 186.959 127.709C187.397 127.709 187.763 127.811 188.059 128.016C188.357 128.221 188.577 128.502 188.719 128.86H188.787C188.944 128.51 189.192 128.232 189.533 128.025C189.874 127.814 190.28 127.709 190.752 127.709C191.346 127.709 191.83 127.895 192.205 128.267C192.583 128.64 192.772 129.201 192.772 129.951V134.34H191.498V130.07C191.498 129.627 191.377 129.306 191.135 129.107C190.894 128.908 190.606 128.809 190.27 128.809C189.856 128.809 189.533 128.936 189.303 129.192C189.073 129.445 188.958 129.77 188.958 130.168V134.34H187.688V129.989C187.688 129.634 187.577 129.348 187.356 129.132C187.134 128.917 186.846 128.809 186.491 128.809C186.249 128.809 186.026 128.873 185.822 129C185.62 129.125 185.456 129.3 185.331 129.525C185.209 129.749 185.148 130.009 185.148 130.304V134.34H183.874ZM196.384 134.485C195.97 134.485 195.595 134.408 195.259 134.255C194.924 134.098 194.659 133.873 194.463 133.577C194.269 133.282 194.173 132.919 194.173 132.49C194.173 132.121 194.244 131.817 194.386 131.578C194.528 131.34 194.72 131.151 194.961 131.012C195.203 130.873 195.472 130.767 195.771 130.696C196.069 130.625 196.373 130.571 196.683 130.534C197.075 130.489 197.393 130.452 197.637 130.424C197.882 130.392 198.059 130.343 198.17 130.275C198.281 130.206 198.336 130.096 198.336 129.942V129.912C198.336 129.54 198.231 129.252 198.021 129.047C197.813 128.843 197.504 128.74 197.092 128.74C196.663 128.74 196.325 128.836 196.078 129.026C195.833 129.213 195.664 129.422 195.57 129.652L194.373 129.38C194.515 128.982 194.722 128.661 194.995 128.417C195.271 128.169 195.588 127.99 195.945 127.88C196.303 127.766 196.68 127.709 197.075 127.709C197.336 127.709 197.613 127.74 197.906 127.803C198.201 127.863 198.477 127.973 198.732 128.135C198.991 128.297 199.203 128.529 199.367 128.83C199.532 129.128 199.615 129.516 199.615 129.993V134.34H198.37V133.445H198.319C198.237 133.61 198.113 133.772 197.948 133.931C197.784 134.09 197.572 134.222 197.313 134.327C197.055 134.432 196.745 134.485 196.384 134.485ZM196.661 133.462C197.014 133.462 197.315 133.392 197.565 133.253C197.818 133.114 198.009 132.932 198.14 132.708C198.274 132.48 198.34 132.238 198.34 131.979V131.135C198.295 131.181 198.207 131.223 198.076 131.263C197.948 131.3 197.802 131.333 197.637 131.361C197.472 131.387 197.312 131.411 197.156 131.434C196.999 131.453 196.869 131.471 196.764 131.485C196.517 131.516 196.291 131.569 196.086 131.642C195.884 131.716 195.722 131.823 195.6 131.962C195.481 132.098 195.421 132.28 195.421 132.507C195.421 132.823 195.538 133.061 195.771 133.223C196.004 133.382 196.301 133.462 196.661 133.462ZM207.308 134.472C206.664 134.472 206.108 134.334 205.642 134.059C205.179 133.78 204.821 133.39 204.568 132.887C204.318 132.381 204.193 131.789 204.193 131.11C204.193 130.439 204.318 129.848 204.568 129.337C204.821 128.826 205.173 128.426 205.625 128.14C206.08 127.853 206.611 127.709 207.219 127.709C207.588 127.709 207.946 127.77 208.293 127.892C208.639 128.015 208.95 128.206 209.226 128.468C209.502 128.729 209.719 129.069 209.878 129.486C210.037 129.901 210.117 130.405 210.117 130.999V131.451H204.914V130.496H208.868C208.868 130.161 208.8 129.864 208.664 129.605C208.527 129.344 208.335 129.138 208.088 128.988C207.844 128.837 207.557 128.762 207.227 128.762C206.869 128.762 206.557 128.85 206.29 129.026C206.026 129.199 205.821 129.426 205.676 129.708C205.534 129.986 205.463 130.289 205.463 130.615V131.361C205.463 131.799 205.54 132.171 205.693 132.478C205.85 132.784 206.067 133.019 206.345 133.181C206.624 133.34 206.949 133.419 207.321 133.419C207.563 133.419 207.783 133.385 207.982 133.317C208.181 133.246 208.352 133.141 208.497 133.002C208.642 132.863 208.753 132.691 208.83 132.486L210.036 132.703C209.939 133.059 209.766 133.37 209.516 133.637C209.269 133.901 208.958 134.107 208.583 134.255C208.21 134.4 207.786 134.472 207.308 134.472ZM215.949 136.794V133.321H215.873C215.796 133.461 215.685 133.62 215.54 133.799C215.398 133.978 215.202 134.134 214.952 134.267C214.702 134.401 214.378 134.468 213.981 134.468C213.452 134.468 212.981 134.333 212.566 134.063C212.154 133.79 211.83 133.402 211.594 132.9C211.361 132.394 211.245 131.787 211.245 131.08C211.245 130.373 211.363 129.767 211.599 129.265C211.837 128.762 212.164 128.377 212.579 128.11C212.993 127.843 213.464 127.709 213.989 127.709C214.395 127.709 214.722 127.777 214.969 127.914C215.219 128.047 215.412 128.203 215.549 128.382C215.688 128.561 215.796 128.719 215.873 128.855H215.979V127.794H217.224V136.794H215.949ZM214.262 133.381C214.628 133.381 214.938 133.284 215.191 133.091C215.447 132.895 215.64 132.624 215.77 132.277C215.904 131.931 215.971 131.527 215.971 131.067C215.971 130.613 215.905 130.215 215.775 129.874C215.644 129.533 215.452 129.267 215.199 129.077C214.947 128.887 214.634 128.792 214.262 128.792C213.878 128.792 213.559 128.891 213.303 129.09C213.047 129.289 212.854 129.56 212.724 129.904C212.596 130.248 212.532 130.635 212.532 131.067C212.532 131.505 212.597 131.898 212.728 132.248C212.858 132.597 213.052 132.874 213.307 133.078C213.566 133.28 213.884 133.381 214.262 133.381ZM223.083 131.625V127.794H224.361V134.34H223.108V133.206H223.04C222.89 133.556 222.648 133.847 222.316 134.08C221.986 134.31 221.576 134.425 221.084 134.425C220.664 134.425 220.292 134.333 219.968 134.148C219.647 133.961 219.394 133.684 219.209 133.317C219.028 132.951 218.937 132.498 218.937 131.958V127.794H220.211V131.804C220.211 132.25 220.334 132.605 220.581 132.87C220.829 133.134 221.15 133.266 221.545 133.266C221.783 133.266 222.02 133.206 222.256 133.087C222.495 132.968 222.692 132.787 222.849 132.546C223.008 132.304 223.086 131.998 223.083 131.625ZM226.073 134.34V127.794H227.347V134.34H226.073ZM226.717 126.784C226.495 126.784 226.305 126.711 226.146 126.563C225.99 126.412 225.911 126.233 225.911 126.026C225.911 125.816 225.99 125.637 226.146 125.489C226.305 125.338 226.495 125.263 226.717 125.263C226.938 125.263 227.127 125.338 227.284 125.489C227.443 125.637 227.522 125.816 227.522 126.026C227.522 126.233 227.443 126.412 227.284 126.563C227.127 126.711 226.938 126.784 226.717 126.784ZM229.062 136.794V127.794H230.306V128.855H230.412C230.486 128.719 230.593 128.561 230.732 128.382C230.871 128.203 231.064 128.047 231.312 127.914C231.559 127.777 231.885 127.709 232.292 127.709C232.82 127.709 233.292 127.843 233.706 128.11C234.121 128.377 234.447 128.762 234.682 129.265C234.921 129.767 235.04 130.373 235.04 131.08C235.04 131.787 234.922 132.394 234.687 132.9C234.451 133.402 234.127 133.79 233.715 134.063C233.303 134.333 232.833 134.468 232.305 134.468C231.907 134.468 231.581 134.401 231.329 134.267C231.079 134.134 230.883 133.978 230.741 133.799C230.599 133.62 230.489 133.461 230.412 133.321H230.336V136.794H229.062ZM230.31 131.067C230.31 131.527 230.377 131.931 230.51 132.277C230.644 132.624 230.837 132.895 231.09 133.091C231.343 133.284 231.653 133.381 232.019 133.381C232.4 133.381 232.718 133.28 232.974 133.078C233.229 132.874 233.422 132.597 233.553 132.248C233.687 131.898 233.753 131.505 233.753 131.067C233.753 130.635 233.688 130.248 233.557 129.904C233.43 129.56 233.236 129.289 232.978 129.09C232.722 128.891 232.403 128.792 232.019 128.792C231.65 128.792 231.337 128.887 231.081 129.077C230.829 129.267 230.637 129.533 230.506 129.874C230.376 130.215 230.31 130.613 230.31 131.067ZM239.289 134.472C238.644 134.472 238.089 134.334 237.623 134.059C237.16 133.78 236.802 133.39 236.549 132.887C236.299 132.381 236.174 131.789 236.174 131.11C236.174 130.439 236.299 129.848 236.549 129.337C236.802 128.826 237.154 128.426 237.606 128.14C238.06 127.853 238.591 127.709 239.199 127.709C239.569 127.709 239.927 127.77 240.273 127.892C240.62 128.015 240.931 128.206 241.206 128.468C241.482 128.729 241.699 129.069 241.858 129.486C242.018 129.901 242.097 130.405 242.097 130.999V131.451H236.894V130.496H240.849C240.849 130.161 240.78 129.864 240.644 129.605C240.508 129.344 240.316 129.138 240.069 128.988C239.824 128.837 239.537 128.762 239.208 128.762C238.85 128.762 238.537 128.85 238.27 129.026C238.006 129.199 237.802 129.426 237.657 129.708C237.515 129.986 237.444 130.289 237.444 130.615V131.361C237.444 131.799 237.52 132.171 237.674 132.478C237.83 132.784 238.047 133.019 238.326 133.181C238.604 133.34 238.93 133.419 239.302 133.419C239.543 133.419 239.763 133.385 239.962 133.317C240.161 133.246 240.333 133.141 240.478 133.002C240.623 132.863 240.733 132.691 240.81 132.486L242.016 132.703C241.92 133.059 241.746 133.37 241.496 133.637C241.249 133.901 240.938 134.107 240.563 134.255C240.191 134.4 239.766 134.472 239.289 134.472ZM249.137 134.468C248.608 134.468 248.137 134.333 247.722 134.063C247.31 133.79 246.986 133.402 246.751 132.9C246.518 132.394 246.401 131.787 246.401 131.08C246.401 130.373 246.519 129.767 246.755 129.265C246.993 128.762 247.32 128.377 247.735 128.11C248.15 127.843 248.62 127.709 249.145 127.709C249.552 127.709 249.878 127.777 250.126 127.914C250.376 128.047 250.569 128.203 250.705 128.382C250.844 128.561 250.952 128.719 251.029 128.855H251.106V125.613H252.38V134.34H251.135V133.321H251.029C250.952 133.461 250.841 133.62 250.697 133.799C250.555 133.978 250.358 134.134 250.108 134.267C249.858 134.401 249.535 134.468 249.137 134.468ZM249.418 133.381C249.785 133.381 250.094 133.284 250.347 133.091C250.603 132.895 250.796 132.624 250.927 132.277C251.06 131.931 251.127 131.527 251.127 131.067C251.127 130.613 251.062 130.215 250.931 129.874C250.8 129.533 250.608 129.267 250.356 129.077C250.103 128.887 249.79 128.792 249.418 128.792C249.035 128.792 248.715 128.891 248.459 129.09C248.204 129.289 248.01 129.56 247.88 129.904C247.752 130.248 247.688 130.635 247.688 131.067C247.688 131.505 247.753 131.898 247.884 132.248C248.015 132.597 248.208 132.874 248.464 133.078C248.722 133.28 249.04 133.381 249.418 133.381ZM257.019 134.472C256.374 134.472 255.819 134.334 255.353 134.059C254.89 133.78 254.532 133.39 254.279 132.887C254.029 132.381 253.904 131.789 253.904 131.11C253.904 130.439 254.029 129.848 254.279 129.337C254.532 128.826 254.884 128.426 255.336 128.14C255.791 127.853 256.322 127.709 256.93 127.709C257.299 127.709 257.657 127.77 258.004 127.892C258.35 128.015 258.661 128.206 258.937 128.468C259.213 128.729 259.43 129.069 259.589 129.486C259.748 129.901 259.828 130.405 259.828 130.999V131.451H254.624V130.496H258.579C258.579 130.161 258.511 129.864 258.374 129.605C258.238 129.344 258.046 129.138 257.799 128.988C257.555 128.837 257.268 128.762 256.938 128.762C256.58 128.762 256.268 128.85 256.001 129.026C255.737 129.199 255.532 129.426 255.387 129.708C255.245 129.986 255.174 130.289 255.174 130.615V131.361C255.174 131.799 255.251 132.171 255.404 132.478C255.561 132.784 255.778 133.019 256.056 133.181C256.335 133.34 256.66 133.419 257.032 133.419C257.274 133.419 257.494 133.385 257.693 133.317C257.892 133.246 258.063 133.141 258.208 133.002C258.353 132.863 258.464 132.691 258.541 132.486L259.747 132.703C259.65 133.059 259.477 133.37 259.227 133.637C258.98 133.901 258.669 134.107 258.294 134.255C257.921 134.4 257.497 134.472 257.019 134.472ZM149.722 149.472C149.078 149.472 148.522 149.334 148.056 149.059C147.593 148.78 147.235 148.39 146.982 147.887C146.732 147.381 146.607 146.789 146.607 146.11C146.607 145.439 146.732 144.848 146.982 144.337C147.235 143.826 147.588 143.426 148.039 143.14C148.494 142.853 149.025 142.709 149.633 142.709C150.002 142.709 150.36 142.77 150.707 142.892C151.053 143.015 151.365 143.206 151.64 143.468C151.916 143.729 152.133 144.069 152.292 144.486C152.451 144.901 152.531 145.405 152.531 145.999V146.451H147.328V145.496H151.282C151.282 145.161 151.214 144.864 151.078 144.605C150.941 144.344 150.749 144.138 150.502 143.988C150.258 143.837 149.971 143.762 149.642 143.762C149.284 143.762 148.971 143.85 148.704 144.026C148.44 144.199 148.235 144.426 148.09 144.708C147.948 144.986 147.877 145.289 147.877 145.615V146.361C147.877 146.799 147.954 147.171 148.107 147.478C148.264 147.784 148.481 148.019 148.759 148.181C149.038 148.34 149.363 148.419 149.735 148.419C149.977 148.419 150.197 148.385 150.396 148.317C150.595 148.246 150.767 148.141 150.911 148.002C151.056 147.863 151.167 147.691 151.244 147.486L152.45 147.703C152.353 148.059 152.18 148.37 151.93 148.637C151.683 148.901 151.372 149.107 150.997 149.255C150.624 149.4 150.2 149.472 149.722 149.472ZM158.849 144.392L157.694 144.597C157.646 144.449 157.569 144.309 157.464 144.175C157.362 144.042 157.223 143.932 157.047 143.847C156.871 143.762 156.65 143.719 156.386 143.719C156.025 143.719 155.724 143.8 155.483 143.962C155.241 144.121 155.121 144.327 155.121 144.58C155.121 144.799 155.202 144.975 155.363 145.108C155.525 145.242 155.787 145.351 156.148 145.436L157.187 145.675C157.79 145.814 158.238 146.029 158.534 146.319C158.829 146.608 158.977 146.985 158.977 147.448C158.977 147.84 158.863 148.189 158.636 148.496C158.412 148.8 158.098 149.039 157.694 149.212C157.294 149.385 156.829 149.472 156.301 149.472C155.568 149.472 154.97 149.316 154.507 149.003C154.044 148.688 153.76 148.24 153.655 147.661L154.886 147.473C154.963 147.794 155.121 148.037 155.359 148.202C155.598 148.364 155.909 148.445 156.292 148.445C156.71 148.445 157.044 148.358 157.294 148.185C157.544 148.009 157.669 147.794 157.669 147.542C157.669 147.337 157.592 147.165 157.439 147.026C157.288 146.887 157.057 146.782 156.744 146.711L155.636 146.468C155.025 146.328 154.574 146.107 154.281 145.803C153.991 145.499 153.846 145.114 153.846 144.648C153.846 144.262 153.954 143.924 154.17 143.634C154.386 143.344 154.684 143.118 155.065 142.956C155.446 142.792 155.882 142.709 156.373 142.709C157.081 142.709 157.638 142.863 158.044 143.169C158.45 143.473 158.719 143.881 158.849 144.392ZM160.378 151.794V142.794H161.622V143.855H161.729C161.803 143.719 161.909 143.561 162.048 143.382C162.188 143.203 162.381 143.047 162.628 142.914C162.875 142.777 163.202 142.709 163.608 142.709C164.137 142.709 164.608 142.843 165.023 143.11C165.438 143.377 165.763 143.762 165.999 144.265C166.237 144.767 166.357 145.373 166.357 146.08C166.357 146.787 166.239 147.394 166.003 147.9C165.767 148.402 165.443 148.79 165.031 149.063C164.619 149.333 164.149 149.468 163.621 149.468C163.223 149.468 162.898 149.401 162.645 149.267C162.395 149.134 162.199 148.978 162.057 148.799C161.915 148.62 161.806 148.461 161.729 148.321H161.652V151.794H160.378ZM161.627 146.067C161.627 146.527 161.693 146.931 161.827 147.277C161.96 147.624 162.154 147.895 162.406 148.091C162.659 148.284 162.969 148.381 163.335 148.381C163.716 148.381 164.034 148.28 164.29 148.078C164.546 147.874 164.739 147.597 164.869 147.248C165.003 146.898 165.07 146.505 165.07 146.067C165.07 145.635 165.004 145.248 164.874 144.904C164.746 144.56 164.553 144.289 164.294 144.09C164.039 143.891 163.719 143.792 163.335 143.792C162.966 143.792 162.654 143.887 162.398 144.077C162.145 144.267 161.953 144.533 161.823 144.874C161.692 145.215 161.627 145.613 161.627 146.067ZM170.605 149.472C169.96 149.472 169.405 149.334 168.939 149.059C168.476 148.78 168.118 148.39 167.865 147.887C167.615 147.381 167.49 146.789 167.49 146.11C167.49 145.439 167.615 144.848 167.865 144.337C168.118 143.826 168.47 143.426 168.922 143.14C169.377 142.853 169.908 142.709 170.516 142.709C170.885 142.709 171.243 142.77 171.59 142.892C171.936 143.015 172.247 143.206 172.523 143.468C172.798 143.729 173.016 144.069 173.175 144.486C173.334 144.901 173.414 145.405 173.414 145.999V146.451H168.21V145.496H172.165C172.165 145.161 172.097 144.864 171.96 144.605C171.824 144.344 171.632 144.138 171.385 143.988C171.141 143.837 170.854 143.762 170.524 143.762C170.166 143.762 169.854 143.85 169.587 144.026C169.323 144.199 169.118 144.426 168.973 144.708C168.831 144.986 168.76 145.289 168.76 145.615V146.361C168.76 146.799 168.837 147.171 168.99 147.478C169.146 147.784 169.364 148.019 169.642 148.181C169.921 148.34 170.246 148.419 170.618 148.419C170.86 148.419 171.08 148.385 171.279 148.317C171.477 148.246 171.649 148.141 171.794 148.002C171.939 147.863 172.05 147.691 172.127 147.486L173.333 147.703C173.236 148.059 173.063 148.37 172.813 148.637C172.566 148.901 172.254 149.107 171.879 149.255C171.507 149.4 171.083 149.472 170.605 149.472ZM177.584 149.472C176.951 149.472 176.405 149.328 175.948 149.042C175.493 148.752 175.144 148.353 174.9 147.844C174.655 147.336 174.533 146.753 174.533 146.097C174.533 145.432 174.658 144.846 174.908 144.337C175.158 143.826 175.51 143.426 175.965 143.14C176.42 142.853 176.955 142.709 177.572 142.709C178.069 142.709 178.512 142.801 178.901 142.986C179.29 143.168 179.604 143.424 179.843 143.753C180.084 144.083 180.228 144.468 180.273 144.908H179.033C178.965 144.601 178.809 144.337 178.564 144.115C178.323 143.894 177.999 143.783 177.593 143.783C177.238 143.783 176.927 143.877 176.66 144.064C176.395 144.249 176.189 144.513 176.042 144.857C175.894 145.198 175.82 145.601 175.82 146.067C175.82 146.544 175.893 146.956 176.037 147.303C176.182 147.65 176.387 147.918 176.651 148.108C176.918 148.299 177.232 148.394 177.593 148.394C177.834 148.394 178.053 148.35 178.249 148.262C178.448 148.171 178.614 148.042 178.748 147.874C178.884 147.706 178.979 147.505 179.033 147.269H180.273C180.228 147.692 180.09 148.07 179.86 148.402C179.63 148.735 179.322 148.996 178.935 149.186C178.552 149.377 178.101 149.472 177.584 149.472ZM181.636 149.34V142.794H182.91V149.34H181.636ZM182.279 141.784C182.058 141.784 181.867 141.711 181.708 141.563C181.552 141.412 181.474 141.233 181.474 141.026C181.474 140.816 181.552 140.637 181.708 140.489C181.867 140.338 182.058 140.263 182.279 140.263C182.501 140.263 182.69 140.338 182.846 140.489C183.005 140.637 183.085 140.816 183.085 141.026C183.085 141.233 183.005 141.412 182.846 141.563C182.69 141.711 182.501 141.784 182.279 141.784ZM186.529 149.485C186.114 149.485 185.739 149.408 185.404 149.255C185.069 149.098 184.803 148.873 184.607 148.577C184.414 148.282 184.317 147.919 184.317 147.49C184.317 147.121 184.388 146.817 184.53 146.578C184.672 146.34 184.864 146.151 185.106 146.012C185.347 145.873 185.617 145.767 185.915 145.696C186.214 145.625 186.518 145.571 186.827 145.534C187.219 145.489 187.537 145.452 187.782 145.424C188.026 145.392 188.204 145.343 188.314 145.275C188.425 145.206 188.481 145.096 188.481 144.942V144.912C188.481 144.54 188.376 144.252 188.165 144.047C187.958 143.843 187.648 143.74 187.236 143.74C186.807 143.74 186.469 143.836 186.222 144.026C185.978 144.213 185.809 144.422 185.715 144.652L184.518 144.38C184.66 143.982 184.867 143.661 185.14 143.417C185.415 143.169 185.732 142.99 186.09 142.88C186.448 142.766 186.824 142.709 187.219 142.709C187.481 142.709 187.758 142.74 188.05 142.803C188.346 142.863 188.621 142.973 188.877 143.135C189.135 143.297 189.347 143.529 189.512 143.83C189.677 144.128 189.759 144.516 189.759 144.993V149.34H188.515V148.445H188.464C188.381 148.61 188.258 148.772 188.093 148.931C187.928 149.09 187.716 149.222 187.458 149.327C187.199 149.432 186.89 149.485 186.529 149.485ZM186.806 148.462C187.158 148.462 187.459 148.392 187.709 148.253C187.962 148.114 188.154 147.932 188.285 147.708C188.418 147.48 188.485 147.238 188.485 146.979V146.135C188.439 146.181 188.351 146.223 188.221 146.263C188.093 146.3 187.947 146.333 187.782 146.361C187.617 146.387 187.456 146.411 187.3 146.434C187.144 146.453 187.013 146.471 186.908 146.485C186.661 146.516 186.435 146.569 186.231 146.642C186.029 146.716 185.867 146.823 185.745 146.962C185.626 147.098 185.566 147.28 185.566 147.507C185.566 147.823 185.682 148.061 185.915 148.223C186.148 148.382 186.445 148.462 186.806 148.462ZM192.73 140.613V149.34H191.456V140.613H192.73ZM194.444 149.34V142.794H195.719V149.34H194.444ZM195.088 141.784C194.866 141.784 194.676 141.711 194.517 141.563C194.361 141.412 194.282 141.233 194.282 141.026C194.282 140.816 194.361 140.637 194.517 140.489C194.676 140.338 194.866 140.263 195.088 140.263C195.309 140.263 195.498 140.338 195.655 140.489C195.814 140.637 195.893 140.816 195.893 141.026C195.893 141.233 195.814 141.412 195.655 141.563C195.498 141.711 195.309 141.784 195.088 141.784ZM202.338 144.392L201.183 144.597C201.134 144.449 201.058 144.309 200.953 144.175C200.85 144.042 200.711 143.932 200.535 143.847C200.359 143.762 200.139 143.719 199.874 143.719C199.514 143.719 199.213 143.8 198.971 143.962C198.73 144.121 198.609 144.327 198.609 144.58C198.609 144.799 198.69 144.975 198.852 145.108C199.014 145.242 199.275 145.351 199.636 145.436L200.676 145.675C201.278 145.814 201.727 146.029 202.022 146.319C202.318 146.608 202.465 146.985 202.465 147.448C202.465 147.84 202.352 148.189 202.124 148.496C201.9 148.8 201.586 149.039 201.183 149.212C200.782 149.385 200.318 149.472 199.789 149.472C199.056 149.472 198.458 149.316 197.995 149.003C197.532 148.688 197.248 148.24 197.143 147.661L198.374 147.473C198.451 147.794 198.609 148.037 198.847 148.202C199.086 148.364 199.397 148.445 199.781 148.445C200.198 148.445 200.532 148.358 200.782 148.185C201.032 148.009 201.157 147.794 201.157 147.542C201.157 147.337 201.08 147.165 200.927 147.026C200.776 146.887 200.545 146.782 200.232 146.711L199.124 146.468C198.514 146.328 198.062 146.107 197.769 145.803C197.48 145.499 197.335 145.114 197.335 144.648C197.335 144.262 197.443 143.924 197.659 143.634C197.874 143.344 198.173 143.118 198.553 142.956C198.934 142.792 199.37 142.709 199.862 142.709C200.569 142.709 201.126 142.863 201.532 143.169C201.938 143.473 202.207 143.881 202.338 144.392ZM206.922 142.794V143.817H203.346V142.794H206.922ZM204.305 141.226H205.579V147.418C205.579 147.665 205.616 147.851 205.69 147.976C205.764 148.098 205.859 148.182 205.976 148.228C206.095 148.27 206.224 148.292 206.363 148.292C206.466 148.292 206.555 148.284 206.632 148.27C206.709 148.256 206.768 148.245 206.811 148.236L207.041 149.289C206.967 149.317 206.862 149.346 206.726 149.374C206.589 149.405 206.419 149.422 206.214 149.425C205.879 149.431 205.567 149.371 205.277 149.246C204.987 149.121 204.753 148.928 204.574 148.667C204.395 148.405 204.305 148.077 204.305 147.682V141.226ZM210.236 149.485C209.821 149.485 209.446 149.408 209.111 149.255C208.776 149.098 208.51 148.873 208.314 148.577C208.121 148.282 208.024 147.919 208.024 147.49C208.024 147.121 208.095 146.817 208.237 146.578C208.379 146.34 208.571 146.151 208.813 146.012C209.054 145.873 209.324 145.767 209.622 145.696C209.921 145.625 210.225 145.571 210.534 145.534C210.926 145.489 211.244 145.452 211.489 145.424C211.733 145.392 211.911 145.343 212.021 145.275C212.132 145.206 212.188 145.096 212.188 144.942V144.912C212.188 144.54 212.083 144.252 211.872 144.047C211.665 143.843 211.355 143.74 210.943 143.74C210.514 143.74 210.176 143.836 209.929 144.026C209.685 144.213 209.516 144.422 209.422 144.652L208.225 144.38C208.367 143.982 208.574 143.661 208.847 143.417C209.122 143.169 209.439 142.99 209.797 142.88C210.155 142.766 210.531 142.709 210.926 142.709C211.188 142.709 211.465 142.74 211.757 142.803C212.053 142.863 212.328 142.973 212.584 143.135C212.843 143.297 213.054 143.529 213.219 143.83C213.384 144.128 213.466 144.516 213.466 144.993V149.34H212.222V148.445H212.171C212.088 148.61 211.965 148.772 211.8 148.931C211.635 149.09 211.423 149.222 211.165 149.327C210.906 149.432 210.597 149.485 210.236 149.485ZM210.513 148.462C210.865 148.462 211.166 148.392 211.416 148.253C211.669 148.114 211.861 147.932 211.992 147.708C212.125 147.48 212.192 147.238 212.192 146.979V146.135C212.146 146.181 212.058 146.223 211.928 146.263C211.8 146.3 211.654 146.333 211.489 146.361C211.324 146.387 211.164 146.411 211.007 146.434C210.851 146.453 210.72 146.471 210.615 146.485C210.368 146.516 210.142 146.569 209.938 146.642C209.736 146.716 209.574 146.823 209.452 146.962C209.333 147.098 209.273 147.28 209.273 147.507C209.273 147.823 209.389 148.061 209.622 148.223C209.855 148.382 210.152 148.462 210.513 148.462ZM220.068 144.392L218.913 144.597C218.865 144.449 218.788 144.309 218.683 144.175C218.581 144.042 218.442 143.932 218.265 143.847C218.089 143.762 217.869 143.719 217.605 143.719C217.244 143.719 216.943 143.8 216.702 143.962C216.46 144.121 216.339 144.327 216.339 144.58C216.339 144.799 216.42 144.975 216.582 145.108C216.744 145.242 217.006 145.351 217.366 145.436L218.406 145.675C219.008 145.814 219.457 146.029 219.753 146.319C220.048 146.608 220.196 146.985 220.196 147.448C220.196 147.84 220.082 148.189 219.855 148.496C219.631 148.8 219.317 149.039 218.913 149.212C218.513 149.385 218.048 149.472 217.52 149.472C216.787 149.472 216.189 149.316 215.726 149.003C215.263 148.688 214.979 148.24 214.873 147.661L216.105 147.473C216.182 147.794 216.339 148.037 216.578 148.202C216.817 148.364 217.128 148.445 217.511 148.445C217.929 148.445 218.263 148.358 218.513 148.185C218.763 148.009 218.888 147.794 218.888 147.542C218.888 147.337 218.811 147.165 218.657 147.026C218.507 146.887 218.275 146.782 217.963 146.711L216.855 146.468C216.244 146.328 215.792 146.107 215.5 145.803C215.21 145.499 215.065 145.114 215.065 144.648C215.065 144.262 215.173 143.924 215.389 143.634C215.605 143.344 215.903 143.118 216.284 142.956C216.665 142.792 217.101 142.709 217.592 142.709C218.3 142.709 218.856 142.863 219.263 143.169C219.669 143.473 219.937 143.881 220.068 144.392ZM226.379 140.613L226.268 146.83H225.088L224.977 140.613H226.379ZM225.68 149.421C225.444 149.421 225.243 149.338 225.075 149.174C224.907 149.006 224.825 148.804 224.828 148.569C224.825 148.336 224.907 148.137 225.075 147.972C225.243 147.804 225.444 147.721 225.68 147.721C225.91 147.721 226.109 147.804 226.277 147.972C226.444 148.137 226.53 148.336 226.532 148.569C226.53 148.725 226.488 148.868 226.409 148.999C226.332 149.127 226.23 149.229 226.102 149.306C225.974 149.382 225.834 149.421 225.68 149.421Z" fill="white"/>
<path d="M523.175 30.1348H440.805C439.15 30.1348 437.809 31.4758 437.809 33.1301V36.8742C437.809 38.5284 439.15 39.8695 440.805 39.8695H523.175C524.829 39.8695 526.171 38.5284 526.171 36.8742V33.1301C526.171 31.4758 524.829 30.1348 523.175 30.1348Z" fill="black" fill-opacity="0.15"/>
<path d="M523.175 46.6094H440.805C439.15 46.6094 437.809 47.9504 437.809 49.6047V86.297C437.809 87.9513 439.15 89.2923 440.805 89.2923H523.175C524.829 89.2923 526.171 87.9513 526.171 86.297V49.6047C526.171 47.9504 524.829 46.6094 523.175 46.6094Z" fill="black" fill-opacity="0.15"/>
<path d="M523.175 96.0312H440.805C439.15 96.0312 437.809 97.3723 437.809 99.0265V120.742C437.809 122.397 439.15 123.738 440.805 123.738H523.175C524.829 123.738 526.171 122.397 526.171 120.742V99.0265C526.171 97.3723 524.829 96.0312 523.175 96.0312Z" fill="black" fill-opacity="0.15"/>
<path d="M523.175 130.477H440.805C439.15 130.477 437.809 131.818 437.809 133.472V194.127C437.809 195.781 439.15 197.122 440.805 197.122H523.175C524.829 197.122 526.171 195.781 526.171 194.127V133.472C526.171 131.818 524.829 130.477 523.175 130.477Z" fill="black" fill-opacity="0.15"/>
<path d="M523.175 203.861H440.805C439.15 203.861 437.809 205.202 437.809 206.857V227.824C437.809 229.478 439.15 230.819 440.805 230.819H523.175C524.829 230.819 526.171 229.478 526.171 227.824V206.857C526.171 205.202 524.829 203.861 523.175 203.861Z" fill="black" fill-opacity="0.15"/>
<path d="M523.175 237.559H440.805C439.15 237.559 437.809 238.9 437.809 240.554V280.99C437.809 282.645 439.15 283.986 440.805 283.986H523.175C524.829 283.986 526.171 282.645 526.171 280.99V240.554C526.171 238.9 524.829 237.559 523.175 237.559Z" fill="black" fill-opacity="0.15"/>
<path d="M523.175 290.725H440.805C439.15 290.725 437.809 292.066 437.809 293.72V316.933C437.809 318.588 439.15 319.929 440.805 319.929H523.175C524.829 319.929 526.171 318.588 526.171 316.933V293.72C526.171 292.066 524.829 290.725 523.175 290.725Z" fill="black" fill-opacity="0.15"/>
<path d="M148.27 85V72.1202H156.521V74.0761H150.604V77.5727H155.955V79.5286H150.604V85H148.27ZM161.24 85.195C160.628 85.195 160.076 85.0859 159.586 84.8679C159.099 84.6457 158.714 84.3187 158.429 83.8869C158.148 83.455 158.007 82.9225 158.007 82.2895C158.007 81.7444 158.108 81.2937 158.309 80.9373C158.51 80.581 158.785 80.2959 159.133 80.082C159.481 79.8682 159.873 79.7068 160.309 79.5978C160.749 79.4846 161.204 79.4028 161.674 79.3525C162.24 79.2938 162.699 79.2414 163.051 79.1953C163.403 79.145 163.659 79.0695 163.818 78.9689C163.982 78.8641 164.064 78.7027 164.064 78.4846V78.4469C164.064 77.9731 163.923 77.6063 163.642 77.3463C163.361 77.0864 162.957 76.9564 162.428 76.9564C161.871 76.9564 161.428 77.078 161.101 77.3212C160.779 77.5643 160.561 77.8515 160.447 78.1828L158.322 77.8809C158.489 77.2939 158.766 76.8034 159.152 76.4093C159.538 76.011 160.009 75.7133 160.567 75.5162C161.124 75.315 161.741 75.2144 162.416 75.2144C162.881 75.2144 163.344 75.2689 163.806 75.3779C164.267 75.4869 164.688 75.6672 165.07 75.9187C165.451 76.1661 165.757 76.5036 165.988 76.9313C166.223 77.3589 166.34 77.8935 166.34 78.5349V85H164.152V83.673H164.076C163.938 83.9414 163.743 84.1929 163.491 84.4277C163.244 84.6583 162.932 84.8449 162.554 84.9874C162.181 85.1258 161.743 85.195 161.24 85.195ZM161.831 83.5221C162.288 83.5221 162.684 83.432 163.02 83.2517C163.355 83.0672 163.613 82.824 163.793 82.5221C163.978 82.2203 164.07 81.8912 164.07 81.5348V80.3965C163.999 80.4552 163.877 80.5097 163.705 80.56C163.537 80.6103 163.349 80.6543 163.139 80.6921C162.929 80.7298 162.722 80.7633 162.516 80.7927C162.311 80.822 162.133 80.8472 161.982 80.8682C161.642 80.9143 161.338 80.9897 161.07 81.0946C160.802 81.1994 160.59 81.3461 160.435 81.5348C160.28 81.7193 160.202 81.9582 160.202 82.2517C160.202 82.671 160.355 82.9875 160.661 83.2014C160.967 83.4152 161.357 83.5221 161.831 83.5221ZM172.843 85.1887C171.879 85.1887 171.051 84.9769 170.359 84.5535C169.671 84.13 169.141 83.5452 168.768 82.7989C168.399 82.0484 168.214 81.1847 168.214 80.2078C168.214 79.2267 168.403 78.361 168.78 77.6105C169.158 76.8558 169.69 76.2688 170.378 75.8496C171.069 75.4261 171.887 75.2144 172.83 75.2144C173.614 75.2144 174.308 75.359 174.912 75.6483C175.52 75.9334 176.004 76.338 176.365 76.8621C176.725 77.382 176.931 77.9899 176.981 78.6859H174.805C174.717 78.2205 174.507 77.8327 174.176 77.5224C173.849 77.208 173.411 77.0508 172.862 77.0508C172.396 77.0508 171.988 77.1765 171.635 77.4281C171.283 77.6755 171.009 78.0318 170.812 78.4972C170.619 78.9626 170.522 79.5202 170.522 80.1701C170.522 80.8283 170.619 81.3943 170.812 81.8681C171.004 82.3377 171.275 82.7003 171.623 82.9561C171.975 83.2076 172.388 83.3334 172.862 83.3334C173.197 83.3334 173.497 83.2705 173.761 83.1448C174.029 83.0148 174.254 82.8282 174.434 82.585C174.614 82.3419 174.738 82.0463 174.805 81.6983H176.981C176.927 82.3817 176.725 82.9875 176.377 83.5158C176.029 84.0399 175.556 84.4508 174.956 84.7484C174.356 85.0419 173.652 85.1887 172.843 85.1887ZM172.189 84.9497H173.422L173.321 85.4843C173.715 85.5429 174.048 85.6939 174.321 85.9371C174.598 86.1844 174.736 86.5387 174.736 86.9999C174.74 87.5952 174.474 88.0732 173.937 88.4338C173.401 88.7943 172.635 88.9746 171.642 88.9746L171.617 87.8552C172.099 87.8552 172.482 87.7902 172.767 87.6602C173.053 87.5345 173.197 87.3332 173.201 87.0565C173.21 86.7882 173.109 86.5911 172.9 86.4653C172.694 86.3437 172.367 86.2599 171.918 86.2138L172.189 84.9497ZM181.63 85.195C181.018 85.195 180.467 85.0859 179.976 84.8679C179.49 84.6457 179.104 84.3187 178.819 83.8869C178.538 83.455 178.398 82.9225 178.398 82.2895C178.398 81.7444 178.498 81.2937 178.7 80.9373C178.901 80.581 179.175 80.2959 179.523 80.082C179.871 79.8682 180.263 79.7068 180.699 79.5978C181.14 79.4846 181.595 79.4028 182.064 79.3525C182.63 79.2938 183.089 79.2414 183.441 79.1953C183.794 79.145 184.049 79.0695 184.209 78.9689C184.372 78.8641 184.454 78.7027 184.454 78.4846V78.4469C184.454 77.9731 184.313 77.6063 184.033 77.3463C183.752 77.0864 183.347 76.9564 182.819 76.9564C182.261 76.9564 181.819 77.078 181.492 77.3212C181.169 77.5643 180.951 77.8515 180.838 78.1828L178.712 77.8809C178.88 77.2939 179.157 76.8034 179.542 76.4093C179.928 76.011 180.4 75.7133 180.957 75.5162C181.515 75.315 182.131 75.2144 182.806 75.2144C183.272 75.2144 183.735 75.2689 184.196 75.3779C184.657 75.4869 185.079 75.6672 185.46 75.9187C185.842 76.1661 186.148 76.5036 186.378 76.9313C186.613 77.3589 186.731 77.8935 186.731 78.5349V85H184.542V83.673H184.466C184.328 83.9414 184.133 84.1929 183.882 84.4277C183.634 84.6583 183.322 84.8449 182.945 84.9874C182.571 85.1258 182.133 85.195 181.63 85.195ZM182.221 83.5221C182.678 83.5221 183.075 83.432 183.41 83.2517C183.745 83.0672 184.003 82.824 184.183 82.5221C184.368 82.2203 184.46 81.8912 184.46 81.5348V80.3965C184.389 80.4552 184.267 80.5097 184.095 80.56C183.928 80.6103 183.739 80.6543 183.529 80.6921C183.32 80.7298 183.112 80.7633 182.907 80.7927C182.701 80.822 182.523 80.8472 182.372 80.8682C182.033 80.9143 181.729 80.9897 181.46 81.0946C181.192 81.1994 180.98 81.3461 180.825 81.5348C180.67 81.7193 180.592 81.9582 180.592 82.2517C180.592 82.671 180.746 82.9875 181.052 83.2014C181.358 83.4152 181.748 83.5221 182.221 83.5221ZM197.626 85.1887C196.683 85.1887 195.865 84.9811 195.173 84.5661C194.482 84.151 193.945 83.5703 193.563 82.824C193.186 82.0777 192.997 81.2057 192.997 80.2078C192.997 79.21 193.186 78.3358 193.563 77.5853C193.945 76.8348 194.482 76.2521 195.173 75.837C195.865 75.4219 196.683 75.2144 197.626 75.2144C198.569 75.2144 199.387 75.4219 200.079 75.837C200.771 76.2521 201.305 76.8348 201.683 77.5853C202.064 78.3358 202.255 79.21 202.255 80.2078C202.255 81.2057 202.064 82.0777 201.683 82.824C201.305 83.5703 200.771 84.151 200.079 84.5661C199.387 84.9811 198.569 85.1887 197.626 85.1887ZM197.639 83.3649C198.15 83.3649 198.578 83.2244 198.922 82.9435C199.265 82.6584 199.521 82.2769 199.689 81.7989C199.861 81.321 199.947 80.7885 199.947 80.2015C199.947 79.6104 199.861 79.0758 199.689 78.5978C199.521 78.1157 199.265 77.7321 198.922 77.447C198.578 77.1619 198.15 77.0193 197.639 77.0193C197.115 77.0193 196.679 77.1619 196.331 77.447C195.987 77.7321 195.729 78.1157 195.557 78.5978C195.389 79.0758 195.306 79.6104 195.306 80.2015C195.306 80.7885 195.389 81.321 195.557 81.7989C195.729 82.2769 195.987 82.6584 196.331 82.9435C196.679 83.2244 197.115 83.3649 197.639 83.3649ZM208.58 85V75.3402H210.756V76.9816H210.869C211.07 76.4281 211.404 75.9963 211.869 75.686C212.334 75.3716 212.89 75.2144 213.536 75.2144C214.19 75.2144 214.741 75.3737 215.19 75.6923C215.642 76.0068 215.961 76.4365 216.146 76.9816H216.246C216.46 76.4449 216.821 76.0173 217.328 75.6986C217.839 75.3758 218.445 75.2144 219.145 75.2144C220.034 75.2144 220.76 75.4953 221.321 76.0571C221.883 76.6189 222.164 77.4386 222.164 78.5161V85H219.881V78.8683C219.881 78.2687 219.722 77.8306 219.403 77.5539C219.085 77.273 218.695 77.1325 218.234 77.1325C217.684 77.1325 217.255 77.3044 216.944 77.6482C216.638 77.9878 216.485 78.4301 216.485 78.9752V85H214.253V78.7739C214.253 78.275 214.102 77.8767 213.8 77.579C213.502 77.2813 213.112 77.1325 212.63 77.1325C212.303 77.1325 212.005 77.2164 211.737 77.3841C211.469 77.5476 211.255 77.7803 211.096 78.0821C210.936 78.3798 210.857 78.7278 210.857 79.1261V85H208.58ZM227.253 85.195C226.641 85.195 226.09 85.0859 225.599 84.8679C225.113 84.6457 224.727 84.3187 224.442 83.8869C224.161 83.455 224.021 82.9225 224.021 82.2895C224.021 81.7444 224.122 81.2937 224.323 80.9373C224.524 80.581 224.799 80.2959 225.147 80.082C225.495 79.8682 225.887 79.7068 226.323 79.5978C226.763 79.4846 227.218 79.4028 227.687 79.3525C228.253 79.2938 228.713 79.2414 229.065 79.1953C229.417 79.145 229.673 79.0695 229.832 78.9689C229.995 78.8641 230.077 78.7027 230.077 78.4846V78.4469C230.077 77.9731 229.937 77.6063 229.656 77.3463C229.375 77.0864 228.97 76.9564 228.442 76.9564C227.884 76.9564 227.442 77.078 227.115 77.3212C226.792 77.5643 226.574 77.8515 226.461 78.1828L224.335 77.8809C224.503 77.2939 224.78 76.8034 225.166 76.4093C225.551 76.011 226.023 75.7133 226.581 75.5162C227.138 75.315 227.754 75.2144 228.429 75.2144C228.895 75.2144 229.358 75.2689 229.819 75.3779C230.281 75.4869 230.702 75.6672 231.083 75.9187C231.465 76.1661 231.771 76.5036 232.002 76.9313C232.236 77.3589 232.354 77.8935 232.354 78.5349V85H230.165V83.673H230.09C229.951 83.9414 229.756 84.1929 229.505 84.4277C229.258 84.6583 228.945 84.8449 228.568 84.9874C228.195 85.1258 227.757 85.195 227.253 85.195ZM227.845 83.5221C228.302 83.5221 228.698 83.432 229.033 83.2517C229.369 83.0672 229.626 82.824 229.807 82.5221C229.991 82.2203 230.083 81.8912 230.083 81.5348V80.3965C230.012 80.4552 229.891 80.5097 229.719 80.56C229.551 80.6103 229.362 80.6543 229.153 80.6921C228.943 80.7298 228.736 80.7633 228.53 80.7927C228.325 80.822 228.146 80.8472 227.996 80.8682C227.656 80.9143 227.352 80.9897 227.084 81.0946C226.815 81.1994 226.604 81.3461 226.448 81.5348C226.293 81.7193 226.216 81.9582 226.216 82.2517C226.216 82.671 226.369 82.9875 226.675 83.2014C226.981 83.4152 227.371 83.5221 227.845 83.5221ZM234.643 85V75.3402H236.85V76.9501H236.951C237.127 76.3925 237.429 75.9628 237.857 75.6609C238.288 75.3548 238.781 75.2018 239.335 75.2018C239.46 75.2018 239.601 75.2081 239.756 75.2207C239.915 75.229 240.047 75.2437 240.152 75.2647V77.3589C240.056 77.3254 239.903 77.296 239.693 77.2709C239.488 77.2415 239.288 77.2268 239.096 77.2268C238.681 77.2268 238.307 77.317 237.976 77.4973C237.649 77.6734 237.391 77.9186 237.203 78.2331C237.014 78.5475 236.92 78.9102 236.92 79.3211V85H234.643ZM243.74 81.9687L243.734 79.2204H244.098L247.57 75.3402H250.23L245.96 80.0946H245.488L243.74 81.9687ZM241.665 85V72.1202H243.941V85H241.665ZM247.727 85L244.583 80.604L246.117 79.0003L250.45 85H247.727ZM255.626 85.1887C254.658 85.1887 253.821 84.9874 253.117 84.5849C252.417 84.1782 251.878 83.6039 251.501 82.8618C251.123 82.1155 250.935 81.2371 250.935 80.2267C250.935 79.233 251.123 78.361 251.501 77.6105C251.882 76.8558 252.415 76.2688 253.098 75.8496C253.781 75.4261 254.584 75.2144 255.507 75.2144C256.102 75.2144 256.664 75.3108 257.192 75.5037C257.725 75.6923 258.194 75.9858 258.601 76.3841C259.012 76.7824 259.335 77.2897 259.569 77.906C259.804 78.5182 259.921 79.2477 259.921 80.0946V80.7927H252.004V79.2582H257.739C257.735 78.8221 257.641 78.4343 257.456 78.0947C257.272 77.7509 257.014 77.4805 256.683 77.2834C256.356 77.0864 255.974 76.9879 255.538 76.9879C255.073 76.9879 254.664 77.1011 254.312 77.3275C253.96 77.5497 253.685 77.8432 253.488 78.2079C253.295 78.5685 253.196 78.9647 253.192 79.3965V80.7361C253.192 81.2979 253.295 81.7801 253.5 82.1825C253.706 82.5808 253.993 82.8869 254.362 83.1007C254.731 83.3104 255.163 83.4152 255.658 83.4152C255.989 83.4152 256.289 83.3691 256.557 83.2768C256.825 83.1804 257.058 83.0399 257.255 82.8555C257.452 82.671 257.601 82.4425 257.701 82.17L259.827 82.4089C259.693 82.9708 259.437 83.4613 259.06 83.8806C258.687 84.2956 258.209 84.6185 257.626 84.8491C257.043 85.0755 256.377 85.1887 255.626 85.1887ZM266.671 75.3402V77.1011H261.118V75.3402H266.671ZM262.489 73.0258H264.766V82.0945C264.766 82.4006 264.812 82.6353 264.904 82.7989C265 82.9582 265.126 83.0672 265.281 83.1259C265.436 83.1846 265.608 83.2139 265.797 83.2139C265.939 83.2139 266.069 83.2035 266.187 83.1825C266.308 83.1615 266.401 83.1427 266.464 83.1259L266.847 84.9057C266.726 84.9476 266.552 84.9937 266.325 85.044C266.103 85.0943 265.83 85.1237 265.508 85.1321C264.937 85.1488 264.424 85.0629 263.967 84.8742C263.51 84.6814 263.147 84.3837 262.879 83.9812C262.615 83.5787 262.485 83.0756 262.489 82.4718V73.0258ZM268.575 85V75.3402H270.852V85H268.575ZM269.72 73.9692C269.359 73.9692 269.049 73.8497 268.789 73.6107C268.529 73.3675 268.399 73.0761 268.399 72.7365C268.399 72.3927 268.529 72.1013 268.789 71.8624C269.049 71.6192 269.359 71.4976 269.72 71.4976C270.084 71.4976 270.395 71.6192 270.65 71.8624C270.91 72.1013 271.04 72.3927 271.04 72.7365C271.04 73.0761 270.91 73.3675 270.65 73.6107C270.395 73.8497 270.084 73.9692 269.72 73.9692ZM275.469 79.3399V85H273.193V75.3402H275.369V76.9816H275.482C275.704 76.4407 276.058 76.011 276.545 75.6923C277.035 75.3737 277.641 75.2144 278.362 75.2144C279.029 75.2144 279.61 75.3569 280.104 75.642C280.603 75.9271 280.989 76.3401 281.262 76.8809C281.538 77.4218 281.674 78.0779 281.67 78.8494V85H279.394V79.2016C279.394 78.5559 279.226 78.0507 278.891 77.6859C278.559 77.3212 278.1 77.1388 277.513 77.1388C277.115 77.1388 276.761 77.2268 276.45 77.4029C276.144 77.5748 275.903 77.8243 275.727 78.1513C275.555 78.4783 275.469 78.8745 275.469 79.3399ZM288.186 88.8237C287.368 88.8237 286.666 88.7126 286.079 88.4904C285.492 88.2724 285.02 87.9789 284.664 87.6099C284.307 87.241 284.06 86.8322 283.922 86.3836L285.972 85.8867C286.064 86.0754 286.198 86.262 286.374 86.4465C286.551 86.6351 286.787 86.7903 287.085 86.9118C287.387 87.0376 287.766 87.1005 288.223 87.1005C288.869 87.1005 289.404 86.9433 289.827 86.6288C290.251 86.3186 290.462 85.8071 290.462 85.0943V83.2642H290.349C290.232 83.499 290.06 83.7401 289.833 83.9875C289.611 84.2348 289.316 84.4424 288.947 84.6101C288.582 84.7778 288.123 84.8616 287.569 84.8616C286.827 84.8616 286.154 84.6876 285.551 84.3397C284.951 83.9875 284.473 83.4634 284.117 82.7674C283.765 82.0672 283.588 81.191 283.588 80.1386C283.588 79.0779 283.765 78.1828 284.117 77.4532C284.473 76.7195 284.953 76.164 285.557 75.7867C286.161 75.4051 286.834 75.2144 287.576 75.2144C288.142 75.2144 288.607 75.3108 288.972 75.5037C289.341 75.6923 289.634 75.9208 289.852 76.1892C290.07 76.4533 290.236 76.7028 290.349 76.9375H290.475V75.3402H292.72V85.1572C292.72 85.9832 292.523 86.6666 292.129 87.2074C291.735 87.7483 291.196 88.1529 290.513 88.4212C289.829 88.6895 289.054 88.8237 288.186 88.8237ZM288.205 83.0756C288.687 83.0756 289.098 82.9582 289.437 82.7234C289.777 82.4886 290.035 82.1511 290.211 81.7109C290.387 81.2706 290.475 80.7424 290.475 80.1261C290.475 79.5181 290.387 78.9857 290.211 78.5287C290.039 78.0717 289.783 77.7174 289.443 77.4658C289.108 77.2101 288.695 77.0822 288.205 77.0822C287.697 77.0822 287.274 77.2143 286.934 77.4784C286.595 77.7425 286.339 78.1052 286.167 78.5664C285.995 79.0234 285.909 79.5433 285.909 80.1261C285.909 80.7172 285.995 81.235 286.167 81.6794C286.343 82.1197 286.601 82.4635 286.94 82.7108C287.284 82.954 287.706 83.0756 288.205 83.0756ZM151.754 106.17C150.996 106.17 150.316 105.975 149.717 105.585C149.117 105.195 148.644 104.629 148.296 103.887C147.948 103.145 147.774 102.243 147.774 101.183C147.774 100.109 147.95 99.2037 148.302 98.4658C148.658 97.7237 149.138 97.164 149.742 96.7867C150.346 96.4051 151.019 96.2144 151.761 96.2144C152.327 96.2144 152.792 96.3108 153.157 96.5037C153.522 96.6923 153.811 96.9208 154.025 97.1892C154.239 97.4533 154.404 97.7028 154.522 97.9375H154.616V93.1202H156.899V106H154.66V104.478H154.522C154.404 104.713 154.234 104.962 154.012 105.226C153.79 105.486 153.496 105.709 153.132 105.893C152.767 106.078 152.308 106.17 151.754 106.17ZM152.39 104.302C152.872 104.302 153.283 104.172 153.622 103.912C153.962 103.648 154.22 103.281 154.396 102.811C154.572 102.342 154.66 101.795 154.66 101.17C154.66 100.545 154.572 100.002 154.396 99.5412C154.224 99.08 153.968 98.7216 153.629 98.4658C153.293 98.2101 152.88 98.0822 152.39 98.0822C151.882 98.0822 151.459 98.2143 151.119 98.4784C150.78 98.7425 150.524 99.1073 150.352 99.5727C150.18 100.038 150.094 100.571 150.094 101.17C150.094 101.774 150.18 102.313 150.352 102.786C150.528 103.256 150.786 103.627 151.126 103.899C151.469 104.168 151.891 104.302 152.39 104.302ZM162.105 106.195C161.492 106.195 160.941 106.086 160.451 105.868C159.964 105.646 159.578 105.319 159.293 104.887C159.012 104.455 158.872 103.923 158.872 103.289C158.872 102.744 158.973 102.294 159.174 101.937C159.375 101.581 159.65 101.296 159.998 101.082C160.346 100.868 160.738 100.707 161.174 100.598C161.614 100.485 162.069 100.403 162.538 100.353C163.104 100.294 163.564 100.241 163.916 100.195C164.268 100.145 164.524 100.07 164.683 99.9689C164.847 99.8641 164.928 99.7027 164.928 99.4846V99.4469C164.928 98.9731 164.788 98.6063 164.507 98.3463C164.226 98.0864 163.821 97.9564 163.293 97.9564C162.736 97.9564 162.293 98.078 161.966 98.3212C161.643 98.5643 161.425 98.8515 161.312 99.1828L159.186 98.8809C159.354 98.2939 159.631 97.8034 160.017 97.4093C160.402 97.011 160.874 96.7133 161.432 96.5162C161.989 96.315 162.606 96.2144 163.281 96.2144C163.746 96.2144 164.209 96.2689 164.67 96.3779C165.132 96.4869 165.553 96.6672 165.934 96.9187C166.316 97.1661 166.622 97.5036 166.853 97.9313C167.087 98.3589 167.205 98.8935 167.205 99.5349V106H165.016V104.673H164.941C164.802 104.941 164.608 105.193 164.356 105.428C164.109 105.658 163.796 105.845 163.419 105.987C163.046 106.126 162.608 106.195 162.105 106.195ZM162.696 104.522C163.153 104.522 163.549 104.432 163.884 104.252C164.22 104.067 164.478 103.824 164.658 103.522C164.842 103.22 164.935 102.891 164.935 102.535V101.396C164.863 101.455 164.742 101.51 164.57 101.56C164.402 101.61 164.213 101.654 164.004 101.692C163.794 101.73 163.587 101.763 163.381 101.793C163.176 101.822 162.998 101.847 162.847 101.868C162.507 101.914 162.203 101.99 161.935 102.095C161.666 102.199 161.455 102.346 161.3 102.535C161.144 102.719 161.067 102.958 161.067 103.252C161.067 103.671 161.22 103.988 161.526 104.201C161.832 104.415 162.222 104.522 162.696 104.522ZM181.522 98.8935L179.446 99.1199C179.388 98.9102 179.285 98.7132 179.138 98.5287C178.996 98.3442 178.803 98.1954 178.56 98.0822C178.316 97.969 178.019 97.9124 177.667 97.9124C177.193 97.9124 176.794 98.0151 176.472 98.2206C176.153 98.426 175.996 98.6922 176 99.0193C175.996 99.3002 176.099 99.5287 176.308 99.7047C176.522 99.8808 176.874 100.025 177.365 100.139L179.012 100.491C179.926 100.688 180.606 101 181.05 101.428C181.499 101.856 181.725 102.415 181.729 103.107C181.725 103.715 181.547 104.252 181.195 104.717C180.847 105.178 180.362 105.539 179.742 105.799C179.121 106.059 178.409 106.189 177.604 106.189C176.421 106.189 175.47 105.941 174.748 105.447C174.027 104.948 173.598 104.254 173.459 103.365L175.679 103.151C175.78 103.587 175.994 103.916 176.321 104.138C176.648 104.361 177.073 104.472 177.597 104.472C178.138 104.472 178.572 104.361 178.899 104.138C179.23 103.916 179.396 103.642 179.396 103.315C179.396 103.038 179.289 102.809 179.075 102.629C178.866 102.449 178.539 102.31 178.094 102.214L176.446 101.868C175.52 101.675 174.834 101.35 174.39 100.893C173.946 100.432 173.725 99.8494 173.73 99.145C173.725 98.5497 173.887 98.034 174.214 97.5979C174.545 97.1577 175.004 96.8181 175.591 96.5791C176.182 96.336 176.864 96.2144 177.635 96.2144C178.767 96.2144 179.658 96.4555 180.308 96.9376C180.962 97.4198 181.367 98.0717 181.522 98.8935ZM189.763 101.937V96.3402H192.04V106H189.833V104.283H189.732C189.514 104.824 189.155 105.266 188.657 105.61C188.162 105.954 187.552 106.126 186.826 106.126C186.193 106.126 185.634 105.985 185.147 105.704C184.665 105.419 184.288 105.006 184.015 104.465C183.743 103.92 183.606 103.262 183.606 102.491V96.3402H185.883V102.139C185.883 102.751 186.051 103.237 186.386 103.598C186.722 103.958 187.162 104.138 187.707 104.138C188.042 104.138 188.367 104.057 188.682 103.893C188.996 103.73 189.254 103.487 189.455 103.164C189.661 102.837 189.763 102.428 189.763 101.937ZM197.161 106.195C196.549 106.195 195.997 106.086 195.507 105.868C195.02 105.646 194.635 105.319 194.35 104.887C194.069 104.455 193.928 103.923 193.928 103.289C193.928 102.744 194.029 102.294 194.23 101.937C194.431 101.581 194.706 101.296 195.054 101.082C195.402 100.868 195.794 100.707 196.23 100.598C196.67 100.485 197.125 100.403 197.595 100.353C198.161 100.294 198.62 100.241 198.972 100.195C199.324 100.145 199.58 100.07 199.739 99.9689C199.903 99.8641 199.985 99.7027 199.985 99.4846V99.4469C199.985 98.9731 199.844 98.6063 199.563 98.3463C199.282 98.0864 198.878 97.9564 198.349 97.9564C197.792 97.9564 197.349 98.078 197.022 98.3212C196.7 98.5643 196.482 98.8515 196.368 99.1828L194.243 98.8809C194.41 98.2939 194.687 97.8034 195.073 97.4093C195.459 97.011 195.93 96.7133 196.488 96.5162C197.045 96.315 197.662 96.2144 198.337 96.2144C198.802 96.2144 199.265 96.2689 199.727 96.3779C200.188 96.4869 200.609 96.6672 200.991 96.9187C201.372 97.1661 201.678 97.5036 201.909 97.9313C202.144 98.3589 202.261 98.8935 202.261 99.5349V106H200.073V104.673H199.997C199.859 104.941 199.664 105.193 199.412 105.428C199.165 105.658 198.853 105.845 198.475 105.987C198.102 106.126 197.664 106.195 197.161 106.195ZM197.752 104.522C198.209 104.522 198.605 104.432 198.941 104.252C199.276 104.067 199.534 103.824 199.714 103.522C199.899 103.22 199.991 102.891 199.991 102.535V101.396C199.92 101.455 199.798 101.51 199.626 101.56C199.458 101.61 199.27 101.654 199.06 101.692C198.85 101.73 198.643 101.763 198.437 101.793C198.232 101.822 198.054 101.847 197.903 101.868C197.563 101.914 197.259 101.99 196.991 102.095C196.723 102.199 196.511 102.346 196.356 102.535C196.201 102.719 196.123 102.958 196.123 103.252C196.123 103.671 196.276 103.988 196.582 104.201C196.888 104.415 197.278 104.522 197.752 104.522ZM213.22 106.189C212.251 106.189 211.415 105.987 210.71 105.585C210.01 105.178 209.471 104.604 209.094 103.862C208.717 103.115 208.528 102.237 208.528 101.227C208.528 100.233 208.717 99.361 209.094 98.6105C209.476 97.8558 210.008 97.2688 210.691 96.8496C211.375 96.4261 212.178 96.2144 213.1 96.2144C213.696 96.2144 214.257 96.3108 214.786 96.5037C215.318 96.6923 215.788 96.9858 216.194 97.3841C216.605 97.7824 216.928 98.2897 217.163 98.906C217.398 99.5182 217.515 100.248 217.515 101.095V101.793H209.597V100.258H215.333C215.329 99.8221 215.234 99.4343 215.05 99.0947C214.865 98.7509 214.607 98.4805 214.276 98.2834C213.949 98.0864 213.568 97.9879 213.132 97.9879C212.666 97.9879 212.257 98.1011 211.905 98.3275C211.553 98.5497 211.278 98.8432 211.081 99.2079C210.889 99.5685 210.79 99.9647 210.786 100.397V101.736C210.786 102.298 210.889 102.78 211.094 103.183C211.299 103.581 211.587 103.887 211.956 104.101C212.325 104.31 212.756 104.415 213.251 104.415C213.582 104.415 213.882 104.369 214.15 104.277C214.419 104.18 214.651 104.04 214.848 103.855C215.046 103.671 215.194 103.442 215.295 103.17L217.421 103.409C217.287 103.971 217.031 104.461 216.653 104.881C216.28 105.296 215.802 105.618 215.22 105.849C214.637 106.075 213.97 106.189 213.22 106.189ZM219.441 106V96.3402H221.617V97.9816H221.73C221.931 97.4281 222.265 96.9963 222.73 96.686C223.196 96.3716 223.751 96.2144 224.397 96.2144C225.051 96.2144 225.602 96.3737 226.051 96.6923C226.504 97.0068 226.822 97.4365 227.007 97.9816H227.107C227.321 97.4449 227.682 97.0173 228.189 96.6986C228.7 96.3758 229.306 96.2144 230.006 96.2144C230.895 96.2144 231.621 96.4953 232.182 97.0571C232.744 97.6189 233.025 98.4386 233.025 99.5161V106H230.742V99.8683C230.742 99.2687 230.583 98.8306 230.264 98.5539C229.946 98.273 229.556 98.1325 229.095 98.1325C228.545 98.1325 228.116 98.3044 227.805 98.6482C227.499 98.9878 227.346 99.4301 227.346 99.9752V106H225.114V99.7739C225.114 99.275 224.963 98.8767 224.661 98.579C224.363 98.2813 223.973 98.1325 223.491 98.1325C223.164 98.1325 222.866 98.2164 222.598 98.3841C222.33 98.5476 222.116 98.7803 221.957 99.0821C221.797 99.3798 221.718 99.7278 221.718 100.126V106H219.441ZM235.335 109.622V96.3402H237.574V97.9375H237.706C237.823 97.7028 237.989 97.4533 238.203 97.1892C238.416 96.9208 238.706 96.6923 239.07 96.5037C239.435 96.3108 239.901 96.2144 240.467 96.2144C241.213 96.2144 241.886 96.4051 242.485 96.7867C243.089 97.164 243.567 97.7237 243.919 98.4658C244.276 99.2037 244.454 100.109 244.454 101.183C244.454 102.243 244.28 103.145 243.932 103.887C243.584 104.629 243.11 105.195 242.51 105.585C241.911 105.975 241.232 106.17 240.473 106.17C239.919 106.17 239.46 106.078 239.096 105.893C238.731 105.709 238.437 105.486 238.215 105.226C237.997 104.962 237.827 104.713 237.706 104.478H237.611V109.622H235.335ZM237.567 101.17C237.567 101.795 237.655 102.342 237.831 102.811C238.012 103.281 238.27 103.648 238.605 103.912C238.945 104.172 239.356 104.302 239.838 104.302C240.341 104.302 240.762 104.168 241.102 103.899C241.441 103.627 241.697 103.256 241.869 102.786C242.045 102.313 242.133 101.774 242.133 101.17C242.133 100.571 242.047 100.038 241.875 99.5727C241.703 99.1073 241.448 98.7425 241.108 98.4784C240.768 98.2143 240.345 98.0822 239.838 98.0822C239.351 98.0822 238.938 98.2101 238.599 98.4658C238.259 98.7216 238.001 99.08 237.825 99.5412C237.653 100.002 237.567 100.545 237.567 101.17ZM246.403 106V96.3402H248.611V97.9501H248.711C248.887 97.3925 249.189 96.9628 249.617 96.6609C250.049 96.3548 250.541 96.2018 251.095 96.2018C251.221 96.2018 251.361 96.2081 251.516 96.2207C251.676 96.229 251.808 96.2437 251.912 96.2647V98.3589C251.816 98.3254 251.663 98.296 251.453 98.2709C251.248 98.2415 251.049 98.2268 250.856 98.2268C250.441 98.2268 250.068 98.317 249.737 98.4973C249.409 98.6734 249.152 98.9186 248.963 99.2331C248.774 99.5475 248.68 99.9102 248.68 100.321V106H246.403ZM257.304 106.189C256.335 106.189 255.499 105.987 254.794 105.585C254.094 105.178 253.555 104.604 253.178 103.862C252.801 103.115 252.612 102.237 252.612 101.227C252.612 100.233 252.801 99.361 253.178 98.6105C253.56 97.8558 254.092 97.2688 254.776 96.8496C255.459 96.4261 256.262 96.2144 257.184 96.2144C257.78 96.2144 258.341 96.3108 258.87 96.5037C259.402 96.6923 259.872 96.9858 260.278 97.3841C260.689 97.7824 261.012 98.2897 261.247 98.906C261.482 99.5182 261.599 100.248 261.599 101.095V101.793H253.681V100.258H259.417C259.413 99.8221 259.318 99.4343 259.134 99.0947C258.949 98.7509 258.691 98.4805 258.36 98.2834C258.033 98.0864 257.652 97.9879 257.216 97.9879C256.75 97.9879 256.341 98.1011 255.989 98.3275C255.637 98.5497 255.363 98.8432 255.165 99.2079C254.973 99.5685 254.874 99.9647 254.87 100.397V101.736C254.87 102.298 254.973 102.78 255.178 103.183C255.383 103.581 255.671 103.887 256.04 104.101C256.409 104.31 256.84 104.415 257.335 104.415C257.666 104.415 257.966 104.369 258.234 104.277C258.503 104.18 258.735 104.04 258.933 103.855C259.13 103.671 259.278 103.442 259.379 103.17L261.505 103.409C261.371 103.971 261.115 104.461 260.737 104.881C260.364 105.296 259.886 105.618 259.304 105.849C258.721 106.075 258.054 106.189 257.304 106.189ZM271.16 98.8935L269.084 99.1199C269.026 98.9102 268.923 98.7132 268.776 98.5287C268.634 98.3442 268.441 98.1954 268.198 98.0822C267.955 97.969 267.657 97.9124 267.305 97.9124C266.831 97.9124 266.433 98.0151 266.11 98.2206C265.791 98.426 265.634 98.6922 265.638 99.0193C265.634 99.3002 265.737 99.5287 265.946 99.7047C266.16 99.8808 266.512 100.025 267.003 100.139L268.651 100.491C269.565 100.688 270.244 101 270.688 101.428C271.137 101.856 271.363 102.415 271.367 103.107C271.363 103.715 271.185 104.252 270.833 104.717C270.485 105.178 270.001 105.539 269.38 105.799C268.76 106.059 268.047 106.189 267.242 106.189C266.06 106.189 265.108 105.941 264.387 105.447C263.666 104.948 263.236 104.254 263.097 103.365L265.317 103.151C265.418 103.587 265.632 103.916 265.959 104.138C266.286 104.361 266.711 104.472 267.236 104.472C267.776 104.472 268.21 104.361 268.537 104.138C268.869 103.916 269.034 103.642 269.034 103.315C269.034 103.038 268.927 102.809 268.713 102.629C268.504 102.449 268.177 102.31 267.732 102.214L266.085 101.868C265.158 101.675 264.473 101.35 264.028 100.893C263.584 100.432 263.364 99.8494 263.368 99.145C263.364 98.5497 263.525 98.034 263.852 97.5979C264.183 97.1577 264.642 96.8181 265.229 96.5791C265.821 96.336 266.502 96.2144 267.273 96.2144C268.405 96.2144 269.296 96.4555 269.946 96.9376C270.6 97.4198 271.005 98.0717 271.16 98.8935ZM276.024 106.195C275.412 106.195 274.861 106.086 274.37 105.868C273.884 105.646 273.498 105.319 273.213 104.887C272.932 104.455 272.792 103.923 272.792 103.289C272.792 102.744 272.892 102.294 273.094 101.937C273.295 101.581 273.57 101.296 273.918 101.082C274.266 100.868 274.658 100.707 275.094 100.598C275.534 100.485 275.989 100.403 276.458 100.353C277.024 100.294 277.483 100.241 277.836 100.195C278.188 100.145 278.444 100.07 278.603 99.9689C278.766 99.8641 278.848 99.7027 278.848 99.4846V99.4469C278.848 98.9731 278.708 98.6063 278.427 98.3463C278.146 98.0864 277.741 97.9564 277.213 97.9564C276.655 97.9564 276.213 98.078 275.886 98.3212C275.563 98.5643 275.345 98.8515 275.232 99.1828L273.106 98.8809C273.274 98.2939 273.551 97.8034 273.936 97.4093C274.322 97.011 274.794 96.7133 275.351 96.5162C275.909 96.315 276.525 96.2144 277.2 96.2144C277.666 96.2144 278.129 96.2689 278.59 96.3779C279.051 96.4869 279.473 96.6672 279.854 96.9187C280.236 97.1661 280.542 97.5036 280.773 97.9313C281.007 98.3589 281.125 98.8935 281.125 99.5349V106H278.936V104.673H278.861C278.722 104.941 278.527 105.193 278.276 105.428C278.028 105.658 277.716 105.845 277.339 105.987C276.966 106.126 276.527 106.195 276.024 106.195ZM276.616 104.522C277.073 104.522 277.469 104.432 277.804 104.252C278.14 104.067 278.397 103.824 278.578 103.522C278.762 103.22 278.854 102.891 278.854 102.535V101.396C278.783 101.455 278.662 101.51 278.49 101.56C278.322 101.61 278.133 101.654 277.924 101.692C277.714 101.73 277.506 101.763 277.301 101.793C277.096 101.822 276.917 101.847 276.766 101.868C276.427 101.914 276.123 101.99 275.855 102.095C275.586 102.199 275.375 102.346 275.219 102.535C275.064 102.719 274.987 102.958 274.987 103.252C274.987 103.671 275.14 103.988 275.446 104.201C275.752 104.415 276.142 104.522 276.616 104.522Z" fill="white"/>
<path d="M295.908 64.2051H144.645V114.376H295.908V64.2051Z" stroke="#0072F7" stroke-width="0.748824"/>
<path d="M308.103 120.945C308.061 120.987 308.012 121.022 307.956 121.05L304.432 122.76C304.371 122.79 304.32 122.84 304.29 122.901L302.58 126.425C302.486 126.619 302.286 126.74 302.07 126.731C301.855 126.724 301.663 126.589 301.584 126.389L297.819 116.996C297.737 116.793 297.784 116.563 297.939 116.408C298.094 116.253 298.326 116.206 298.528 116.287L307.921 120.052C308.121 120.132 308.255 120.322 308.264 120.537C308.269 120.693 308.21 120.84 308.103 120.945ZM304.126 122.596L302.105 125.804L303.662 122.596C303.759 122.393 303.926 122.229 304.126 122.131L307.334 120.574L304.126 122.596Z" fill="white"/>
</g>
</g>
</g>
<defs>
<filter id="filter0_b_805_11020" x="-23.2507" y="-23.5652" width="573.168" height="366.492" filterUnits="userSpaceOnUse" color-interpolation-filters="sRGB">
<feFlood flood-opacity="0" result="BackgroundImageFix"/>
<feGaussianBlur in="BackgroundImageFix" stdDeviation="11.8734"/>
<feComposite in2="SourceAlpha" operator="in" result="effect1_backgroundBlur_805_11020"/>
<feBlend mode="normal" in="SourceGraphic" in2="effect1_backgroundBlur_805_11020" result="shape"/>
</filter>
<clipPath id="clip0_805_11020">
<rect x="0.496094" y="0.181641" width="525.674" height="318.999" rx="10.2903" fill="white"/>
</clipPath>
</defs>
</svg>
